<svg width="60" height="59" viewBox="0 0 60 59" fill="none" xmlns="http://www.w3.org/2000/svg">
<circle cx="12.3" cy="12.3" r="12.3" transform="matrix(-1 0 0 1 37.05 3.2251)" fill="#518AF5" stroke="#518AF5" stroke-width="4.6125"/>
<path d="M3.22498 46.0742C3.22498 43.4286 4.8881 41.0686 7.37958 40.1788V40.1788C18.6124 36.1671 30.8876 36.1671 42.1204 40.1788V40.1788C44.6118 41.0686 46.275 43.4286 46.275 46.0742V50.1194C46.275 53.7708 43.041 56.5756 39.4263 56.0592L36.4915 55.64C28.7033 54.5274 20.7966 54.5274 13.0085 55.64L10.0736 56.0592C6.45897 56.5756 3.22498 53.7708 3.22498 50.1194V46.0742Z" fill="#518AF5" stroke="#518AF5" stroke-width="4.6125"/>
<path d="M44.9999 27.0005H56.9999" stroke="#518AF5" stroke-width="4.6125" stroke-linecap="round" stroke-linejoin="round"/>
<path d="M50.9999 21.0005L50.9999 33.0005" stroke="#518AF5" stroke-width="4.6125" stroke-linecap="round" stroke-linejoin="round"/>
</svg>
