<svg
											width="17"
											height="16"
											viewBox="0 0 17 16"
											fill="none"
											xmlns="http://www.w3.org/2000/svg"										
										>
											<path
												d="M13.5077 6.78633L8.7797 11.5143C8.73579 11.5583 8.68365 11.5932 8.62625 11.6169C8.56885 11.6407 8.50733 11.653 8.4452 11.653C8.38306 11.653 8.32154 11.6407 8.26414 11.6169C8.20674 11.5932 8.1546 11.5583 8.11069 11.5143L3.3827 6.78633C3.29398 6.69761 3.24414 6.57729 3.24414 6.45182C3.24414 6.32636 3.29398 6.20603 3.3827 6.11732C3.47141 6.0286 3.59174 5.97876 3.7172 5.97876C3.84267 5.97876 3.96299 6.0286 4.05171 6.11732L8.4452 10.5114L12.8387 6.11732C12.8826 6.07339 12.9348 6.03854 12.9922 6.01477C13.0495 5.991 13.1111 5.97876 13.1732 5.97876C13.2353 5.97876 13.2968 5.991 13.3542 6.01477C13.4116 6.03854 13.4638 6.07339 13.5077 6.11732C13.5516 6.16124 13.5865 6.21339 13.6102 6.27079C13.634 6.32818 13.6463 6.3897 13.6463 6.45182C13.6463 6.51395 13.634 6.57546 13.6102 6.63286C13.5865 6.69025 13.5516 6.7424 13.5077 6.78633Z"
												fill="black"
											/>
										</svg>