<svg width="510" height="314" viewBox="0 0 510 314" fill="none" xmlns="http://www.w3.org/2000/svg">
<g clip-path="url(#clip0_4127_535)">
<path d="M453.748 212.963L355.226 248.188L353.842 247.966L317.052 242.05L311.843 241.239L296.91 238.844L291.596 237.986L230.589 228.187L225.415 227.358L198.313 223.007L193.109 222.172L138.59 213.412L133.509 212.601L122.595 210.849L117.485 210.025L104.941 208.011L111.949 206.358L116.954 205.19L121.859 204.022L132.476 201.534L137.358 200.367L191.667 187.624L196.923 186.392L215.551 182.024L219.727 181.043L221.642 180.593L228.533 181.615L233.947 182.369L267.969 187.11L293.021 190.614L298.23 191.333L314.354 193.581L319.411 194.287L355.833 199.362L358.484 199.73L354.846 201.126C354.56 201.669 354.262 202.294 353.941 202.93C353.941 202.977 353.9 203.024 353.883 203.064C353.637 203.584 353.41 204.104 353.194 204.618C348.89 214.896 349.596 224.543 350.093 230.488C350.471 234.951 351.271 239.368 352.481 243.68C381.02 233.793 416.63 221.588 444.941 211.777L453.748 212.963Z" fill="#FFB6C1"/>
<path d="M444.934 166.514C444.937 166.549 444.937 166.584 444.934 166.619C444.934 182.514 444.934 195.817 444.934 211.731L358.483 199.718L354.845 201.114C354.558 201.657 354.261 202.282 353.939 202.918C353.939 202.965 353.898 203.012 353.881 203.053C353.636 203.573 353.408 204.092 353.192 204.606C348.888 214.884 349.595 224.531 350.091 230.476C350.47 234.939 351.269 239.356 352.479 243.668L351.037 244.164L316.297 238.681L311.193 237.869L295.98 235.469L290.724 234.64L230.044 225.022L224.899 224.204L197.663 219.9L192.477 219.083L138.168 210.504L133.146 209.704L122.266 207.987L117.174 207.181L111.977 206.358L111.393 206.27L116.934 204.881L121.834 203.654L132.462 200.986L137.35 199.759L192.004 186.053L197.394 184.699L210.936 181.306L214.954 180.295L219.217 179.227L221.81 178.579L222.032 178.52L444.934 166.514Z" fill="#E8F9F6"/>
<path d="M351.039 244.135L111.418 206.27L222.057 178.514L444.942 166.514C444.942 182.456 444.942 195.794 444.942 211.736C416.164 221.711 379.823 234.173 351.039 244.135Z" fill="#E8F9F6"/>
<path d="M348.913 242.226C354.683 218.16 378.153 205.815 398.417 195.461C403.386 192.921 408.297 190.27 413.331 187.87C418.622 185.312 423.954 182.842 429.099 180.038C434.675 177.019 440.352 173.469 444.918 168.943C444.918 168.581 444.918 168.225 444.918 167.857L222.057 179.828L111.418 207.584L348.329 245.023C348.499 244.1 348.692 243.142 348.913 242.226Z" fill="black"/>
<path d="M355.944 199.134L355.833 199.321C355.553 199.806 355.214 200.396 354.846 201.073C354.56 201.616 354.262 202.241 353.941 202.878C353.941 202.924 353.9 202.971 353.882 203.012C353.637 203.532 353.409 204.051 353.193 204.565C348.89 214.843 349.596 224.49 350.093 230.435C350.471 234.898 351.271 239.315 352.481 243.627C352.872 245.029 353.322 246.477 353.842 247.972L317.051 242.173L311.883 241.355L296.951 239.02L291.637 238.184L230.67 228.578L225.49 227.749L198.435 223.486L193.226 222.663L138.695 214.09L133.614 213.29L122.688 211.567L117.573 210.761L101.069 208.162C100.801 207.351 100.485 206.381 100.217 205.278C100.164 205.073 100.106 204.857 100.053 204.641C99.9482 204.227 99.849 203.794 99.7439 203.345C99.7088 203.152 99.6679 202.965 99.6271 202.761C99.5453 202.375 99.4635 201.978 99.3876 201.593C99.3468 201.377 99.3059 201.161 99.2708 200.945C99.1832 200.425 99.0956 199.882 99.0139 199.327C98.3082 194.319 98.3436 189.235 99.119 184.237C99.2008 183.712 99.2883 183.186 99.3818 182.672C99.4285 182.415 99.4811 182.164 99.5336 181.907C99.7147 180.984 99.9249 180.079 100.153 179.203C100.24 178.888 100.322 178.573 100.41 178.263C100.497 177.954 100.585 177.644 100.678 177.34C100.772 177.037 100.859 176.757 100.959 176.441C101.145 175.857 101.344 175.273 101.542 174.689C101.741 174.105 101.975 173.521 102.202 172.967C102.29 172.739 102.383 172.517 102.471 172.301C103.026 170.963 103.61 169.725 104.223 168.575C104.392 168.242 104.573 167.909 104.743 167.594C104.83 167.43 104.918 167.279 105.005 167.121C105.21 166.741 105.426 166.373 105.63 166.011C105.835 165.649 106.121 165.188 106.36 164.803L106.716 164.219C107.067 163.676 107.4 163.179 107.721 162.718C107.861 162.513 108.001 162.309 108.136 162.134L108.679 161.386L118.367 162.712L122.91 163.349C125.339 163.681 127.757 164.026 130.18 164.376C133.879 164.902 137.566 165.437 141.241 165.982L146.59 166.765C159.157 168.633 171.635 170.549 184.023 172.511C188.157 173.161 192.288 173.815 196.415 174.473L201.67 175.314L221.835 178.567L229.637 179.863L235.225 180.768C241.883 181.835 248.54 182.896 255.197 183.951L259.022 184.57C270.41 186.4 281.834 188.206 293.295 189.989L298.499 190.789C303.805 191.607 309.133 192.415 314.482 193.213L319.533 193.966L328.573 195.292L333.111 195.94C337.654 196.594 342.213 197.236 346.787 197.867L351.348 198.492L355.944 199.134Z" fill="#FFF4E1"/>
<path d="M124.387 163.57L124.141 163.892C123.809 164.341 123.482 164.797 123.172 165.27C122.863 165.743 122.536 166.263 122.238 166.776C119.814 171.134 118.198 175.894 117.467 180.827C116.188 188.728 116.299 196.839 116.988 204.881C116.988 204.986 116.988 205.085 116.988 205.184C117.046 205.85 117.11 206.516 117.181 207.181C117.28 208.133 117.385 209.079 117.496 210.025C117.496 210.271 117.548 210.516 117.578 210.761L101.075 208.157C100.806 207.345 100.491 206.376 100.222 205.272C100.169 205.067 100.111 204.851 100.058 204.635C99.9533 204.221 99.8541 203.789 99.749 203.339C99.7139 203.146 99.673 202.959 99.6322 202.755C99.5504 202.37 99.4686 201.972 99.3927 201.587C99.3519 201.371 99.311 201.155 99.2759 200.939C99.1883 200.419 99.1007 199.876 99.019 199.321C98.9372 198.766 98.8788 198.253 98.8204 197.698C98.3285 193.215 98.4286 188.688 99.1183 184.231C99.2 183.7 99.2876 183.18 99.3869 182.666C99.4336 182.409 99.4862 182.158 99.5387 181.901C99.7198 180.979 99.93 180.073 100.158 179.198C100.245 178.882 100.327 178.567 100.415 178.257C100.502 177.948 100.59 177.638 100.683 177.335C100.777 177.031 100.864 176.751 100.964 176.435C101.15 175.851 101.349 175.267 101.548 174.683C101.746 174.099 101.98 173.515 102.207 172.961C102.295 172.733 102.389 172.511 102.476 172.295C103.031 170.958 103.615 169.72 104.228 168.569C104.397 168.236 104.573 167.909 104.748 167.588C104.835 167.425 104.923 167.273 105.011 167.115C105.215 166.736 105.431 166.368 105.635 166.006C105.84 165.644 106.126 165.182 106.365 164.797L106.722 164.213C107.072 163.67 107.405 163.173 107.726 162.712C107.866 162.508 108.006 162.303 108.141 162.128L108.684 161.381L118.372 162.706C118.845 162.919 119.341 163.08 119.849 163.185H119.896C120.046 163.218 120.198 163.241 120.351 163.255C120.619 163.28 120.884 163.323 121.146 163.384H121.192C121.458 163.462 121.733 163.507 122.01 163.518C122.316 163.512 122.617 163.447 122.898 163.325L124.387 163.57Z" fill="#FFB6C1"/>
<path d="M132.655 192.571C133.368 183.16 136.302 174.052 141.216 165.994C137.537 165.453 133.85 164.918 130.156 164.388C128.513 165.903 127.132 167.679 126.068 169.644C120.672 179.571 120.981 192.273 121.817 203.222C122.033 206.008 122.33 208.782 122.681 211.544L133.607 213.266C132.536 206.423 132.217 199.483 132.655 192.571Z" fill="#FFB6C1"/>
<path d="M293.025 189.732C273.55 186.713 254.244 183.595 234.949 180.471C232.438 183.256 230.861 186.783 229.863 190.398C226.943 200.805 227.912 212.355 229.489 222.896C229.758 224.691 230.056 226.484 230.383 228.275L291.367 237.887C287.215 222.324 285.509 204.285 293.025 189.732Z" fill="#FFB6C1"/>
<path d="M314.214 192.956C308.873 192.154 303.543 191.346 298.225 190.532C289.973 204.816 292.286 223.504 296.689 238.751L311.621 241.087C308.176 224.899 307.37 207.894 314.214 192.956Z" fill="#FFB6C1"/>
<path d="M355.669 198.86L355.558 199.047C355.272 199.531 354.939 200.121 354.571 200.799C354.28 201.342 353.988 201.967 353.666 202.609C353.666 202.65 353.625 202.697 353.602 202.743C353.363 203.263 353.129 203.777 352.919 204.297C348.633 214.58 349.322 224.245 349.8 230.167C350.179 234.631 350.979 239.05 352.189 243.364C352.58 244.76 353.03 246.214 353.544 247.703L316.753 241.91C316.747 241.867 316.737 241.824 316.724 241.782C316.467 240.649 316.222 239.504 315.988 238.36C313.285 224.928 312.543 210.913 317.156 198.445C317.349 197.92 317.554 197.394 317.77 196.88C318.027 196.25 318.301 195.625 318.593 195C318.757 194.649 318.92 194.305 319.095 193.96L319.224 193.692C322.229 194.143 325.242 194.585 328.264 195.017L332.795 195.671C337.338 196.325 341.899 196.968 346.478 197.598L351.038 198.223L355.669 198.86Z" fill="#FFB6C1"/>
<path d="M223.255 202.089C223.564 194.498 224.942 185.972 229.363 179.565C220.051 178.051 210.726 176.546 201.391 175.051C199.876 177.309 198.668 179.758 197.799 182.334C194.418 192.156 194.833 203.146 196.304 213.284C196.783 216.607 197.396 219.935 198.156 223.212L225.217 227.475C223.642 219.109 222.984 210.597 223.255 202.089Z" fill="#FFB6C1"/>
<path d="M190.585 193.604C191.134 186.888 192.751 180.027 196.115 174.21C179.612 171.577 163.039 168.99 146.29 166.502C140.98 174.543 137.858 183.83 137.233 193.446C136.866 200.258 137.257 207.09 138.401 213.815L192.932 222.406C190.842 212.98 189.79 203.222 190.585 193.604Z" fill="#FFB6C1"/>
<path d="M449.723 164.079L442.984 166.63L356.825 199.286L353.198 200.658L317.389 194.965L312.437 194.182L296.454 191.642L291.35 190.83L266.636 186.9L233.239 181.592L227.82 180.733L218.085 179.186L199.952 176.301L194.784 175.478L145.258 167.612L139.996 166.771L128.906 165.013L123.312 164.119L121.198 163.787H121.192L120.386 163.658L120.357 163.652L119.545 163.524L119.534 163.518L119.078 163.448L119.031 163.442L108.654 161.398L214.598 133.373L449.723 164.079Z" fill="#FFB6C1"/>
<path d="M353.887 204.337C353.641 204.851 353.414 205.371 353.198 205.891L317.476 200.051L312.606 199.257L296.319 196.588L291.332 195.771L232.421 186.123L227.305 185.288L215.585 183.367L210.96 182.614L209.447 182.363L199.368 180.716L194.369 179.892L144.381 171.717L139.219 170.87L127.347 168.931L122.213 168.09L106.697 165.55C107.048 165.013 107.381 164.511 107.702 164.055L123.148 166.578L128.485 167.448L140.036 169.352L145.251 170.204L195.058 178.38L200.127 179.203L214.977 181.615L216.274 181.825L219.778 182.409L228.082 183.764L233.337 184.623L291.986 194.217L297.025 195.046L313.207 197.692L318.118 198.498L353.887 204.337Z" fill="black"/>
<path d="M137.723 162.765L125.162 161.468L137.163 159.518C137.326 160.592 137.519 161.684 137.723 162.765Z" fill="#40A15E"/>
<path d="M473.981 163.156L375.874 187.28L374.49 187.134C372.485 183.483 371.146 179.505 370.537 175.384C369.953 171.18 369.059 164.207 374.041 156.866C374.338 156.423 374.625 156.02 374.922 155.652C375.279 155.185 375.606 154.793 375.886 154.484L378.555 154.717L473.981 163.156Z" fill="#89CFF0"/>
<path d="M371.659 184.564L131.611 160.271L241.918 141.123L464.645 132.024C464.855 142.728 464.966 151.681 465.176 162.391C436.515 169.206 400.32 177.738 371.659 184.564Z" fill="#E8F9F6"/>
<path d="M386.848 160.189C389.421 158.903 392.087 157.814 394.825 156.931C399.888 154.939 405.114 153.339 410.3 151.821C419.474 149.129 428.654 146.6 437.7 143.488C446.746 140.375 455.756 137.152 464.65 133.624V133.338L241.924 142.437L131.611 161.585L371.659 185.878L375.7 184.915C375.395 184.596 375.118 184.252 374.871 183.887C373.119 181.323 373.066 178.187 373.808 175.267C375.262 169.58 379.431 164.662 384.471 161.795L385.878 161.019C386.127 160.665 386.46 160.38 386.848 160.189Z" fill="black"/>
<path d="M144.055 131.551C143.979 131.627 143.897 131.691 143.816 131.767L142.426 131.627C142.478 131.557 142.537 131.493 142.583 131.417L144.055 131.551Z" fill="#40A15E"/>
<path d="M137.165 159.518C137.328 160.604 137.521 161.684 137.749 162.765L125.188 161.468L137.165 159.518Z" fill="#40A15E"/>
<path d="M153.786 164.417L153.891 164.879L142.947 163.775L137.826 163.255C137.791 163.092 137.762 162.928 137.727 162.765L142.854 163.29L153.786 164.417Z" fill="#89CFF0"/>
<path d="M374.508 187.14L337.66 183.42L332.48 182.894L317.525 181.393L312.199 180.85L251.109 174.689L245.935 174.164L218.827 171.431L213.613 170.905L158.988 165.392C158.947 165.241 158.912 165.095 158.877 164.943L213.496 170.566L218.717 171.098L245.854 173.895L251.028 174.426L312.146 180.716L317.472 181.265L332.451 182.783L337.631 183.32L374.508 187.11V187.14Z" fill="#89CFF0"/>
<path d="M235.038 110.441L131.529 129.572L128.328 130.156C128.118 130.342 127.896 130.559 127.663 130.786C124.883 133.484 120.544 138.53 119.055 145.514C117.929 150.964 118.717 156.636 121.286 161.573L137.818 163.261C137.783 163.097 137.754 162.934 137.719 162.77L125.152 161.468L132.159 160.329L137.146 159.518C137.217 159.962 137.287 160.411 137.363 160.855C137.473 161.497 137.584 162.128 137.707 162.77L142.829 163.29L153.766 164.417L153.871 164.879L158.958 165.392C158.923 165.241 158.888 165.089 158.847 164.943L213.472 170.566L218.686 171.098L245.853 173.895L251.027 174.427L312.139 180.716L317.471 181.265L332.45 182.783L337.63 183.32L374.502 187.11C373.964 186.112 373.497 185.137 373.089 184.191C371.848 181.372 370.995 178.397 370.554 175.349C369.97 171.296 369.141 164.686 373.544 157.643C373.713 157.375 373.894 157.106 374.075 156.831C374.256 156.557 374.42 156.335 374.589 156.107L374.963 155.617C375.319 155.15 375.646 154.758 375.927 154.449L378.595 154.682L464.644 132.089L471.371 130.337L235.038 110.441ZM144.055 131.551L143.815 131.767L142.42 131.621C142.479 131.558 142.531 131.49 142.577 131.417L144.055 131.551Z" fill="#89CFF0"/>
<path d="M137.723 162.765L125.162 161.468L137.163 159.518C137.326 160.592 137.519 161.684 137.723 162.765Z" fill="#89CFF0"/>
<path d="M144.055 131.551C143.979 131.627 143.897 131.691 143.816 131.767L142.426 131.627C142.478 131.557 142.537 131.493 142.583 131.417L144.055 131.551Z" fill="#40A15E"/>
<path d="M153.891 164.879L142.947 163.775C142.912 163.611 142.883 163.454 142.854 163.29L153.785 164.417L153.891 164.879Z" fill="#89CFF0"/>
<path d="M312.198 180.85L251.109 174.689C251.109 174.602 251.062 174.514 251.033 174.426L312.152 180.716L312.198 180.85Z" fill="#89CFF0"/>
<path d="M332.479 182.894L317.523 181.387L317.471 181.259L332.45 182.783C332.462 182.819 332.472 182.856 332.479 182.894Z" fill="#40A15E"/>
<path d="M374.507 187.14L337.658 183.42C337.658 183.42 337.658 183.367 337.629 183.344L374.507 187.134V187.14Z" fill="#40A15E"/>
<path d="M245.93 174.164L218.822 171.425C218.781 171.314 218.746 171.203 218.711 171.092L245.854 173.895C245.854 173.983 245.901 174.076 245.93 174.164Z" fill="#89CFF0"/>
<path d="M213.607 170.905L158.982 165.392C158.941 165.241 158.906 165.095 158.871 164.943L213.49 170.566C213.531 170.677 213.566 170.794 213.607 170.905Z" fill="#89CFF0"/>
<path d="M144.055 131.551C143.979 131.627 143.897 131.691 143.816 131.767L142.426 131.627C142.478 131.557 142.537 131.493 142.583 131.417L144.055 131.551Z" fill="#40A15E"/>
<path d="M378.597 154.694L374.965 155.652C375.321 155.185 375.648 154.793 375.928 154.484L378.597 154.694Z" fill="#40A15E"/>
<path d="M373.89 155.652L240.657 141.864L132.038 130.617L128.838 131.23C128.627 131.423 128.405 131.633 128.172 131.867L234.846 142.904L372.85 157.193L373.89 155.652Z" fill="black"/>
<path d="M487.453 122.634L388.925 157.871L387.535 157.649L350.745 151.739L345.583 150.91L330.621 148.504L325.307 147.651L264.3 137.858L259.137 137.029L232.035 132.678L226.832 131.837L172.307 123.078L167.232 122.26L156.318 120.508L151.202 119.714L138.658 117.705L145.666 116.053L150.676 114.885L155.582 113.717L166.198 111.229L171.074 110.061L225.384 97.3247L230.64 96.0925L249.268 91.7186L253.444 90.7434L255.359 90.2937L262.215 91.2514L267.628 92.0047L301.651 96.7408L326.703 100.245L331.906 100.969L348.047 103.211L353.128 103.947L389.55 109.022L392.201 109.39L388.563 110.779C388.271 111.323 387.979 111.947 387.658 112.59C387.658 112.631 387.617 112.677 387.594 112.724C387.354 113.244 387.121 113.758 386.905 114.277C382.607 124.555 383.313 134.203 383.804 140.142C384.185 144.606 384.986 149.025 386.198 153.339C414.737 143.453 450.347 131.242 478.652 121.437L487.453 122.634Z" fill="#7573F1"/>
<path d="M478.655 76.1849V76.29C478.655 92.1858 478.655 105.489 478.655 121.402L392.227 109.355L388.589 110.744C388.297 111.287 388.005 111.912 387.683 112.555C387.683 112.596 387.643 112.642 387.619 112.689C387.38 113.209 387.146 113.723 386.93 114.242C382.632 124.52 383.339 134.167 383.829 140.106C384.21 144.571 385.012 148.99 386.224 153.304L384.781 153.801L350.035 148.311L344.931 147.505L329.748 145.105L324.492 144.276L263.765 134.687L258.62 133.875L231.378 129.572L226.198 128.754L171.888 120.176L166.855 119.375L155.975 117.659L150.883 116.853L145.68 116.029L145.125 115.942L150.661 114.552L155.566 113.32L166.189 110.657L171.077 109.43L225.736 95.7188L231.127 94.3698L244.686 90.9711L248.698 89.9667L252.967 88.898L255.554 88.2439L255.782 88.1855L478.655 76.1849Z" fill="#E8F9F6"/>
<path d="M384.756 153.806L145.135 115.942L255.78 88.1797L478.659 76.1791C478.659 92.1215 478.659 105.459 478.659 121.396C449.875 131.394 413.534 143.832 384.756 153.806Z" fill="#E8F9F6"/>
<path d="M382.63 151.897C388.4 127.831 411.864 115.486 432.139 105.115C437.115 102.575 442.026 99.9234 447.054 97.4941C452.351 94.9421 457.682 92.4719 462.85 89.6689C468.422 86.6439 474.098 83.0992 478.664 78.5734V77.493L255.78 89.4995L145.135 117.25L382.046 154.688C382.21 153.742 382.408 152.808 382.63 151.897Z" fill="black"/>
<path d="M389.663 108.806L389.553 108.992C389.266 109.477 388.934 110.067 388.566 110.744C388.274 111.288 387.982 111.912 387.66 112.555C387.66 112.596 387.62 112.642 387.596 112.689C387.357 113.209 387.123 113.723 386.907 114.242C382.609 124.52 383.316 134.168 383.806 140.107C384.187 144.571 384.989 148.99 386.201 153.304C386.586 154.7 387.041 156.154 387.555 157.643L350.765 151.85L345.603 151.033L330.665 148.697L325.351 147.862L264.372 138.249L259.21 137.438L232.149 133.175C230.397 132.894 228.68 132.626 226.946 132.351L172.414 123.761L167.334 122.961L156.408 121.238L151.292 120.432L134.783 117.834C134.52 117.016 134.199 116.053 133.931 114.949C133.878 114.745 133.825 114.529 133.767 114.312C133.668 113.898 133.563 113.46 133.463 113.01C133.423 112.823 133.382 112.636 133.341 112.426C133.259 112.047 133.183 111.65 133.101 111.258C133.066 111.042 133.02 110.826 132.99 110.604C132.897 110.085 132.815 109.547 132.733 108.992C132.028 103.983 132.062 98.8968 132.833 93.8968C132.914 93.3713 133.008 92.8515 133.101 92.3376C133.148 92.0807 133.201 91.8237 133.247 91.5726C133.434 90.6441 133.644 89.7448 133.872 88.8688C133.954 88.5476 134.036 88.2381 134.129 87.9228C134.223 87.6075 134.304 87.3388 134.392 87.006C134.48 86.6731 134.579 86.422 134.678 86.1066C134.865 85.5227 135.063 84.9387 135.262 84.3839C135.461 83.8292 135.694 83.216 135.916 82.632C136.01 82.4101 136.097 82.1882 136.191 81.9721C136.745 80.6348 137.329 79.3968 137.942 78.2464C138.112 77.9077 138.287 77.5807 138.462 77.2653C138.55 77.1018 138.632 76.9441 138.719 76.7923C138.929 76.4069 139.14 76.039 139.35 75.6828C139.56 75.3265 139.84 74.8594 140.08 74.4739L140.436 73.89C140.781 73.3527 141.119 72.8505 141.44 72.395C141.581 72.1906 141.721 71.9862 141.855 71.811L142.398 71.0635L152.063 72.4125L156.6 73.0432C159.03 73.3819 161.453 73.7264 163.871 74.0768C167.573 74.6024 171.262 75.1358 174.937 75.6769L180.286 76.4653C192.846 78.334 205.323 80.2475 217.719 82.2057C221.853 82.852 225.984 83.508 230.111 84.1737L235.366 85.0146C242.102 86.0891 248.823 87.1714 255.531 88.2615L263.374 89.5112L268.962 90.4164C275.612 91.4909 282.271 92.5654 288.94 93.6399L292.759 94.253C304.151 96.0867 315.577 97.8951 327.038 99.6781L332.236 100.478C337.55 101.288 342.88 102.096 348.225 102.902L353.276 103.655C356.286 104.099 359.299 104.539 362.316 104.975L366.848 105.629C371.391 106.283 375.952 106.925 380.53 107.556L385.091 108.181L389.663 108.806Z" fill="#FFF4E1"/>
<path d="M158.078 73.2359C157.996 73.3469 157.908 73.452 157.832 73.5629C157.494 74.0126 157.172 74.4681 156.863 74.9353C156.553 75.4024 156.221 75.9339 155.923 76.4478C153.499 80.8112 151.884 85.5773 151.157 90.5156C149.873 98.4226 149.99 106.534 150.673 114.575C150.673 114.675 150.673 114.78 150.702 114.879C150.76 115.545 150.825 116.21 150.895 116.876C150.988 117.822 151.093 118.774 151.204 119.714L151.292 120.456L134.783 117.851C134.52 117.034 134.199 116.07 133.93 114.967C133.878 114.762 133.825 114.546 133.767 114.33C133.668 113.915 133.562 113.477 133.463 113.028C133.422 112.841 133.381 112.654 133.341 112.444C133.259 112.064 133.183 111.667 133.101 111.276C133.066 111.06 133.019 110.844 132.99 110.622C132.897 110.102 132.815 109.565 132.733 109.01C132.651 108.455 132.593 107.941 132.529 107.387C132.042 102.902 132.144 98.3726 132.832 93.9144C132.914 93.3888 133.002 92.8632 133.101 92.3551C133.148 92.0982 133.2 91.8412 133.247 91.5901C133.434 90.6616 133.644 89.7623 133.872 88.8864C133.954 88.5652 134.035 88.2557 134.129 87.9403C134.222 87.625 134.304 87.3563 134.392 87.0235C134.479 86.6906 134.579 86.4395 134.678 86.1242C134.865 85.5402 135.063 84.9562 135.262 84.4014C135.46 83.8467 135.694 83.2335 135.916 82.6495C136.009 82.4276 136.097 82.2057 136.19 81.9896C136.745 80.6523 137.329 79.4143 137.942 78.2639C138.112 77.9252 138.287 77.604 138.462 77.2828C138.55 77.1193 138.631 76.9616 138.719 76.8098C138.929 76.4244 139.139 76.0565 139.35 75.7003C139.56 75.3441 139.834 74.8769 140.08 74.4914L140.436 73.9075C140.78 73.3702 141.119 72.868 141.44 72.4125C141.58 72.2081 141.721 72.0037 141.855 71.8285C141.989 71.6533 142.229 71.3146 142.398 71.0811L152.063 72.4125C152.534 72.624 153.028 72.7826 153.534 72.8855H153.581C153.733 72.9185 153.887 72.9419 154.042 72.9556C154.31 72.9774 154.576 73.0204 154.837 73.0841H154.883C155.147 73.1627 155.42 73.2059 155.695 73.2126C156.001 73.2099 156.303 73.1443 156.583 73.0198L158.078 73.2359Z" fill="#7573F1"/>
<path d="M166.376 102.242C167.086 92.8284 170.02 83.718 174.937 75.6594C171.258 75.1222 167.571 74.5888 163.876 74.0593C162.231 75.5722 160.85 77.3484 159.788 79.3151C154.387 89.2718 154.696 101.95 155.537 112.899C155.753 115.685 156.051 118.453 156.401 121.221L167.327 122.944C166.253 116.099 165.934 109.156 166.376 102.242Z" fill="#7573F1"/>
<path d="M327.025 99.6782C307.55 96.659 288.244 93.5406 268.949 90.4164C266.438 93.2019 264.861 96.7291 263.863 100.344C260.943 110.75 261.907 122.301 263.489 132.842C263.758 134.633 264.056 136.426 264.383 138.22L325.361 147.862C321.186 132.27 319.504 114.231 327.025 99.6782Z" fill="#7573F1"/>
<path d="M348.206 102.902C342.865 102.1 337.535 101.292 332.217 100.478C323.966 114.762 326.278 133.449 330.681 148.697L345.613 151.033C342.168 134.851 341.362 117.828 348.206 102.902Z" fill="#7573F1"/>
<path d="M389.662 108.806L389.551 108.992C389.265 109.477 388.932 110.067 388.564 110.744C388.272 111.287 387.98 111.912 387.659 112.555C387.659 112.596 387.618 112.642 387.595 112.689C387.355 113.209 387.122 113.723 386.906 114.242C382.608 124.52 383.314 134.167 383.805 140.106C384.186 144.571 384.987 148.99 386.199 153.304C386.584 154.7 387.04 156.154 387.554 157.643L350.764 151.85C350.766 151.807 350.766 151.764 350.764 151.722C350.507 150.589 350.261 149.444 350.028 148.3C347.318 134.868 346.582 120.853 351.196 108.385C351.388 107.86 351.593 107.334 351.78 106.82C352.037 106.189 352.311 105.565 352.603 104.94C352.767 104.589 352.93 104.245 353.105 103.9C353.146 103.813 353.187 103.725 353.234 103.637C356.243 104.081 359.257 104.521 362.274 104.957L366.805 105.611C371.349 106.265 375.909 106.908 380.488 107.538L385.049 108.163L389.662 108.806Z" fill="#7573F1"/>
<path d="M257.247 112.035C257.556 104.443 258.935 95.9173 263.355 89.5112C254.039 87.9967 244.715 86.492 235.383 84.9971C233.867 87.2494 232.659 89.6946 231.792 92.2675C228.41 102.09 228.825 113.08 230.297 123.218C230.775 126.541 231.389 129.869 232.148 133.146L259.209 137.409C257.635 129.047 256.977 120.539 257.247 112.035Z" fill="#7573F1"/>
<path d="M224.579 103.55C225.128 96.8342 226.745 89.9725 230.109 84.1562C213.606 81.5225 197.033 78.9355 180.285 76.4478C174.976 84.4896 171.856 93.7765 171.233 103.392C170.866 110.204 171.257 117.036 172.401 123.761L226.932 132.351C224.83 122.926 223.796 113.156 224.579 103.55Z" fill="#7573F1"/>
<path d="M485.416 73.7089L478.653 76.2901L392.202 109.36L388.564 110.75L352.626 104.957L347.657 104.157L331.609 101.576L326.488 100.747L301.686 96.7524L268.161 91.3507L262.724 90.4689L252.96 88.898L234.757 85.9606L229.572 85.1256L179.858 77.1135L174.579 76.2609L163.443 74.4681L157.831 73.5629L155.711 73.2184L155.705 73.2242L154.893 73.0899L154.864 73.0841L154.052 72.9556L154.041 72.9498L153.579 72.8797L153.539 72.868L142.373 71.0694L249.427 42.4314L485.416 73.7089Z" fill="#7573F1"/>
<path d="M387.596 114.003C387.356 114.523 387.123 115.042 386.907 115.556L351.191 109.717L346.297 108.917L330.028 106.283L325.046 105.459L266.141 95.7714L261.037 94.9538L249.317 93.0384L244.686 92.2675L243.174 92.0164L233.088 90.3696L228.09 89.5462L178.102 81.3706L172.939 80.5239L161.061 78.6026L155.922 77.7617L140.412 75.2214C140.757 74.6841 141.095 74.1819 141.417 73.7206L156.863 76.2492L162.194 77.1193L173.751 79.0114L178.972 79.8698L228.773 88.0162L233.848 88.8454L248.692 91.2748L249.989 91.485L253.492 92.069L261.785 93.4355L267.041 94.2939L325.689 103.889L330.729 104.718L346.881 107.346L351.792 108.146L387.596 114.003Z" fill="black"/>
<path d="M173.745 68.1086L161.178 66.5319L173.173 63.9274C173.336 65.3231 173.535 66.7188 173.745 68.1086Z" fill="#E59123"/>
<path d="M510.001 66.1231L412.051 97.9087L410.662 97.7335C408.603 92.9187 407.248 87.8328 406.638 82.632C406.013 77.2186 405.102 68.2488 410.06 58.7651C410.358 58.1811 410.644 57.6614 410.936 57.1884C411.292 56.6044 411.619 56.073 411.894 55.6467L414.563 55.9328L510.001 66.1231Z" fill="#DFAD27"/>
<path d="M407.793 94.4515L167.6 64.9376L277.795 39.4648L500.464 26.0977C500.732 39.8794 500.896 51.407 501.17 65.1829C472.561 74.1644 436.419 85.4409 407.793 94.4515Z" fill="#E8F9F6"/>
<path d="M422.842 62.5667C425.362 60.9146 428.023 59.49 430.796 58.3096C435.821 55.8029 440.977 53.567 446.242 51.6114C455.398 48.1076 464.567 44.7556 473.595 40.6853C482.623 36.615 491.61 32.3871 500.458 27.7795V27.4116L277.813 40.7787L167.6 66.2516L407.793 95.7713L411.828 94.5041C411.52 94.0873 411.243 93.6481 410.999 93.1902C409.247 89.8966 409.16 85.8555 409.889 82.0947C411.309 74.76 415.449 68.3948 420.471 64.6632C420.938 64.3186 421.405 63.9858 421.873 63.6529C422.096 63.2127 422.43 62.8383 422.842 62.5667Z" fill="black"/>
<path d="M179.893 27.8554C179.817 27.9547 179.735 28.0423 179.654 28.1416L178.264 27.9664C178.323 27.8822 178.374 27.7922 178.415 27.6978L179.893 27.8554Z" fill="#E59123"/>
<path d="M173.167 63.9274C173.336 65.3231 173.535 66.7188 173.751 68.1086L161.178 66.5319L173.167 63.9274Z" fill="#E59123"/>
<path d="M189.792 70.1116C189.833 70.3044 189.868 70.5029 189.903 70.6956L178.953 69.3583L173.826 68.7335C173.791 68.5232 173.762 68.313 173.727 68.1028L178.854 68.7393L189.792 70.1116Z" fill="#E59123"/>
<path d="M410.66 97.7394L373.794 93.2253L368.614 92.5888L353.647 90.7609L348.316 90.1069L287.185 82.6204L282.011 81.9838L254.886 78.6669C253.134 78.445 251.382 78.2347 249.671 78.0245L195.011 71.3263C194.97 71.1336 194.935 70.9468 194.895 70.7424L249.548 77.5748L254.769 78.223L281.936 81.6218L287.11 82.27L348.263 89.9317L353.589 90.5974L368.579 92.4778L373.765 93.126L410.66 97.7335V97.7394Z" fill="#E59123"/>
<path d="M270.754 0L167.391 25.4028L164.191 26.1911C163.981 26.4422 163.759 26.7109 163.531 27.0087C159.117 32.5251 156.181 39.0748 154.999 46.0403C153.896 53.0138 154.703 60.1558 157.335 66.7071L173.879 68.7393C173.844 68.5291 173.815 68.3188 173.78 68.1086L161.178 66.5261L168.185 65.0077L173.173 63.9274C173.243 64.5114 173.313 65.0953 173.394 65.6793C173.505 66.4969 173.628 67.3144 173.751 68.1378L178.878 68.7743L189.792 70.1116C189.833 70.3102 189.868 70.5029 189.903 70.6956L194.996 71.3263C194.955 71.1278 194.92 70.935 194.879 70.7423L249.533 77.5748L254.753 78.2289L281.914 81.6217L287.094 82.2758L348.259 89.9316L353.591 90.5974L368.581 92.4719L373.767 93.126L410.662 97.7335C410.119 96.4546 409.64 95.2049 409.226 94.0019C407.958 90.3157 407.091 86.5038 406.639 82.632C406.055 77.423 405.173 68.9087 409.529 59.8104C409.699 59.4658 409.88 59.1096 410.061 58.7592C410.242 58.4088 410.399 58.1227 410.563 57.8249L410.937 57.1883C411.287 56.6044 411.614 56.0788 411.894 55.6467L414.563 55.927L500.465 26.197L507.181 23.8611L270.754 0ZM179.894 27.8554C179.818 27.9547 179.736 28.0423 179.655 28.1416L178.265 27.9664C178.32 27.8796 178.371 27.7899 178.417 27.6978L179.894 27.8554Z" fill="#DFAD27"/>
<path d="M173.745 68.1086L161.178 66.5319L173.173 63.9274C173.336 65.3231 173.535 66.7188 173.745 68.1086Z" fill="#E59123"/>
<path d="M179.893 27.8554C179.817 27.9547 179.735 28.0423 179.654 28.1416L178.264 27.9664C178.323 27.8822 178.374 27.7922 178.415 27.6978L179.893 27.8554Z" fill="#E59123"/>
<path d="M189.92 70.7014L178.97 69.3641C178.935 69.1597 178.9 68.9553 178.871 68.7451L189.791 70.1116C189.85 70.3043 189.885 70.5029 189.92 70.7014Z" fill="#E59123"/>
<path d="M348.315 90.1068L287.185 82.6203C287.185 82.5035 287.139 82.3984 287.109 82.2816L348.263 89.9316L348.315 90.1068Z" fill="#E59123"/>
<path d="M368.615 92.5887L353.648 90.755C353.648 90.7024 353.607 90.6499 353.59 90.5915L368.58 92.4719L368.615 92.5887Z" fill="#E59123"/>
<path d="M410.661 97.7393L373.795 93.2252L373.766 93.1259L410.661 97.7335V97.7393Z" fill="#E59123"/>
<path d="M282.014 81.9838L254.888 78.661L254.771 78.2289L281.938 81.6276C281.955 81.7561 281.985 81.867 282.014 81.9838Z" fill="#E59123"/>
<path d="M249.671 78.0245L195.011 71.3263C194.97 71.1336 194.935 70.9468 194.895 70.7424L249.548 77.5748C249.589 77.7325 249.624 77.8843 249.671 78.0245Z" fill="#E59123"/>
<path d="M179.893 27.8554C179.817 27.9547 179.735 28.0423 179.654 28.1416L178.264 27.9664C178.323 27.8822 178.374 27.7922 178.415 27.6978L179.893 27.8554Z" fill="#E59123"/>
<path d="M414.564 55.9328L410.938 57.1884C411.294 56.6044 411.621 56.073 411.895 55.6467L414.564 55.9328Z" fill="#E59123"/>
<path d="M410.622 59.0454L277.389 41.281L168.77 26.8043L165.57 27.5868C165.366 27.838 165.144 28.1124 164.91 28.4102L271.549 42.63L409.559 61.0367L410.622 59.0454Z" fill="black"/>
<path d="M19.2721 284.015L6.69922 282.438L18.6882 279.839C18.8517 281.229 19.0502 282.642 19.2721 284.015Z" fill="#E59123"/>
<path d="M355.517 282.058L257.568 313.821L256.178 313.645C254.122 308.83 252.769 303.744 252.16 298.544C251.529 293.13 250.618 284.161 255.576 274.671C255.88 274.087 256.16 273.573 256.452 273.094C256.808 272.51 257.135 271.985 257.41 271.559L260.079 271.839L355.517 282.058Z" fill="#3572B9"/>
<path d="M253.317 310.358L13.1348 280.849L123.33 255.377L345.999 242.01C346.267 255.785 346.437 267.319 346.705 281.095C318.079 290.1 281.937 301.329 253.317 310.358Z" fill="#E8F9F6"/>
<path d="M268.36 278.473C270.881 276.824 273.543 275.4 276.313 274.216C281.34 271.713 286.496 269.479 291.759 267.523C300.916 263.984 310.084 260.667 319.113 256.591C328.141 252.515 337.134 248.293 345.975 243.691V243.318L123.307 256.685L13.1348 282.158L253.316 311.672L257.346 310.398C257.038 309.981 256.761 309.542 256.517 309.085C254.765 305.797 254.677 301.756 255.407 297.989C256.826 290.654 260.967 284.289 265.989 280.563C266.456 280.219 266.923 279.88 267.396 279.553C267.619 279.116 267.951 278.744 268.36 278.473Z" fill="black"/>
<path d="M25.4144 243.767L25.175 244.048L23.7793 243.878C23.8387 243.791 23.8914 243.699 23.937 243.604L25.4144 243.767Z" fill="#E59123"/>
<path d="M18.6882 279.839C18.8575 281.229 19.0561 282.625 19.2721 284.015L6.69922 282.438L18.6882 279.839Z" fill="#E59123"/>
<path d="M35.3307 286.023C35.3657 286.216 35.4008 286.415 35.4416 286.607L24.4863 285.264L19.3591 284.639C19.3591 284.429 19.2948 284.219 19.2656 284.009L24.3871 284.645L35.3307 286.023Z" fill="#3572B9"/>
<path d="M256.184 313.651L219.312 309.137L214.132 308.501L199.165 306.673L193.839 306.001L132.709 298.526L127.529 297.89L100.409 294.573L95.1887 293.936L40.5289 287.238C40.4939 287.045 40.453 286.853 40.418 286.654L95.0719 293.492L100.293 294.141L127.453 297.539L132.633 298.188L193.781 305.838L199.112 306.503L214.103 308.378L219.283 309.026L256.178 313.64L256.184 313.651Z" fill="#3572B9"/>
<path d="M116.27 215.912L12.9069 241.315L9.70675 242.097C9.49652 242.348 9.28045 242.623 9.04686 242.921C4.62203 248.431 1.67731 254.98 0.491674 261.946C-0.614836 268.922 0.192488 276.066 2.82756 282.619L19.3715 284.645C19.3364 284.435 19.3014 284.225 19.2722 284.015L24.3936 284.651L35.3373 286.024C35.3723 286.216 35.4073 286.415 35.4482 286.607L40.5346 287.232C40.4996 287.04 40.4587 286.847 40.4237 286.648L95.0776 293.487L100.298 294.135L127.459 297.534L132.639 298.182L193.786 305.832L199.118 306.498L214.109 308.372L219.288 309.02L256.184 313.634C255.641 312.349 255.168 311.099 254.753 309.896C253.482 306.213 252.615 302.403 252.166 298.532C251.582 293.317 250.694 284.809 255.057 275.711C255.228 275.36 255.403 275.01 255.582 274.659C255.757 274.332 255.927 274.017 256.09 273.725L256.131 273.661C256.417 273.153 256.166 273.456 256.715 273.223L260.079 271.833L345.999 242.097L352.72 239.761L116.27 215.912ZM25.1703 244.048L23.7746 243.872C23.8352 243.788 23.888 243.698 23.9323 243.604L25.4097 243.767L25.1703 244.048Z" fill="#3572B9"/>
<path d="M19.2721 284.015L6.69922 282.438L18.6882 279.839C18.8517 281.229 19.0502 282.642 19.2721 284.015Z" fill="#3572B9"/>
<path d="M25.4144 243.767L25.175 244.048L23.7793 243.878C23.8387 243.791 23.8914 243.699 23.937 243.604L25.4144 243.767Z" fill="#E59123"/>
<path d="M35.4433 286.613L24.4879 285.27C24.4529 285.066 24.4179 284.861 24.3887 284.651L35.3323 286.023C35.3673 286.216 35.4024 286.415 35.4433 286.613Z" fill="#3572B9"/>
<path d="M193.839 306.001L132.709 298.526C132.68 298.415 132.656 298.304 132.633 298.193L193.78 305.843C193.798 305.902 193.816 305.954 193.839 306.001Z" fill="#3572B9"/>
<path d="M214.131 308.501L199.164 306.667L199.111 306.503L214.102 308.378C214.109 308.419 214.119 308.46 214.131 308.501Z" fill="#E59123"/>
<path d="M256.184 313.651L219.312 309.137C219.312 309.102 219.312 309.067 219.283 309.032L256.179 313.645L256.184 313.651Z" fill="#E59123"/>
<path d="M127.529 297.89L100.41 294.567C100.369 294.421 100.328 294.287 100.293 294.141L127.453 297.539C127.477 297.656 127.5 297.779 127.529 297.89Z" fill="#3572B9"/>
<path d="M95.1887 293.936L40.5289 287.238C40.4939 287.045 40.453 286.853 40.418 286.654L95.0719 293.492C95.1069 293.638 95.1478 293.79 95.1887 293.936Z" fill="#3572B9"/>
<path d="M25.4144 243.767L25.175 244.048L23.7793 243.878C23.8387 243.791 23.8914 243.699 23.937 243.604L25.4144 243.767Z" fill="#E59123"/>
<path d="M256.138 274.951L122.905 257.193L14.2859 242.71L11.0974 243.516C10.8871 243.761 10.6652 244.036 10.4316 244.334L117.088 258.536L255.092 276.937L256.138 274.951Z" fill="black"/>
</g>
<defs>
<clipPath id="clip0_4127_535">
<rect width="510" height="313.821" fill="white"/>
</clipPath>
</defs>
</svg>
