<svg width="32" height="33" viewBox="0 0 32 33" fill="none" xmlns="http://www.w3.org/2000/svg">
<path d="M16 3.5C13.4288 3.5 10.9154 4.26244 8.77759 5.6909C6.63975 7.11935 4.97351 9.14968 3.98957 11.5251C3.00563 13.9006 2.74819 16.5144 3.2498 19.0362C3.75141 21.5579 4.98953 23.8743 6.80762 25.6924C8.6257 27.5105 10.9421 28.7486 13.4638 29.2502C15.9856 29.7518 18.5995 29.4944 20.9749 28.5104C23.3503 27.5265 25.3807 25.8603 26.8091 23.7224C28.2376 21.5846 29 19.0712 29 16.5C28.9964 13.0533 27.6256 9.74882 25.1884 7.31163C22.7512 4.87445 19.4467 3.50364 16 3.5ZM21.7075 14.2075L14.7075 21.2075C14.6146 21.3005 14.5043 21.3742 14.3829 21.4246C14.2615 21.4749 14.1314 21.5008 14 21.5008C13.8686 21.5008 13.7385 21.4749 13.6171 21.4246C13.4957 21.3742 13.3854 21.3005 13.2925 21.2075L10.2925 18.2075C10.1049 18.0199 9.99945 17.7654 9.99945 17.5C9.99945 17.2346 10.1049 16.9801 10.2925 16.7925C10.4801 16.6049 10.7346 16.4994 11 16.4994C11.2654 16.4994 11.5199 16.6049 11.7075 16.7925L14 19.0863L20.2925 12.7925C20.3854 12.6996 20.4957 12.6259 20.6171 12.5756C20.7385 12.5253 20.8686 12.4994 21 12.4994C21.1314 12.4994 21.2615 12.5253 21.3829 12.5756C21.5043 12.6259 21.6146 12.6996 21.7075 12.7925C21.8004 12.8854 21.8741 12.9957 21.9244 13.1171C21.9747 13.2385 22.0006 13.3686 22.0006 13.5C22.0006 13.6314 21.9747 13.7615 21.9244 13.8829C21.8741 14.0043 21.8004 14.1146 21.7075 14.2075Z" fill="#518AF5"/>
</svg>
