<?xml version="1.0" encoding="UTF-8"?>
<svg version="1.1" xmlns="http://www.w3.org/2000/svg" width="136" height="133">
<path d="M0 0 C0.763125 0.226875 1.52625 0.45375 2.3125 0.6875 C3.60821248 4.59831324 2.71897649 6.64070793 0.91137695 10.32421875 C0.54874756 11.02160156 0.18611816 11.71898437 -0.1875 12.4375 C-0.73627808 13.50677734 -0.73627808 13.50677734 -1.29614258 14.59765625 C-7.08169242 25.54106067 -7.08169242 25.54106067 -11.6875 28.6875 C-14.39453125 28.875 -14.39453125 28.875 -16.6875 28.6875 C-15.73918255 22.98104749 -13.30217888 18.23933936 -10.8125 13.0625 C-10.36519531 12.10859375 -9.91789062 11.1546875 -9.45703125 10.171875 C-9.02003906 9.25664063 -8.58304688 8.34140625 -8.1328125 7.3984375 C-7.73594238 6.56618652 -7.33907227 5.73393555 -6.93017578 4.87646484 C-3.90409027 -0.45396398 -3.90409027 -0.45396398 0 0 Z " fill="#FEC860" transform="translate(81.6875,43.3125)"/>
<path d="M0 0 C4.76894755 1.14077342 6.46178379 3.57683772 8.9453125 7.52148438 C9.37585937 8.23626953 9.80640625 8.95105469 10.25 9.6875 C10.69601563 10.38294922 11.14203125 11.07839844 11.6015625 11.79492188 C14.35448998 16.26217238 15.64273946 19.75788867 16 25 C15.01 25.33 14.02 25.66 13 26 C8.77609661 22.02456152 5.38052982 17.70495657 2 13 C1.21625 11.948125 0.4325 10.89625 -0.375 9.8125 C-2.09692847 6.83223919 -2.5619455 5.37167303 -2 2 C-1.34 1.34 -0.68 0.68 0 0 Z " fill="#FEC95F" transform="translate(24,55)"/>
<path d="M0 0 C0.125 2.625 0.125 2.625 -1 6 C-6.4513409 10.60453066 -11.93729903 12.73841848 -19 13 C-18.47390666 9.02309105 -16.66597631 7.439122 -13.6875 4.875 C-12.90761719 4.19179687 -12.12773438 3.50859375 -11.32421875 2.8046875 C-7.20035383 -0.39737232 -5.13212973 -1.42559159 0 0 Z " fill="#FECA62" transform="translate(99,65)"/>
<path d="M0 0 C1.32 0.33 2.64 0.66 4 1 C4.10331031 8.42686315 3.99862699 15.63512596 3 23 C1.68 23.33 0.36 23.66 -1 24 C-2.61863273 20.76273455 -2.1845318 17.24043124 -2.1875 13.6875 C-2.19974609 12.92759766 -2.21199219 12.16769531 -2.22460938 11.38476562 C-2.23570015 7.12960614 -1.96104913 3.88334235 0 0 Z " fill="#FECB5D" transform="translate(49,47)"/>
</svg>
