<svg width="61" height="61" viewBox="0 0 61 61" fill="none" xmlns="http://www.w3.org/2000/svg">
<path d="M16.9653 55.5364V22.4198C16.9653 20.9043 17.5017 19.6169 18.5745 18.5576C19.6474 17.4983 20.9415 16.9675 22.457 16.9653H55.5364C57.0496 16.9653 58.3404 17.4983 59.4087 18.5644C60.4748 19.6304 61.0078 20.9223 61.0078 22.4401V43.7499C61.0078 44.4794 60.861 45.1886 60.5674 45.8775C60.2693 46.5664 59.8751 47.1559 59.385 47.646L47.646 59.385C47.1536 59.8774 46.5641 60.2704 45.8775 60.564C45.1886 60.8599 44.4794 61.0078 43.7499 61.0078H22.4401C20.9223 61.0078 19.6304 60.4748 18.5644 59.4087C17.4983 58.3427 16.9653 57.0519 16.9653 55.5364ZM0.110532 12.2087C-0.183085 10.6932 0.108273 9.32897 0.984606 8.11611C1.86094 6.90325 3.05799 6.14775 4.57577 5.84961L37.1639 0.110532C38.6771 -0.183085 40.0413 0.108273 41.2564 0.984606C42.4715 1.86094 43.227 3.05799 43.5229 4.57577L44.2378 8.88855H22.4401C18.7134 8.88855 15.5232 10.2155 12.8693 12.8693C10.2155 15.5232 8.88855 18.7134 8.88855 22.4401V48.7979C8.11385 48.4207 7.4566 47.8843 6.9168 47.1886C6.37474 46.4952 6.01901 45.6991 5.84961 44.8002L0.110532 12.2087ZM57.6199 44.0684H46.8058C46.0175 44.0684 45.3648 44.3281 44.8476 44.8476C44.3304 45.3671 44.0706 46.0198 44.0684 46.8058V57.6199L57.6199 44.0684Z" fill="#518AF5"/>
</svg>
