<?xml version="1.0" encoding="UTF-8"?>
<svg version="1.1" xmlns="http://www.w3.org/2000/svg" width="811" height="731">
<path d="M0 0 C8.89505963 -0.42867757 16.13369302 2.55208924 22.84375 8.20703125 C31.52215073 16.50305034 34.60117003 26.3900601 35.8828125 38.15625 C35.60970485 42.45769545 34.87639475 45.40362459 32.8828125 49.15625 C32.6353125 50.22875 32.3878125 51.30125 32.1328125 52.40625 C29.36598115 60.70674404 22.59031821 68.1692942 14.875 72.2421875 C5.17435718 76.69307068 -5.7929968 78.13425935 -16.1171875 74.84375 C-17.46167042 74.30844662 -18.79670338 73.74828524 -20.1171875 73.15625 C-21.1896875 72.7025 -22.2621875 72.24875 -23.3671875 71.78125 C-28.2514405 68.8951005 -31.79485305 64.70907869 -35.1171875 60.15625 C-35.1171875 59.49625 -35.1171875 58.83625 -35.1171875 58.15625 C-36.1071875 57.82625 -37.0971875 57.49625 -38.1171875 57.15625 C-39.03125 54.79296875 -39.03125 54.79296875 -39.7421875 51.84375 C-39.98195313 50.87824219 -40.22171875 49.91273438 -40.46875 48.91796875 C-40.68273437 48.00660156 -40.89671875 47.09523437 -41.1171875 46.15625 C-41.30796875 45.45757812 -41.49875 44.75890625 -41.6953125 44.0390625 C-43.89392467 34.22673781 -40.91869431 24.425812 -35.84765625 16.0625 C-32.63748759 11.32968336 -32.63748759 11.32968336 -29.1171875 10.15625 C-28.4571875 9.393125 -27.7971875 8.63 -27.1171875 7.84375 C-20.14816734 0.64521121 -9.29792113 0.68619344 0 0 Z " fill="#F8C641" transform="translate(643.1171875,194.84375)"/>
<path d="M0 0 C8.79366043 -0.53948837 17.4022897 3.51823742 23.91015625 9.1953125 C25.34765625 12.0078125 25.34765625 12.0078125 25.91015625 14.1953125 C26.57015625 14.1953125 27.23015625 14.1953125 27.91015625 14.1953125 C33.50901914 22.27306124 35.58125795 31.63335899 34.78515625 41.4453125 C33.66094925 46.26334251 31.90139236 50.67566962 29.91015625 55.1953125 C29.25015625 55.1953125 28.59015625 55.1953125 27.91015625 55.1953125 C27.88953125 55.8965625 27.86890625 56.5978125 27.84765625 57.3203125 C26.64896423 60.99630135 24.78045612 62.33158527 21.796875 64.66796875 C19.8301571 66.17982611 19.8301571 66.17982611 18.08984375 68.20703125 C12.5531085 73.25756573 3.59937149 75.47082214 -3.77734375 75.7578125 C-12.20383544 75.32345726 -20.1163684 71.79483879 -27.08984375 67.1953125 C-27.74984375 66.2053125 -28.40984375 65.2153125 -29.08984375 64.1953125 C-30.07984375 63.8653125 -31.06984375 63.5353125 -32.08984375 63.1953125 C-33.12276051 61.21211232 -34.12359365 59.21183444 -35.08984375 57.1953125 C-35.74984375 56.8653125 -36.40984375 56.5353125 -37.08984375 56.1953125 C-38.40730232 52.31612894 -39.08984375 49.31155385 -39.08984375 45.1953125 C-39.74984375 45.1953125 -40.40984375 45.1953125 -41.08984375 45.1953125 C-41.58533007 32.45947882 -40.61963056 22.15867692 -32.08984375 12.1953125 C-22.08436565 2.46209231 -13.31960362 1.24482277 0 0 Z " fill="#F8C741" transform="translate(524.08984375,298.8046875)"/>
<path d="M0 0 C6.21104172 5.24725938 8.33307145 14.18946904 9.421875 22.04296875 C9.69819862 31.61758203 7.25790044 41.57092825 1 49 C-1.41485325 51.09961379 -3.67673745 53 -7 53 C-7 53.66 -7 54.32 -7 55 C-13.93954521 58.71184976 -21.84208599 59.92735155 -29.62890625 58.52734375 C-34.27806573 57.0877563 -38.10587951 54.94222437 -42 52 C-43.051875 51.21625 -44.10375 50.4325 -45.1875 49.625 C-48.18924022 46.82337579 -49.44679936 44.77205869 -51 41 C-51.556875 39.865625 -52.11375 38.73125 -52.6875 37.5625 C-55.3248214 30.32033172 -55.30372176 20.78860308 -52.8125 13.5 C-50.21280919 8.47990741 -47.26536395 3.77756966 -43 0 C-42.34 0 -41.68 0 -41 0 C-40.67 -0.99 -40.34 -1.98 -40 -3 C-27.12582789 -9.46471303 -11.1097923 -9.18206578 0 0 Z " fill="#F8C640" transform="translate(259,245)"/>
<path d="M0 0 C7.70701866 6.66804431 11.8851923 15.61124324 13.625 25.5625 C13.64841124 30.29157013 13.27081753 34.8803229 12.625 39.5625 C11.965 39.5625 11.305 39.5625 10.625 39.5625 C10.7075 40.26375 10.79 40.965 10.875 41.6875 C10.54053181 45.53388418 8.99003039 47.57143216 6.625 50.5625 C5.965 50.5625 5.305 50.5625 4.625 50.5625 C4.625 51.5525 4.625 52.5425 4.625 53.5625 C-2.62287477 60.79154912 -11.35084841 63.47706689 -21.375 63.5625 C-27.83151987 63.45040764 -32.18379649 60.61530936 -37.25 56.8125 C-37.80993652 56.39444092 -38.36987305 55.97638184 -38.94677734 55.5456543 C-42.63163347 52.61220446 -44.55265259 49.8714149 -46.375 45.5625 C-46.76042969 44.77488281 -47.14585937 43.98726562 -47.54296875 43.17578125 C-51.38074529 34.51505181 -51.60039438 26.07267904 -48.6328125 17.0546875 C-46.58309933 12.99345458 -43.5941051 9.92457303 -40.43359375 6.69140625 C-38.23105944 4.54118382 -38.23105944 4.54118382 -36.375 1.5625 C-27.14310941 -4.11720223 -9.51989068 -5.81231421 0 0 Z " fill="#F8C741" transform="translate(433.375,170.4375)"/>
<path d="M0 0 C1.5159375 0.1546875 1.5159375 0.1546875 3.0625 0.3125 C7.08150817 1.25311893 9.10540711 3.10540711 12 6 C12.71162443 7.64797236 13.39031953 9.31165408 14 11 C14.99 11.33 15.98 11.66 17 12 C21.17351206 20.11516233 21.37269351 31.28780669 18.8125 39.9375 C17.30126033 43.87523716 15.22212465 46.23817887 12 49 C11.236875 49.845625 10.47375 50.69125 9.6875 51.5625 C3.07789979 57.55725368 -3.82386544 59.15884158 -12.58203125 58.93359375 C-17.69309929 58.57344353 -21.53646431 57.7016137 -26 55 C-26 54.34 -26 53.68 -26 53 C-27.051875 52.7215625 -27.051875 52.7215625 -28.125 52.4375 C-33.99995651 49.50002174 -36.97404149 44.67717034 -39.375 38.6875 C-42.48553938 29.10756148 -41.51720563 20.99395867 -37 12 C-28.73163523 -1.33532926 -14.25699383 -4.75233128 0 0 Z " fill="#F8C641" transform="translate(247,82)"/>
<path d="M0 0 C1.485 0.12375 1.485 0.12375 3 0.25 C7.23081665 1.30770416 10.18522714 3.68895865 13 7 C13.16886719 7.70511719 13.33773437 8.41023438 13.51171875 9.13671875 C13.67285156 9.75160156 13.83398438 10.36648438 14 11 C14.99 11.33 15.98 11.66 17 12 C20.77363961 19.33763258 21.53439857 29.7051324 19.24609375 37.6015625 C17.40967426 41.90814625 15.17322923 45.52928053 12 49 C11.46375 49.66 10.9275 50.32 10.375 51 C1.28891681 58.65143848 -7.64023183 58.84864864 -19 58 C-20.485 57.505 -20.485 57.505 -22 57 C-22 56.34 -22 55.68 -22 55 C-23.32 55 -24.64 55 -26 55 C-26 54.34 -26 53.68 -26 53 C-27.051875 52.7215625 -27.051875 52.7215625 -28.125 52.4375 C-34.14176523 49.42911738 -37.82799899 43.64100249 -40.3046875 37.51171875 C-42.73878663 28.7188775 -41.16578417 19.98749178 -37 12 C-32.87970382 5.88735807 -27.21514692 0.68851068 -20.09375 -1.6171875 C-13.20865427 -2.87602963 -6.59945752 -2.19981917 0 0 Z " fill="#F8C640" transform="translate(661,387)"/>
<path d="M0 0 C0 0.66 0 1.32 0 2 C0.5775 2.226875 1.155 2.45375 1.75 2.6875 C4.56427613 4.32916107 6.02737733 6.43559053 8 9 C8.66 9.33 9.32 9.66 10 10 C13.77671214 17.77558382 14.5992138 28.45025312 12.2109375 36.73828125 C10.59426348 40.50846379 8.95491391 43.15569784 6 46 C5.484375 46.78375 4.96875 47.5675 4.4375 48.375 C-0.56533596 53.76266949 -7.40720716 56.56853105 -14.70703125 57.0078125 C-21.47952566 56.98473756 -27.07009614 56.58915233 -33 53 C-33 52.34 -33 51.68 -33 51 C-33.8353125 50.9071875 -33.8353125 50.9071875 -34.6875 50.8125 C-40.16189948 48.88906235 -42.61414015 44.28819865 -45.3125 39.4375 C-49.23922133 31.15790153 -49.17476193 23.91600393 -46.4375 15.25 C-43.30759846 7.6550641 -38.16304679 1.59394246 -30.78125 -2.16015625 C-21.76254831 -4.88350016 -8.45093127 -4.22546564 0 0 Z " fill="#F8C641" transform="translate(254,572)"/>
<path d="M0 0 C0 0.66 0 1.32 0 2 C0.7425 2.20625 1.485 2.4125 2.25 2.625 C5.85309166 4.42654583 6.97562816 6.55856788 9 10 C9.77923828 11.15242188 9.77923828 11.15242188 10.57421875 12.328125 C12.19421311 15.36395005 12.48950215 17.51873706 12.6875 20.9375 C12.75324219 21.93652344 12.81898438 22.93554688 12.88671875 23.96484375 C12.94279297 25.46724609 12.94279297 25.46724609 13 27 C13.05800781 28.53914063 13.05800781 28.53914063 13.1171875 30.109375 C12.79444569 38.0703396 7.42995213 45.48139559 2 51 C-5.80147824 56.63617 -14.93598734 57.46719226 -24.24609375 56.4921875 C-27.69268319 55.8762013 -30.06533477 54.87492501 -33 53 C-33 52.34 -33 51.68 -33 51 C-33.8971875 50.814375 -33.8971875 50.814375 -34.8125 50.625 C-37 50 -37 50 -40 48 C-40 47.34 -40 46.68 -40 46 C-40.66 46 -41.32 46 -42 46 C-47.70785589 36.57184519 -49.76713296 28.89526069 -47.33203125 18.015625 C-44.74182747 9.82650913 -40.14522933 3.83896393 -33.0625 -1 C-24.20736398 -5.50338253 -8.76964855 -4.38482427 0 0 Z " fill="#F8C741" transform="translate(126,359)"/>
<path d="M0 0 C4.38322022 2.36019551 7.62502951 5.3654164 11 9 C12.36125 10.3921875 12.36125 10.3921875 13.75 11.8125 C16.57272323 15.81135791 16.67364215 18.18622173 17 23 C17.33 23.33 17.66 23.66 18 24 C18.85493507 31.72244626 17.71782946 38.1775913 14 45 C12.0625 47.3125 12.0625 47.3125 10 49 C9.236875 49.825 8.47375 50.65 7.6875 51.5 C0.93143615 57.78471056 -5.49256972 59.36171419 -14.5625 59.0625 C-23.24421602 58.65853728 -28.87370316 56.43963477 -35 50 C-38.60845513 45.67832771 -41 42.73605912 -41 37 C-41.66 37 -42.32 37 -43 37 C-43.22197585 34.89722877 -43.42713637 32.79267698 -43.625 30.6875 C-43.74101562 29.51574219 -43.85703125 28.34398437 -43.9765625 27.13671875 C-44 24 -44 24 -42 21 C-41.57581921 19.61251833 -41.18247093 18.21540992 -40.8125 16.8125 C-38.55808213 9.89143713 -34.23194875 4.88106677 -27.75 1.5625 C-19.40104028 -2.16113604 -8.89484652 -2.12625813 0 0 Z " fill="#F8C641" transform="translate(428,416)"/>
<path d="M0 0 C5.09621819 4.0048493 8.68617031 9.09467872 9.9375 15.5 C10.7302134 22.29654274 9.46118817 27.63858991 5.9375 33.5 C3.4375 36.375 3.4375 36.375 0.9375 38.5 C0.298125 39.056875 -0.34125 39.61375 -1 40.1875 C-7.20324355 44.13501862 -13.5630496 44.12490186 -20.5625 42.875 C-25.96625558 40.75209602 -30.32858835 37.69628809 -33.9375 33.125 C-37.13932004 25.65408658 -37.9986396 19.07768714 -35.30859375 11.328125 C-32.48430108 5.04141495 -27.84086494 0.51389726 -21.3046875 -1.984375 C-14.10464696 -3.64013345 -6.43772241 -3.95752785 0 0 Z " fill="#F7C640" transform="translate(285.0625,395.5)"/>
<path d="M0 0 C5.88995098 4.34734477 9.48168951 9.08637241 11.265625 16.265625 C12.10673626 22.51910435 11.25068291 27.50398287 7.72265625 32.78515625 C2.71058014 38.73967403 -0.93077912 41.40024136 -8.75 42.171875 C-16.41196696 42.5923488 -21.28338062 40.41079551 -27.1875 35.6875 C-31.78397509 29.90907417 -33.02551806 24.02181347 -32.78125 16.68359375 C-31.96803643 11.18658279 -29.6985456 6.86075161 -25.40234375 3.3046875 C-17.76519735 -1.6915765 -8.77256325 -2.76173287 0 0 Z " fill="#F8C641" transform="translate(545.375,521.0625)"/>
<path d="M0 0 C5.0201958 2.88871602 8.23347528 6.51532883 10.41015625 11.95703125 C11.22414061 18.87589829 11.01074283 24.36181556 6.66015625 30.08203125 C4.51953125 31.30859375 4.51953125 31.30859375 2.66015625 32.08203125 C2.66015625 32.74203125 2.66015625 33.40203125 2.66015625 34.08203125 C-4.01672311 36.89334887 -9.26355575 38.2004513 -16.40234375 36.01953125 C-21.67122707 33.81990035 -25.04984743 30.20998693 -27.22265625 24.94140625 C-28.76595985 19.35425652 -28.30449985 14.50925804 -26.33984375 9.08203125 C-24.83984375 6.51953125 -24.83984375 6.51953125 -23.33984375 5.08203125 C-22.67984375 5.08203125 -22.01984375 5.08203125 -21.33984375 5.08203125 C-21.33984375 4.42203125 -21.33984375 3.76203125 -21.33984375 3.08203125 C-14.53867634 -1.02433398 -7.72933108 -3.0323753 0 0 Z " fill="#FFB5C1" transform="translate(640.33984375,73.91796875)"/>
<path d="M0 0 C4.3857443 3.40118945 6.97958915 6.92979735 8.0625 12.375 C8.7063993 19.07402928 7.97854423 24.53996002 3.7734375 30.0703125 C0.30845124 33.90588552 -2.72123101 35.59255965 -7.9375 36.375 C-14.32820343 36.44612071 -18.9509378 35.64919617 -23.9375 31.375 C-28.39623945 26.54469893 -30.46091792 22.24341643 -30.24609375 15.55859375 C-29.55525109 10.67022608 -27.81939907 6.21323552 -24.25390625 2.73046875 C-17.53988907 -2.27977633 -7.68603794 -4.00938343 0 0 Z " fill="#FFB6C0" transform="translate(425.9375,629.625)"/>
<path d="M0 0 C5.40614899 5.00068782 8.03809746 9.23236091 8.875 16.625 C8.28799355 22.39723006 6.81855425 27.09132503 2.546875 31.18359375 C-2.4381653 34.81779271 -7.26678497 36.93689805 -13.5 36.3125 C-20.08087259 34.6318128 -24.93641331 31.11605546 -28.5 25.3125 C-30.35396991 19.77319965 -30.23650168 13.56532868 -28.4375 8.0625 C-25.68457208 4.15511844 -22.26804582 0.27985917 -17.64453125 -1.3359375 C-11.5826689 -2.32968543 -5.58823519 -2.69432768 0 0 Z " fill="#FFB5C0" transform="translate(182.5,455.6875)"/>
<path d="M0 0 C4.36736052 4.26602965 6.24205118 8.79772571 6.5 14.875 C6.27725457 20.56953547 4.48821189 24.70885213 0.875 29.125 C-3.96046656 33.08129082 -8.68341041 34.93647304 -14.89453125 34.66015625 C-20.91016129 33.79400045 -25.0916807 30.99905692 -28.875 26.375 C-31.64559481 21.31149913 -32.68082562 17.03816335 -31.875 11.375 C-30.17827064 5.90776095 -27.68791307 1.54990484 -22.875 -1.625 C-15.3648111 -4.40938976 -6.54830109 -5.13430735 0 0 Z " fill="#FFB6C1" transform="translate(375.875,304.625)"/>
<path d="M0 0 C4.09308532 5.30994852 5.38105815 9.14803429 5.28125 15.84765625 C4.4717638 22.04247426 0.76525927 27.14240917 -4 31 C-8.80012794 33.29097015 -13.76644855 33.75644609 -19 33 C-21.88700968 31.89881886 -24.31390782 30.56281727 -27 29 C-27 28.34 -27 27.68 -27 27 C-27.66 27 -28.32 27 -29 27 C-33.14699842 21.02832227 -33.75929059 15.13072902 -33 8 C-31.36924275 2.5987658 -27.89067393 -0.35602611 -23.07421875 -3.0625 C-15.16008062 -6.63951158 -6.55007972 -5.50802158 0 0 Z " fill="#FFB5C0" transform="translate(153,219)"/>
<path d="M0 0 C3.85987396 2.00141613 6.99446399 4.0944825 9 8 C10.60590871 13.87669493 10.13275612 17.96074823 7.203125 23.2734375 C5.05854196 26.35105343 3.61098566 27.79633811 0 29 C-5.24031612 29.50181991 -9.64757894 29.6037594 -14.5 27.4375 C-18.48978734 23.54745734 -20.1108887 19.44774869 -20.4375 13.9375 C-19.84547525 8.60927722 -17.92684035 5.69328395 -13.9375 2.1875 C-9.54714022 -0.50336567 -4.99594621 -0.62342577 0 0 Z " fill="#FFB5C0" transform="translate(345,110)"/>
<path d="M0 0 C2.99294534 2.7841352 3.90851064 4.46362833 4.63671875 8.40625 C4.74434175 12.84362907 2.83961941 16.12631917 0.0625 19.4375 C-3.7387938 21.13807881 -7.23229378 21.22709557 -11.3125 20.5 C-14.31767067 19.20939766 -15.11984822 18.18599843 -17.3125 15.5 C-18.36565925 12.41979229 -18.66006073 9.73630321 -18.3125 6.5 C-16.72054049 3.25711951 -15.36645191 1.29954972 -12.5 -0.875 C-7.83972943 -2.20650588 -4.41279071 -1.99824485 0 0 Z " fill="#FFB6C0" transform="translate(332.3125,548.5)"/>
<path d="M0 0 C3.55031684 2.97067327 4.73518183 5.07313639 6 9.5 C6 13.61614912 5.31176212 15.60941556 3 19 C0.28916453 21.1979747 -1.48957172 21.92397877 -4.9375 22.4375 C-9.84778142 21.73603123 -12.79446036 19.4388699 -15.9375 15.6875 C-17.39451192 12.00211692 -17.01901554 9.8043247 -16 6 C-11.73539395 -0.3281251 -7.39226666 -1.20879832 0 0 Z " fill="#FFB6C1" transform="translate(529,152)"/>
<path d="M0 0 C3.00332418 1.80199451 4.5903952 3.3111192 6.375 6.3125 C7.21219504 9.91243865 6.89539601 12.41841597 6 16 C4.17660948 18.70567626 2.92542564 20.53728718 0 22 C-4.10661505 22.26928623 -6.96609478 22.39058642 -10.8125 20.9375 C-13.875747 18.22433837 -14.88735386 15.92698638 -16 12 C-15.24736977 7.06609072 -13.9384464 4.10301837 -10 1 C-6.39427296 -0.20190901 -3.7897565 -0.32670315 0 0 Z " fill="#FFB6C0" transform="translate(555,423)"/>
</svg>
