<svg width="169" height="331" viewBox="0 0 169 331" fill="none" xmlns="http://www.w3.org/2000/svg">
<path d="M133.568 312.642C122.888 318.226 111.483 328.741 81.2123 328.393C52.6481 328.07 43.2791 312.77 32.6849 307.217C25.8029 238.665 6.87589 176.002 0 107.438C54.0422 85.7944 114.344 85.7944 168.386 107.438C160.529 176.002 141.419 244.084 133.568 312.642Z" fill="#F6DCF7"/>
<path d="M154.176 108.194C146.188 106.98 138.077 106.802 130.044 107.664C101.693 109.974 97.1758 97.8193 73.4089 102.178C56.2009 105.354 53.4762 112.662 41.7664 110.486C41.7664 110.486 28.1914 107.969 20.1208 111.327C19.0156 111.803 17.9479 112.361 16.9267 112.998C16.2738 113.414 15.6468 113.87 15.0492 114.363C14.0324 115.131 13.2528 116.171 12.7999 117.362C12.6276 117.916 12.3218 118.419 11.9094 118.827C11.497 119.236 10.9906 119.536 10.4348 119.703C8.02345 123.346 5.84302 127.137 3.90636 131.053C3.69195 131.505 3.40121 131.918 3.04688 132.272C11.3491 191.4 26.6614 247.035 32.7022 307.217C43.2964 312.758 52.6654 328.058 81.2296 328.381C111.501 328.729 122.906 318.214 133.585 312.63C141.284 245.413 159.796 178.66 167.922 111.474C163.433 110.021 158.837 108.924 154.176 108.194Z" fill="#FFF0F3"/>
<path d="M101.334 1.03877C99.657 0.513858 97.9245 0.184541 96.1714 0.0573702C92.9092 -0.171216 89.6351 0.283457 86.5586 1.39232V237.66C89.6857 237.983 92.9773 238.172 96.4579 238.214C98.1159 238.214 99.7313 238.214 101.334 238.214V1.03877Z" fill="#FDE9FF"/>
<path d="M101.334 1.03876C100.523 1.39911 99.6853 1.69862 98.8291 1.93482C96.9443 2.43779 94.9926 2.64345 93.0444 2.54438C90.8371 2.48529 88.6511 2.09699 86.5586 1.3923V237.66C89.6857 237.983 92.9773 238.172 96.4579 238.214C98.1159 238.214 99.7313 238.214 101.334 238.214V1.03876Z" fill="#F6DCF7"/>
<path d="M148.27 117.179C140.893 116.018 133.394 115.847 125.972 116.673C99.7605 118.892 95.6094 107.231 73.6529 111.437C57.7615 114.485 55.244 121.489 44.4243 119.404C44.4243 119.404 31.8855 116.966 24.4305 120.209C23.4078 120.667 22.4215 121.203 21.4802 121.812C20.8754 122.213 20.2971 122.653 19.7491 123.128C18.8094 123.868 18.0922 124.854 17.6766 125.975C17.5241 126.499 17.2454 126.978 16.865 127.369C16.4845 127.76 16.0138 128.051 15.4943 128.218C13.2569 131.726 11.2375 135.368 9.44744 139.123C9.24352 139.546 8.9694 139.932 8.63672 140.263C16.3111 196.953 30.4774 250.345 36.0366 308.095C45.8202 313.404 54.476 328.088 80.864 328.393C108.825 328.722 119.364 318.64 129.227 313.288C136.341 248.815 153.439 184.78 160.924 120.324C156.798 118.936 152.566 117.884 148.27 117.179Z" fill="#FFF0F3"/>
<path d="M141.108 316.592C130.435 322.176 111.483 330.332 81.2123 330.003C52.6481 329.679 36.6044 319.03 26.0101 313.508C19.1342 244.932 6.87589 177.593 0 109.029C13.1056 116.57 45.8088 127.926 86.5582 128.048C127.826 128.151 155.262 116.57 168.374 109.029C160.529 177.593 148.959 248.028 141.108 316.592Z" fill="#EE9494"/>
<path d="M34.3612 132.315C61.7916 138.41 90.4411 140.41 117.914 133.564C136.215 128.908 153.381 120.589 168.374 109.108C168.371 109.078 168.371 109.047 168.374 109.017C155.262 116.557 127.826 128.139 86.5582 128.035C45.8088 127.944 13.1056 116.57 0 109.029C0.495779 113.959 1.02 118.894 1.57268 123.836C12.0328 127.901 23.5353 129.919 34.3612 132.315Z" fill="#000D26"/>
</svg>
