<svg width="515" height="383" viewBox="0 0 515 383" fill="none" xmlns="http://www.w3.org/2000/svg">
<path d="M363.345 218.378L72.1442 268.3C68.4782 268.957 64.6989 268.228 61.5404 266.254C58.382 264.28 56.0698 261.203 55.0531 257.62L0.526515 59.818C-1.84072 51.2149 4.02983 42.5367 13.0133 41.3356L293.313 4.19545C296.036 3.81892 298.805 4.41097 301.136 5.86819C303.467 7.3254 305.211 9.55516 306.065 12.168L368.85 209.515C369.142 210.46 369.227 211.456 369.101 212.437C368.975 213.418 368.639 214.361 368.117 215.201C367.595 216.041 366.899 216.76 366.076 217.308C365.252 217.856 364.321 218.221 363.345 218.378Z" fill="#7573F1"/>
<path d="M363.443 214.279L77.4479 264.206C73.8228 264.838 70.0923 264.094 66.988 262.118C63.8836 260.142 61.6293 257.078 60.667 253.526L7.11637 55.7242C6.5677 53.6976 6.45775 51.5772 6.79385 49.5047C7.12995 47.4322 7.90437 45.4553 9.0654 43.7059C10.2264 41.9566 11.7473 40.4751 13.5266 39.3603C15.3058 38.2456 17.3024 37.5233 19.383 37.2417L294.668 0.101619C297.359 -0.258268 300.09 0.344452 302.38 1.8033C304.669 3.26214 306.37 5.48323 307.18 8.07416L368.848 205.421C369.141 206.358 369.231 207.348 369.111 208.323C368.991 209.298 368.664 210.236 368.153 211.074C367.641 211.913 366.956 212.633 366.144 213.185C365.332 213.738 364.411 214.111 363.443 214.279Z" fill="#F8C741"/>
<path d="M351.783 205.881L88.7997 251.785C85.4666 252.366 82.0363 251.682 79.1818 249.865C76.3273 248.049 74.2545 245.231 73.3701 241.965L24.1236 60.0783C23.6191 58.2145 23.5183 56.2646 23.8278 54.3588C24.1373 52.4529 24.85 50.6351 25.9183 49.0268C26.9865 47.4184 28.3858 46.0566 30.0225 45.0323C31.6592 44.0081 33.4957 43.3449 35.4092 43.0872L288.539 8.93491C291.014 8.60161 293.527 9.15487 295.634 10.4968C297.741 11.8386 299.305 13.8826 300.049 16.2668L356.748 197.733C357.018 198.595 357.101 199.505 356.991 200.401C356.881 201.298 356.581 202.161 356.111 202.932C355.641 203.703 355.012 204.365 354.266 204.874C353.519 205.382 352.673 205.726 351.783 205.881Z" fill="#000D26"/>
<path d="M346.934 206.562L87.8391 251.79C84.5543 252.362 81.174 251.687 78.3613 249.896C75.5485 248.106 73.5062 245.329 72.6348 242.11L24.1189 62.9411C23.6168 61.1034 23.5135 59.1796 23.8158 57.2988C24.1182 55.4179 24.8192 53.6234 25.8718 52.0356C26.9245 50.4479 28.3045 49.1035 29.9193 48.0928C31.534 47.082 33.3462 46.4282 35.2344 46.1752L284.625 12.5084C287.064 12.18 289.541 12.7247 291.618 14.0464C293.694 15.368 295.236 17.3813 295.971 19.7302L351.834 198.534C352.099 199.384 352.18 200.281 352.071 201.164C351.962 202.048 351.666 202.898 351.202 203.658C350.738 204.418 350.118 205.07 349.382 205.571C348.646 206.071 347.811 206.409 346.934 206.562Z" fill="#FFF8F9"/>
<path d="M510.274 313.047L158.752 382.193C157.782 382.381 156.78 382.315 155.843 382.001C154.906 381.687 154.067 381.136 153.406 380.401L57.5909 274.801C54.4529 271.338 56.3147 265.693 60.864 264.897L355.428 213.223C361.679 212.138 368.111 213.385 373.505 216.726L512.171 302.132C516.735 304.925 515.489 312.017 510.274 313.047Z" fill="#7573F1"/>
<path d="M510.371 308.653L166.251 374.771C165.304 374.953 164.328 374.891 163.412 374.592C162.496 374.293 161.671 373.765 161.016 373.059L67.222 272.079C66.5258 271.328 66.0452 270.403 65.8309 269.402C65.6167 268.401 65.6768 267.361 66.0049 266.391C66.3329 265.421 66.9168 264.558 67.6948 263.892C68.4728 263.227 69.416 262.784 70.425 262.61L358.783 213.198C364.891 212.152 371.173 213.333 376.484 216.526L512.228 298.193C513.218 298.784 514.005 299.662 514.484 300.711C514.963 301.76 515.112 302.929 514.91 304.064C514.709 305.2 514.166 306.247 513.356 307.066C512.545 307.886 511.504 308.439 510.371 308.653Z" fill="#F8C741"/>
<path d="M484.813 304.284L174.285 363.941C173.431 364.105 172.549 364.049 171.722 363.779C170.896 363.508 170.152 363.032 169.56 362.394L84.9201 271.253C84.3014 270.575 83.8761 269.743 83.6884 268.844C83.5008 267.946 83.5576 267.013 83.8531 266.144C84.1486 265.275 84.6719 264.501 85.3684 263.903C86.0649 263.306 86.909 262.905 87.8128 262.745L348.024 218.168C353.535 217.222 359.203 218.287 363.994 221.171L486.49 294.845C487.381 295.38 488.09 296.172 488.52 297.118C488.951 298.064 489.085 299.119 488.903 300.142C488.721 301.166 488.233 302.11 487.502 302.849C486.772 303.589 485.834 304.089 484.813 304.284Z" fill="#FAFAFF"/>
<path d="M484.813 304.284L174.285 363.941C173.431 364.105 172.549 364.049 171.722 363.779C170.896 363.508 170.152 363.032 169.56 362.394L84.9201 271.253C84.3014 270.575 83.8761 269.743 83.6884 268.844C83.5008 267.946 83.5576 267.013 83.8531 266.144C84.1486 265.275 84.6719 264.501 85.3684 263.903C86.0649 263.306 86.909 262.905 87.8128 262.745L348.024 218.168C353.535 217.222 359.203 218.287 363.994 221.171L486.49 294.845C487.381 295.38 488.09 296.172 488.52 297.118C488.951 298.064 489.085 299.119 488.903 300.142C488.721 301.166 488.233 302.11 487.502 302.849C486.772 303.589 485.834 304.089 484.813 304.284Z" fill="#F6DCF7"/>
<path d="M370.446 226.155L90.7617 278.675L84.9262 272.394C84.2965 271.718 83.8615 270.883 83.6672 269.98C83.473 269.076 83.5266 268.137 83.8226 267.262C84.1185 266.386 84.6457 265.607 85.3484 265.006C86.051 264.406 86.9029 264.007 87.8139 263.851L348.025 219.269C353.538 218.326 359.206 219.391 364 222.272L370.446 226.155Z" fill="#000D26"/>
<path d="M392.602 239.483L104.59 293.564L97.4883 285.917L381.222 232.636L392.602 239.483Z" fill="#000D26"/>
<path d="M415.193 253.076L118.703 308.753L111.326 300.811L403.382 245.969L415.193 253.076Z" fill="#000D26"/>
<path d="M441.434 268.866L135.085 326.39L125.436 316.005L425.98 259.567L441.434 268.866Z" fill="#000D26"/>
<path d="M467.092 284.305L151.103 343.637L141.814 333.642L452.218 275.352L467.092 284.305Z" fill="#000D26"/>
<path d="M484.813 305.4L174.29 365.062C173.436 365.226 172.554 365.171 171.727 364.9C170.9 364.63 170.156 364.153 169.565 363.515L157.834 350.883L477.872 290.771L486.49 295.956C487.385 296.488 488.098 297.281 488.532 298.228C488.966 299.175 489.101 300.232 488.918 301.258C488.736 302.284 488.246 303.23 487.512 303.97C486.779 304.71 485.837 305.209 484.813 305.4Z" fill="#000D26"/>
<path d="M207.321 159.647L174.11 165.443L156.027 168.606L146.488 170.267L114.824 175.798L105.935 177.349L89.7298 180.167L73.6596 182.969C71.9635 183.266 70.2179 182.916 68.7664 181.99C67.315 181.064 66.2629 179.628 65.8172 177.965L40.7935 85.5223C40.5384 84.5751 40.4887 83.5843 40.6476 82.6163C40.8064 81.6483 41.1703 80.7255 41.7148 79.9095C42.2592 79.0935 42.9717 78.4032 43.8046 77.885C44.6374 77.3667 45.5714 77.0323 46.5439 76.9042L175.166 59.5528C176.424 59.3815 177.703 59.6614 178.775 60.343C179.847 61.0246 180.642 62.0638 181.021 63.2763L209.833 155.508C209.971 155.946 210.015 156.407 209.96 156.862C209.905 157.318 209.754 157.756 209.516 158.148C209.278 158.54 208.959 158.876 208.58 159.135C208.202 159.393 207.772 159.568 207.321 159.647Z" fill="#FAFAFF"/>
<path d="M200.095 155.854L169.811 161.149L153.295 164.032L144.597 165.533L115.72 170.573L107.617 171.989L92.8482 174.567L78.1943 177.124C76.6541 177.388 75.0707 177.069 73.7531 176.228C72.4355 175.388 71.4781 174.087 71.0676 172.58L48.236 88.28C48.0022 87.4164 47.9555 86.5128 48.0989 85.6297C48.2423 84.7466 48.5726 83.9043 49.0677 83.1591C49.5628 82.4138 50.2112 81.7829 50.9697 81.3084C51.7282 80.8339 52.5792 80.5268 53.4659 80.4075L170.782 64.5576C171.93 64.4031 173.095 64.6594 174.073 65.2812C175.05 65.9031 175.776 66.8504 176.122 67.9558L202.397 152.035C202.529 152.437 202.572 152.863 202.525 153.284C202.477 153.704 202.339 154.11 202.121 154.472C201.902 154.835 201.608 155.146 201.258 155.384C200.909 155.623 200.512 155.783 200.095 155.854Z" fill="#7573F1"/>
<path d="M101.673 226.3C110.103 226.3 116.937 219.466 116.937 211.036C116.937 202.606 110.103 195.772 101.673 195.772C93.2423 195.772 86.4082 202.606 86.4082 211.036C86.4082 219.466 93.2423 226.3 101.673 226.3Z" fill="#FFB6C1"/>
<path d="M146.6 218.708C155.031 218.708 161.865 211.874 161.865 203.444C161.865 195.014 155.031 188.18 146.6 188.18C138.17 188.18 131.336 195.014 131.336 203.444C131.336 211.874 138.17 218.708 146.6 218.708Z" fill="#FFB6C1"/>
<path d="M195.651 211.526C204.081 211.526 210.916 204.692 210.916 196.262C210.916 187.832 204.081 180.998 195.651 180.998C187.221 180.998 180.387 187.832 180.387 196.262C180.387 204.692 187.221 211.526 195.651 211.526Z" fill="#FFB6C1"/>
<path d="M114.497 118.984C123.016 118.984 129.921 112.078 129.921 103.559C129.921 95.0407 123.016 88.1349 114.497 88.1349C105.978 88.1349 99.0723 95.0407 99.0723 103.559C99.0723 112.078 105.978 118.984 114.497 118.984Z" fill="#FFFDFF"/>
<path d="M102.926 101.543C104.733 100.041 107.15 99.7458 109.402 99.6007C112.26 99.4105 115.212 99.3705 117.955 98.4646C122.264 97.0483 123.961 94.9112 125.692 95.8521C126.053 96.0473 126.193 96.2725 127.579 98.855C129.616 102.709 129.776 103.169 129.921 103.129C130.362 103.009 130.607 97.9641 127.579 93.9754C125.507 91.2478 122.81 90.2118 120.983 89.5111C119.261 88.8505 115.478 87.4842 111.134 88.4501C107.142 89.342 103.668 91.7827 101.475 95.2355C99.2831 98.6884 98.5518 102.871 99.4425 106.863C99.4976 107.098 99.5576 107.333 99.6177 107.563C100.163 105.271 101.094 103.054 102.926 101.543Z" fill="black"/>
<path d="M121.114 110.651C121.555 114.663 122.438 118.614 123.746 122.432C125.248 126.761 126.604 128.903 125.538 130.44C124.262 132.287 120.063 132.442 117.826 130.615C116.089 129.189 116.239 127.137 115.384 122.973C114.687 119.584 113.642 116.277 112.266 113.103L121.114 110.651Z" fill="#FFFDFF"/>
<path d="M110.477 96.0023C115.637 96.0023 119.82 91.8189 119.82 86.6585C119.82 81.498 115.637 77.3146 110.477 77.3146C105.316 77.3146 101.133 81.498 101.133 86.6585C101.133 91.8189 105.316 96.0023 110.477 96.0023Z" fill="black"/>
<path d="M169.812 161.149L153.297 164.032C151.045 163.105 149.049 161.651 147.476 159.793C147.6 160.476 147.825 161.137 148.142 161.755C149.042 163.506 150.334 164.172 150.144 164.587C149.953 165.003 148.497 164.327 146.515 164.777C145.843 164.932 145.199 165.192 144.608 165.548L115.731 170.588C115.084 171.008 114.326 171.223 113.555 171.204C112.784 171.185 112.037 170.934 111.412 170.483C109.911 169.272 109.695 166.644 111.337 164.832C110.608 167.453 109.345 169.895 107.628 172.004L92.8594 174.582C93.545 135.48 99.3655 125.29 104.991 123.919C109.045 122.918 112.873 126.561 121.742 125.355C130.25 124.204 133.132 120.005 137.422 119.425C143.988 118.524 154.067 126.051 169.812 161.149Z" fill="#F8C741"/>
<path d="M318.518 157.896L244.453 170.798L234.959 141.52L307.668 129.849L318.518 157.896Z" fill="#7573F1"/>
<path d="M304.432 117.142L231.573 127.832L222.795 100.762L294.808 92.3388L304.432 117.142Z" fill="#FFB6C1"/>
<path d="M290.338 79.0062L217.389 89.296L206.059 54.3429L279.908 45.1793L290.338 79.0062Z" fill="#7573F1"/>
<path d="M107.954 217.277L95.0966 221.556L91.1328 208.954L104.55 206.342L107.954 217.277Z" fill="#000D26"/>
<path d="M111.497 204.049L114.449 217.547L106.227 212.272L111.497 204.049Z" fill="#000D26"/>
<path d="M142.773 195.866L143.882 195.642C144.541 195.509 145.219 195.507 145.878 195.636C146.537 195.765 147.164 196.023 147.724 196.394C148.283 196.766 148.764 197.244 149.139 197.801C149.514 198.359 149.775 198.984 149.908 199.643L151.114 205.613C151.238 206.224 151.113 206.86 150.768 207.38C150.423 207.899 149.886 208.261 149.274 208.384L145.458 209.155C144.846 209.279 144.211 209.154 143.691 208.809C143.171 208.464 142.81 207.927 142.686 207.315L140.933 198.632C140.809 198.021 140.933 197.385 141.279 196.866C141.624 196.346 142.161 195.984 142.772 195.861L142.773 195.866Z" fill="#000D26"/>
<path d="M150.477 201.277L150.072 199.275C150.042 199.12 150.002 198.965 149.957 198.81L141.549 200.511L142.049 202.984L150.477 201.277Z" fill="#FAFAFF"/>
<path d="M142.568 205.571L142.623 205.836C142.694 206.185 142.832 206.516 143.031 206.812C143.23 207.107 143.485 207.36 143.781 207.557C144.078 207.753 144.41 207.889 144.759 207.957C145.109 208.026 145.468 208.024 145.816 207.953L148.934 207.323C149.283 207.252 149.615 207.114 149.91 206.915C150.205 206.716 150.458 206.461 150.655 206.165C150.851 205.868 150.988 205.536 151.056 205.187C151.124 204.838 151.122 204.478 151.051 204.13L151.001 203.864L142.568 205.571Z" fill="#FAFAFF"/>
<path d="M148.809 213.356C154.257 212.255 158.524 210.62 158.339 209.705C158.154 208.789 153.587 208.939 148.139 210.039C142.69 211.14 138.423 212.774 138.608 213.69C138.793 214.606 143.36 214.456 148.809 213.356Z" fill="#000D26"/>
<path d="M205.698 201.047C204.877 202.383 202.695 202.943 200.473 202.133C200.129 201.126 199.434 200.277 198.516 199.74C197.98 199.46 197.63 199.45 195.188 199.4C192.185 199.33 191.684 199.315 191.329 199.74C191.189 199.905 190.688 200.591 191.329 202.353C189.057 203.684 186.624 203.399 185.694 202.168C184.583 200.701 185.814 198.164 187.05 196.878C188.792 195.051 191.204 195.016 195.683 194.951C200.162 194.886 203.691 194.831 205.262 197.128C205.958 198.149 206.433 199.825 205.698 201.047Z" fill="#000D26"/>
</svg>
