<svg width="17" height="16" viewBox="0 0 17 16" fill="none" xmlns="http://www.w3.org/2000/svg" >
											<path												d="M8.5537 6.79853C9.13178 6.20785 9.88448 5.82141 10.7601 5.82141C11.6797 5.82141 12.5616 6.18671 13.2118 6.83693C13.862 7.48716 14.2273 8.36905 14.2273 9.28861V14.0166H12.9665V9.28861C12.9665 8.70344 12.734 8.14223 12.3203 7.72845C11.9065 7.31467 11.3453 7.08221 10.7601 7.08221C10.1749 7.08221 9.61372 7.31467 9.19994 7.72845C8.78616 8.14223 8.5537 8.70344 8.5537 9.28861V14.0166H7.29291V6.13661H8.5537V6.79853ZM4.14091 4.87582C3.89012 4.87582 3.64961 4.77619 3.47227 4.59886C3.29494 4.42152 3.19531 4.18101 3.19531 3.93022C3.19531 3.67943 3.29494 3.43891 3.47227 3.26158C3.64961 3.08424 3.89012 2.98462 4.14091 2.98462C4.3917 2.98462 4.63222 3.08424 4.80955 3.26158C4.98688 3.43891 5.08651 3.67943 5.08651 3.93022C5.08651 4.18101 4.98688 4.42152 4.80955 4.59886C4.63222 4.77619 4.3917 4.87582 4.14091 4.87582ZM3.51051 6.13661H4.77131V14.0166H3.51051V6.13661Z"
												fill="black"
											/>
										</svg>