<svg width="20" height="20" viewBox="0 0 20 20" fill="none" xmlns="http://www.w3.org/2000/svg">
<path fill-rule="evenodd" clip-rule="evenodd" d="M9.99992 1.66675C7.69873 1.66675 5.83325 3.53223 5.83325 5.83341V7.50008C4.45254 7.50008 3.33325 8.61937 3.33325 10.0001V15.8334C3.33325 17.2141 4.45254 18.3334 5.83325 18.3334H14.1666C15.5473 18.3334 16.6666 17.2141 16.6666 15.8334V10.0001C16.6666 8.61937 15.5473 7.50008 14.1666 7.50008V5.83341C14.1666 3.53223 12.3011 1.66675 9.99992 1.66675ZM12.4999 7.50008V5.83341C12.4999 4.4527 11.3806 3.33341 9.99992 3.33341C8.61921 3.33341 7.49992 4.4527 7.49992 5.83341V7.50008H12.4999ZM9.99992 10.8334C10.4602 10.8334 10.8333 11.2065 10.8333 11.6667V14.1667C10.8333 14.627 10.4602 15.0001 9.99992 15.0001C9.53968 15.0001 9.16659 14.627 9.16659 14.1667V11.6667C9.16659 11.2065 9.53968 10.8334 9.99992 10.8334Z" fill="#16A34A"/>
</svg>
