<svg width="90" height="26" viewBox="0 0 90 26" fill="none" xmlns="http://www.w3.org/2000/svg">
<path d="M58.9165 10.7812C58.9165 9.79993 59.2215 8.99083 59.831 8.35261C60.4406 7.71504 61.1973 7.39593 62.1005 7.39593C62.2811 7.39593 62.4163 7.40824 62.5069 7.43283V5.26186C62.5069 4.30518 62.8119 3.49543 63.4214 2.83326C64.031 2.1465 64.7877 1.80281 65.6909 1.80281C66.1199 1.80281 66.5263 1.90119 66.91 2.09731C67.3163 2.26884 67.6554 2.51415 67.9265 2.83326C68.2196 3.12777 68.4454 3.49544 68.6033 3.93753C68.7844 4.35438 68.8744 4.79582 68.8744 5.26186V7.43283C68.965 7.40824 69.1115 7.39593 69.3147 7.39593C70.1954 7.39593 70.9407 7.71504 71.5502 8.35261C72.1824 8.99083 72.4988 9.79993 72.4988 10.7812C72.4988 11.7379 72.1824 12.5476 71.5502 13.2098C70.9407 13.848 70.1954 14.1665 69.3147 14.1665H68.8744V21.7836C68.8744 22.7649 68.5586 23.5863 67.9265 24.2491C67.3163 24.9113 66.5716 25.2421 65.6909 25.2421C64.7877 25.2421 64.031 24.9113 63.4214 24.2491C62.8119 23.5863 62.5069 22.7649 62.5069 21.7836V14.1665H62.1005C61.1973 14.1665 60.4406 13.848 59.831 13.2098C59.2215 12.5476 58.9165 11.7379 58.9165 10.7812Z" fill="white"/>
<path d="M0 9.73633C0 8.75506 0.304467 7.94532 0.914587 7.30776C1.52411 6.66954 2.28021 6.35043 3.18347 6.35043C3.3646 6.35043 3.49985 6.36273 3.59042 6.38733V4.21635C3.59042 3.25968 3.89488 2.45057 4.50441 1.78776C5.11453 1.10099 5.87063 0.757935 6.77389 0.757935C7.20288 0.757935 7.60983 0.85568 7.99354 1.05181C8.39989 1.22398 8.73831 1.4693 9.00941 1.78776C9.30315 2.08227 9.52896 2.45057 9.68686 2.89201C9.86739 3.30886 9.95796 3.75031 9.95796 4.21635V6.38733C10.0485 6.36273 10.1951 6.35043 10.3983 6.35043C11.2789 6.35043 12.0243 6.66954 12.6338 7.30776C13.266 7.94532 13.5823 8.75506 13.5823 9.73633C13.5823 10.693 13.266 11.5021 12.6338 12.1643C12.0243 12.8025 11.2789 13.121 10.3983 13.121H9.95796C9.12738 15.9437 9.13394 18.4908 9.87871 19.1562C11.4118 20.5245 15.5241 16.0894 15.5241 22.2223C15.5241 25.9034 7.46445 26.1215 5.02754 23.4075C2.82241 20.9511 3.01903 16.5535 3.59042 13.121H3.18347C2.28021 13.121 1.52411 12.8025 0.914587 12.1643C0.304467 11.5021 0 10.693 0 9.73633Z" fill="white"/>
<path d="M90 22.8871C90 23.5493 89.8421 24.1137 89.5257 24.5797C89.2099 25.0212 88.747 25.2419 88.1375 25.2419C87.6858 25.2419 87.2342 25.0704 86.7826 24.7266C86.3536 24.359 86.0598 23.9667 85.9019 23.5492C85.2019 24.1137 84.4225 24.5428 83.5645 24.8373C82.7292 25.1073 81.9165 25.2419 81.1258 25.2419C79.9968 25.2419 78.9696 25.0089 78.0437 24.5428C77.1178 24.0768 76.3277 23.4392 75.6729 22.6295C75.0181 21.8204 74.5098 20.8753 74.1488 19.7963C73.7871 18.7167 73.6066 17.5639 73.6066 16.3373V10.8548C73.6066 10.3888 73.6858 9.94735 73.8437 9.52985C74.0242 9.113 74.2501 8.75764 74.5212 8.46313C74.8149 8.14402 75.1533 7.89871 75.537 7.72718C75.9213 7.53105 76.3277 7.43268 76.7567 7.43268C77.1857 7.43268 77.592 7.53105 77.9757 7.72718C78.36 7.89871 78.6871 8.14402 78.9583 8.46313C79.252 8.75764 79.4778 9.113 79.6357 9.52985C79.8162 9.94735 79.9068 10.3888 79.9068 10.8548L79.9741 16.3373C79.9741 16.9017 80.1439 17.4046 80.4823 17.8461C80.8214 18.2629 81.2504 18.4713 81.7693 18.4713C82.2889 18.4713 82.7292 18.2629 83.0903 17.8461C83.4519 17.4046 83.6325 16.9017 83.6325 16.3373L83.7004 10.8548C83.7004 10.3888 83.779 9.94735 83.9375 9.52985C84.1181 9.113 84.3439 8.75764 84.615 8.46313C84.9081 8.14402 85.2471 7.89871 85.6309 7.72718C86.0146 7.53105 86.4209 7.43268 86.8505 7.43268C87.2795 7.43268 87.6858 7.53105 88.0695 7.72718C88.4533 7.89871 88.7809 8.14402 89.052 8.46313C89.3452 8.75764 89.571 9.113 89.7295 9.52985C89.91 9.94735 90 10.3888 90 10.8548V22.8871Z" fill="white"/>
<path d="M78.8272 3.47458C78.8272 4.97497 77.7076 6.1912 76.3265 6.1912C74.9454 6.1912 73.8258 4.97497 73.8258 3.47458C73.8258 1.97418 74.9454 0.757935 76.3265 0.757935C77.7076 0.757935 78.8272 1.97418 78.8272 3.47458Z" fill="white"/>
<path d="M89.2993 3.47458C89.2993 4.97497 88.1798 6.1912 86.7987 6.1912C85.4175 6.1912 84.298 4.97497 84.298 3.47458C84.298 1.97418 85.4175 0.757935 86.7987 0.757935C88.1798 0.757935 89.2993 1.97418 89.2993 3.47458Z" fill="white"/>
<path d="M33.7413 5.2617C33.7413 4.30502 34.0458 3.49527 34.6559 2.8331C35.2654 2.14634 36.0215 1.80265 36.9248 1.80265C37.3538 1.80265 37.7608 1.90103 38.1445 2.09715C38.5508 2.26868 38.8892 2.514 39.1603 2.8331C39.4541 3.12762 39.6799 3.49528 39.8378 3.93673C40.0183 4.35422 40.1089 4.79566 40.1089 5.2617V21.7835C40.1089 22.7647 39.7925 23.5862 39.1603 24.2483C38.5508 24.9111 37.8054 25.2419 36.9248 25.2419C36.0215 25.2419 35.2654 24.9111 34.6559 24.2483C34.0458 23.5862 33.7413 22.7647 33.7413 21.7835V5.2617Z" fill="white"/>
<path d="M15.5241 16.3373C15.5241 15.1107 15.716 13.9579 16.0997 12.8782C16.5066 11.7992 17.0595 10.8548 17.7596 10.0451C18.4597 9.23598 19.2837 8.59777 20.2323 8.13173C21.2029 7.66569 22.2533 7.43268 23.3824 7.43268C24.1725 7.43268 24.9852 7.6042 25.8211 7.9479C26.6564 8.26701 27.3339 8.67156 27.8534 9.1622C28.034 8.72076 28.3271 8.34016 28.7341 8.0217C29.1631 7.678 29.6034 7.50645 30.055 7.50645C30.6645 7.50645 31.1275 7.73949 31.4433 8.20553C31.7596 8.64697 31.9175 9.19909 31.9175 9.86125V22.8871C31.9175 23.5493 31.7596 24.1137 31.4433 24.5797C31.1275 25.0212 30.6645 25.2419 30.055 25.2419C29.6034 25.2419 29.1744 25.0581 28.7674 24.6904C28.3611 24.3221 28.0453 23.9421 27.8195 23.5492C27.1647 24.1875 26.4533 24.6289 25.6852 24.8742C24.9405 25.1195 24.1725 25.2419 23.3824 25.2419C22.2533 25.2419 21.2029 25.0089 20.2323 24.5428C19.2837 24.0768 18.4597 23.4392 17.7596 22.6295C17.0595 21.8197 16.5066 20.8753 16.0997 19.7963C15.716 18.7167 15.5241 17.5639 15.5241 16.3373ZM21.8917 16.3373C21.8917 16.9017 22.0615 17.4046 22.3999 17.8461C22.7389 18.2629 23.1679 18.4713 23.6869 18.4713C24.2064 18.4713 24.6467 18.2629 25.0078 17.8461C25.3695 17.4046 25.55 16.9017 25.55 16.3373C25.55 15.7728 25.3695 15.2829 25.0078 14.8654C24.6467 14.4239 24.2064 14.2032 23.6869 14.2032C23.1679 14.2032 22.7389 14.4239 22.3999 14.8654C22.0615 15.2829 21.8917 15.7728 21.8917 16.3373Z" fill="white"/>
<path d="M52.8904 8.16863C53.2295 7.87412 53.6019 7.67799 54.0082 7.5796C54.4146 7.45727 54.8209 7.43266 55.2278 7.50645C55.6342 7.55565 56.0179 7.70258 56.379 7.9479C56.7406 8.16862 57.0564 8.47543 57.3275 8.86768C57.8471 9.65283 58.0389 10.4865 57.9037 11.3701C57.7905 12.2284 57.3728 12.952 56.6501 13.541L54.6517 15.123L57.4634 19.6487C57.7339 20.017 57.9263 20.4216 58.0389 20.863C58.1742 21.3051 58.2195 21.7466 58.1742 22.188C58.1516 22.6295 58.0389 23.0586 57.8358 23.4761C57.6552 23.8684 57.3841 24.2121 57.0231 24.5059C56.323 25.0949 55.555 25.328 54.7196 25.205C53.9069 25.0581 53.2295 24.6043 52.6873 23.8438L49.7403 18.9866C49.1308 19.4772 48.7471 19.784 48.5886 19.9064C48.4307 20.0048 48.3181 20.0786 48.2502 20.1271V21.7835C48.2502 22.7647 47.9338 23.5862 47.3016 24.2483C46.6921 24.9111 45.9467 25.2419 45.0661 25.2419C44.1629 25.2419 43.4068 24.9111 42.7966 24.2483C42.1871 23.5862 41.8826 22.7647 41.8826 21.7835V5.2617C41.8826 4.30502 42.1871 3.49527 42.7966 2.8331C43.4068 2.14634 44.1629 1.80265 45.0661 1.80265C45.4951 1.80265 45.9021 1.90103 46.2858 2.09715C46.6921 2.26868 47.0305 2.514 47.3016 2.8331C47.5954 3.12762 47.8212 3.49528 47.9791 3.93673C48.1596 4.35422 48.2502 4.79566 48.2502 5.2617V11.8484L52.8904 8.16863Z" fill="white"/>
</svg>
