<svg width="105" height="29" viewBox="0 0 105 29" fill="none" xmlns="http://www.w3.org/2000/svg">
<path d="M68.5031 11.6542C68.5031 10.5133 68.8578 9.57251 69.5665 8.83045C70.2752 8.08914 71.155 7.71811 72.2053 7.71811C72.4152 7.71811 72.5724 7.73241 72.6777 7.76101V5.23678C72.6777 4.12444 73.0324 3.18293 73.7411 2.41302C74.4498 1.61451 75.3297 1.21489 76.3799 1.21489C76.8787 1.21489 77.3512 1.32928 77.7973 1.55731C78.2698 1.75675 78.6639 2.04198 78.9791 2.41302C79.32 2.75545 79.5826 3.18294 79.7662 3.69697C79.9768 4.18165 80.0814 4.69491 80.0814 5.23678V7.76101C80.1867 7.73241 80.3571 7.71811 80.5933 7.71811C81.6172 7.71811 82.4839 8.08914 83.1926 8.83045C83.9276 9.57251 84.2955 10.5133 84.2955 11.6542C84.2955 12.7666 83.9276 13.708 83.1926 14.478C82.4839 15.22 81.6172 15.5903 80.5933 15.5903H80.0814V24.4469C80.0814 25.5879 79.7142 26.5429 78.9791 27.3136C78.2698 28.0835 77.4038 28.4681 76.3799 28.4681C75.3297 28.4681 74.4498 28.0835 73.7411 27.3136C73.0324 26.5429 72.6777 25.5879 72.6777 24.4469V15.5903H72.2053C71.155 15.5903 70.2752 15.22 69.5665 14.478C68.8578 13.708 68.5031 12.7666 68.5031 11.6542Z" fill="#000D26"/>
<path d="M0 10.4393C0 9.29838 0.354008 8.35689 1.06341 7.61558C1.77211 6.87352 2.65123 6.50248 3.70147 6.50248C3.91208 6.50248 4.06933 6.51678 4.17464 6.54538V4.02116C4.17464 2.90881 4.52864 1.96805 5.23734 1.19739C5.94674 0.398881 6.82587 0 7.87611 0C8.3749 0 8.84806 0.11365 9.29421 0.341688C9.76668 0.54188 10.1602 0.827111 10.4754 1.19739C10.8169 1.53982 11.0795 1.96805 11.2631 2.48132C11.473 2.966 11.5783 3.47929 11.5783 4.02116V6.54538C11.6836 6.51678 11.854 6.50248 12.0902 6.50248C13.1141 6.50248 13.9808 6.87352 14.6895 7.61558C15.4245 8.35689 15.7924 9.29838 15.7924 10.4393C15.7924 11.5517 15.4245 12.4924 14.6895 13.2623C13.9808 14.0044 13.1141 14.3747 12.0902 14.3747H11.5783C10.6125 17.6568 11.2243 19.822 12.0902 20.5957C13.8727 22.1867 18.0501 17.8261 18.0501 24.957C18.0501 29.237 8.67903 29.4907 5.8456 26.335C3.28166 23.4789 3.51027 18.3657 4.17464 14.3747H3.70147C2.65123 14.3747 1.77211 14.0044 1.06341 13.2623C0.354008 12.4924 0 11.5517 0 10.4393Z" fill="#000D26"/>
<path d="M104.644 25.7299C104.644 26.4998 104.461 27.1561 104.093 27.698C103.726 28.2112 103.188 28.4679 102.479 28.4679C101.954 28.4679 101.429 28.2684 100.903 27.8688C100.405 27.4413 100.063 26.9852 99.8795 26.4998C99.0655 27.1561 98.1594 27.6551 97.1618 27.9975C96.1905 28.3113 95.2456 28.4679 94.3263 28.4679C93.0135 28.4679 91.8192 28.1969 90.7426 27.6551C89.666 27.1132 88.7474 26.3719 87.9861 25.4304C87.2247 24.4896 86.6338 23.3908 86.2139 22.1362C85.7934 20.8809 85.5835 19.5405 85.5835 18.1143V11.7398C85.5835 11.1979 85.6757 10.6847 85.8592 10.1992C86.0692 9.71457 86.3317 9.30138 86.6469 8.95895C86.9885 8.58792 87.382 8.30269 87.8281 8.10325C88.2749 7.87521 88.7474 7.76083 89.2462 7.76083C89.745 7.76083 90.2175 7.87521 90.6636 8.10325C91.1104 8.30269 91.4908 8.58792 91.806 8.95895C92.1475 9.30138 92.4101 9.71457 92.5937 10.1992C92.8036 10.6847 92.9089 11.1979 92.9089 11.7398L92.9872 18.1143C92.9872 18.7706 93.1846 19.3554 93.5781 19.8687C93.9723 20.3533 94.4711 20.5957 95.0745 20.5957C95.6786 20.5957 96.1905 20.3533 96.6104 19.8687C97.0309 19.3554 97.2408 18.7706 97.2408 18.1143L97.3197 11.7398C97.3197 11.1979 97.4112 10.6847 97.5955 10.1992C97.8054 9.71457 98.0679 9.30138 98.3832 8.95895C98.724 8.58792 99.1182 8.30269 99.5643 8.10325C100.01 7.87521 100.483 7.76083 100.982 7.76083C101.481 7.76083 101.954 7.87521 102.4 8.10325C102.846 8.30269 103.227 8.58792 103.542 8.95895C103.883 9.30138 104.146 9.71457 104.33 10.1992C104.54 10.6847 104.644 11.1979 104.644 11.7398V25.7299Z" fill="#000D26"/>
<path d="M91.6536 3.15868C91.6536 4.90321 90.3519 6.31734 88.746 6.31734C87.1402 6.31734 85.8385 4.90321 85.8385 3.15868C85.8385 1.41415 87.1402 0 88.746 0C90.3519 0 91.6536 1.41415 91.6536 3.15868Z" fill="#000D26"/>
<path d="M103.83 3.15868C103.83 4.90321 102.528 6.31734 100.922 6.31734C99.3163 6.31734 98.0146 4.90321 98.0146 3.15868C98.0146 1.41415 99.3163 0 100.922 0C102.528 0 103.83 1.41415 103.83 3.15868Z" fill="#000D26"/>
<path d="M39.2316 5.2366C39.2316 4.12426 39.5856 3.18274 40.295 2.41283C41.0037 1.61432 41.8828 1.21471 42.9331 1.21471C43.4319 1.21471 43.905 1.32909 44.3512 1.55713C44.8236 1.75657 45.2171 2.0418 45.5323 2.41283C45.8739 2.75527 46.1364 3.18276 46.32 3.69603C46.5299 4.18146 46.6352 4.69473 46.6352 5.2366V24.4467C46.6352 25.5877 46.2674 26.5427 45.5323 27.3126C44.8236 28.0833 43.957 28.4679 42.9331 28.4679C41.8828 28.4679 41.0037 28.0833 40.295 27.3126C39.5856 26.5427 39.2316 25.5877 39.2316 24.4467V5.2366Z" fill="#000D26"/>
<path d="M18.0501 18.1143C18.0501 16.6882 18.2732 15.3478 18.7193 14.0925C19.1925 12.8379 19.8354 11.7398 20.6494 10.7983C21.4634 9.85756 22.4215 9.1155 23.5244 8.57362C24.6529 8.03175 25.8743 7.76083 27.1871 7.76083C28.1057 7.76083 29.0506 7.96026 30.0226 8.35989C30.9939 8.73092 31.7815 9.2013 32.3856 9.77177C32.5955 9.2585 32.9364 8.81597 33.4095 8.44569C33.9083 8.04606 34.4203 7.84661 34.9454 7.84661C35.6541 7.84661 36.1924 8.11756 36.5596 8.65943C36.9274 9.1727 37.111 9.81466 37.111 10.5846V25.7299C37.111 26.4998 36.9274 27.1561 36.5596 27.698C36.1924 28.2112 35.6541 28.4679 34.9454 28.4679C34.4203 28.4679 33.9215 28.2541 33.4483 27.8267C32.9759 27.3984 32.6087 26.9566 32.3461 26.4998C31.5848 27.2419 30.7576 27.7552 29.8646 28.0404C28.9987 28.3256 28.1057 28.4679 27.1871 28.4679C25.8743 28.4679 24.6529 28.1969 23.5244 27.6551C22.4215 27.1132 21.4634 26.3719 20.6494 25.4304C19.8354 24.4889 19.1925 23.3908 18.7193 22.1362C18.2732 20.8809 18.0501 19.5405 18.0501 18.1143ZM25.4538 18.1143C25.4538 18.7706 25.6512 19.3554 26.0447 19.8687C26.4389 20.3533 26.9377 20.5957 27.5411 20.5957C28.1452 20.5957 28.6571 20.3533 29.077 19.8687C29.4975 19.3554 29.7074 18.7706 29.7074 18.1143C29.7074 17.4581 29.4975 16.8884 29.077 16.4029C28.6571 15.8897 28.1452 15.633 27.5411 15.633C26.9377 15.633 26.4389 15.8897 26.0447 16.4029C25.6512 16.8884 25.4538 17.4581 25.4538 18.1143Z" fill="#000D26"/>
<path d="M61.4966 8.61653C61.8907 8.2741 62.3237 8.04605 62.7962 7.93166C63.2687 7.78942 63.7411 7.76081 64.2143 7.84661C64.6868 7.90381 65.1329 8.07465 65.5527 8.35989C65.9732 8.61653 66.3404 8.97325 66.6556 9.42933C67.2597 10.3422 67.4828 11.3116 67.3255 12.3389C67.1939 13.3369 66.7083 14.1782 65.8679 14.8631L63.5444 16.7025L66.8136 21.9646C67.1281 22.3929 67.3518 22.8633 67.4828 23.3765C67.64 23.8906 67.6927 24.4038 67.64 24.9171C67.6137 25.4304 67.4828 25.9293 67.2465 26.4148C67.0366 26.8708 66.7214 27.2705 66.3016 27.6122C65.4876 28.297 64.5946 28.568 63.6234 28.425C62.6784 28.2541 61.8907 27.7266 61.2603 26.8423L57.8339 21.1948C57.1252 21.7652 56.679 22.1219 56.4947 22.2642C56.3112 22.3786 56.1802 22.4644 56.1013 22.5208V24.4467C56.1013 25.5877 55.7334 26.5427 54.9984 27.3126C54.2896 28.0833 53.423 28.4679 52.3991 28.4679C51.3488 28.4679 50.4697 28.0833 49.7603 27.3126C49.0516 26.5427 48.6976 25.5877 48.6976 24.4467V5.2366C48.6976 4.12426 49.0516 3.18274 49.7603 2.41283C50.4697 1.61432 51.3488 1.21471 52.3991 1.21471C52.8979 1.21471 53.371 1.32909 53.8172 1.55713C54.2897 1.75657 54.6831 2.0418 54.9984 2.41283C55.3399 2.75527 55.6025 3.18276 55.786 3.69603C55.996 4.18146 56.1013 4.69473 56.1013 5.2366V12.8951L61.4966 8.61653Z" fill="#000D26"/>
</svg>
