<svg width="588" height="618" viewBox="0 0 588 618" fill="none" xmlns="http://www.w3.org/2000/svg">
<g clip-path="url(#clip0_2343_12659)">
<rect width="588" height="618" fill="#6197FC"/>
<path d="M623.262 1322.01C638.497 777.943 -76.7617 394.922 296.103 42.3709C668.968 -310.18 679.124 -672.888 331.652 -1227.11" stroke="#2C70F0" stroke-width="145.14" stroke-linecap="round"/>
<path d="M623.262 1322.01C638.497 777.943 -76.7617 394.922 296.103 42.3709C668.968 -310.18 679.124 -672.888 331.652 -1227.11" stroke="#1A58CC" stroke-width="14.514" stroke-linecap="round"/>
<rect x="184.996" y="244.54" width="30.3431" height="116.742" rx="15.1716" transform="rotate(2.25894 184.996 244.54)" fill="#FFD563"/>
<path d="M142.986 235.559C157.543 265.628 193.72 278.203 223.789 263.645C253.858 249.088 266.433 212.911 251.876 182.842C237.319 152.773 201.142 140.198 171.073 154.756C141.004 169.313 128.429 205.49 142.986 235.559Z" fill="#228BE6"/>
<path d="M175.651 219.744C181.474 231.771 195.945 236.801 207.973 230.978C220 225.155 225.03 210.685 219.207 198.657C213.384 186.629 198.914 181.6 186.886 187.422C174.858 193.245 169.829 207.716 175.651 219.744Z" fill="white"/>
<rect x="306.344" y="518.32" width="39.9863" height="153.843" rx="19.9931" transform="rotate(-2.19184 306.344 518.32)" fill="#FFD563"/>
<path d="M254.88 510.076C277.081 548.093 325.897 560.915 363.914 538.714C401.931 516.513 414.752 467.697 392.552 429.68C370.351 391.663 321.535 378.842 283.518 401.042C245.501 423.243 232.679 472.059 254.88 510.076Z" fill="#228BE6"/>
<path d="M296.181 485.957C305.061 501.164 324.587 506.293 339.794 497.412C355.001 488.532 360.129 469.006 351.249 453.799C342.369 438.592 322.842 433.464 307.636 442.344C292.429 451.224 287.3 470.751 296.181 485.957Z" fill="white"/>
<rect x="261.084" y="0.353394" width="21.5834" height="83.0402" rx="10.7917" transform="rotate(0.609921 261.084 0.353394)" fill="#FFD563"/>
<path d="M229.555 -9.60973C236.387 13.1502 260.376 26.0622 283.136 19.2301C305.896 12.3981 318.808 -11.591 311.976 -34.3508C305.144 -57.1107 281.155 -70.0228 258.395 -63.1907C235.635 -56.3586 222.723 -32.3696 229.555 -9.60973Z" fill="#228BE6"/>
</g>
<defs>
<clipPath id="clip0_2343_12659">
<rect width="588" height="618" fill="white"/>
</clipPath>
</defs>
</svg>
