<svg width="588" height="618" viewBox="0 0 588 618" fill="none" xmlns="http://www.w3.org/2000/svg">
<g clip-path="url(#clip0_2376_13011)">
<rect width="588" height="618" fill="#FFDD80"/>
<path d="M180.69 219.104C221.964 228.339 243.299 196.946 248.807 180.095C248.807 180.095 272.969 189.494 272.363 182.976C271.758 176.459 261.882 153.405 264.183 147.49C268.276 136.968 279.106 83.7505 251.979 64.6734C224.852 45.5964 195.183 50.4451 178.993 73.522C164.897 93.6131 153.872 134.641 144.732 161.595C138.965 178.346 139.415 209.868 180.69 219.104Z" fill="#E3A6A6"/>
<circle cx="154.5" cy="315.5" r="48.5" fill="#1C1C1C"/>
<path d="M72.5885 416.184C13.7124 337.895 65.8251 220.461 109.983 180.282L148.57 199.775L119.928 266.607C99.2419 318.322 103.046 376.328 181.191 356.91C246.829 340.6 259.162 487.79 267.118 562.181L222.166 566.557L211.425 510.863C185.566 526.378 106.005 519.748 72.5885 510.863V416.184Z" fill="#FF9900"/>
<path d="M267 562L227 564.637L238.425 584.382C238.062 585.594 241.306 590.933 240 598C238.694 605.067 243.865 613.812 249.85 613.999C253.114 614.101 260.186 607.244 263.45 598.931C266.715 590.617 269.72 572.219 267 562Z" fill="#773B2E"/>
<path d="M307.5 561L347 564L335.634 581.382C335.997 582.594 332.753 587.934 334.059 595C335.364 602.067 330.193 610.812 324.209 610.999C320.945 611.101 313.872 604.244 310.608 595.931C307.344 587.617 304.78 571.219 307.5 561Z" fill="#773B2E"/>
<path d="M129.873 134.136C126.094 141.693 116.719 164.426 111.384 177.604C110.594 179.557 111.47 181.779 113.375 182.678L142.214 196.288C144.027 197.143 146.19 196.522 147.266 194.83C154.859 182.883 167.501 163.024 169.256 160.391C171.643 156.811 172.041 144.081 165.278 143.683C160.594 143.408 155.772 149.075 153.184 153.097C152.499 154.162 151.177 155.194 150.28 154.301C147.198 151.236 152.561 135.872 158.402 121.68C159.551 118.887 157.345 116.034 154.461 116.93C145.579 119.691 133.92 126.042 129.873 134.136Z" fill="#773B2E"/>
<path d="M240.845 634.695L219.656 513.137C219.282 510.994 217.257 509.548 215.109 509.892L159.857 518.732C159.494 518.79 159.126 518.798 158.761 518.755L81.7447 509.649C79.8836 509.429 78.1213 510.538 77.5141 512.311L35.804 634.089C34.9197 636.671 36.8384 639.356 39.5675 639.356H236.926C239.396 639.356 241.269 637.129 240.845 634.695Z" fill="#3E8E3E"/>
<path d="M393.498 225.246C350.817 230.994 331.927 197.276 327.818 179.698C327.818 179.698 302.483 187.113 303.669 180.555C304.855 173.997 316.896 151.476 315.081 145.273C311.852 134.24 305.533 79.3042 334.726 62.3314C363.918 45.3585 393.59 52.8799 407.99 77.7103C420.527 99.3282 428.112 141.916 435.019 170.061C439.401 187.559 436.179 219.497 393.498 225.246Z" fill="#E3A6A6"/>
<ellipse cx="48.5" cy="49" rx="48.5" ry="49" transform="matrix(-1 0 0 1 469 266)" fill="#1C1C1C"/>
<path d="M502.163 415.183C561.04 336.894 508.927 219.46 464.769 179.281L426.181 198.774L454.824 265.606C475.51 317.322 471.706 375.328 393.561 355.91C327.923 339.599 315.59 486.79 307.634 561.18L352.586 565.556L363.327 509.863C389.185 525.377 468.747 518.747 502.163 509.863V415.183Z" fill="#3E8E3E"/>
<path d="M444.879 133.135C448.658 140.692 458.033 163.425 463.368 176.604C464.158 178.557 463.282 180.779 461.377 181.678L432.538 195.287C430.725 196.143 428.562 195.522 427.486 193.83C419.893 181.882 407.251 162.023 405.496 159.391C403.109 155.81 402.711 143.08 409.474 142.683C414.157 142.407 418.98 148.075 421.568 152.097C422.252 153.161 423.475 154.113 424.527 153.409C428.879 150.497 427.038 133.623 422.153 115.713C421.407 112.98 423.608 110.537 426.09 111.903C433.213 115.822 440.807 124.991 444.879 133.135Z" fill="#773B2E"/>
<path d="M333.907 633.694L355.096 512.136C355.469 509.993 357.495 508.547 359.643 508.891L414.895 517.731C415.258 517.789 415.626 517.797 415.991 517.754L493.007 508.648C494.868 508.428 496.631 509.537 497.238 511.31L538.948 633.088C539.832 635.67 537.914 638.356 535.184 638.356H337.826C335.356 638.356 333.483 636.128 333.907 633.694Z" fill="#E75917"/>
<circle cx="245.5" cy="118.5" r="8.5" fill="#1C1C1C"/>
<circle cx="334.5" cy="121.5" r="8.5" fill="#1C1C1C"/>
</g>
<defs>
<clipPath id="clip0_2376_13011">
<rect width="588" height="618" fill="white"/>
</clipPath>
</defs>
</svg>
