<svg width="588" height="618" viewBox="0 0 588 618" fill="none" xmlns="http://www.w3.org/2000/svg">
<g clip-path="url(#clip0_4156_734)">
<rect width="588" height="618" rx="62" fill="#9F9DFE"/>
<path d="M535.8 301.119C531.631 315.503 524.667 328.923 515.306 340.613C505.945 352.302 494.372 362.032 481.247 369.244C468.123 376.456 453.705 381.01 438.819 382.644C423.933 384.279 408.87 382.962 394.493 378.77C390.875 377.722 387.313 376.491 383.821 375.081L382.742 374.643C381.259 374.043 379.799 373.404 378.351 372.724C374.706 371.052 371.156 369.181 367.717 367.118C366.985 366.691 366.248 366.24 365.525 365.782C362.807 364.067 360.178 362.254 357.638 360.343C356.719 359.625 355.713 358.86 354.773 358.101C338.705 345.156 326.452 328.092 319.32 308.73C312.187 289.368 310.442 268.434 314.271 248.159C318.101 227.883 327.36 209.027 341.063 193.6C354.766 178.173 372.398 166.754 392.08 160.559C411.762 154.365 432.756 153.628 452.824 158.427C472.892 163.225 491.282 173.38 506.033 187.808C520.784 202.236 531.343 220.396 536.585 240.353C541.827 260.31 541.554 281.315 535.797 301.13L535.8 301.119Z" fill="#B6B5FF"/>
<path d="M414.124 382.663C407.479 381.942 400.91 380.639 394.493 378.769C390.875 377.722 387.313 376.49 383.821 375.08L382.742 374.642C381.259 374.042 379.799 373.403 378.351 372.723C379.642 370.844 381.391 369.594 382.189 365.689C382.6 363.656 381.779 360.509 381.85 357.937C381.812 357.309 381.904 356.68 382.121 356.089C382.337 355.499 382.673 354.959 383.108 354.504C383.534 354.151 384.035 353.901 384.572 353.772C385.11 353.643 385.67 353.639 386.21 353.761C387.732 354.068 389.488 354.308 391.331 354.562L392.413 354.719C397.833 355.461 403.815 356.479 406.718 359.792C407.107 360.229 407.448 360.706 407.736 361.215C410.376 365.781 411.512 374.588 412.959 379.033L414.124 382.663Z" fill="#8195CC"/>
<path d="M376.861 345.756C375.815 348.526 374.683 351.371 373.465 354.294C371.742 358.437 369.829 362.727 367.721 367.108C366.989 366.681 366.252 366.23 365.529 365.772C366.537 361.218 367.462 356.64 368.388 352.062L369.298 347.886C369.421 347.31 369.371 346.712 369.156 346.165C370.305 342.948 371.406 339.706 372.485 336.458L377.754 339.117C378.235 339.341 378.662 339.664 379.008 340.066C379.354 340.468 379.61 340.939 379.759 341.448C379.866 342.393 379.634 343.346 379.103 344.135C378.572 344.925 377.777 345.499 376.861 345.756Z" fill="#7989B5"/>
<path d="M396.377 343.372C395.386 345.541 394.423 347.65 393.505 349.683C392.758 351.359 392.026 352.984 391.331 354.563C390.635 356.141 389.879 357.849 389.186 359.417C389.075 359.802 388.869 360.159 388.719 360.521C387.951 362.271 387.222 363.964 386.553 365.528C385.125 368.888 383.848 371.921 382.794 374.579C381.311 373.979 379.851 373.34 378.403 372.66C374.742 371.011 371.175 369.161 367.717 367.118C366.985 366.691 366.248 366.24 365.524 365.782C362.807 364.067 360.178 362.254 357.637 360.343C356.719 359.625 355.713 358.86 354.772 358.101C356.69 355.62 358.387 352.975 359.843 350.198C360.307 349.25 360.82 348.326 361.38 347.432C361.963 346.474 362.598 345.532 363.236 344.5C366.701 339.173 370.169 333.914 373.245 328.338C373.529 327.805 373.891 327.318 374.319 326.892C374.721 326.502 375.194 326.191 375.712 325.978C376.207 325.766 376.743 325.667 377.28 325.687C377.818 325.707 378.345 325.846 378.823 326.094L397.635 335.903C398.133 336.142 398.568 336.493 398.905 336.93C399.241 337.367 399.471 337.876 399.576 338.418C399.647 339.478 399.374 340.532 398.798 341.425C398.221 342.317 397.372 343 396.377 343.372Z" fill="#8195CC"/>
<path d="M380.218 212.945C380.218 212.945 380.245 212.851 380.333 212.82L380.588 212.602L380.846 212.372L380.979 212.264L381.124 212.194C381.131 212.189 381.14 212.186 381.149 212.184C381.158 212.183 381.168 212.184 381.177 212.186C381.185 212.189 381.194 212.193 381.201 212.199C381.208 212.205 381.213 212.213 381.217 212.221C381.197 212.267 381.183 212.316 381.175 212.366C381.138 212.412 381.096 212.453 381.049 212.488L380.802 212.72L380.557 212.942L380.421 213.06C380.421 213.06 380.321 213.133 380.266 213.128C380.211 213.123 380.183 213.104 380.172 213.101C380.172 213.045 380.188 212.991 380.218 212.945Z" fill="#774137"/>
<path d="M414.791 275.795L402.137 272.46L396.309 294.575L408.963 297.91L414.791 275.795Z" fill="#A8684F"/>
<path d="M412.393 284.917L414.8 275.788L402.141 272.456L400.657 278.1C404.282 280.834 408.222 283.123 412.393 284.917Z" fill="#774137"/>
<path d="M418.022 207.029C417.099 206.933 416.171 206.889 415.243 206.897C416.171 206.866 417.101 206.91 418.022 207.029Z" fill="#A8684F"/>
<path d="M438.276 266.957C433.089 275.92 420.376 280.914 410.406 278.568C408.211 278.054 404.825 277.914 401.123 276.263C391.886 272.134 382.355 263.006 385.239 252.042C385.717 250.28 386.578 248.645 387.759 247.252C387.697 246.107 387.667 244.892 387.656 243.728C387.342 243.737 387.028 243.683 386.734 243.57C386.44 243.458 386.171 243.288 385.942 243.071C385.53 242.511 385.326 241.825 385.365 241.131C385.404 240.436 385.685 239.778 386.158 239.268C385.323 238.358 384.786 237.215 384.619 235.991C384.348 233.32 386.361 231.166 387.578 229.694C391.819 224.603 389.928 223.704 393.919 218.507C396.653 215.039 400.054 212.155 403.922 210.025C407.791 207.895 412.047 206.563 416.439 206.107L416.553 206.14C417.48 206.126 418.406 206.163 419.329 206.248C420.747 206.418 422.143 206.734 423.496 207.19C424.493 207.516 425.468 207.905 426.415 208.354C441.978 214.92 443.899 221.881 444.267 224.22C444.642 226.808 444.095 229.58 444.595 238.597C444.844 242.766 444.284 246.943 442.946 250.899C443.197 251.261 443.373 251.67 443.465 252.101C443.556 252.532 443.561 252.977 443.478 253.41C443.24 254.183 442.754 254.855 442.094 255.322C441.434 255.789 440.638 256.024 439.831 255.99C439.873 258.133 440.697 262.78 438.276 266.957Z" fill="#A8684F"/>
<path d="M425.064 209.246C424.123 208.79 423.156 208.388 422.168 208.043C420.819 207.579 419.427 207.25 418.013 207.06C420.494 207.268 422.9 208.014 425.064 209.246Z" fill="#A8684F"/>
<path d="M425.029 237.314C424.153 237.882 423.385 239.091 423.893 240.095C424.705 241.684 427.969 240.886 433.287 243.142C435.575 244.112 436.636 244.961 437.008 244.652C437.572 244.185 435.956 241.484 433.589 239.623C431.367 237.883 427.214 235.887 425.029 237.314Z" fill="#221817"/>
<path d="M405.492 234.102C406.137 234.91 406.466 236.335 405.691 237.102C404.427 238.346 401.574 236.57 395.816 237.026C393.344 237.232 392.057 237.703 391.805 237.291C391.421 236.673 393.801 234.614 396.632 233.6C399.463 232.586 403.865 232.062 405.492 234.102Z" fill="#221817"/>
<path d="M450.467 235.694C450.207 241.376 448.322 246.864 445.035 251.507C443.17 254.042 440.083 257.179 439.459 256.727C439.244 256.575 439.313 256.144 439.474 255.357C439.972 252.83 440.063 251.549 440.226 250.988C440.948 248.504 442.236 231.204 434.386 226.103C430.025 223.268 427.891 227.506 417.577 225.995C408.018 224.602 404.727 220.218 399.635 222.457C397.037 223.64 395.54 225.843 393.015 229.719C390.832 233.14 389.216 236.891 388.229 240.828C386.981 245.662 387.226 248.618 386.496 248.688C385.568 248.779 384.279 244.064 383.632 240.551C382.827 236.146 381.637 229.657 384.294 221.953C385.534 218.395 387.397 215.085 389.796 212.179C393.702 207.227 398.893 203.443 404.803 201.242C410.713 199.04 417.115 198.505 423.308 199.695C426.435 200.331 429.453 201.418 432.267 202.92C442.573 208.453 446.857 217.95 448.297 221.874C449.947 226.287 450.685 230.988 450.467 235.694Z" fill="#221817"/>
<g opacity="0.12">
<path d="M394.484 265.177C398.999 265.903 403.162 263.367 403.781 259.513C404.401 255.659 401.243 251.946 396.728 251.221C392.213 250.495 388.05 253.031 387.431 256.885C386.811 260.739 389.969 264.451 394.484 265.177Z" fill="#A1463D"/>
</g>
<g opacity="0.12">
<path d="M424.275 269.969C428.79 270.695 432.953 268.159 433.572 264.305C434.192 260.451 431.034 256.738 426.519 256.013C422.004 255.287 417.841 257.823 417.222 261.677C416.602 265.531 419.76 269.243 424.275 269.969Z" fill="#A1463D"/>
</g>
<path d="M386.99 245.631L387.02 245.143C387.041 244.982 387.051 244.819 387.049 244.656C387.056 244.631 387.053 244.604 387.04 244.582C387.028 244.559 387.007 244.542 386.982 244.535C386.957 244.528 386.931 244.531 386.908 244.543C386.885 244.556 386.869 244.577 386.861 244.601C386.825 244.762 386.803 244.926 386.798 245.09L386.759 245.575C386.725 245.897 386.714 246.221 386.725 246.545C386.697 246.639 386.891 246.594 386.88 246.591C386.939 246.274 386.975 245.953 386.99 245.631Z" fill="#774137"/>
<path d="M385.841 253.457C382.318 256.772 376.17 255.706 372.766 252.484C371.666 251.341 370.83 249.969 370.318 248.467C369.806 246.964 369.631 245.367 369.805 243.789C369.894 242.902 370.518 237.966 374.169 236.187C378.607 234.028 385.173 237.73 387.309 242.905C388.468 245.778 388.816 250.591 385.841 253.457Z" fill="#A8684F"/>
<path d="M381.48 250.082C380.66 251.117 377.456 250.625 375.616 248.771C375.029 248.14 374.581 247.393 374.301 246.578C374.021 245.762 373.917 244.897 373.994 244.039C374.076 243.251 374.318 240.83 376.327 239.892C377.108 239.533 377.986 239.439 378.825 239.626C379.665 239.813 380.42 240.271 380.974 240.928C381.815 242.221 380.548 243.284 380.871 246.399C381.156 248.714 381.985 249.428 381.48 250.082Z" fill="#774137"/>
<path d="M437.166 263.027C438.521 267.67 444.408 269.867 448.926 268.791C450.453 268.358 451.868 267.597 453.071 266.561C454.274 265.524 455.236 264.237 455.89 262.79C456.252 261.971 458.215 257.391 455.957 254.029C453.218 249.919 445.692 249.793 441.248 253.134C438.686 255.083 435.972 259.028 437.166 263.027Z" fill="#A8684F"/>
<path d="M442.562 262.296C442.733 263.608 445.759 264.793 448.285 264.13C449.109 263.883 449.872 263.464 450.523 262.902C451.174 262.339 451.699 261.645 452.063 260.866C452.398 260.14 453.427 257.881 452.108 256.099C451.616 255.394 450.906 254.869 450.088 254.604C449.269 254.34 448.386 254.35 447.574 254.635C446.233 255.372 446.75 256.886 444.9 259.414C443.523 261.279 442.452 261.475 442.562 262.296Z" fill="#774137"/>
<path d="M405.859 255.096C405.723 255.151 405.577 255.177 405.431 255.174L405.184 255.17C402.075 254.654 398.996 253.973 395.959 253.13L395.73 253.064L394.504 252.707C392.768 252.202 391.124 251.578 390.399 250.386C390.205 250.043 390.085 249.662 390.048 249.27C389.985 247.917 390.372 246.582 391.147 245.472C391.923 244.362 393.043 243.54 394.335 243.133C396.152 242.586 398.08 242.511 399.934 242.916C401.789 243.321 403.51 244.193 404.933 245.448C408.579 248.921 408.036 254.432 405.859 255.096Z" fill="white"/>
<path d="M405.418 255.215L405.171 255.211C402.062 254.695 398.983 254.014 395.946 253.171L395.718 253.105L394.491 252.748C394.447 252.537 394.434 252.321 394.453 252.106C394.775 248.401 396.964 247.076 396.964 247.076C398.25 246.374 399.734 246.121 401.18 246.358C402.626 246.595 403.952 247.307 404.947 248.383C405.787 249.301 406.291 250.476 406.376 251.717C406.462 252.958 406.124 254.191 405.418 255.215Z" fill="#221817"/>
<path d="M436.594 257.236C436.474 257.601 436.258 257.927 435.97 258.181C435.013 259.03 433.331 259.116 431.589 258.982L430.131 258.84L429.913 258.776C426.747 258.524 423.596 258.101 420.475 257.508L420.07 257.391C419.986 257.346 419.907 257.293 419.834 257.232C417.9 255.858 418.736 250.465 423.198 248.493C424.983 247.807 426.913 247.582 428.809 247.839C430.704 248.097 432.504 248.829 434.041 249.967C435.177 250.757 436.034 251.884 436.493 253.189C436.951 254.494 436.987 255.91 436.594 257.236Z" fill="white"/>
<path d="M431.583 258.969L430.125 258.827L429.907 258.763C426.74 258.511 423.59 258.088 420.469 257.495L420.064 257.378C420.165 255.962 420.694 254.61 421.58 253.501C422.466 252.392 423.667 251.578 425.026 251.167C426.069 250.92 427.154 250.909 428.202 251.136C429.25 251.362 430.233 251.82 431.081 252.477C431.839 253.489 432.271 254.707 432.32 255.97C432.332 257.016 432.078 258.048 431.583 258.969Z" fill="#221817"/>
<path d="M440.28 265.803C441.02 266.019 441.795 265.593 442.01 264.852C442.226 264.112 441.8 263.337 441.059 263.122C440.319 262.906 439.544 263.332 439.329 264.073C439.114 264.813 439.539 265.588 440.28 265.803Z" fill="#47BABC"/>
<path d="M381.422 254.392C382.163 254.607 382.938 254.182 383.153 253.441C383.368 252.701 382.943 251.926 382.202 251.711C381.462 251.495 380.687 251.921 380.471 252.662C380.256 253.402 380.682 254.177 381.422 254.392Z" fill="#47BABC"/>
<g opacity="0.5">
<path d="M416.854 259.848C417.26 260.35 417.175 261.069 416.198 262.103C415.754 262.558 415.224 262.919 414.639 263.167C414.054 263.415 413.426 263.545 412.791 263.548C412.166 263.514 411.554 263.349 410.996 263.065C410.438 262.78 409.946 262.382 409.552 261.895C409.216 261.499 408.974 261.033 408.843 260.53C408.712 260.028 408.695 259.502 408.795 258.993C409.242 257.455 411.156 258.045 412.243 258.338C413.524 258.7 416.087 258.881 416.854 259.848Z" fill="#5B3631"/>
</g>
<path d="M450.168 195.32C450.15 195.383 450.204 195.466 450.214 195.548C450.548 196.919 451.352 197.84 451.577 199.236C451.763 200.264 451.758 201.317 451.564 202.343C451.296 203.652 450.866 203.774 450.268 205.134C449.295 207.353 449.904 208.206 448.985 210.397C448.572 211.635 447.743 212.692 446.639 213.389C446.24 213.57 445.805 213.655 445.368 213.635C444.931 213.616 444.504 213.493 444.124 213.278C442.488 212.442 440.631 212.143 438.815 212.422C438.351 212.478 437.893 212.583 437.45 212.735C435.898 213.343 434.619 214.719 432.851 214.441C431.083 214.164 429.476 212.907 427.934 211.659C426.843 210.756 425.587 210.073 424.236 209.648C423.781 209.506 423.312 209.415 422.838 209.377C420.695 209.227 419.429 210.516 417.443 211.415C415.713 212.261 413.77 212.575 411.861 212.317C409.977 211.972 406.178 211.972 404.963 208.902C404.575 207.91 404.975 205.952 404.335 205.169C403.231 203.811 401.909 205.489 400.642 205.312C400.289 205.212 399.953 205.061 399.645 204.864C399.52 204.828 399.068 204.561 398.126 204.118C396.538 203.375 395.676 204.285 394.509 203.608C393.342 202.93 393.988 202.183 392.627 200.66C391.267 199.137 390.585 199.581 390.121 198.578C389.488 197.267 390.774 196.333 391.227 193.264C391.509 191.092 390.946 190.702 391.493 189.171C391.98 187.809 392.926 186.66 394.17 185.923C395.413 185.185 396.876 184.905 398.303 185.132C398.27 184.897 397.789 181.668 399.781 180.049C400.329 179.633 400.966 179.351 401.643 179.226C402.319 179.102 403.016 179.139 403.676 179.333C404.881 179.684 407.147 181.041 407.691 181.03C407.95 181.017 408.206 180.962 408.448 180.867C408.63 180.785 409.034 180.598 410.241 179.044C412.163 176.582 412.441 175.355 413.759 174.893C414.181 174.746 414.631 174.696 415.075 174.746C417.119 174.889 417.579 176.601 419.07 176.9C420.793 177.254 421.049 175.097 423.573 174.827C424.714 174.699 425.865 174.946 426.851 175.533C428.074 176.249 428.208 176.953 429.878 178.07C430.527 178.662 431.337 179.047 432.206 179.175C433.477 179.184 433.837 178.139 435.008 178.378C435.621 178.562 436.171 178.913 436.595 179.392C438.128 180.75 438.062 181.791 438.952 182.14C439.843 182.489 440.327 181.288 441.685 181.503C442.499 181.703 443.221 182.175 443.731 182.842C444.985 184.266 444.833 185.563 446.345 187.536C446.69 187.974 447.009 188.315 447.334 188.669C448.195 189.584 449.198 190.011 449.557 191.569C449.891 192.783 449.905 194.094 450.168 195.32Z" fill="#221817"/>
<path d="M443.058 211.75C442.963 211.497 442.87 211.233 442.762 210.988C442.717 210.864 442.666 210.744 442.607 210.627C442.343 210.085 442.048 209.559 441.724 209.051C441.566 208.78 441.392 208.527 441.218 208.273C441.048 207.984 440.851 207.712 440.631 207.46L440.545 207.367L440.278 207.087C440.075 206.892 439.882 206.701 439.674 206.528L439.056 206.055L438.856 205.929C438.466 205.681 438.06 205.45 437.661 205.232C436.691 204.691 435.727 204.129 434.69 203.625C433.653 203.12 432.511 202.63 431.392 202.215C430.81 202.045 430.249 201.803 429.67 201.624L428.308 201.228C425.978 200.601 423.6 200.169 421.199 199.938C419.981 199.821 418.763 199.748 417.55 199.734L417.272 199.721L416.909 199.728L415.957 199.744C415.41 199.766 414.821 199.775 414.309 199.829C413.221 199.885 412.137 200.003 411.062 200.181C410.501 200.288 409.948 200.409 409.395 200.564L408.978 200.68L408.289 200.919C407.22 201.308 406.184 201.783 405.193 202.34C404.935 202.491 404.677 202.641 404.426 202.805L404.259 202.914L403.979 203.103C403.525 203.422 403.09 203.758 402.669 204.12C402.248 204.482 401.834 204.858 401.438 205.25C401.408 205.354 401.274 205.428 401.181 205.514C402.909 204.412 404.83 203.647 406.842 203.26C409.863 202.698 412.944 202.526 416.009 202.746C420.605 202.843 425.177 203.45 429.64 204.557C433.797 205.766 438.204 207.318 441.587 210.454C442.248 211.073 442.856 211.747 443.401 212.47C443.263 212.249 443.188 212.002 443.058 211.75Z" fill="#47BABC"/>
<path d="M416.713 271.688C414.966 272.809 412.938 273.415 410.862 273.436C406.638 273.233 404.055 269.709 402.799 268.059C401.885 266.824 400.243 264.25 400.694 263.671C401.36 262.85 404.92 267.977 410.936 268.994C416.726 269.978 421.444 266.582 421.754 267.495C422.004 268.222 419.129 270.474 416.713 271.688Z" fill="#A1463D"/>
<path d="M405.907 267.914C405.897 268.113 405.923 268.311 405.985 268.5C406.055 268.674 406.164 268.829 406.304 268.954C406.528 269.164 406.771 269.351 407.031 269.515C408.116 270.071 409.308 270.387 410.527 270.441C411.375 270.586 412.215 270.797 413.068 270.887C413.766 271.042 414.496 270.914 415.099 270.531C415.438 270.216 415.641 269.782 415.666 269.32C414.087 269.324 412.51 269.216 410.947 268.996C409.237 268.679 407.554 268.235 405.911 267.667L405.907 267.914Z" fill="white"/>
<path d="M396.193 249.726C396.663 249.863 397.156 249.592 397.293 249.122C397.429 248.651 397.159 248.159 396.688 248.022C396.218 247.885 395.725 248.155 395.588 248.626C395.451 249.097 395.722 249.589 396.193 249.726Z" fill="white"/>
<path d="M430.957 254.571C430.923 254.683 430.867 254.788 430.792 254.878C430.717 254.969 430.625 255.043 430.521 255.098C430.417 255.153 430.303 255.186 430.186 255.197C430.069 255.207 429.951 255.194 429.839 255.159C429.613 255.093 429.422 254.94 429.309 254.734C429.196 254.527 429.169 254.285 429.235 254.059C429.3 253.833 429.453 253.642 429.659 253.529C429.866 253.415 430.109 253.388 430.335 253.454C430.45 253.485 430.558 253.538 430.652 253.611C430.746 253.684 430.825 253.776 430.883 253.88C430.941 253.984 430.978 254.099 430.99 254.218C431.003 254.336 430.992 254.456 430.957 254.571Z" fill="white"/>
<path d="M436.338 252.494C435.346 250.566 433.666 249.08 431.631 248.33C427.926 246.847 422.75 247.123 420.099 250.466C418.815 252.088 418.098 254.596 419.128 256.519C419.19 256.537 419.294 256.567 419.269 256.459C418.979 255.572 418.894 254.632 419.02 253.708C419.146 252.784 419.48 251.901 419.998 251.125C421.119 249.541 422.813 248.457 424.72 248.102C428.535 247.272 433.394 248.471 435.557 251.963C436.135 252.859 436.489 253.88 436.59 254.941C436.692 256.002 436.537 257.072 436.14 258.061C436.082 258.259 436.392 258.394 436.493 258.164C436.898 257.269 437.094 256.294 437.067 255.311C437.04 254.329 436.791 253.366 436.338 252.494Z" fill="#221817"/>
<path d="M403.831 244.158C402.21 243.008 400.281 242.373 398.294 242.334C396.307 242.295 394.355 242.854 392.69 243.94C391.715 244.592 390.916 245.475 390.365 246.51C390.071 246.993 389.881 247.531 389.805 248.091C389.73 248.651 389.771 249.221 389.926 249.764C389.983 249.916 390.261 249.929 390.253 249.724C390.191 249.246 390.18 248.763 390.221 248.283C390.286 247.809 390.42 247.346 390.62 246.911C391.057 246.026 391.687 245.25 392.464 244.64C393.972 243.48 395.812 242.83 397.715 242.786C399.597 242.711 401.461 243.19 403.074 244.164C404.668 245.176 405.911 246.655 406.633 248.4C407.481 250.384 407.632 252.598 407.061 254.679C407.025 254.804 407.226 254.851 407.259 254.736C407.823 252.833 407.797 250.804 407.185 248.916C406.573 247.028 405.404 245.369 403.831 244.158Z" fill="#221817"/>
<path d="M440.605 324.851C438.225 326.099 435.749 327.158 433.203 328.019C433.082 326.067 432.873 323.493 432.489 320.473C432.071 316.961 431.475 313.474 430.703 310.023C429.615 310.236 428.527 310.45 427.421 310.647C423.858 311.398 420.258 311.965 416.636 312.346C416.83 313.812 417.054 315.365 417.287 317.045C417.698 319.509 418.551 323.048 420.353 330.11C420.689 332.029 421.367 333.872 422.356 335.55C422.604 335.938 426.063 341.137 431.566 341.554C434.081 341.744 436.616 340.238 441.561 337.223C442.234 336.81 442.93 336.393 443.58 335.939C442.378 332.303 441.384 328.601 440.605 324.851Z" fill="#A8684F"/>
<path d="M454.383 341.515C454.33 341.957 454.107 342.361 453.762 342.642C452.333 343.68 450.092 341.462 445.352 340.05C442.234 339.143 442.275 339.775 439.754 338.794C437.828 338.054 435.084 336.985 433.77 334.292C433.204 333.058 432.94 331.706 433 330.349C433.034 329.255 433.256 328.176 433.658 327.158C435.251 323.113 438.321 323.758 441.387 319.34C442.473 317.773 443.541 315.615 445.493 314.988C445.708 314.894 445.94 314.845 446.175 314.845C446.409 314.846 446.641 314.895 446.856 314.99C447.96 315.536 447.883 317.543 447.88 317.711C447.737 320.645 444.654 322.409 444.968 322.839C445.429 323.502 452.906 320.311 455.396 320.663C455.822 320.726 456.215 320.928 456.515 321.236C457.036 321.884 456.211 322.512 455.729 322.89C455.174 323.292 454.587 323.649 453.976 323.959C452.505 324.725 450.995 325.415 449.452 326.025L448.171 326.554L447.689 326.741C447.571 326.795 447.449 326.839 447.324 326.871L449.569 326.904L452.063 326.931C452.365 326.94 453.358 326.935 454.2 326.909C457.786 326.825 458.993 326.398 459.942 326.854C460.173 326.95 460.377 327.1 460.537 327.292C460.697 327.484 460.809 327.712 460.862 327.956L460.881 328.356C460.843 328.613 460.748 328.859 460.604 329.076C459.827 330.236 453.632 330.723 453.632 330.723C450.784 330.943 448.705 331.117 448.681 331.47C448.657 331.824 450.977 332.296 451.522 332.398C455.9 333.197 458.59 332.357 459.602 333.879C459.722 334.062 459.812 334.264 459.868 334.475C459.909 334.628 459.917 334.788 459.89 334.944C459.761 335.205 459.579 335.437 459.354 335.622C458.824 336.088 456.265 336.167 453.007 336.166C449.75 336.166 448.155 336.029 448.039 336.39C447.771 337.079 454.526 339.009 454.383 341.515Z" fill="#A8684F"/>
<path opacity="0.83" d="M437.543 332.053C437.908 332.892 438.563 333.571 439.388 333.965C440.297 334.443 441.286 334.765 442.208 335.236C442.632 335.451 443.039 335.697 443.426 335.973C443.471 335.954 443.512 335.928 443.549 335.896C442.402 332.447 441.447 328.937 440.689 325.382C440.355 325.658 439.964 325.856 439.543 325.96C439.122 326.064 438.684 326.072 438.26 325.983C437.546 326.305 436.862 326.603 436.198 326.871C436.361 328.66 436.815 330.411 437.543 332.053Z" fill="#774137"/>
<path d="M439.153 336.59C438.128 336.194 437.19 335.604 436.39 334.851C435.596 333.891 435.01 332.777 434.67 331.578C434.234 330.351 433.939 329.077 433.79 327.783L433.161 328.006C433.061 326.568 432.968 324.794 432.713 322.724C431.199 325.087 430.183 327.734 429.73 330.503C429.499 331.877 429.669 333.289 430.221 334.569C430.772 335.849 431.681 336.943 432.839 337.719C434.066 338.564 435.355 339.315 436.694 339.967C437.93 339.323 439.378 338.493 441.076 337.42C440.417 337.127 439.804 336.87 439.153 336.59Z" fill="#774137"/>
<g opacity="0.83">
<path d="M440.83 322.02C441.111 322.246 441.336 322.536 441.486 322.864C441.476 322.627 441.544 322.394 441.679 322.199C442.687 321.03 443.514 319.716 444.131 318.302C444.221 317.984 444.267 317.657 444.268 317.327C444.268 317.327 444.222 317.021 444.19 316.898L444.126 316.654C444.035 316.452 443.93 316.255 443.812 316.067C442.913 317.085 442.11 318.183 441.415 319.349C441.142 319.743 440.861 320.09 440.586 320.416C440.442 320.672 440.388 320.969 440.433 321.259C440.477 321.55 440.617 321.817 440.83 322.02Z" fill="#774137"/>
</g>
<g opacity="0.83">
<path d="M455.434 333.254L455.488 333.067C455.471 332.968 455.466 332.869 455.473 332.769C454.089 332.727 452.709 332.589 451.343 332.357L451.219 332.321C450.189 332.529 449.147 332.699 448.109 332.86C447.702 332.925 447.299 333.015 446.903 333.129L446.731 333.18L446.626 333.229L446.465 333.317C446.029 333.721 445.638 334.17 445.298 334.657C445.114 334.93 444.833 335.122 444.513 335.195C444.192 335.267 443.856 335.214 443.573 335.046C443.296 334.869 443.101 334.59 443.029 334.269C442.958 333.948 443.016 333.613 443.191 333.335C443.901 332.189 444.95 331.292 446.192 330.769C446.949 330.562 447.721 330.41 448.5 330.313C449.29 330.193 450.071 330.026 450.881 329.878C452.439 329.653 453.939 329.128 455.298 328.333C455.711 328.059 456.061 327.7 456.325 327.28C456.357 327.21 456.379 327.137 456.389 327.061C456.407 326.98 456.43 326.9 456.458 326.822C456.458 326.822 456.458 326.822 456.483 326.739C455.837 326.788 455.068 326.835 454.124 326.865C453.18 326.895 452.289 326.895 451.987 326.886L449.493 326.86L448.372 326.838L448.193 326.91C447.126 327.495 445.989 327.94 444.809 328.237C444.486 328.303 444.15 328.242 443.872 328.066C443.593 327.891 443.393 327.614 443.313 327.295C443.245 326.972 443.307 326.636 443.485 326.359C443.662 326.082 443.942 325.885 444.263 325.812C445.2 325.569 446.103 325.211 446.951 324.745C447.856 324.409 448.731 323.996 449.565 323.51C450.349 322.976 451.056 322.336 451.663 321.607C451.785 321.451 451.897 321.288 451.997 321.117C448.92 321.891 445.186 323.296 444.856 322.84L443.963 323.121L443.674 323.533C443.494 323.81 443.213 324.006 442.891 324.079C442.569 324.151 442.231 324.095 441.949 323.922C441.761 323.805 441.61 323.636 441.516 323.435C441.495 323.942 441.333 324.434 441.049 324.854C440.764 325.274 440.368 325.606 439.905 325.814C439.442 326.021 438.93 326.095 438.427 326.027C437.924 325.96 437.45 325.753 437.058 325.431C436.623 325.07 436.249 324.642 435.95 324.162C435.958 324.446 435.955 324.727 435.966 325C435.96 327.431 436.458 329.836 437.429 332.065C437.793 332.903 438.449 333.582 439.274 333.977C440.183 334.455 441.171 334.776 442.094 335.248C442.676 335.552 443.228 335.909 443.745 336.314C444.535 335.803 445.441 335.5 446.38 335.434C447.352 335.345 448.327 335.482 449.298 335.437L450.009 335.396L450.207 335.375L450.565 335.344C451.09 335.282 451.621 335.2 452.135 335.101C452.676 334.99 453.21 334.848 453.735 334.676L453.797 334.694L453.912 334.649L454.235 334.506C454.444 334.409 454.635 334.295 454.836 334.185L454.917 334.14L455.145 333.936L455.244 333.83C455.286 333.78 455.324 333.727 455.357 333.671C455.373 333.631 455.385 333.589 455.394 333.546C455.432 333.454 455.446 333.353 455.434 333.254Z" fill="#774137"/>
</g>
<g opacity="0.83">
<path d="M450.527 340.654C450.538 340.635 450.544 340.613 450.545 340.591C450.56 340.558 450.57 340.523 450.575 340.487L450.518 340.257L450.462 340.139L450.334 339.921L450.248 339.829C449.663 339.26 449.152 338.619 448.729 337.921C448.136 337.907 447.532 337.889 446.933 337.895C446.699 337.89 446.465 337.913 446.237 337.963L445.881 338.063L445.829 338.048L445.688 338.108C446.289 338.896 446.797 339.751 447.201 340.656C448.091 341.005 448.903 341.354 449.597 341.68L449.869 341.522L449.982 341.442L450.181 341.263C450.237 341.195 450.298 341.129 450.361 341.068L450.392 340.964C450.41 340.901 450.488 340.631 450.44 340.797C450.392 340.964 450.515 340.695 450.527 340.654Z" fill="#774137"/>
</g>
<path d="M411.164 350.591C410.572 357.937 409.1 363.889 400.417 363.168C389.926 362.304 377.687 356.051 368.16 351.951C364.503 350.38 360.38 348.043 359.997 344.088C359.741 341.556 361.184 339.192 362.561 337.056C365.936 331.804 369.737 326.642 372.932 321.315C375.882 316.401 376.724 310.909 378.329 305.39C381.6 293.48 380.905 287.303 384.645 283.668C386.809 281.536 389.187 282.892 391.413 283.145C393.378 283.367 394.828 284.194 397.036 283.889C397.75 283.682 398.513 283.718 399.205 283.99C400.006 284.415 400.102 285.13 400.657 286.013C401.626 287.428 403.065 288.453 404.718 288.907C406.139 289.286 407.638 289.253 409.041 288.812C409.342 288.729 409.635 288.618 409.915 288.48C410.282 288.304 410.438 288.192 411.039 287.871C411.64 287.55 411.667 287.535 411.744 287.501C412.848 287.078 414.139 287.949 415.66 288.493L416.138 288.632C416.564 288.756 416.742 288.92 417.69 289.264C418.639 289.607 419.953 290.012 420.303 290.125C421.535 290.396 422.705 290.897 423.751 291.601C424.41 292.188 424.915 292.927 425.222 293.753C426.236 296.663 423.972 298.789 422.18 303.634C422.017 304.195 422.23 305.903 422.088 308.758C421.926 311.608 421.481 314.436 420.761 317.198C419.065 324.156 416.28 331.676 412.488 342.781C411.741 345.323 411.297 347.945 411.164 350.591Z" fill="#D86893"/>
<path d="M417.167 292.109C418.559 291.196 420.542 291.276 424.522 291.351C425.107 291.351 425.687 291.462 426.23 291.679C426.917 291.993 427.522 292.462 427.996 293.049C429.03 294.28 429.888 295.648 430.545 297.115C432.462 301.765 433.422 304.084 433.782 305.947C434.329 308.834 434.742 310.397 433.804 311.454C432.634 312.726 428.682 312.941 427.046 313.22C422.464 313.973 418.1 313.245 413.568 313.517C411.549 313.64 409.172 316.308 408.243 313.998C406.92 310.795 410.284 303.995 411.515 301.039C412.301 299.159 413.256 297.354 414.368 295.647C415.083 294.311 416.031 293.113 417.167 292.109Z" fill="#D86893"/>
<path d="M392.87 311.94C392.042 307.303 391.444 306.532 391.226 303.752C391.249 303.074 391.193 302.396 391.059 301.731C390.473 299.87 389.197 299.566 387.861 297.882C385.971 295.506 386.677 293.581 385.453 293.214C383.375 292.609 380.624 296.138 380.246 296.625C374.078 304.774 377.063 322.651 379.54 331.769C381.873 340.338 390.193 344.403 398.492 345.17C409.153 346.185 418.386 341.453 428.113 337.732C430.966 336.645 433.948 335.461 435.866 333.088C437.785 330.715 438.07 326.751 435.671 324.882C433.668 323.319 430.813 323.796 428.344 324.34L410.904 328.186C406.387 329.183 402.311 330.602 397.813 328.628C391.495 325.856 393.832 318.205 393.028 312.753C392.997 312.473 392.939 312.321 392.87 311.94Z" fill="#A8684F"/>
<path d="M450.547 340.4C450.494 340.841 450.271 341.245 449.926 341.527C448.497 342.565 446.257 340.347 441.516 338.935C438.398 338.028 438.44 338.66 435.918 337.679C433.992 336.938 431.248 335.87 429.934 333.177C429.368 331.941 429.101 330.589 429.154 329.231C429.199 328.139 429.425 327.061 429.822 326.043C431.405 321.995 434.485 322.642 437.551 318.225C438.638 316.658 439.705 314.5 441.657 313.873C441.872 313.778 442.104 313.73 442.339 313.73C442.573 313.73 442.806 313.78 443.02 313.875C444.124 314.421 444.048 316.428 444.044 316.596C443.901 319.53 440.818 321.294 441.133 321.723C441.593 322.387 449.07 319.196 451.56 319.548C451.986 319.611 452.379 319.812 452.679 320.121C453.201 320.769 452.376 321.397 451.883 321.772C451.333 322.178 450.75 322.536 450.14 322.843C448.68 323.602 447.156 324.23 445.617 324.91L444.336 325.439L443.843 325.622C443.73 325.681 443.611 325.726 443.488 325.756L445.733 325.789L448.238 325.818C448.54 325.827 449.533 325.823 450.375 325.797C453.961 325.713 455.167 325.286 456.106 325.739C456.339 325.834 456.546 325.984 456.708 326.176C456.87 326.369 456.983 326.598 457.036 326.844L457.055 327.244C457.017 327.501 456.923 327.747 456.778 327.964C456.001 329.124 449.807 329.611 449.807 329.611C446.958 329.831 444.879 330.004 444.855 330.358C444.831 330.712 447.151 331.184 447.697 331.286C452.074 332.085 454.765 331.244 455.776 332.767C455.897 332.95 455.987 333.151 456.042 333.363C456.084 333.516 456.091 333.676 456.064 333.831C455.936 334.093 455.753 334.324 455.529 334.51C454.999 334.976 452.44 335.055 449.182 335.054C445.925 335.054 444.33 334.917 444.214 335.278C443.935 335.963 450.731 337.906 450.547 340.4Z" fill="#A8684F"/>
<path d="M383.011 281.028C378.162 280.103 373.818 284.927 373.101 286.308C372.847 286.796 372.618 287.298 372.416 287.81C372.304 288.195 372.129 288.798 371.911 289.546C370.695 293.949 370.454 298.564 371.203 303.069C371.478 304.795 371.72 308.112 373.552 308.983C375.384 309.854 379.691 308.378 381.578 307.935C386.819 306.776 391.181 304.099 396.173 302.44C398.395 301.699 402.1 303.532 402.081 300.652C402.105 296.691 395.577 290.803 392.975 288.164C391.312 286.47 389.493 284.937 387.543 283.586C385.284 282.05 384.164 281.251 383.011 281.028Z" fill="#D86893"/>
<path d="M466.205 314.141C466.501 314.181 466.948 312.666 467.202 310.758C467.457 308.85 467.423 307.271 467.126 307.232C466.83 307.192 466.384 308.707 466.129 310.615C465.875 312.523 465.909 314.102 466.205 314.141Z" fill="#150E0C"/>
<path d="M479.588 319.756C481.27 318.821 482.516 317.851 482.371 317.589C482.225 317.328 480.744 317.875 479.062 318.81C477.379 319.746 476.133 320.716 476.279 320.977C476.424 321.238 477.905 320.692 479.588 319.756Z" fill="#150E0C"/>
<path d="M483.134 335.972C483.257 335.699 481.934 334.837 480.179 334.047C478.424 333.256 476.902 332.836 476.779 333.109C476.656 333.381 477.979 334.243 479.734 335.034C481.489 335.824 483.011 336.244 483.134 335.972Z" fill="#150E0C"/>
<path d="M468.829 347.615C469.121 347.551 469.022 345.975 468.609 344.095C468.195 342.215 467.623 340.743 467.331 340.808C467.039 340.872 467.138 342.448 467.552 344.328C467.965 346.208 468.537 347.679 468.829 347.615Z" fill="#150E0C"/>
<path d="M289.782 557.526C282.434 557.611 278.026 553.83 271.637 551.429C266.835 549.627 263.572 554.076 258.693 552.698C253.813 551.32 251.211 546.015 248.325 541.742C245.796 537.989 242.371 534.593 238.006 533.458C234.526 532.571 230.797 533.195 227.204 532.799L226.847 532.756C226.043 532.634 225.246 532.463 224.463 532.242C223.125 531.893 221.823 531.421 220.572 530.832C215.429 528.407 211.052 524.136 206.968 520.034C202.884 515.932 198.588 511.66 194.389 507.477L191.308 504.422L189.3 502.395C184.655 497.756 180.026 493.095 175.461 488.374C171.391 484.169 173.25 481.715 173.691 476.152C174.214 470.588 173.425 464.979 171.389 459.775C166.946 448.999 159.564 448.673 156.373 438.947C153.773 431.028 153.987 418.553 161.051 411.835C173.514 399.998 191.305 410.217 204.052 395.279C211.459 386.604 208.122 380.028 213.299 372.947C231.248 348.444 320.114 360.732 333.635 401.153C340.813 422.591 320.652 433.509 324.457 474.035C326.877 499.864 336.991 506.983 331.237 524.092C325.274 541.944 306.849 557.316 289.782 557.526Z" fill="#B6B5FF"/>
<path d="M255.65 456.135L246.152 449.906L235.268 466.502L244.766 472.731L255.65 456.135Z" fill="#A8684F"/>
<path d="M251.168 462.983L255.662 456.134L246.165 449.897L243.387 454.137C245.617 457.386 248.229 460.356 251.168 462.983Z" fill="#774137"/>
<path d="M281.087 403.023C280.393 402.619 279.677 402.255 278.941 401.935C279.684 402.239 280.402 402.603 281.087 403.023Z" fill="#A8684F"/>
<path d="M275.863 457.686C268.574 462.94 256.743 462.387 249.669 456.987C248.116 455.798 245.481 454.496 243.137 451.871C237.286 445.329 232.973 434.711 239.14 427.054C240.141 425.824 241.397 424.828 242.823 424.134C243.208 423.184 243.588 422.242 243.965 421.287C243.455 421.074 243.049 420.67 242.834 420.162C242.709 419.57 242.793 418.953 243.072 418.417C243.35 417.88 243.806 417.456 244.361 417.217C244.005 416.2 243.974 415.098 244.272 414.062C244.996 411.835 247.363 410.847 248.852 410.127C254.016 407.597 252.837 406.212 257.843 403.516C261.239 401.739 264.957 400.661 268.777 400.346C272.597 400.031 276.442 400.485 280.084 401.68L280.168 401.739C280.91 402.049 281.634 402.402 282.335 402.797C283.404 403.446 284.406 404.198 285.33 405.041C285.999 405.656 286.632 406.311 287.224 407.001C297.225 417.715 296.275 423.914 295.742 425.899C295.148 428.103 293.707 430.084 290.888 437.388C290.352 438.806 289.707 440.181 288.961 441.501C287.916 443.338 286.668 445.053 285.24 446.611C285.375 447.373 285.203 448.157 284.763 448.793C284.3 449.324 283.674 449.687 282.984 449.825C282.294 449.964 281.577 449.871 280.945 449.561C280.265 451.216 279.289 455.202 275.863 457.686Z" fill="#A8684F"/>
<path d="M285.901 407.255C285.316 406.56 284.691 405.9 284.03 405.277C283.118 404.421 282.122 403.659 281.057 403.002C282.961 404.051 284.614 405.502 285.901 407.255Z" fill="#A8684F"/>
<path d="M275.922 429.478C275.019 429.615 273.982 430.341 274.033 431.285C274.109 432.817 276.991 433.335 280.388 437.018C281.859 438.605 282.405 439.654 282.801 439.542C283.409 439.371 283.097 436.653 281.857 434.339C280.738 432.177 278.155 429.126 275.922 429.478Z" fill="#221817"/>
<path d="M261.575 419.997C261.731 420.447 261.726 420.938 261.561 421.386C261.396 421.833 261.082 422.21 260.671 422.452C259.23 422.989 257.6 420.564 252.897 418.899C250.859 418.18 249.675 418.1 249.62 417.686C249.533 417.057 252.15 416.266 254.761 416.471C257.185 416.649 260.999 417.824 261.575 419.997Z" fill="#221817"/>
<path d="M296.641 437.21C294.424 441.623 290.982 445.303 286.728 447.812C284.345 449.151 280.807 450.533 280.464 449.977C280.346 449.77 280.558 449.463 280.958 448.886C282.224 447.057 282.773 446.084 283.107 445.701C284.556 443.987 291.704 430.744 287.308 423.923C284.858 420.122 281.661 422.718 274.03 417.876C266.927 413.354 265.899 408.731 261.061 408.689C258.546 408.675 256.607 409.914 253.226 412.087C250.274 414.033 247.656 416.444 245.473 419.226C242.77 422.619 241.915 425.052 241.312 424.839C240.547 424.581 241.189 420.387 241.927 417.384C242.852 413.601 244.214 408.04 249.049 402.882C251.295 400.503 253.946 398.543 256.879 397.093C261.728 394.554 267.182 393.397 272.644 393.749C278.107 394.1 283.367 395.947 287.85 399.088C290.103 400.701 292.108 402.634 293.804 404.826C300.033 412.825 300.064 421.875 299.821 425.494C299.565 429.574 298.483 433.56 296.641 437.21Z" fill="#221817"/>
<g opacity="0.12">
<path d="M241.842 440.711C245.162 442.889 249.359 442.358 251.216 439.526C253.074 436.693 251.888 432.632 248.568 430.455C245.248 428.278 241.051 428.809 239.194 431.641C237.336 434.473 238.522 438.534 241.842 440.711Z" fill="#A1463D"/>
</g>
<g opacity="0.12">
<path d="M263.738 455.072C267.058 457.249 271.256 456.718 273.113 453.886C274.97 451.054 273.785 446.993 270.465 444.815C267.145 442.638 262.947 443.169 261.09 446.001C259.233 448.833 260.418 452.894 263.738 455.072Z" fill="#A1463D"/>
</g>
<path d="M242.836 422.574L243.081 422.22C243.148 422.099 243.209 421.973 243.261 421.845C243.274 421.826 243.279 421.804 243.275 421.782C243.271 421.76 243.258 421.74 243.24 421.728C243.221 421.715 243.199 421.71 243.177 421.714C243.155 421.718 243.135 421.73 243.123 421.749C243.03 421.859 242.948 421.977 242.878 422.102L242.638 422.448C242.495 422.69 242.372 422.944 242.272 423.207C242.224 423.276 242.355 423.333 242.387 423.286C242.552 423.059 242.702 422.821 242.836 422.574Z" fill="#774137"/>
<path d="M239.118 428.334C235.149 429.713 230.624 426.658 229.106 422.923C228.642 421.628 228.467 420.246 228.593 418.876C228.719 417.506 229.143 416.18 229.835 414.991C230.223 414.316 232.475 410.621 235.991 410.52C240.272 410.381 244.162 415.634 244.016 420.491C243.923 423.236 242.523 427.145 239.118 428.334Z" fill="#A8684F"/>
<path d="M236.893 424.143C235.874 424.677 233.513 423.144 232.711 421.019C232.471 420.318 232.381 419.574 232.446 418.836C232.511 418.097 232.73 417.381 233.088 416.732C233.43 416.139 234.485 414.288 236.435 414.296C237.18 414.293 237.907 414.531 238.505 414.977C239.104 415.422 239.541 416.049 239.752 416.764C239.988 418.065 238.565 418.478 237.736 421.054C237.145 422.908 237.524 423.807 236.893 424.143Z" fill="#774137"/>
<path d="M276.395 454.129C275.803 458.268 279.72 462.118 283.674 462.878C285.036 463.075 286.425 462.972 287.743 462.577C289.061 462.182 290.278 461.505 291.307 460.592C291.892 460.076 295.061 457.142 294.467 453.683C293.753 449.459 287.841 446.683 283.11 447.784C280.433 448.398 276.881 450.554 276.395 454.129Z" fill="#A8684F"/>
<path d="M280.923 455.504C280.6 456.61 282.571 458.624 284.808 458.99C285.549 459.09 286.303 459.029 287.019 458.813C287.736 458.598 288.397 458.231 288.961 457.739C289.477 457.289 291.073 455.904 290.69 453.979C290.547 453.248 290.17 452.583 289.615 452.086C289.06 451.589 288.359 451.287 287.616 451.225C286.275 451.273 286.166 452.711 283.803 454.053C282.064 455.021 281.176 454.826 280.923 455.504Z" fill="#774137"/>
<path d="M254.422 436.762C254.297 436.76 254.174 436.729 254.063 436.672L253.886 436.55C251.603 435.042 249.403 433.412 247.296 431.667L247.126 431.55L246.262 430.86C245.053 429.863 243.981 428.768 243.847 427.55C243.81 427.197 243.858 426.84 243.987 426.51C244.418 425.416 245.197 424.494 246.205 423.888C247.212 423.283 248.392 423.026 249.56 423.16C251.197 423.378 252.751 424.01 254.076 424.995C255.401 425.981 256.453 427.287 257.133 428.792C258.798 432.856 256.388 437.009 254.422 436.762Z" fill="white"/>
<path d="M254.062 436.672L253.885 436.55C251.602 435.042 249.402 433.412 247.294 431.666L247.125 431.549L246.261 430.86C246.301 430.676 246.366 430.5 246.454 430.334C248.019 427.517 250.222 427.258 250.222 427.258C251.489 427.156 252.754 427.481 253.815 428.18C254.876 428.88 255.672 429.915 256.077 431.119C256.412 432.137 256.396 433.238 256.03 434.245C255.665 435.252 254.972 436.106 254.062 436.672Z" fill="#221817"/>
<path d="M278.031 449.384C277.803 449.64 277.51 449.83 277.184 449.934C276.091 450.314 274.771 449.741 273.43 449.017L272.329 448.391L272.159 448.274C269.741 446.95 267.396 445.497 265.134 443.92C265.037 443.843 264.948 443.758 264.866 443.666C264.816 443.602 264.772 443.534 264.735 443.461C263.693 441.682 266.269 437.701 270.5 437.732C272.154 437.825 273.758 438.332 275.165 439.205C276.573 440.079 277.739 441.291 278.557 442.732C279.175 443.757 279.457 444.949 279.362 446.142C279.268 447.335 278.803 448.469 278.031 449.384Z" fill="white"/>
<path d="M273.457 448.979L272.356 448.353L272.187 448.236C269.768 446.912 267.423 445.458 265.161 443.881C265.064 443.805 264.975 443.72 264.893 443.628C265.479 442.546 266.378 441.666 267.472 441.103C268.566 440.539 269.804 440.32 271.025 440.472C271.94 440.645 272.804 441.021 273.554 441.571C274.304 442.122 274.921 442.834 275.359 443.655C275.573 444.628 275.508 445.642 275.174 446.58C274.84 447.519 274.248 448.345 273.468 448.964L273.457 448.979Z" fill="#221817"/>
<path d="M277.991 457.521C278.539 457.9 279.29 457.764 279.669 457.216C280.048 456.669 279.912 455.917 279.364 455.538C278.817 455.159 278.066 455.295 277.686 455.843C277.307 456.39 277.444 457.142 277.991 457.521Z" fill="#47BABC"/>
<path d="M235.413 427.61C235.961 427.989 236.712 427.853 237.091 427.305C237.47 426.758 237.334 426.006 236.786 425.627C236.239 425.248 235.488 425.384 235.108 425.932C234.729 426.479 234.865 427.231 235.413 427.61Z" fill="#47BABC"/>
<g opacity="0.5">
<path d="M260.564 443.836C260.702 444.376 260.408 444.866 259.232 445.382C258.718 445.583 258.169 445.681 257.617 445.669C257.065 445.658 256.521 445.537 256.015 445.314C255.534 445.06 255.111 444.707 254.775 444.278C254.439 443.85 254.197 443.355 254.065 442.826C253.94 442.393 253.913 441.938 253.986 441.493C254.06 441.048 254.233 440.625 254.492 440.256C255.372 439.183 256.7 440.353 257.426 440.946C258.34 441.728 260.295 442.797 260.564 443.836Z" fill="#5B3631"/>
</g>
<path d="M310.729 405.132C310.71 405.196 310.695 405.262 310.684 405.328C310.465 406.53 310.772 407.549 310.45 408.737C310.233 409.614 309.858 410.445 309.343 411.188C308.683 412.141 308.274 412.074 307.323 412.939C305.765 414.351 305.941 415.246 304.446 416.633C303.681 417.468 302.649 418.011 301.528 418.17C301.15 418.175 300.776 418.089 300.438 417.92C300.1 417.751 299.808 417.504 299.584 417.2C298.583 415.956 297.217 415.057 295.678 414.63C295.289 414.517 294.89 414.438 294.487 414.397C293.03 414.332 291.526 414.961 290.231 414.121C288.936 413.282 288.106 411.706 287.293 410.154C286.752 409.049 285.999 408.06 285.079 407.244C284.769 406.971 284.428 406.735 284.064 406.541C282.405 405.653 280.958 406.232 279.072 406.245C277.402 406.295 275.753 405.857 274.328 404.983C272.961 404.036 269.948 402.688 270.081 399.836C270.121 398.908 271.142 397.5 270.908 396.656C270.514 395.189 268.87 396.051 267.929 395.456C267.682 395.25 267.466 395.008 267.288 394.74C267.204 394.681 266.946 394.298 266.351 393.613C265.363 392.462 264.357 392.88 263.674 391.929C262.991 390.979 263.729 390.569 263.219 388.908C262.71 387.247 261.977 387.32 261.971 386.36C261.965 385.071 263.315 384.846 264.717 382.576C265.734 380.927 265.411 380.441 266.388 379.424C267.184 378.615 268.206 378.066 269.321 377.85C270.676 377.623 272.067 377.91 273.222 378.653C273.28 378.455 274.047 375.722 276.217 375.167C276.798 375.031 277.402 375.035 277.982 375.177C278.561 375.319 279.098 375.596 279.55 375.986C280.372 376.703 281.677 378.596 282.172 378.768C282.378 378.856 282.598 378.905 282.823 378.912C282.991 378.915 283.385 378.904 284.909 378.083C287.299 376.816 287.984 375.959 289.159 376.035C289.547 376.068 289.921 376.191 290.253 376.394C291.83 377.236 291.58 378.746 292.645 379.506C293.906 380.379 294.863 378.768 296.969 379.454C297.918 379.754 298.742 380.357 299.317 381.17C300.03 382.176 299.884 382.781 300.81 384.252C301.115 384.953 301.62 385.548 302.263 385.963C303.258 386.414 303.917 385.71 304.767 386.321C305.185 386.685 305.495 387.156 305.666 387.683C306.386 389.319 305.978 390.106 306.556 390.699C307.134 391.293 307.941 390.522 308.925 391.203C309.494 391.651 309.893 392.28 310.055 392.986C310.548 394.556 309.974 395.534 310.476 397.633C310.578 398.056 310.703 398.473 310.85 398.882C311.251 399.944 311.839 400.59 311.573 401.975C311.379 403.012 310.953 404.07 310.729 405.132Z" fill="#221817"/>
<path d="M299.29 415.654C299.312 415.408 299.324 415.177 299.334 414.934C299.343 414.69 299.333 414.705 299.34 414.597C299.31 414.064 299.27 413.548 299.196 413.03C299.162 412.768 299.113 412.495 299.065 412.234C299.036 411.949 298.98 411.667 298.899 411.391L298.854 411.292L298.74 410.963C298.661 410.742 298.568 410.525 298.462 410.315C298.364 410.111 298.254 409.91 298.138 409.716L298.019 409.542C297.797 409.206 297.558 408.894 297.318 408.568C296.725 407.782 296.143 406.981 295.545 406.202C294.883 405.406 294.182 404.643 293.443 403.917C293.066 403.542 292.678 403.182 292.285 402.831L292.208 402.777L291.87 402.543L291.29 402.05C289.673 400.72 287.948 399.525 286.134 398.479C285.22 397.96 284.277 397.466 283.323 397.021L283.123 396.882L282.832 396.761L282.075 396.441C281.632 396.26 281.19 396.078 280.744 395.917C279.861 395.579 278.961 395.289 278.047 395.05C277.569 394.935 277.065 394.825 276.589 394.757L276.217 394.703L275.588 394.643C274.606 394.573 273.619 394.586 272.639 394.681L271.862 394.769L271.698 394.792L271.407 394.851C270.938 394.936 270.469 395.055 270.026 395.203C269.583 395.351 269.111 395.49 268.651 395.661L268.364 395.78C270.12 395.524 271.909 395.605 273.634 396.019C276.217 396.642 278.706 397.602 281.039 398.873C284.649 400.575 288.056 402.679 291.194 405.145C294.087 407.535 297.033 410.326 298.569 414.051C298.876 414.775 299.117 415.525 299.292 416.292C299.248 416.091 299.26 415.894 299.29 415.654Z" fill="#47BABC"/>
<path d="M289.002 422.004L289.14 421.952L289.422 421.874C289.513 421.837 289.606 421.807 289.701 421.783C289.749 421.765 289.799 421.754 289.849 421.749C289.849 421.749 289.943 421.746 289.995 421.736C290.047 421.727 290.072 421.789 290.024 421.825L289.904 421.9C289.86 421.924 289.813 421.941 289.765 421.952C289.674 421.989 289.581 422.019 289.486 422.043L289.207 422.134C289.161 422.156 289.111 422.172 289.061 422.181C289.061 422.181 288.965 422.205 288.926 422.179C288.911 422.18 288.896 422.176 288.883 422.167C288.87 422.159 288.861 422.146 288.857 422.131C288.908 422.041 288.96 422.032 289.002 422.004Z" fill="#774137"/>
<path d="M256.721 452.683C254.951 452.963 253.137 452.736 251.49 452.028C248.213 450.372 247.403 446.616 247.021 444.884C246.785 443.584 246.35 440.928 246.936 440.64C247.76 440.222 248.739 445.574 253.142 448.509C257.378 451.341 262.326 450.322 262.254 451.148C262.168 451.781 259.107 452.539 256.721 452.683Z" fill="#A1463D"/>
<path d="M249.515 445.849C249.433 446.001 249.383 446.168 249.369 446.339C249.358 446.504 249.388 446.67 249.456 446.821C249.563 447.062 249.686 447.296 249.825 447.52C250.49 448.348 251.325 449.023 252.274 449.5C252.881 449.921 253.504 450.352 254.111 450.772C254.358 450.957 254.64 451.091 254.94 451.165C255.239 451.24 255.551 451.255 255.856 451.208C256.238 451.076 256.552 450.799 256.731 450.438C255.478 449.883 254.268 449.238 253.109 448.509C251.868 447.65 250.694 446.7 249.596 445.667C249.565 445.726 249.538 445.787 249.515 445.849Z" fill="white"/>
<path d="M292.903 521.628C292.833 522.01 292.618 522.35 292.302 522.576C291.043 523.41 289.179 521.357 285.144 519.892C282.536 518.928 282.49 519.487 280.396 518.537C278.768 517.785 276.451 516.714 275.456 514.308C275.033 513.208 274.875 512.024 274.996 510.851C275.096 509.906 275.351 508.984 275.75 508.121C277.338 504.729 279.978 505.432 282.88 501.767C283.901 500.473 284.94 498.645 286.662 498.212C286.854 498.144 287.058 498.117 287.262 498.131C287.465 498.144 287.664 498.199 287.845 498.292C288.769 498.83 288.601 500.567 288.581 500.712C288.302 503.248 285.542 504.589 285.79 504.988C286.147 505.588 292.794 503.232 294.936 503.67C295.303 503.746 295.636 503.94 295.883 504.223C296.292 504.814 295.544 505.319 295.101 505.615C294.601 505.937 294.074 506.215 293.525 506.445C292.214 507.017 290.875 507.52 289.513 507.953C289.126 508.084 288.738 508.201 288.373 508.301L287.935 508.441C287.852 508.463 287.705 508.543 287.622 508.532L289.522 508.71L291.682 508.876L293.54 508.969C296.655 509.068 297.718 508.781 298.512 509.228C298.707 509.322 298.877 509.462 299.006 509.637C299.135 509.811 299.219 510.015 299.251 510.229C299.256 510.403 299.247 510.579 299.247 510.579C299.202 510.799 299.109 511.006 298.975 511.186C298.237 512.153 292.844 512.239 292.844 512.239C290.359 512.281 288.551 512.313 288.496 512.639C288.441 512.965 290.441 513.475 290.906 513.592C294.657 514.53 297.03 513.945 297.823 515.312C297.919 515.478 297.986 515.659 298.021 515.847C298.054 515.98 298.052 516.12 298.013 516.252C297.893 516.476 297.724 516.669 297.518 516.819C297.035 517.189 294.811 517.116 291.993 516.949C289.174 516.782 287.791 516.563 287.671 516.867C287.425 517.436 293.231 519.512 292.903 521.628Z" fill="#A8684F"/>
<path d="M248.729 429.122C249.081 429.366 249.565 429.279 249.809 428.926C250.053 428.574 249.965 428.091 249.612 427.847C249.26 427.603 248.777 427.69 248.533 428.043C248.289 428.395 248.377 428.878 248.729 429.122Z" fill="white"/>
<path d="M274.492 445.25C274.425 445.327 274.343 445.39 274.252 445.435C274.161 445.48 274.061 445.506 273.959 445.513C273.858 445.52 273.756 445.506 273.659 445.473C273.562 445.441 273.473 445.389 273.397 445.322C273.282 445.22 273.199 445.087 273.159 444.939C273.12 444.791 273.125 444.634 273.174 444.489C273.224 444.344 273.315 444.216 273.437 444.123C273.559 444.03 273.705 443.975 273.859 443.965C274.012 443.955 274.164 443.99 274.297 444.067C274.43 444.144 274.537 444.258 274.605 444.396C274.673 444.533 274.698 444.688 274.678 444.84C274.658 444.992 274.594 445.135 274.492 445.25Z" fill="white"/>
<path d="M279.493 445.518C279.389 443.64 278.588 441.869 277.247 440.551C274.841 438.066 270.637 436.451 267.353 438.156C265.769 438.981 264.302 440.705 264.444 442.601C264.412 442.647 264.56 442.68 264.566 442.605C264.652 441.8 264.92 441.024 265.349 440.336C265.778 439.648 266.357 439.067 267.043 438.635C268.494 437.787 270.215 437.53 271.851 437.917C275.168 438.611 278.606 441.299 279.07 444.816C279.207 445.732 279.124 446.669 278.828 447.547C278.532 448.426 278.031 449.221 277.367 449.868C277.233 449.98 277.444 450.217 277.583 450.097C278.228 449.529 278.735 448.821 279.066 448.028C279.397 447.235 279.543 446.376 279.493 445.518Z" fill="#221817"/>
<path d="M256.704 427.358C255.827 425.874 254.524 424.688 252.966 423.953C251.407 423.218 249.663 422.968 247.961 423.235C246.955 423.41 246.007 423.827 245.198 424.449C244.803 424.727 244.469 425.082 244.216 425.493C243.963 425.904 243.795 426.362 243.724 426.839C243.724 426.987 243.937 427.089 244 426.917C244.126 426.522 244.288 426.139 244.485 425.774C244.71 425.424 244.986 425.109 245.303 424.839C245.965 424.297 246.737 423.904 247.566 423.689C249.179 423.296 250.875 423.431 252.406 424.073C253.924 424.677 255.23 425.716 256.16 427.06C257.075 428.429 257.543 430.048 257.498 431.694C257.48 433.572 256.827 435.388 255.646 436.848C255.633 436.866 255.629 436.889 255.633 436.911C255.637 436.933 255.649 436.952 255.667 436.965C255.686 436.978 255.708 436.983 255.73 436.979C255.752 436.975 255.772 436.962 255.784 436.944C256.888 435.626 257.567 434.005 257.731 432.293C257.896 430.582 257.537 428.861 256.704 427.358Z" fill="#221817"/>
<path d="M261.237 493.644C262.027 486.561 260.93 488.735 261.572 480.765C261.762 478.849 261.919 476.98 260.903 476.264C259.366 475.2 256.102 477.317 255.666 477.618C250.697 481 249.317 487.163 247.203 497.161C246.773 499.422 246.396 502.742 245.704 509.439C245.39 511.207 245.391 513.017 245.707 514.786C245.803 515.205 247.135 520.801 251.771 522.909C253.886 523.862 256.55 523.365 261.791 522.332C266.269 521.464 270.639 520.109 274.823 518.293C281.309 515.496 282.131 513.882 282.451 513.125C283.579 510.495 282.274 507.487 281.422 505.908C274.088 509.952 265.803 511.958 257.431 511.716C257.952 509.996 258.589 507.697 259.205 504.985C260.118 501.251 260.797 497.463 261.237 493.644Z" fill="#A8684F"/>
<path d="M230.466 454.307C229.469 450.148 224.092 448.437 222.748 448.359C222.271 448.333 221.793 448.333 221.316 448.356C220.971 448.379 220.418 448.439 219.757 448.539C215.844 449.153 212.113 450.617 208.826 452.828C207.559 453.656 205.021 455.038 204.954 456.776C204.887 458.515 207.631 461.416 208.637 462.739C211.439 466.476 215.116 468.966 218.21 472.314C219.589 473.804 219.46 477.388 221.737 476.35C224.872 474.927 227.192 467.687 228.352 464.681C229.096 462.773 229.66 460.799 230.036 458.785C230.482 456.467 230.7 455.299 230.466 454.307Z" fill="#D86893"/>
<path d="M257.818 472.377C262.036 471.887 265.554 476.28 266.1 477.511C266.291 477.949 266.46 478.396 266.606 478.85C266.701 479.189 266.844 479.721 266.983 480.374C267.781 484.254 267.722 488.261 266.811 492.115C266.481 493.593 266.075 496.462 264.476 497.128C262.877 497.795 259.191 496.254 257.6 495.777C253.116 494.468 249.492 491.901 245.27 490.182C243.385 489.423 240.075 490.803 240.247 488.306C240.481 484.864 246.444 480.147 248.85 478.003C250.373 476.639 252.021 475.42 253.771 474.362C255.79 473.122 256.807 472.507 257.818 472.377Z" fill="#D86893"/>
<path d="M172.842 441.767C172.519 441.977 172.291 442.306 172.208 442.682C171.858 444.156 174.441 445.172 177.238 448.44C179.057 450.542 178.542 450.776 180.181 452.4C181.452 453.667 183.269 455.46 185.871 455.546C187.05 455.553 188.214 455.284 189.27 454.761C190.122 454.333 190.898 453.768 191.566 453.087C194.183 450.408 192.599 448.197 195.009 444.191C195.861 442.78 197.2 441.16 197 439.396C196.987 438.983 196.813 438.593 196.514 438.308C195.68 437.64 194.152 438.435 193.991 438.471C191.722 439.629 191.437 442.684 190.971 442.6C190.276 442.471 190.145 435.421 188.982 433.569C188.785 433.253 188.488 433.012 188.138 432.883C187.434 432.701 187.231 433.585 187.103 434.098C186.979 434.677 186.906 435.266 186.885 435.858C186.795 437.285 186.834 438.723 186.886 440.157C186.905 440.557 186.919 440.965 186.961 441.346L186.989 441.798C186.973 441.909 186.979 442.022 187.01 442.13L186.166 440.409L185.257 438.438C185.14 438.197 184.819 437.429 184.491 436.77C183.302 433.888 183.184 432.795 182.5 432.207C182.341 432.058 182.149 431.949 181.939 431.889C181.73 431.828 181.509 431.819 181.295 431.861L180.971 432.001C180.78 432.119 180.618 432.279 180.498 432.469C179.853 433.5 181.668 438.579 181.668 438.579C182.501 440.907 183.101 442.619 182.823 442.79C182.545 442.961 181.349 441.257 181.075 440.863C178.886 437.687 178.598 435.247 177.033 434.993C176.844 434.961 176.651 434.962 176.463 434.996C176.327 435.015 176.198 435.066 176.087 435.145C175.925 435.341 175.806 435.568 175.738 435.813C175.554 436.391 176.412 438.452 177.564 441.024C178.716 443.596 179.397 444.83 179.147 445.043C178.692 445.421 174.75 440.735 172.842 441.767Z" fill="#A8684F"/>
<path d="M210.172 461.574C216.526 458.344 214.883 460.14 222.111 456.731C223.838 455.88 225.533 455.075 226.568 455.781C228.105 456.846 227.262 460.64 227.141 461.159C225.723 467 220.444 470.451 211.815 475.948C209.849 477.145 206.873 478.666 200.848 481.668C199.305 482.585 197.613 483.222 195.849 483.551C195.422 483.608 189.707 484.323 186.117 480.722C184.469 479.08 183.997 476.411 183.121 471.142C182.359 466.644 182.091 462.077 182.321 457.521C182.664 450.458 183.88 449.129 184.469 448.558C186.542 446.583 189.815 446.734 191.594 446.989C190.389 455.275 191.422 463.733 194.585 471.485C196.02 470.398 197.948 468.993 200.263 467.458C203.442 465.295 206.751 463.33 210.172 461.574Z" fill="#A8684F"/>
<path d="M186.386 461.667C188.161 461.546 189.926 461.302 191.668 460.937C191.555 460.278 191.432 459.636 191.388 458.911C191.343 458.187 191.256 457.558 191.211 456.901C188.346 457.93 185.323 458.449 182.278 458.436C182.253 459.556 182.236 460.681 182.25 461.76C183.622 461.8 184.97 461.824 186.386 461.667Z" fill="#74C5C3"/>
<path d="M230.466 454.307C229.469 450.148 224.092 448.437 222.748 448.359C222.271 448.333 221.793 448.333 221.316 448.356C220.971 448.379 220.418 448.439 219.757 448.539C215.844 449.153 212.113 450.617 208.826 452.828C207.559 453.656 205.021 455.038 204.954 456.776C204.887 458.515 207.631 461.416 208.637 462.739C211.439 466.476 215.116 468.966 218.21 472.314C219.589 473.804 219.46 477.388 221.737 476.35C224.872 474.927 227.192 467.687 228.352 464.681C229.096 462.773 229.66 460.799 230.036 458.785C230.482 456.467 230.7 455.299 230.466 454.307Z" fill="#D86893"/>
<path d="M227.058 524.26C225.705 526.393 224.171 528.56 221.94 529.482C216.869 531.566 210.604 523.701 206.989 520.071C202.813 515.871 198.608 511.696 194.409 507.514C191.461 504.596 191.38 501.823 193.475 498.077C194.718 496.046 196.197 494.17 197.881 492.486C204.243 485.6 211.835 478.907 217.04 471.129C217.194 470.906 217.349 470.684 217.503 470.461C222.098 463.613 223.552 457.968 226.03 455.556C226.722 454.83 227.658 454.385 228.658 454.306C229.264 454.26 229.874 454.271 230.478 454.339C231.952 454.486 233.392 454.876 234.739 455.493C236.287 456.213 236.899 457.546 238.773 457.878C239.395 457.903 239.992 458.13 240.476 458.523L240.522 458.554C241.069 459.127 240.952 459.739 241.164 460.614C241.578 462.046 242.481 463.287 243.716 464.122C244.78 464.823 246.022 465.206 247.296 465.225C248.662 465.273 248.788 464.86 249.778 465.057L249.832 465.094C250.948 465.432 251.969 466.027 252.814 466.83C253.437 467.261 253.355 467.329 254.25 468.04C254.819 468.434 255.294 468.832 256.157 469.474C256.779 469.906 257.902 470.32 258.278 470.944C258.526 471.39 258.751 471.849 258.951 472.32C259.132 472.783 259.23 473.274 259.241 473.772C259.264 474.615 259.017 475.444 258.535 476.137C257.573 477.609 255.787 478.873 253.993 481.054C253.706 481.469 253.413 482.926 252.511 485.246C251.59 487.547 250.444 489.751 249.09 491.827L249.021 491.927C244.47 498.497 239.993 505.108 235.488 511.711C233.241 515.021 230.983 518.325 228.715 521.621C228.166 522.446 227.632 523.35 227.058 524.26Z" fill="#D86893"/>
<path d="M222.955 463.491L214.144 475.424C217.711 471.952 220.687 467.921 222.955 463.491Z" fill="#A65676"/>
<path d="M253.695 485.293L245.092 497.37C245.921 495.684 246.851 494.05 247.878 492.477C249.569 489.892 251.518 487.485 253.695 485.293Z" fill="#A65676"/>
<path d="M261.618 334.68C252.338 338.574 244.791 336.052 235.444 336.301C228.42 336.491 226.577 343.813 219.674 344.581C212.771 345.348 206.728 339.964 200.859 336.034C195.711 332.579 189.611 330.039 183.485 330.849C178.612 331.518 174.201 334.231 169.438 335.58L168.963 335.71C167.879 335.97 166.78 336.163 165.672 336.287C163.794 336.534 161.898 336.607 160.007 336.505C152.227 336.081 144.467 332.922 137.166 329.825C129.864 326.729 122.206 323.527 114.717 320.389L109.229 318.104L105.635 316.568C97.3444 313.081 89.0623 309.557 80.8303 305.925C73.4942 302.69 74.5852 298.621 72.2715 291.342C70.0604 284.019 66.1622 277.314 60.8895 271.765C49.6856 260.393 40.1499 263.785 31.0767 253.098C23.6861 244.398 17.5132 228.473 23.0063 216.316C32.7062 194.887 60.5618 198.673 69.0189 173.166C73.9368 158.351 66.3049 151.734 69.2167 140.089C79.3354 99.7741 198.447 69.5564 236.485 113.834C256.669 137.314 236.725 161.544 262.489 210.962C278.902 242.461 295.414 246.274 296.95 270.93C298.606 296.635 283.166 325.618 261.618 334.68Z" fill="#B6B5FF"/>
<g clip-path="url(#clip1_4156_734)">
<path d="M168.456 329.168C168.022 330.266 166.514 334.138 163.984 335.556C163.048 336.022 161.995 336.205 160.956 336.08C159.929 336.052 158.916 335.835 157.967 335.441C155.693 334.393 152.307 330.484 153.163 324.543C153.597 321.642 154.939 319.432 157.558 315.063C159.956 311.088 162.72 307.346 165.811 303.884C166.523 303.454 167.315 303.173 168.139 303.059C168.962 302.945 169.801 302.999 170.602 303.219C173.004 304.075 174.103 306.95 174.116 309.607C174.123 309.722 174.123 309.837 174.116 309.952C174.116 310.91 173.541 312.405 171.062 320.071C170.424 322.039 169.913 323.661 169.58 324.683C169.4 326.22 169.022 327.727 168.456 329.168Z" fill="#7F8EC7"/>
<path d="M180.709 327.136C181.719 326.766 182.626 326.421 183.354 326.204C189.908 324.223 196.795 323.942 203.451 322.371C209.673 320.927 220.162 318.27 223.037 311.46C225.119 306.541 222.181 300.958 217.045 291.529C212.407 283.007 210.976 282.841 204.997 272.978C197.727 261.02 198.366 258.835 194.291 256.471C187.902 252.753 180.697 255.96 174.155 256.395C173.638 256.44 173.139 256.605 172.695 256.875C172.252 257.145 171.877 257.514 171.6 257.953C169.85 260.815 173.453 265.619 173.708 268.8C174.079 273.489 172.201 274.92 171.779 277.897C171.65 278.799 171.65 279.716 171.779 280.618C172.188 284.004 174.117 286.329 177.247 290.021C180.377 293.714 184.785 295.758 188.005 299.335C188.247 299.591 188.605 300.012 188.516 300.447C188.311 301.367 186.165 301.431 183.635 301.929C181.732 302.43 179.86 303.04 178.026 303.756C169.083 306.49 165.506 305.506 164.663 307.806C164.011 309.582 165.685 310.361 167.103 314.922C169.39 322.166 167.103 325.948 169.454 327.992C172.034 330.215 177.043 328.478 180.709 327.136Z" fill="#FABC69"/>
<path d="M171.728 277.935C171.599 278.838 171.599 279.754 171.728 280.657C172.137 284.042 174.066 286.367 177.196 290.06C177.452 290.366 177.733 290.66 178.014 290.954C178.249 286.082 178.951 281.243 180.109 276.504C181.272 271.79 181.847 269.426 183.495 266.756C187.162 260.815 192.093 259.499 191.684 257.596C191.454 256.522 189.538 255.373 181.757 255.27C179.943 255.143 177.388 256.216 174.092 256.433C173.574 256.479 173.075 256.643 172.632 256.913C172.188 257.184 171.814 257.553 171.536 257.992C169.786 260.853 173.389 265.657 173.644 268.839C174.028 273.527 172.15 274.958 171.728 277.935Z" fill="#E2A359"/>
<path d="M173.21 305.034C167.729 306.235 165.302 305.979 164.638 307.819C163.973 309.659 165.66 310.374 167.078 314.935C169.365 322.179 167.078 325.961 169.429 328.005C169.825 328.348 170.285 328.608 170.783 328.772C168.688 321.298 170.566 312.188 173.21 305.034Z" fill="#E2A359"/>
<path d="M165.123 246.519C164.862 246.082 164.508 245.708 164.086 245.424C163.665 245.139 163.186 244.95 162.683 244.871L157.228 243.836C157.117 247.158 156.963 250.522 156.768 253.929C157.109 254.391 157.313 254.94 157.355 255.513C157.764 262.119 158.339 268.724 158.722 275.329C158.888 278.395 159.029 281.462 159.093 284.528C161.258 273.577 162.76 262.506 163.59 251.374C164.362 250.862 164.936 250.101 165.215 249.217C165.494 248.334 165.462 247.381 165.123 246.519Z" fill="#7989B5"/>
<path d="M169.991 251.731C175.868 249.329 182.422 250.99 187.992 253.916C187.251 248.869 186.37 244.18 185.437 239.862C185.328 238.94 184.871 238.095 184.16 237.499C183.436 236.931 182.519 236.669 181.604 236.77L162.875 239.108C162.413 239.142 161.963 239.273 161.555 239.493C161.148 239.714 160.792 240.018 160.511 240.386C160.126 241.157 160.036 242.042 160.257 242.874C160.478 243.707 160.996 244.43 161.712 244.909C161.827 250.492 162.159 256.407 162.76 262.795C163.398 258.107 165.302 253.635 169.991 251.731Z" fill="#7989B5"/>
<path d="M111.167 309.709C110.72 310.859 109.149 314.897 106.504 316.379C105.534 316.872 104.441 317.067 103.361 316.941C102.29 316.904 101.234 316.674 100.244 316.264C97.8672 315.178 94.3282 311.153 95.2353 304.918C95.6824 301.878 97.075 299.527 99.8091 295.03C102.309 290.889 105.188 286.988 108.407 283.378C109.15 282.93 109.975 282.638 110.834 282.519C111.693 282.4 112.567 282.458 113.403 282.688C115.958 283.582 117.057 286.521 117.07 289.306C117.077 289.425 117.077 289.545 117.07 289.664C117.07 290.66 116.469 292.219 113.888 300.204C113.224 302.261 112.688 303.947 112.343 305.021C112.16 306.629 111.765 308.206 111.167 309.709Z" fill="#7F8EC7"/>
<path d="M161.366 320.978C156.026 323.827 150.289 322.524 147.594 321.924C146.154 321.574 144.747 321.1 143.39 320.506C135.852 317.478 130.448 314.769 127.177 313.21C114.401 307.103 112.791 311.422 110.696 307.742C108.307 303.577 108.486 295.477 108.933 292.628C109.188 291.018 110.607 282.088 115.206 280.861C117.391 280.286 117.161 279.75 124.149 282.42C125.567 282.956 129.17 285.512 131.943 286.751C141.908 291.146 147.517 291.593 148.922 290.584C152.219 288.284 148.501 281.64 150.034 267.203C150.992 258.145 151.605 252.332 154.85 245.957C157.022 241.677 160.255 237.397 159.105 232.58C158.785 231.302 157.904 228.888 158.964 227.636C159.349 227.298 159.806 227.055 160.3 226.924C160.795 226.793 161.313 226.779 161.813 226.882L181.412 230.996C181.932 231.093 182.422 231.311 182.841 231.633C183.261 231.955 183.598 232.371 183.827 232.848C184.174 233.826 184.211 234.887 183.932 235.887C183.653 236.886 183.072 237.775 182.268 238.431C180.134 253.329 178.793 265.389 177.95 273.694C177.17 281.449 176.046 293.752 170.642 307.985C168.508 313.67 166.145 318.423 161.366 320.978Z" fill="#FABC69"/>
<path d="M148.936 290.61C147.543 291.581 142.382 289.971 132.084 286.777C135.649 290.303 139.98 293.829 144.796 294.685C156.129 296.717 151.338 281.641 149.664 273.221" fill="#E2A359"/>
<path d="M174.974 186.885L163.527 188.157L165.751 208.167L177.197 206.895L174.974 186.885Z" fill="#9E604C"/>
<path d="M176.416 195.158L175.483 186.867L163.984 188.144L164.572 193.255C168.43 194.36 172.406 194.999 176.416 195.158Z" fill="#774137"/>
<path d="M207.528 185.091C202.149 189.32 197.971 194.239 198.214 194.494C198.457 194.75 204.602 189.218 204.321 189.384C200.041 192.603 196.464 195.031 193.959 196.653C192.84 197.273 191.823 198.061 190.944 198.991C187.584 202.824 186.996 209.723 189.667 211.601C191.353 212.764 193.947 211.691 198.993 209.596C201.7 208.431 204.307 207.047 206.787 205.456C209.663 203.741 212.416 201.829 215.027 199.732C219.205 196.217 222.828 192.091 225.772 187.493C229.287 182.147 232.072 176.355 234.051 170.271C238.037 159.168 240.273 152.959 237.156 148.206C235.425 145.845 232.912 144.174 230.065 143.492L215.104 180.07C212.443 181.529 209.909 183.209 207.528 185.091Z" fill="#9E604C"/>
<path d="M251.374 143.172C251.724 143.464 251.944 143.882 251.987 144.335C252.128 146.098 248.959 146.814 245.126 150.059C242.635 152.154 243.184 152.525 240.961 154.134C239.249 155.412 236.822 157.098 233.794 156.69C232.41 156.499 231.094 155.973 229.961 155.157C229.047 154.516 228.248 153.726 227.597 152.818C225.042 149.254 227.291 146.967 225.234 141.908C224.506 140.106 223.254 138.075 223.79 135.992C223.835 135.758 223.926 135.534 224.057 135.334C224.189 135.135 224.359 134.963 224.557 134.83C225.63 134.204 227.304 135.379 227.444 135.481C229.872 137.219 229.642 140.809 230.191 140.796C231.009 140.796 232.44 132.632 234.126 130.703C234.415 130.373 234.806 130.148 235.238 130.064C236.068 129.987 236.157 131.035 236.209 131.661C236.266 132.354 236.266 133.051 236.209 133.744C236.042 135.405 235.749 137.065 235.429 138.701C235.327 139.174 235.238 139.633 235.135 140.106L235.02 140.617C235.015 140.748 234.989 140.877 234.944 141.001L236.221 139.122L237.639 137.014C237.806 136.759 238.355 135.903 238.802 135.175C240.693 132.057 241.025 130.818 241.932 130.256C242.142 130.124 242.379 130.043 242.625 130.019C242.871 129.994 243.119 130.027 243.35 130.115L243.695 130.332C243.895 130.503 244.052 130.717 244.155 130.958C244.717 132.236 241.702 137.806 241.702 137.806C240.31 140.362 239.3 142.227 239.581 142.444C239.863 142.661 241.562 140.937 241.945 140.541C245.062 137.257 245.778 134.485 247.694 134.472C247.916 134.475 248.136 134.514 248.346 134.587C248.503 134.626 248.645 134.711 248.755 134.83C248.91 135.082 249.006 135.366 249.036 135.66C249.151 136.363 247.758 138.586 245.982 141.358C244.206 144.131 243.172 145.421 243.427 145.715C243.938 146.354 249.355 141.639 251.374 143.172Z" fill="#9E604C"/>
<path d="M240.349 136.874L240.439 136.759L240.617 136.516L240.796 136.286C240.827 136.245 240.861 136.206 240.899 136.171L241.014 136.082C241.014 136.082 241.116 136.082 241.09 136.082C241.095 136.124 241.095 136.167 241.09 136.209L240.924 136.388L240.745 136.631L240.554 136.874L240.464 136.989C240.449 137.009 240.43 137.027 240.408 137.04C240.386 137.053 240.362 137.062 240.336 137.065C240.336 137.065 240.336 137.065 240.26 137.065C240.267 136.993 240.299 136.926 240.349 136.874Z" fill="#774137"/>
<path d="M194.008 190.994C194.902 190.713 195.796 190.457 196.678 190.125C197.176 189.933 197.674 189.767 198.185 189.601C198.484 189.494 198.774 189.366 199.054 189.218C199.629 188.925 200.233 188.694 200.856 188.528C201.64 188.299 202.473 188.299 203.257 188.528C204.816 189.256 203.986 194.584 203.909 195.849C203.822 198.512 203.882 201.177 204.088 203.834C204.19 205.967 204.855 208.944 203.206 210.669C202.363 211.551 201.852 210.886 199.284 211.742C198.006 212.177 193.497 213.901 192.653 213.774H192.436L191.414 213.646C190.17 213.612 188.937 213.41 187.747 213.045C186.738 212.6 185.806 211.996 184.988 211.257C183.973 210.547 183.135 209.613 182.539 208.527C181.943 207.442 181.605 206.234 181.551 204.996V204.881C181.717 201.905 183.403 200.767 185.384 197.011C185.691 196.474 185.947 195.909 186.15 195.325C186.213 195.212 186.286 195.105 186.367 195.005C186.495 194.878 188.309 192.744 194.008 190.994Z" fill="#7F8EC7"/>
<path d="M196.678 248.205C197.956 253.891 199.821 254.938 199.233 257.149C198.237 261.084 190.814 262.412 184.349 263.537C179.218 264.677 173.931 264.945 168.711 264.329C163.677 263.639 152.102 262.08 149.687 255.462C148.41 251.834 151.157 250.262 153.597 240.872C155.349 234.643 156.044 228.166 155.654 221.708C154.811 211.052 150.352 205.099 153.674 201.815C155.233 200.356 157.122 199.295 159.18 198.723C160.777 198.565 162.361 198.296 163.92 197.918C164.38 197.791 164.751 197.663 165.006 197.573C165.622 198.225 166.36 198.75 167.178 199.119C168.662 199.736 170.299 199.878 171.867 199.528C173.126 199.25 174.322 198.739 175.393 198.021C175.625 197.87 175.828 197.68 175.994 197.458C176.273 197.086 176.445 196.644 176.492 196.181H177.258C178.361 196.094 179.458 195.94 180.542 195.721C181.475 195.606 181.232 195.721 183.302 195.555L185.065 195.401L186.662 195.248C187.39 195.159 187.479 195.12 187.684 195.248C188.652 195.546 189.531 196.082 190.239 196.807C192.155 198.979 190.878 201.687 190.993 205.916C190.993 206.427 191.772 207.743 192.603 210.158C193.387 212.552 193.935 215.016 194.238 217.517C195.132 223.79 195.311 230.842 195.848 241.23C195.91 243.575 196.188 245.91 196.678 248.205Z" fill="#7F8EC7"/>
<path d="M163.957 199.745C164.667 200.476 165.466 201.115 166.334 201.649C166.837 201.979 167.372 202.257 167.931 202.479C169.075 202.872 170.293 203.003 171.495 202.863C172.715 202.819 173.918 202.56 175.047 202.096C175.765 201.921 176.44 201.605 177.035 201.166C177.629 200.727 178.13 200.175 178.509 199.541C178.942 198.396 179.18 197.187 179.212 195.963C178.582 196.101 177.94 196.178 177.295 196.193H176.529C176.482 196.657 176.31 197.098 176.031 197.471C175.865 197.692 175.662 197.882 175.43 198.033C174.362 198.726 173.175 199.215 171.929 199.477C170.362 199.827 168.724 199.684 167.241 199.068C166.423 198.699 165.685 198.174 165.069 197.522C164.813 197.612 164.443 197.739 163.983 197.867C163.523 197.995 163.139 198.097 162.705 198.174C162.758 198.28 162.818 198.382 162.884 198.48C163.195 198.939 163.555 199.363 163.957 199.745Z" fill="#50598F"/>
<path d="M132.172 208.101L146.035 206.759C149.957 206.236 151.388 205.226 154.199 205.852C158.581 206.811 163.142 211.027 162.618 214.668C162.018 219.165 153.803 221.171 151.311 221.784C150.106 222.079 148.88 222.284 147.644 222.398C141.844 222.947 134.613 223.675 128.02 222.487C122.411 221.529 116.522 217.376 104.512 209.609C96.9358 204.69 89.9472 200.001 88.0947 191.722C87.9414 191.045 87.9925 190.7 88.1713 190.559C88.6696 190.163 89.7556 190.559 90.5222 190.853C92.3713 191.356 94.3366 191.211 96.0926 190.444C109.533 196.832 118.336 201.419 124.29 204.958C126.675 206.533 129.358 207.603 132.172 208.101Z" fill="#9E604C"/>
<path d="M74.2579 199.285C74.1751 199.73 74.2716 200.189 74.5262 200.563C75.5355 201.968 78.3591 200.563 83.2907 200.563C86.4719 200.563 86.2931 201.202 88.9761 201.01C91.033 200.869 93.9588 200.665 95.9902 198.455C96.8771 197.444 97.5081 196.234 97.83 194.928C98.1194 193.877 98.2274 192.784 98.1494 191.696C97.8172 187.403 94.6998 187.097 93.0389 181.986C92.464 180.185 92.0935 177.808 90.4198 176.646C90.0631 176.349 89.6049 176.202 89.1422 176.237C87.9412 176.441 87.4174 178.383 87.3791 178.537C86.6508 181.373 89.0783 183.928 88.6567 184.26C88.0179 184.759 81.8342 179.533 79.3556 179.15C78.9175 179.07 78.465 179.146 78.078 179.367C77.3881 179.827 77.9886 180.645 78.3463 181.181C78.7529 181.726 79.206 182.235 79.7006 182.702C80.8632 183.852 82.128 184.912 83.3929 185.947L84.4916 186.816L84.9005 187.135C84.9866 187.226 85.0856 187.303 85.1943 187.365L83.0735 186.752L80.6971 186.049C80.4033 185.96 79.4195 185.666 78.6657 185.385C75.28 184.235 74.2451 183.507 73.2231 183.66C72.9749 183.678 72.7351 183.757 72.5254 183.891C72.3157 184.025 72.1427 184.209 72.0221 184.426C71.9454 184.618 71.8816 184.81 71.8816 184.81C71.8296 185.063 71.8296 185.323 71.8816 185.576C72.2776 186.854 78.0269 189.192 78.0269 189.192C80.8377 190.227 82.7541 190.993 82.6774 191.326C82.6008 191.658 80.2499 191.428 79.7006 191.326C75.3056 190.815 72.9931 189.218 71.5877 190.367C71.4202 190.512 71.2739 190.68 71.1533 190.866C71.0656 191.004 71.013 191.162 71 191.326C71.0423 191.613 71.147 191.888 71.3066 192.13C71.6644 192.731 74.0918 193.549 77.1837 194.507C80.2755 195.465 81.847 195.784 81.847 196.181C81.847 197.011 74.8329 196.858 74.2579 199.285Z" fill="#9E604C"/>
<path d="M190.088 168.405C190.316 166.378 190.653 164.365 191.097 162.375C190.829 162.707 190.535 163.09 190.19 163.55C190.73 161.544 191.034 159.482 191.097 157.405C191.333 154.264 190.925 151.107 189.896 148.129C189.063 145.824 187.831 143.683 186.255 141.805C183.167 138.403 179.085 136.06 174.59 135.11C168.861 133.661 162.828 133.973 157.278 136.005C153.445 137.282 147.913 139.288 144.285 144.948C139.737 152.064 141.5 159.935 141.832 161.442C141.988 162.146 142.18 162.841 142.407 163.525C142.527 163.457 142.662 163.42 142.8 163.415C142.938 163.41 143.075 163.438 143.2 163.497C143.325 163.556 143.434 163.643 143.518 163.753C143.602 163.862 143.659 163.989 143.684 164.125C144.234 166.68 144.962 169.108 145.588 171.599C146.138 173.771 145.793 176.045 146.099 178.243H146.201C147.238 181.874 149.36 185.102 152.283 187.493C154.24 188.957 156.389 190.143 158.671 191.019C161.776 192.297 165.238 193.676 169.658 193.344C174.501 192.987 177.937 190.789 181.528 188.413C183.466 187.287 185.195 185.835 186.638 184.12C188.744 181.387 189.981 178.084 190.19 174.64L190.599 174.742C190.097 172.67 189.924 170.531 190.088 168.405Z" fill="#9E604C"/>
<path d="M174.384 184.593C173.111 185.774 171.559 186.613 169.874 187.033C166.31 187.748 163.371 185.755 162.017 184.835C160.982 184.133 159.078 182.638 159.334 182.127C159.717 181.411 163.767 184.35 169.005 183.839C174.039 183.366 177.259 180.006 177.706 180.568C178.153 181.13 176.147 183.187 174.384 184.593Z" fill="#A1463D"/>
<path d="M164.571 184.094C164.606 184.24 164.666 184.378 164.75 184.503C164.854 184.614 164.98 184.701 165.12 184.759C165.351 184.863 165.591 184.948 165.835 185.014C166.866 185.206 167.923 185.206 168.953 185.014C169.694 184.938 170.435 184.925 171.176 184.81C171.775 184.791 172.348 184.555 172.786 184.145C172.893 184.008 172.967 183.848 173.005 183.678C173.043 183.508 173.042 183.331 173.003 183.162C171.685 183.483 170.35 183.726 169.004 183.89C167.512 184.011 166.015 184.041 164.52 183.979C164.534 184.019 164.551 184.057 164.571 184.094Z" fill="white"/>
<path d="M169.951 175.445C170.232 176.007 169.223 177.527 167.882 177.693C166.54 177.86 165.122 176.556 165.326 175.93C165.531 175.304 166.821 175.266 167.882 175.177C168.942 175.087 169.747 175.023 169.951 175.445Z" fill="#774137"/>
<path d="M173.556 156.025C173.258 156.272 173.052 156.61 172.969 156.988C172.885 157.365 172.93 157.759 173.096 158.108C173.837 159.117 176.009 158.108 179.969 159.066C181.669 159.462 182.525 159.935 182.729 159.666C182.933 159.398 181.63 157.558 179.765 156.536C177.9 155.514 174.897 154.748 173.556 156.025Z" fill="#221817"/>
<path d="M158.006 157.737C158.346 157.935 158.607 158.244 158.744 158.612C158.881 158.98 158.887 159.384 158.76 159.756C158.147 160.88 155.821 160.254 151.95 161.762C150.289 162.413 149.51 163.04 149.242 162.784C148.973 162.528 150.059 160.523 151.797 159.232C153.535 157.942 156.46 156.664 158.006 157.737Z" fill="#221817"/>
<path d="M193.114 155.552C192.966 157.409 192.61 159.243 192.054 161.021C191.76 161.992 190.406 167.038 188.668 166.348C188.464 166.272 188.438 165.914 188.4 165.25C188.4 163.972 188.234 162.822 188.106 161.608C187.544 156.383 187.046 151.221 184.58 146.405C182.893 143.096 182.203 140.349 177.783 142.572C175.125 143.849 172.225 144.309 166.425 145.127C163.252 145.535 160.049 145.646 156.855 145.459C150.276 145.306 149.011 144.501 147.146 145.676C144.233 147.529 143.76 151.796 143.517 154.032C143.322 156.437 143.425 158.858 143.824 161.238C143.99 162.196 145.778 170.386 144.616 170.807C143.453 171.229 139.263 163.423 138.803 162.349C138.803 162.222 138.662 162.03 138.56 161.787C135.89 154.99 138.036 147.887 138.445 146.609C140.54 140.042 144.833 135.839 151.055 133.105C155.276 131.257 159.803 130.204 164.406 130C169.129 129.708 173.862 130.378 178.319 131.968C181.264 132.994 184.012 134.515 186.445 136.465C191.313 140.604 193.651 149.394 193.114 155.552Z" fill="#221817"/>
<g opacity="0.39">
<path d="M157.107 186.113C159.88 185.827 161.93 183.678 161.686 181.313C161.443 178.947 158.998 177.261 156.225 177.547C153.453 177.832 151.403 179.981 151.646 182.347C151.89 184.712 154.335 186.398 157.107 186.113Z" fill="#A1463D"/>
</g>
<g opacity="0.39">
<path d="M181.334 183.619C184.106 183.334 186.156 181.185 185.913 178.819C185.669 176.454 183.224 174.768 180.452 175.053C177.679 175.339 175.629 177.488 175.873 179.853C176.116 182.219 178.561 183.905 181.334 183.619Z" fill="#A1463D"/>
</g>
<path d="M147.261 173.197L147.185 172.8C147.162 172.667 147.133 172.535 147.095 172.404C147.089 172.388 147.077 172.374 147.062 172.364C147.048 172.354 147.03 172.348 147.012 172.348C146.994 172.348 146.977 172.354 146.962 172.364C146.947 172.374 146.936 172.388 146.929 172.404C146.917 172.54 146.917 172.677 146.929 172.813L146.993 173.209C146.993 173.465 147.095 173.733 147.172 173.989C147.249 174.244 147.312 173.989 147.312 173.989C147.315 173.724 147.298 173.459 147.261 173.197Z" fill="#774137"/>
<path d="M150.43 168.584V168.648C150.43 168.648 150.455 168.584 150.43 168.584Z" fill="#774137"/>
<path d="M156.601 172.89C157.636 172.89 157.712 172.89 158.543 172.89C159.608 172.813 160.667 172.664 161.711 172.443C161.711 172.238 161.826 172.047 161.878 171.842C162.025 171.049 161.982 170.232 161.752 169.458C161.523 168.685 161.114 167.976 160.558 167.391C160.002 166.806 159.316 166.361 158.555 166.092C157.794 165.823 156.981 165.739 156.181 165.845C155.381 165.951 154.617 166.245 153.953 166.703C153.289 167.16 152.742 167.769 152.358 168.479C151.974 169.188 151.763 169.979 151.744 170.786C151.724 171.592 151.896 172.392 152.244 173.12C152.576 173.12 153.126 173.12 153.79 173.12C154.991 173.043 155.464 172.941 156.601 172.89Z" fill="#F2F9FB"/>
<path d="M156.601 173.081C157.342 173.081 157.789 172.992 158.147 172.954C159.003 172.839 160.101 172.762 160.702 172.634C160.784 172.62 160.86 172.578 160.915 172.515C160.971 172.453 161.004 172.373 161.008 172.289C161.05 171.496 160.854 170.708 160.447 170.026C160.04 169.343 159.439 168.797 158.721 168.456C158.069 168.224 157.37 168.153 156.684 168.251C155.999 168.349 155.347 168.613 154.786 169.019C154.186 169.47 153.7 170.057 153.368 170.731C153.095 171.26 152.905 171.829 152.806 172.417C152.789 172.503 152.791 172.591 152.812 172.676C152.833 172.761 152.873 172.84 152.927 172.908C152.982 172.977 153.051 173.032 153.129 173.071C153.208 173.109 153.294 173.13 153.381 173.133C154.697 173.158 155.757 173.12 156.601 173.081Z" fill="#221817"/>
<path d="M155.348 170.053C155.701 170.053 155.987 169.767 155.987 169.415C155.987 169.062 155.701 168.776 155.348 168.776C154.995 168.776 154.709 169.062 154.709 169.415C154.709 169.767 154.995 170.053 155.348 170.053Z" fill="#F2F9FB"/>
<path d="M178.769 170.781C176.98 170.973 175.652 171.101 173.569 171.177C173.463 170.997 173.369 170.809 173.288 170.615C172.986 169.867 172.865 169.059 172.936 168.255C173.006 167.452 173.265 166.677 173.693 165.993C174.12 165.309 174.704 164.736 175.395 164.32C176.086 163.905 176.866 163.659 177.67 163.603C178.475 163.547 179.281 163.682 180.024 163.997C180.766 164.312 181.423 164.799 181.942 165.417C182.46 166.035 182.825 166.766 183.006 167.552C183.187 168.338 183.18 169.156 182.985 169.938C181.595 170.291 180.188 170.573 178.769 170.781Z" fill="#F2F9FB"/>
<path d="M178.73 170.782C177.989 170.896 177.529 170.935 177.184 170.96C176.303 170.96 175.178 171.178 174.501 171.178C174.427 171.178 174.355 171.156 174.294 171.115C174.232 171.074 174.184 171.016 174.156 170.948C173.88 170.33 173.772 169.649 173.844 168.976C173.916 168.303 174.165 167.661 174.565 167.115C174.952 166.66 175.437 166.298 175.983 166.057C176.53 165.816 177.124 165.701 177.721 165.722C178.515 165.79 179.282 166.043 179.96 166.46C180.639 166.877 181.211 167.447 181.63 168.124C181.965 168.631 182.22 169.187 182.384 169.772C182.404 169.852 182.393 169.936 182.352 170.007C182.312 170.079 182.245 170.132 182.167 170.155C181.044 170.472 179.893 170.682 178.73 170.782Z" fill="#221817"/>
<path d="M178.627 167.383C178.98 167.383 179.266 167.097 179.266 166.744C179.266 166.391 178.98 166.105 178.627 166.105C178.274 166.105 177.988 166.391 177.988 166.744C177.988 167.097 178.274 167.383 178.627 167.383Z" fill="#F2F9FB"/>
<path d="M187.007 173.708C188.962 176.799 193.702 177.157 196.742 175.432C197.766 174.801 198.64 173.954 199.302 172.95C199.964 171.946 200.398 170.809 200.575 169.619C200.665 168.942 201.125 165.224 198.786 163.231C195.937 160.829 190.456 162.311 187.927 165.71C186.47 167.639 185.32 171.063 187.007 173.708Z" fill="#9E604C"/>
<path d="M190.878 172.903C191.274 173.822 193.714 174.052 195.401 173.043C195.951 172.691 196.421 172.227 196.78 171.681C197.138 171.135 197.378 170.519 197.483 169.875C197.634 169.263 197.623 168.622 197.453 168.016C197.283 167.409 196.959 166.857 196.512 166.412C196.008 166.003 195.384 165.771 194.735 165.752C194.086 165.734 193.448 165.93 192.922 166.31C192.066 167.089 192.794 168.111 191.977 170.322C191.363 171.97 190.622 172.34 190.878 172.903Z" fill="#774137"/>
<path d="M149.521 177.566C148.244 180.99 143.683 182.306 140.335 181.233C139.212 180.821 138.194 180.169 137.35 179.321C136.507 178.474 135.86 177.451 135.455 176.327C135.225 175.688 134.011 172.136 135.902 169.721C138.202 166.796 143.874 167.166 147.03 169.926C148.819 171.51 150.633 174.64 149.521 177.566Z" fill="#9E604C"/>
<path d="M145.791 177.553C145.574 178.524 143.236 179.252 141.37 178.613C140.771 178.383 140.226 178.031 139.769 177.58C139.312 177.13 138.952 176.59 138.713 175.994C138.438 175.426 138.315 174.797 138.358 174.167C138.4 173.537 138.606 172.93 138.956 172.404C139.365 171.902 139.929 171.549 140.559 171.399C141.189 171.249 141.852 171.31 142.444 171.574C143.453 172.161 142.942 173.311 144.194 175.317C145.101 176.735 145.919 176.953 145.791 177.553Z" fill="#774137"/>
<path d="M182.636 165.901C181.992 164.799 180.949 163.985 179.723 163.627C178.276 163.224 176.731 163.379 175.392 164.062C174.293 164.643 173.443 165.607 173.003 166.77C172.744 167.504 172.653 168.287 172.737 169.061C172.821 169.835 173.078 170.58 173.489 171.242C173.502 171.262 173.523 171.276 173.547 171.281C173.571 171.286 173.596 171.281 173.616 171.267C173.637 171.254 173.651 171.233 173.656 171.209C173.66 171.185 173.656 171.16 173.642 171.14C172.964 170.058 172.742 168.752 173.025 167.507C173.307 166.262 174.071 165.179 175.15 164.496C176.254 163.794 177.578 163.524 178.869 163.736C180.161 163.948 181.329 164.628 182.151 165.646C182.598 166.248 182.896 166.947 183.021 167.687C183.145 168.426 183.092 169.185 182.866 169.9C182.861 169.918 182.858 169.936 182.859 169.955C182.861 169.974 182.866 169.992 182.874 170.008C182.882 170.025 182.894 170.04 182.908 170.052C182.922 170.064 182.938 170.073 182.956 170.079C182.973 170.085 182.992 170.087 183.011 170.086C183.029 170.085 183.047 170.08 183.064 170.071C183.08 170.063 183.095 170.052 183.107 170.038C183.12 170.024 183.129 170.007 183.135 169.99C183.334 169.31 183.393 168.597 183.308 167.894C183.222 167.191 182.993 166.513 182.636 165.901Z" fill="#221817"/>
<path d="M161.71 168.737C161.213 167.486 160.251 166.474 159.027 165.914C157.798 165.344 156.394 165.285 155.122 165.749C153.85 166.214 152.814 167.165 152.243 168.392C151.933 169.006 151.751 169.675 151.706 170.36C151.676 171.249 151.788 172.138 152.038 172.992C152.038 173.196 152.409 173.068 152.357 172.864C151.965 171.617 151.965 170.279 152.357 169.031C152.764 167.965 153.515 167.066 154.491 166.476C155.065 166.15 155.699 165.943 156.355 165.868C157.011 165.793 157.675 165.852 158.308 166.04C158.94 166.229 159.528 166.544 160.036 166.965C160.544 167.387 160.961 167.907 161.262 168.495C161.842 169.684 162.013 171.031 161.748 172.327C161.748 172.417 161.876 172.468 161.901 172.327C162.073 171.735 162.138 171.116 162.093 170.5C162.063 169.896 161.934 169.3 161.71 168.737Z" fill="#221817"/>
<path d="M137.87 205.15C137.866 205.179 137.866 205.209 137.87 205.239C137.867 205.29 137.867 205.341 137.87 205.392C137.93 206.196 138.045 206.994 138.215 207.781C138.552 209.323 139.223 210.771 140.183 212.023C141.29 213.612 142.489 215.135 143.773 216.584C145.268 218.335 146.405 220.928 148.551 223.56C148.985 223.922 149.496 224.181 150.045 224.316C150.594 224.451 151.167 224.459 151.72 224.339C152.7 224.047 153.551 223.429 154.134 222.589C156.919 219.433 159.628 221.043 164.355 217.479C165.734 216.436 166.99 215.24 168.099 213.914C168.999 212.885 169.823 211.792 170.564 210.643C170.892 210.125 171.038 209.513 170.98 208.902C170.922 208.292 170.664 207.718 170.245 207.27C169.619 206.581 168.852 205.801 167.984 205.009C165.06 202.131 161.354 200.176 157.328 199.388C153.956 198.659 150.439 199.022 147.286 200.422C144.808 201.7 142.304 204.025 140.106 204.255C140.055 204.255 138.049 204.46 137.87 205.15Z" fill="#7F8EC7"/>
</g>
</g>
<defs>
<clipPath id="clip0_4156_734">
<rect width="588" height="618" rx="62" fill="white"/>
</clipPath>
<clipPath id="clip1_4156_734">
<rect width="181" height="206.092" fill="white" transform="translate(71 130)"/>
</clipPath>
</defs>
</svg>
