<svg width="391" height="374" viewBox="0 0 391 374" fill="none" xmlns="http://www.w3.org/2000/svg">
<g clip-path="url(#clip0_4127_668)">
<path d="M166.318 326.878L256.043 66.1368L224.11 55.1483L134.386 315.889L166.318 326.878Z" fill="#1634CB"/>
<path d="M166.316 326.876L256.041 66.1351L251.694 64.6393L161.969 325.38L166.316 326.876Z" fill="#FFB6C1"/>
<path d="M157.371 322.609L247.096 61.8681L244.745 61.0591L155.02 321.8L157.371 322.609Z" fill="#000D26"/>
<path d="M161.015 325.049L250.74 64.308L248.389 63.499L158.664 324.24L161.015 325.049Z" fill="#F8C741"/>
<path d="M142.107 312.625L231.832 51.8838L229.481 51.0748L139.756 311.816L142.107 312.625Z" fill="#F8C741"/>
<path d="M150.066 323.763L239.791 63.0223L237.44 62.2132L147.715 322.954L150.066 323.763Z" fill="#F8C741"/>
<path d="M153.088 322.323L242.812 61.5822L239.488 60.4381L149.763 321.179L153.088 322.323Z" fill="#F6DCF7"/>
<path d="M228.253 56.7884L231.056 57.7525L141.416 318.317L146.558 320.088L236.259 59.3419L224.107 55.1602L134.406 315.906L138.613 317.353L228.253 56.7884Z" fill="#FFB6C1"/>
<path d="M221.021 64.0921L237.126 17.3429C240.595 9.36038 249.373 5.18576 257.345 7.44254C265.961 9.86731 271.374 19.1779 269.058 28.3298L252.972 75.0833C250.296 71.5895 245.535 66.6166 238.177 64.2723C231.416 62.1322 225.144 63.0327 221.021 64.0921Z" fill="#F8C741"/>
<path d="M221.875 61.6386L237.302 16.7579C240.681 9.0911 249.364 5.2013 257.316 7.46017C265.943 9.89421 271.469 18.9307 269.251 27.7348L253.811 72.623C251.105 69.2199 246.302 64.3722 238.943 62.0175C232.195 59.8636 225.96 60.6582 221.875 61.6386Z" fill="#000D26"/>
<path d="M223.344 57.3732L237.674 15.7089C240.836 8.61881 249.388 5.16353 257.334 7.44801C265.925 9.92753 271.611 18.4993 269.613 26.6972L255.279 68.364C252.517 65.1166 247.645 60.4719 240.285 58.0966C234.794 56.4022 228.959 56.153 223.344 57.3732Z" fill="#FFB6C1"/>
<path d="M135.381 316.243C136.075 314.227 137.087 310.823 137.802 308.799C141.033 308.619 145.384 309.019 152.817 311.562C158.33 313.432 163.425 316.358 167.819 320.177C166.953 322.692 165.035 324.034 164.171 326.553C156.304 333.385 145.105 342.396 141.862 356.15C141.228 358.832 139.66 361.973 138.614 364.196C137.684 366.878 137.308 367.671 135.967 371.223C134.466 370.977 132.563 370.497 131.062 370.252C132.084 367.956 133.677 365.634 134.502 362.37C135.327 359.106 135.173 355.788 135.364 353.333C134.824 340.62 135.91 328.947 135.381 316.243Z" fill="#000D26"/>
<path d="M138.585 364.192L166.337 326.894L168.522 320.566C163.949 317.048 158.827 314.311 153.362 312.463C147.966 310.592 142.3 309.617 136.589 309.579L134.854 314.639L134.422 315.907L134.472 362.773C135.288 362.791 136.094 362.948 136.855 363.24C137.474 363.474 138.056 363.794 138.585 364.192Z" fill="#F6DCF7"/>
<path d="M135.026 314.102L137.72 306.265C143.237 307.342 148.671 308.807 153.982 310.648C159.356 312.472 164.593 314.679 169.652 317.252L166.962 325.087C163.165 323.429 157.782 321.201 151.134 318.918C144.485 316.635 139.005 315.111 135.026 314.102Z" fill="#000D26"/>
</g>
<defs>
<clipPath id="clip0_4127_668">
<rect width="305.454" height="248.188" fill="white" transform="translate(390.865 209.62) rotate(147.629)"/>
</clipPath>
</defs>
</svg>
