<svg width="234" height="206" viewBox="0 0 234 206" fill="none" xmlns="http://www.w3.org/2000/svg">
<path fill-rule="evenodd" clip-rule="evenodd" d="M130.742 17.0212C94.4754 -24.5434 28.6383 19.5616 53.2784 68.9149C65.3662 93.1263 54.5629 122.518 29.6726 133.138C-21.0647 154.785 0.536756 231.029 55.0888 222.846C81.8505 218.832 106.465 238.189 108.874 265.143C113.783 320.086 192.971 323.102 202.046 268.692C206.497 241.999 232.514 224.571 258.892 230.609C312.664 242.919 340.003 168.539 291.059 143.095C267.049 130.612 258.513 100.484 272.408 77.262C300.731 29.9261 238.44 -19.0594 199.116 19.6258C179.825 38.6036 148.534 37.4117 130.742 17.0212ZM181.797 176.999C199.671 165.026 204.454 140.829 192.48 122.955C180.506 105.081 156.31 100.299 138.436 112.272C120.562 124.246 115.779 148.443 127.753 166.317C139.727 184.19 163.924 188.973 181.797 176.999Z" fill="#DCE8FD"/>
</svg>
