<svg width="160" height="301" viewBox="0 0 160 301" fill="none" xmlns="http://www.w3.org/2000/svg">
<path fill-rule="evenodd" clip-rule="evenodd" d="M-26.2579 17.0193C-62.5246 -24.5453 -128.362 19.5596 -103.722 68.913C-91.6338 93.1244 -102.437 122.516 -127.327 133.136C-178.065 154.783 -156.463 231.027 -101.911 222.844C-75.1495 218.83 -50.5346 238.187 -48.1262 265.141C-43.2169 320.084 35.9707 323.101 45.0455 268.69C49.4974 241.997 75.5136 224.569 101.892 230.607C155.664 242.917 183.003 168.537 134.059 143.093C110.049 130.61 101.513 100.482 115.408 77.26C143.731 29.9242 81.4398 -19.0614 42.1162 19.6238C22.8252 38.6017 -8.4665 37.4097 -26.2579 17.0193ZM24.7974 176.997C42.6712 165.024 47.4541 140.827 35.4802 122.953C23.5064 105.08 -0.690007 100.297 -18.5639 112.271C-36.4377 124.244 -41.2206 148.441 -29.2467 166.315C-17.2729 184.188 6.92352 188.971 24.7974 176.997Z" fill="#DCE8FD"/>
</svg>
