<?xml version="1.0" encoding="UTF-8"?>
<svg version="1.1" xmlns="http://www.w3.org/2000/svg" width="552" height="562">
<path d="M0 0 C1.02827911 -0.00535767 2.05655823 -0.01071533 3.11599731 -0.01623535 C22.13590845 -0.09135064 41.11134384 0.81899851 59.875 4.125 C60.87442627 4.29789551 61.87385254 4.47079102 62.90356445 4.64892578 C79.4210995 7.61543904 93.67030395 14.01057257 108.25 22.25 C108.25 22.91 108.25 23.57 108.25 24.25 C109.3328125 24.6521875 109.3328125 24.6521875 110.4375 25.0625 C113.24766383 26.24901362 115.73416557 27.52485639 118.25 29.25 C118.25 29.91 118.25 30.57 118.25 31.25 C118.81589844 31.50910156 119.38179688 31.76820312 119.96484375 32.03515625 C128.87036346 36.76954365 136.11053123 44.90485883 143.1875 51.9375 C144.01644775 52.75726318 144.84539551 53.57702637 145.69946289 54.42163086 C149.74611648 58.48894962 153.14913378 62.40099444 156.25 67.25 C157.89974749 68.93341581 159.56640096 70.60043951 161.25 72.25 C172.53289982 86.10766174 182.60404997 101.55069776 190.43432617 117.59936523 C192.02800693 120.85564033 193.67832758 124.05875637 195.44921875 127.22265625 C200.97110904 137.13896744 204.98661753 147.11653293 208.484375 157.90771484 C209.19424702 160.07943428 209.93285591 162.23803095 210.6875 164.39453125 C213.42382322 172.25424657 215.5997793 180.09394396 217.25 188.25 C217.50579834 189.49370361 217.76159668 190.73740723 218.02514648 192.01879883 C220.24785279 203.56103916 220.74621279 214.85245533 220.69604492 226.58984375 C220.68752738 229.61527549 220.71644201 232.63881502 220.74804688 235.6640625 C220.804792 251.89968321 218.82081097 267.90583645 213.25 283.25 C212.85296875 284.34828125 212.4559375 285.4465625 212.046875 286.578125 C207.47530439 298.58477748 201.92133059 310.87590103 194.25 321.25 C193.59 321.25 192.93 321.25 192.25 321.25 C192.17652344 321.78109375 192.10304688 322.3121875 192.02734375 322.859375 C190.93956324 326.20471004 188.92283612 328.73905947 186.8125 331.5 C186.40451172 332.05429687 185.99652344 332.60859375 185.57617188 333.1796875 C184.52046691 334.57810909 183.39012413 335.91950652 182.25 337.25 C181.59 337.25 180.93 337.25 180.25 337.25 C179.92 338.24 179.59 339.23 179.25 340.25 C178.59 340.25 177.93 340.25 177.25 340.25 C176.98429199 340.84167969 176.71858398 341.43335938 176.44482422 342.04296875 C175.2192259 344.30684469 173.96361967 345.76651942 172.1328125 347.5625 C171.52566406 348.16320312 170.91851562 348.76390625 170.29296875 349.3828125 C169.66003906 349.99898438 169.02710938 350.61515625 168.375 351.25 C167.74980469 351.86617188 167.12460937 352.48234375 166.48046875 353.1171875 C165.27441261 354.30539503 164.06523476 355.49044463 162.85253906 356.671875 C161.51925221 357.98484974 160.21987559 359.3321509 158.9296875 360.6875 C157.25 362.25 157.25 362.25 155.25 362.25 C154.92 363.24 154.59 364.23 154.25 365.25 C151.94645581 367.02660845 149.65504072 368.68625692 147.25 370.3125 C142.58192557 373.15036838 142.58192557 373.15036838 139.25 377.25 C138.26 377.25 137.27 377.25 136.25 377.25 C136.25 377.91 136.25 378.57 136.25 379.25 C133.1053108 381.83533017 129.63948502 383.99949173 126.25 386.25 C125.40824219 386.82234375 124.56648438 387.3946875 123.69921875 387.984375 C116.46251088 392.77224242 108.84599268 396.5860956 101.05517578 400.3671875 C98.72876165 401.5049091 96.4282108 402.69114206 94.125 403.875 C47.07467053 427.24385135 -11.83871651 434.47065422 -62.32421875 418.078125 C-63.12472656 417.80484375 -63.92523438 417.5315625 -64.75 417.25 C-66.30654297 416.74726562 -66.30654297 416.74726562 -67.89453125 416.234375 C-76.67886399 413.27668721 -84.77393131 409.44159654 -92.98046875 405.16699219 C-95.55588505 403.83238076 -98.15240898 402.54077825 -100.75 401.25 C-100.75 400.59 -100.75 399.93 -100.75 399.25 C-101.31589844 399.146875 -101.88179687 399.04375 -102.46484375 398.9375 C-110.8793905 396.40594405 -119.43994757 388.14018202 -125.75 382.25 C-125.75 381.59 -125.75 380.93 -125.75 380.25 C-126.74 379.92 -127.73 379.59 -128.75 379.25 C-128.75 378.59 -128.75 377.93 -128.75 377.25 C-129.74 376.92 -130.73 376.59 -131.75 376.25 C-131.75 375.59 -131.75 374.93 -131.75 374.25 C-132.35287842 373.98445313 -132.95575684 373.71890625 -133.5769043 373.4453125 C-135.83325626 372.20420485 -136.93848472 371.12934865 -138.51953125 369.125 C-139.25937256 368.19518311 -139.25937256 368.19518311 -140.01416016 367.24658203 C-140.78058838 366.25827393 -140.78058838 366.25827393 -141.5625 365.25 C-142.09149902 364.57952637 -142.62049805 363.90905273 -143.16552734 363.21826172 C-146.77781616 358.60483076 -150.20536071 353.89191893 -153.4453125 349.0078125 C-154.64578413 347.11390922 -154.64578413 347.11390922 -156.75 346.25 C-156.75 345.26 -156.75 344.27 -156.75 343.25 C-157.74 342.92 -158.73 342.59 -159.75 342.25 C-161.1875 340.82421875 -161.1875 340.82421875 -162.75 338.9375 C-169.32008315 331.214527 -175.94454576 323.49446154 -183.72265625 316.95703125 C-186.11599718 314.94182897 -188.43095441 312.85020111 -190.75 310.75 C-197.33219213 304.81605406 -204.01903891 299.0139555 -210.75 293.25 C-212.54646697 291.70972898 -214.34282961 290.16933637 -216.13916016 288.62890625 C-217.53153602 287.43700888 -218.92754333 286.2493562 -220.32421875 285.0625 C-221.02160156 284.464375 -221.71898437 283.86625 -222.4375 283.25 C-223.30955078 282.5075 -223.30955078 282.5075 -224.19921875 281.75 C-225.96528899 280.04176077 -227.38629953 278.29349074 -228.75 276.25 C-228.75 275.59 -228.75 274.93 -228.75 274.25 C-229.74 273.92 -230.73 273.59 -231.75 273.25 C-233.46875 271.0703125 -233.46875 271.0703125 -235.25 268.375 C-237.50774669 264.90473723 -237.50774669 264.90473723 -240.22705078 261.81274414 C-255.41472288 246.22821559 -259.82818387 215.49303091 -259.953125 194.921875 C-259.96009399 194.14301941 -259.96706299 193.36416382 -259.97424316 192.56170654 C-259.99161428 190.04108249 -259.99797008 187.52068155 -260 185 C-260.00151062 183.70509644 -260.00151062 183.70509644 -260.00305176 182.3840332 C-259.98693511 161.88175728 -259.45443522 140.81970279 -252.75 121.25 C-252.53472656 120.59644531 -252.31945312 119.94289063 -252.09765625 119.26953125 C-249.35841327 111.02085042 -246.23320045 103.68959705 -241.265625 96.484375 C-239.72870184 94.34649877 -239.72870184 94.34649877 -238.796875 92.203125 C-237.48247148 89.75087963 -235.74283712 88.18357058 -233.75 86.25 C-232.52309792 84.72306947 -231.31561111 83.18039408 -230.125 81.625 C-223.32050792 73.07221883 -215.92635188 66.02006973 -206.90234375 59.84375 C-204.6501128 58.42746258 -204.6501128 58.42746258 -203.75 56.25 C-202.76 56.25 -201.77 56.25 -200.75 56.25 C-200.75 55.59 -200.75 54.93 -200.75 54.25 C-198.73728203 52.7756382 -196.7396207 51.43948644 -194.625 50.125 C-193.99480957 49.72756592 -193.36461914 49.33013184 -192.71533203 48.9206543 C-169.81602569 34.59792046 -145.61948433 23.90305578 -119.75 16.25 C-118.71875 15.92515625 -117.6875 15.6003125 -116.625 15.265625 C-78.69567456 3.69718074 -39.43871577 0.11455985 0 0 Z M-92.44873047 19.70703125 C-94.98346926 20.30508547 -97.52420101 20.87205884 -100.06640625 21.4375 C-108.91077897 23.43243583 -117.37411012 25.58296427 -125.7734375 29.06640625 C-128.93508525 30.32359689 -132.10932582 31.29783036 -135.375 32.25 C-140.51234578 33.7825174 -145.28322717 35.69300045 -150.1171875 38.00390625 C-152.05413453 38.92065121 -154.01863095 39.7797412 -155.99609375 40.60546875 C-160.43618725 42.49437155 -164.67698306 44.74056994 -168.9375 47 C-169.76958984 47.44029541 -170.60167969 47.88059082 -171.45898438 48.33422852 C-183.37150865 54.21812499 -183.37150865 54.21812499 -193.75 62.25 C-196.19353705 63.99775023 -198.68363231 65.66426751 -201.1796875 67.3359375 C-203.99814601 69.43478959 -206.3048389 71.72514476 -208.75 74.25 C-209.93102969 75.41276634 -211.11481405 76.57273886 -212.30078125 77.73046875 C-213.55476385 78.96606836 -214.80866883 80.20174673 -216.0625 81.4375 C-216.70767578 82.06591797 -217.35285156 82.69433594 -218.01757812 83.34179688 C-218.62666016 83.94443359 -219.23574219 84.54707031 -219.86328125 85.16796875 C-220.41798096 85.71219482 -220.97268066 86.2564209 -221.54418945 86.81713867 C-222.9646276 88.1929218 -222.9646276 88.1929218 -222.75 90.25 C-224.235 90.745 -224.235 90.745 -225.75 91.25 C-228.74346502 95.02436894 -231.22329149 99.15327487 -233.75 103.25 C-234.36617187 104.23484375 -234.98234375 105.2196875 -235.6171875 106.234375 C-249.41733095 129.90928777 -249.99238055 157.52553612 -250.125 184.1875 C-250.1330365 185.09057892 -250.141073 185.99365784 -250.14935303 186.92410278 C-250.38858448 222.3653969 -240.27348538 249.54287732 -215.75 275.25 C-215.13253906 275.90871094 -214.51507813 276.56742187 -213.87890625 277.24609375 C-208.57947744 282.74885795 -202.41395024 289.0424504 -195.48046875 292.32421875 C-193.75 293.25 -193.75 293.25 -192.75 296.25 C-191.03285771 297.79117068 -189.25204827 299.26229851 -187.4375 300.6875 C-184.65490148 302.88311512 -181.99620783 304.99775555 -179.51953125 307.53515625 C-177.92131596 309.48197433 -177.92131596 309.48197433 -175.75 309.25 C-175.75 309.91 -175.75 310.57 -175.75 311.25 C-174.12907408 312.85059293 -174.12907408 312.85059293 -172.0625 314.5 C-169.48747617 316.68060997 -167.16110361 318.7940666 -165.0625 321.4375 C-162.93164061 324.25390689 -162.93164061 324.25390689 -160.4609375 325.97265625 C-157.09910117 328.79679253 -154.6791574 331.99688316 -152.0625 335.5 C-150.33976013 337.80613783 -148.59075038 340.03279987 -146.75 342.25 C-146.09 342.25 -145.43 342.25 -144.75 342.25 C-144.42 343.57 -144.09 344.89 -143.75 346.25 C-143.09 346.25 -142.43 346.25 -141.75 346.25 C-141.481875 346.806875 -141.21375 347.36375 -140.9375 347.9375 C-139.64100504 350.46225334 -138.32523677 352.88714484 -136.75 355.25 C-136.09 355.25 -135.43 355.25 -134.75 355.25 C-134.75 356.24 -134.75 357.23 -134.75 358.25 C-133.1366153 359.96829723 -131.46058104 361.62843654 -129.75 363.25 C-128.26610256 364.95422569 -126.78710144 366.6627245 -125.3125 368.375 C-119.43598791 374.87331888 -112.78509806 380.06436736 -105.75 385.25 C-104.84894531 385.92160156 -103.94789063 386.59320313 -103.01953125 387.28515625 C-97.20603045 391.49047082 -91.11259352 394.94764933 -84.75 398.25 C-84.11964844 398.59675781 -83.48929688 398.94351562 -82.83984375 399.30078125 C-44.53618457 419.75746077 6.04363696 421.79142823 47.25 410.25 C48.04792969 410.02795898 48.84585937 409.80591797 49.66796875 409.57714844 C72.44887286 403.15787817 92.89403405 394.30073185 113.25 382.25 C113.86665527 381.8880957 114.48331055 381.52619141 115.11865234 381.15332031 C116.95971993 380.06966898 118.79346701 378.97467506 120.625 377.875 C121.70523437 377.22789062 122.78546875 376.58078125 123.8984375 375.9140625 C125.06246094 375.09035156 125.06246094 375.09035156 126.25 374.25 C126.25 373.59 126.25 372.93 126.25 372.25 C127.24 371.940625 127.24 371.940625 128.25 371.625 C132.32180186 369.75875748 135.93796998 367.27438473 139.25 364.25 C139.25 363.59 139.25 362.93 139.25 362.25 C139.80042969 362.00636719 140.35085938 361.76273437 140.91796875 361.51171875 C148.3209892 357.50639948 155.92783732 350.80734037 161.25 344.25 C161.25 343.59 161.25 342.93 161.25 342.25 C162.24 341.92 163.23 341.59 164.25 341.25 C164.25 340.59 164.25 339.93 164.25 339.25 C165.24 338.92 166.23 338.59 167.25 338.25 C167.25 337.59 167.25 336.93 167.25 336.25 C167.81589844 336.04246094 168.38179688 335.83492188 168.96484375 335.62109375 C172.11262613 333.73242432 173.68218442 331.28629079 175.8125 328.3125 C178.1507105 325.06739504 180.3745357 322.02631036 183.25 319.25 C186.18874128 315.59171275 186.18874128 315.59171275 187.25 311.25 C187.91 311.25 188.57 311.25 189.25 311.25 C189.69730469 310.35539062 190.14460938 309.46078125 190.60546875 308.5390625 C191.04052734 307.66979126 191.04052734 307.66979126 191.484375 306.78295898 C192.12811999 305.49431474 192.77000186 304.20473834 193.41015625 302.91430664 C194.76153087 300.19500307 196.11662504 297.49210881 197.58203125 294.83203125 C200.65851748 289.18323211 202.78854833 283.25494081 204.875 277.1875 C205.16439453 276.36757568 205.45378906 275.54765137 205.75195312 274.70288086 C210.50830408 260.42426064 211.8053901 246.13241234 211.6875 231.1875 C211.68512329 230.38794891 211.68274658 229.58839783 211.68029785 228.76461792 C211.59340694 209.97959654 209.00848847 192.16043183 203.25 174.25 C202.78985623 172.67462756 202.33027366 171.09909115 201.87109375 169.5234375 C200.26952795 164.17285428 198.37002836 158.96480385 196.375 153.75 C196.04886719 152.87730469 195.72273438 152.00460938 195.38671875 151.10546875 C193.04100582 144.94454957 190.27872684 139.10172884 187.25 133.25 C184.25 127.25 181.25 121.25 178.25 115.25 C177.59 115.25 176.93 115.25 176.25 115.25 C176.05966187 114.36683105 176.05966187 114.36683105 175.86547852 113.46582031 C174.90581137 110.01086634 172.99363022 107.06948556 171.1875 104 C170.81044922 103.3503125 170.43339844 102.700625 170.04492188 102.03125 C169.11765885 100.43494909 168.18441544 98.84212471 167.25 97.25 C166.59 97.25 165.93 97.25 165.25 97.25 C164.8478125 96.1671875 164.8478125 96.1671875 164.4375 95.0625 C163.25098638 92.25233617 161.97514361 89.76583443 160.25 87.25 C159.59 87.25 158.93 87.25 158.25 87.25 C158.25 86.26 158.25 85.27 158.25 84.25 C156.94205669 82.89175118 155.60099103 81.56543863 154.25 80.25 C152.66491744 78.17968809 151.13528153 76.07685685 149.6171875 73.95703125 C148.34305272 72.12212987 148.34305272 72.12212987 146.25 71.25 C145.92 70.26 145.59 69.27 145.25 68.25 C144.54875 67.693125 143.8475 67.13625 143.125 66.5625 C140.76936847 64.6677529 139.1540577 63.03771112 137.25 60.75 C129.52421794 51.72817171 120.01733244 42.98609134 110.25 36.25 C109.59 36.25 108.93 36.25 108.25 36.25 C108.25 35.59 108.25 34.93 108.25 34.25 C107.26 34.25 106.27 34.25 105.25 34.25 C105.25 33.59 105.25 32.93 105.25 32.25 C91.2647327 24.13543686 91.2647327 24.13543686 76.25 18.25 C75.58911377 18.01659912 74.92822754 17.78319824 74.24731445 17.54272461 C69.04982698 15.72200589 64.00639258 14.49099619 58.5625 13.6875 C57.75433838 13.56455566 56.94617676 13.44161133 56.11352539 13.31494141 C46.20068601 11.8678806 36.23663975 10.99890437 26.25 10.25 C25.47301758 10.19070312 24.69603516 10.13140625 23.89550781 10.0703125 C18.68322505 9.68708996 13.47323184 9.4266521 8.25 9.25 C7.05358887 9.20697754 7.05358887 9.20697754 5.83300781 9.16308594 C-27.01067465 8.15467128 -60.53590119 12.07149036 -92.44873047 19.70703125 Z " fill="#F8C741" transform="translate(284.75,68.75)"/>
<path d="M0 0 C1.33720849 0.00240727 2.67441765 0.00446972 4.0116272 0.00619507 C23.53669635 0.04489145 42.40004602 0.88705026 61.625 4.4375 C63.34169062 4.71821275 65.05909872 4.99458929 66.77734375 5.265625 C70.74492692 5.90515326 74.68534414 6.64169826 78.625 7.4375 C79.79675781 7.67210938 80.96851563 7.90671875 82.17578125 8.1484375 C92.7889151 10.42530359 102.02365354 14.4529712 111.625 19.4375 C111.625 20.0975 111.625 20.7575 111.625 21.4375 C112.31851562 21.66953125 113.01203125 21.9015625 113.7265625 22.140625 C117.21221925 23.700245 120.02987953 25.83124213 123 28.1875 C123.57000732 28.63416016 124.14001465 29.08082031 124.72729492 29.54101562 C126.36655794 30.83169301 127.99743468 32.13211662 129.625 33.4375 C130.41777344 34.07171875 131.21054687 34.7059375 132.02734375 35.359375 C133.60663963 36.66415115 135.12506828 38.04221468 136.625 39.4375 C136.625 40.0975 136.625 40.7575 136.625 41.4375 C137.615 41.7675 138.605 42.0975 139.625 42.4375 C141.10511069 44.06963757 142.51258718 45.76840189 143.875 47.5 C146.65715913 50.99240138 149.4554482 54.42659022 152.4375 57.75 C159.625 65.89026163 159.625 65.89026163 159.625 69.4375 C160.285 69.4375 160.945 69.4375 161.625 69.4375 C161.625 70.4275 161.625 71.4175 161.625 72.4375 C162.285 72.4375 162.945 72.4375 163.625 72.4375 C188.09978475 114.51812446 203.6288008 159.00153709 194.625 208.4375 C194.33302734 210.04818359 194.33302734 210.04818359 194.03515625 211.69140625 C190.02042807 231.05237349 181.66489218 248.46150373 170.0078125 264.37890625 C168.46181947 266.48289557 168.46181947 266.48289557 167.625 269.4375 C166.503845 270.558655 165.37759867 271.67516968 164.2265625 272.765625 C161.35365149 275.76466381 158.91241473 279.12797975 156.39453125 282.42578125 C155.81058594 283.08964844 155.22664063 283.75351562 154.625 284.4375 C153.965 284.4375 153.305 284.4375 152.625 284.4375 C152.295 285.4275 151.965 286.4175 151.625 287.4375 C149.6875 289.625 149.6875 289.625 147.625 291.4375 C146.965 291.4375 146.305 291.4375 145.625 291.4375 C145.295 292.4275 144.965 293.4175 144.625 294.4375 C142.97231229 295.93864368 141.25293314 297.36723667 139.5 298.75 C136.12271441 301.43777475 132.79001846 304.13412737 129.5625 307 C126.625 309.4375 126.625 309.4375 124.625 309.4375 C124.625 310.0975 124.625 310.7575 124.625 311.4375 C122.9453125 312.7265625 122.9453125 312.7265625 120.75 314.0625 C120.03070313 314.50851562 119.31140625 314.95453125 118.5703125 315.4140625 C116.625 316.4375 116.625 316.4375 114.625 316.4375 C114.295 317.4275 113.965 318.4175 113.625 319.4375 C111.875 320.6484375 111.875 320.6484375 109.625 321.8125 C108.80128906 322.24691406 107.97757812 322.68132812 107.12890625 323.12890625 C106.30261719 323.56074219 105.47632813 323.99257813 104.625 324.4375 C103.26908104 325.20524682 101.91490514 325.97608029 100.5625 326.75 C96.2660952 329.13689156 91.89196202 331.35821708 87.5 333.5625 C86.830896 333.89934814 86.16179199 334.23619629 85.47241211 334.58325195 C79.92869138 337.34656879 74.34586084 339.9763052 68.4375 341.875 C65.89523387 342.69661223 63.36234854 343.5292254 60.83984375 344.41015625 C23.54619349 357.33272544 -19.06352401 357.41717376 -56.375 344.4375 C-58.05822846 343.46563595 -59.72678756 342.46763277 -61.375 341.4375 C-63.29477001 340.66285596 -65.23318903 339.93283154 -67.1875 339.25 C-68.16332031 338.90582031 -69.13914063 338.56164062 -70.14453125 338.20703125 C-70.88058594 337.95308594 -71.61664063 337.69914062 -72.375 337.4375 C-72.375 336.7775 -72.375 336.1175 -72.375 335.4375 C-74.685 334.7775 -76.995 334.1175 -79.375 333.4375 C-79.375 332.7775 -79.375 332.1175 -79.375 331.4375 C-79.94734375 331.32792969 -80.5196875 331.21835937 -81.109375 331.10546875 C-89.13741337 328.73858157 -98.95127535 320.76517876 -104.375 314.4375 C-104.375 313.7775 -104.375 313.1175 -104.375 312.4375 C-105.365 312.1075 -106.355 311.7775 -107.375 311.4375 C-107.375 310.7775 -107.375 310.1175 -107.375 309.4375 C-108.365 309.1075 -109.355 308.7775 -110.375 308.4375 C-110.375 307.7775 -110.375 307.1175 -110.375 306.4375 C-111.365 306.1075 -112.355 305.7775 -113.375 305.4375 C-115.1015625 303.35546875 -115.1015625 303.35546875 -117 300.625 C-117.69609375 299.64144531 -118.3921875 298.65789062 -119.109375 297.64453125 C-119.85703125 296.58621094 -120.6046875 295.52789062 -121.375 294.4375 C-122.98458051 292.21754485 -124.61369643 290.01280465 -126.25 287.8125 C-126.98992187 286.80960937 -127.72984375 285.80671875 -128.4921875 284.7734375 C-130.16162062 282.37096792 -130.16162062 282.37096792 -132.375 281.4375 C-132.375 280.4475 -132.375 279.4575 -132.375 278.4375 C-133.035 278.4375 -133.695 278.4375 -134.375 278.4375 C-136.14889278 276.36845035 -137.8034447 274.29988831 -139.4375 272.125 C-139.89705078 271.53009766 -140.35660156 270.93519531 -140.83007812 270.32226562 C-142.81320869 267.71594866 -144.33236686 265.56539942 -145.375 262.4375 C-146.035 262.4375 -146.695 262.4375 -147.375 262.4375 C-150.375 258.97596154 -150.375 258.97596154 -150.375 256.4375 C-151.365 256.1075 -152.355 255.7775 -153.375 255.4375 C-154.99609375 253.6796875 -154.99609375 253.6796875 -156.8125 251.3125 C-157.50214844 250.42304688 -158.19179687 249.53359375 -158.90234375 248.6171875 C-159.2876123 248.11799805 -159.67288086 247.61880859 -160.06982422 247.10449219 C-161.54564932 245.21954385 -163.05331693 243.36297209 -164.56640625 241.5078125 C-165.11304932 240.83508301 -165.65969238 240.16235352 -166.22290039 239.46923828 C-167.31675268 238.12402788 -168.41355914 236.78121381 -169.51342773 235.44091797 C-173.375 230.66193502 -173.375 230.66193502 -173.375 228.4375 C-174.035 228.4375 -174.695 228.4375 -175.375 228.4375 C-175.375 227.4475 -175.375 226.4575 -175.375 225.4375 C-176.365 225.1075 -177.355 224.7775 -178.375 224.4375 C-182.375 219.06607143 -182.375 219.06607143 -182.375 216.4375 C-183.035 216.4375 -183.695 216.4375 -184.375 216.4375 C-185.63671875 214.671875 -185.63671875 214.671875 -187.0625 212.1875 C-187.59230469 211.27097656 -188.12210938 210.35445312 -188.66796875 209.41015625 C-189.23128906 208.42917969 -189.79460937 207.44820312 -190.375 206.4375 C-190.94863281 205.48746094 -191.52226562 204.53742188 -192.11328125 203.55859375 C-205.37037096 181.48304081 -213.71907747 157.5464855 -208.25 131.625 C-207.67361279 129.54839001 -207.0451602 127.4857716 -206.375 125.4375 C-206.17100586 124.80505371 -205.96701172 124.17260742 -205.75683594 123.52099609 C-202.73571804 114.33231218 -199.01936254 106.35067493 -193.375 98.4375 C-192.54373437 97.24646799 -191.71303908 96.05503778 -190.8828125 94.86328125 C-180.53230344 80.12663863 -180.53230344 80.12663863 -173.375 74.4375 C-172.715 73.6125 -172.055 72.7875 -171.375 71.9375 C-169.27758073 69.31572591 -167.00062945 67.51036535 -164.375 65.4375 C-163.715 64.4475 -163.055 63.4575 -162.375 62.4375 C-161.715 62.4375 -161.055 62.4375 -160.375 62.4375 C-160.045 61.4475 -159.715 60.4575 -159.375 59.4375 C-155.93055556 56.4375 -155.93055556 56.4375 -153.375 56.4375 C-153.375 55.7775 -153.375 55.1175 -153.375 54.4375 C-151.65014648 52.9128418 -151.65014648 52.9128418 -149.24609375 51.13671875 C-148.37533203 50.48896484 -147.50457031 49.84121094 -146.60742188 49.17382812 C-145.68509766 48.49771484 -144.76277344 47.82160156 -143.8125 47.125 C-142.91724609 46.46048828 -142.02199219 45.79597656 -141.09960938 45.11132812 C-138.5321414 43.20970899 -135.95613205 41.32051847 -133.375 39.4375 C-132.69284424 38.93863281 -132.01068848 38.43976563 -131.30786133 37.92578125 C-128.35139374 35.78512296 -125.41220329 33.77461792 -122.1875 32.0625 C-119.70262873 30.72672613 -117.26843213 29.37133149 -114.87109375 27.8828125 C-98.91416748 18.03173711 -80.59048447 11.12823636 -62.5 6.375 C-61.62859375 6.13201172 -60.7571875 5.88902344 -59.859375 5.63867188 C-40.10655361 0.42381637 -20.32147867 -0.09424739 0 0 Z M-14.72363281 9.47558594 C-38.58066958 9.98230237 -69.98008219 14.08414432 -90.69140625 26.8671875 C-93.13913164 28.29948096 -95.39840577 29.24405162 -98.04296875 30.23828125 C-103.66769067 32.4338279 -108.60462352 35.39168901 -113.6875 38.625 C-114.5959668 39.19581299 -115.50443359 39.76662598 -116.44042969 40.35473633 C-128.8490901 47.01219118 -128.8490901 47.01219118 -138.375 56.4375 C-139.365 56.7675 -140.355 57.0975 -141.375 57.4375 C-142.51056351 58.53865249 -143.63921378 59.64771978 -144.734375 60.7890625 C-149.6898409 65.76812586 -155.07716963 70.34016051 -160.4375 74.875 C-173.31772604 86.18697496 -184.55147854 101.20994886 -192.375 116.4375 C-193.08076172 117.81035156 -193.08076172 117.81035156 -193.80078125 119.2109375 C-201.72750657 136.28028701 -201.6331924 154.60134076 -196.375 172.4375 C-195.48724753 174.76475547 -194.52554524 177.00262771 -193.4375 179.2421875 C-192.5565834 181.06231664 -191.75393936 182.92008766 -190.97265625 184.78515625 C-186.47430972 195.06866238 -180.29562544 204.27375472 -173.671875 213.28125 C-172.09347512 215.45020766 -170.63350155 217.58581733 -169.203125 219.84375 C-168.59984375 220.6996875 -167.9965625 221.555625 -167.375 222.4375 C-166.715 222.4375 -166.055 222.4375 -165.375 222.4375 C-165.375 223.4275 -165.375 224.4175 -165.375 225.4375 C-164.2451053 226.60163393 -163.10499139 227.75718504 -161.921875 228.8671875 C-160.12213752 230.69419373 -158.61366593 232.64536871 -157.0625 234.6875 C-154.04447245 238.63766132 -150.83680285 242.33731717 -147.5 246.01953125 C-144.28009881 249.68335264 -141.27476409 253.51602261 -138.2578125 257.34765625 C-137.63648438 258.03730469 -137.01515625 258.72695313 -136.375 259.4375 C-135.715 259.4375 -135.055 259.4375 -134.375 259.4375 C-134.375 260.4275 -134.375 261.4175 -134.375 262.4375 C-133.27070359 263.54179641 -132.15788335 264.63844177 -131.01171875 265.69921875 C-128.00298215 268.894655 -125.6347827 272.60259465 -123.14453125 276.20703125 C-122.56058594 276.94308594 -121.97664063 277.67914063 -121.375 278.4375 C-120.715 278.4375 -120.055 278.4375 -119.375 278.4375 C-119.375 279.4275 -119.375 280.4175 -119.375 281.4375 C-118.08396357 282.8118291 -116.7493291 284.14646357 -115.375 285.4375 C-115.045 286.0975 -114.715 286.7575 -114.375 287.4375 C-113.715 287.4375 -113.055 287.4375 -112.375 287.4375 C-112.375 288.4275 -112.375 289.4175 -112.375 290.4375 C-111.08573292 291.81348908 -109.74337173 293.14015102 -108.375 294.4375 C-106.98667986 296.17695169 -105.61253063 297.92777409 -104.25 299.6875 C-100.38495427 304.48349528 -96.27956373 308.21513094 -91.34375 311.87890625 C-89.375 313.4375 -89.375 313.4375 -88.375 315.4375 C-87.385 315.7675 -86.395 316.0975 -85.375 316.4375 C-84.94574219 316.87191406 -84.51648438 317.30632812 -84.07421875 317.75390625 C-81.70758491 320.09877794 -79.02775008 321.64021654 -76.1875 323.375 C-75.10082031 324.04402344 -74.01414062 324.71304687 -72.89453125 325.40234375 C-65.94389979 329.49418442 -58.8845587 332.47567801 -51.25 335.0625 C-49.94869141 335.51109375 -49.94869141 335.51109375 -48.62109375 335.96875 C-46.94433372 336.54553503 -45.26623961 337.11846018 -43.58666992 337.68701172 C-41.79693041 338.29432591 -40.01277678 338.91808558 -38.23046875 339.546875 C-14.70428882 346.88472592 15.99488539 346.09923721 39.66650391 339.94580078 C41.41660047 339.49158724 43.18240716 339.09893323 44.94921875 338.71484375 C64.89821075 334.26693766 84.45156457 325.40855131 101.625 314.4375 C104.34346104 312.86464911 107.06321767 311.29439697 109.7890625 309.734375 C110.39492188 309.30640625 111.00078125 308.8784375 111.625 308.4375 C111.625 307.7775 111.625 307.1175 111.625 306.4375 C112.615 306.4375 113.605 306.4375 114.625 306.4375 C114.625 305.7775 114.625 305.1175 114.625 304.4375 C115.429375 304.169375 116.23375 303.90125 117.0625 303.625 C117.908125 303.233125 118.75375 302.84125 119.625 302.4375 C119.955 301.4475 120.285 300.4575 120.625 299.4375 C121.93602574 298.72796936 123.27474247 298.0691857 124.625 297.4375 C135.62243588 289.41432891 146.10535751 279.50830694 154.0625 268.4375 C155.625 266.4375 155.625 266.4375 158.04296875 264.10546875 C160.82967148 261.22601646 162.89696541 258.16896024 164.9375 254.75 C165.29650391 254.16927734 165.65550781 253.58855469 166.02539062 252.99023438 C168.00599748 249.93382183 168.00599748 249.93382183 168.625 246.4375 C169.285 246.4375 169.945 246.4375 170.625 246.4375 C190.41370966 210.0178535 190.87342776 167.72316741 179.625 128.4375 C177.05508398 120.29318392 173.87271579 112.40468187 169.890625 104.84375 C168.99067069 103.13272576 168.12995317 101.40081369 167.296875 99.65625 C163.89240696 92.54802003 159.92015425 86.02540378 155.578125 79.46875 C153.625 76.4375 153.625 76.4375 152.546875 74.21875 C151.50185241 72.1995538 150.26177807 71.00506109 148.625 69.4375 C147.56645121 68.09648871 146.5262657 66.74087537 145.5 65.375 C126.91791547 41.2885585 104.23785903 21.82249119 73.625 16.4375 C72.35398437 16.19386719 71.08296875 15.95023438 69.7734375 15.69921875 C41.70393301 10.39107252 13.79329296 9.0131493 -14.72363281 9.47558594 Z " fill="#F8C741" transform="translate(278.375,111.5625)"/>
<path d="M0 0 C1.35544922 0.19215088 1.35544922 0.19215088 2.73828125 0.38818359 C17.21314565 2.46338436 29.0322513 6.22214646 42 13 C43.33160512 13.67011196 44.66404464 14.33860338 46 15 C46 15.66 46 16.32 46 17 C47.11375 17.4021875 47.11375 17.4021875 48.25 17.8125 C50.89061949 18.95276751 52.85552844 20.09380306 55 22 C55 22.66 55 23.32 55 24 C55.53109375 24.20625 56.0621875 24.4125 56.609375 24.625 C60.00773436 26.57961192 62.51055928 29.22123717 65.25 32 C65.80429687 32.5465625 66.35859375 33.093125 66.9296875 33.65625 C71 37.7466133 71 37.7466133 71 40 C71.99 40.33 72.98 40.66 74 41 C75.50219727 42.71826172 75.50219727 42.71826172 77.06640625 44.9296875 C77.63423828 45.72503906 78.20207031 46.52039063 78.78710938 47.33984375 C79.37298828 48.17644531 79.95886719 49.01304687 80.5625 49.875 C81.15224609 50.70386719 81.74199219 51.53273437 82.34960938 52.38671875 C89 61.75325299 89 61.75325299 89 65 C89.66 65 90.32 65 91 65 C91.62455078 66.27230469 91.62455078 66.27230469 92.26171875 67.5703125 C93.7140141 70.43574019 95.23912913 73.24178382 96.80371094 76.04663086 C104.19237343 89.43813459 108.56715708 103.14515247 112 118 C112.35576849 119.37005234 112.71255031 120.73984192 113.0703125 122.109375 C120.88656582 153.3140311 112.59938358 187.3158663 98 215 C97.34 215 96.68 215 96 215 C95.71125 215.7425 95.4225 216.485 95.125 217.25 C94.17697356 219.56739797 93.15154089 221.77917115 92 224 C91.34 224 90.68 224 90 224 C89.61134766 224.84884766 89.61134766 224.84884766 89.21484375 225.71484375 C84.52807564 234.5307902 76.43724296 242.41415859 69 249 C68.34 249 67.68 249 67 249 C66.67 249.99 66.34 250.98 66 252 C65.34 252 64.68 252 64 252 C64 252.66 64 253.32 64 254 C61.7421077 256.20643899 59.14062718 258.03490642 56.625 259.9375 C55.86638672 260.51435547 55.10777344 261.09121094 54.32617188 261.68554688 C46.24825876 267.72244503 37.73816618 272.98030889 29 278 C28.23864746 278.43948975 27.47729492 278.87897949 26.69287109 279.33178711 C22.42812492 281.75337141 18.23849599 283.86060623 13.625 285.5625 C12.51125 285.975 11.3975 286.3875 10.25 286.8125 C9.1775 287.204375 8.105 287.59625 7 288 C6.0925 288.350625 5.185 288.70125 4.25 289.0625 C-33.02870931 303.26391307 -74.52305876 302.69180971 -111.16015625 286.84570312 C-116.00182003 284.62018251 -120.50263223 281.841815 -125 279 C-125.76570313 278.54109375 -126.53140625 278.0821875 -127.3203125 277.609375 C-132.09531092 274.631419 -136.27366247 271.13885075 -140.4375 267.375 C-140.95828125 266.90739258 -141.4790625 266.43978516 -142.015625 265.95800781 C-144.7052806 263.4652861 -146.41035981 261.26800449 -148 258 C-148.99 257.67 -149.98 257.34 -151 257 C-152.31860352 255.58886719 -152.31860352 255.58886719 -153.62890625 253.796875 C-154.10650391 253.14589844 -154.58410156 252.49492187 -155.07617188 251.82421875 C-155.56666016 251.13972656 -156.05714844 250.45523438 -156.5625 249.75 C-157.05685547 249.08097656 -157.55121094 248.41195312 -158.06054688 247.72265625 C-160.56726873 244.26955361 -162.65794014 241.09765024 -164 237 C-164.66 237 -165.32 237 -166 237 C-167.26171875 235.3828125 -167.26171875 235.3828125 -168.6875 233.125 C-170.8795926 229.72512822 -173.10944919 226.3710587 -175.4375 223.0625 C-176.015 222.2375 -176.5925 221.4125 -177.1875 220.5625 C-178.44617017 218.78300079 -179.71799238 217.01276048 -181 215.25 C-181.9590625 213.9196875 -181.9590625 213.9196875 -182.9375 212.5625 C-183.52402344 211.75941406 -184.11054688 210.95632813 -184.71484375 210.12890625 C-186 208 -186 208 -186 205 C-186.66 205 -187.32 205 -188 205 C-188.66 203.02 -189.32 201.04 -190 199 C-190.66 199 -191.32 199 -192 199 C-193.21588755 196.56822491 -194.43136277 194.13625843 -195.64453125 191.703125 C-196.42499332 190.1466992 -197.21087215 188.59291091 -198.01171875 187.046875 C-217.16022572 149.88099649 -216.13377987 111.99128137 -204.84423828 72.57666016 C-203.53374564 68.57696687 -201.82891789 64.78643613 -200 61 C-199.34 61 -198.68 61 -198 61 C-197.92523438 60.30003906 -197.85046875 59.60007813 -197.7734375 58.87890625 C-196.77970112 55.1799986 -194.97743601 52.94846584 -192.625 49.9375 C-191.83351562 48.91527344 -191.04203125 47.89304688 -190.2265625 46.83984375 C-189.49179688 45.90269531 -188.75703125 44.96554688 -188 44 C-187.45085937 43.21753906 -186.90171875 42.43507812 -186.3359375 41.62890625 C-185.89507812 41.09136719 -185.45421875 40.55382812 -185 40 C-184.34 40 -183.68 40 -183 40 C-182.67 39.01 -182.34 38.02 -182 37 C-179.78515625 34.95703125 -179.78515625 34.95703125 -177.0625 32.8125 C-175.71865234 31.73935547 -175.71865234 31.73935547 -174.34765625 30.64453125 C-172 29 -172 29 -170 29 C-170 28.34 -170 27.68 -170 27 C-169.01 27 -168.02 27 -167 27 C-167 26.34 -167 25.68 -167 25 C-122.78193212 -8.47260192 -52.06497331 -7.74011177 0 0 Z M-76.9375 7.25 C-78.0371257 7.34837158 -78.0371257 7.34837158 -79.15896606 7.44873047 C-90.6515241 8.48989097 -101.82039657 10.09330311 -113 13 C-114.52753906 13.36931641 -114.52753906 13.36931641 -116.0859375 13.74609375 C-139.15625539 19.5963033 -159.93929963 30.29288927 -177 47 C-177.67417969 47.63808594 -178.34835938 48.27617187 -179.04296875 48.93359375 C-183.74603149 53.7493047 -187.03573804 59.16729217 -190.3125 65 C-190.73337891 65.74757568 -191.15425781 66.49515137 -191.58789062 67.26538086 C-205.98206823 93.78508851 -207.13963843 129.70731955 -199.34765625 158.40234375 C-198.64380305 160.6388477 -197.84032073 162.8109292 -197 165 C-196.38511719 166.69382812 -196.38511719 166.69382812 -195.7578125 168.421875 C-192.85705179 176.20632254 -189.41006603 183.03564122 -184.90234375 190.03515625 C-182.40850486 193.92185793 -180.185277 197.93412404 -178 202 C-177.34 202 -176.68 202 -176 202 C-175.89300781 202.56976563 -175.78601563 203.13953125 -175.67578125 203.7265625 C-174.89728964 206.34553429 -173.74181162 208.13206931 -172.1875 210.375 C-170.32446182 213.07796906 -168.4986559 215.78444666 -166.75 218.5625 C-166.1725 219.366875 -165.595 220.17125 -165 221 C-164.34 221 -163.68 221 -163 221 C-162.88970459 221.58265625 -162.77940918 222.1653125 -162.66577148 222.765625 C-161.92563036 225.24958963 -160.9329987 226.70963239 -159.34765625 228.75 C-158.81849609 229.4409375 -158.28933594 230.131875 -157.74414062 230.84375 C-157.18919922 231.5553125 -156.63425781 232.266875 -156.0625 233 C-154.96711256 234.41439501 -153.87456208 235.83099266 -152.78515625 237.25 C-152.05631226 238.18585938 -152.05631226 238.18585938 -151.31274414 239.140625 C-150 241 -150 241 -148.95092773 243.171875 C-148.1352054 245.17703151 -148.1352054 245.17703151 -146 246 C-145.67 246.99 -145.34 247.98 -145 249 C-141.68133244 252.54653382 -138.0934087 255.79714125 -134.5 259.0625 C-133.5821875 259.89910156 -132.664375 260.73570312 -131.71875 261.59765625 C-106.73772301 283.67140855 -74.99879707 290.43863017 -42.48876953 289.21582031 C-24.36028058 288.09436585 -5.55475147 283.52488703 11 276 C11.89332031 275.59394531 12.78664063 275.18789063 13.70703125 274.76953125 C22.56759431 270.53496497 30.76397757 265.31713761 39 260 C39.59474121 259.6198877 40.18948242 259.23977539 40.80224609 258.84814453 C46.42357123 255.24991841 51.33031118 251.7876453 56 247 C57.16826264 245.90349505 58.34323431 244.81411129 59.5234375 243.73046875 C69.59114254 234.47762629 78.11241273 225.21037455 86 214 C86.80630859 212.88818359 86.80630859 212.88818359 87.62890625 211.75390625 C94.22866288 202.36260765 98.12744636 192.25196389 101.3125 181.3125 C101.69438477 180.0126416 101.69438477 180.0126416 102.08398438 178.68652344 C106.99215171 161.06660393 106.33352928 140.86268521 103 123 C102.80535156 121.94296875 102.61070312 120.8859375 102.41015625 119.796875 C98.5383178 101.1937222 90.45040186 84.35646476 81 68 C80.34 68 79.68 68 79 68 C78.88527344 67.42765625 78.77054687 66.8553125 78.65234375 66.265625 C77.93817644 63.78528344 76.92692128 61.93631303 75.5625 59.75 C75.13066406 59.04359375 74.69882812 58.3371875 74.25390625 57.609375 C73.84011719 57.07828125 73.42632812 56.5471875 73 56 C72.34 56 71.68 56 71 56 C70.78730469 55.30648437 70.57460938 54.61296875 70.35546875 53.8984375 C68.59868115 50.14184845 66.16358886 47.59557216 63.3125 44.625 C62.76577637 44.0477417 62.21905273 43.4704834 61.65576172 42.87573242 C60.57887367 41.74175364 59.49890193 40.61069349 58.41552734 39.48291016 C57.30725293 38.32187897 56.22139742 37.13943925 55.14453125 35.94921875 C34.97816187 14.22760237 6.95487003 9.64844311 -21.17724609 7.49194336 C-23.5007257 7.31244394 -25.8224809 7.11696653 -28.14453125 6.91992188 C-44.50444434 5.58321971 -60.59883229 5.74223979 -76.9375 7.25 Z " fill="#F8C741" transform="translate(332,141)"/>
<path d="M0 0 C1.06734375 0.33386719 2.1346875 0.66773438 3.234375 1.01171875 C17.48170464 5.68970141 31.08170414 12.90809935 43 22 C44.08574228 22.78852414 45.17309306 23.57483645 46.26171875 24.359375 C52.60733036 28.98144193 52.60733036 28.98144193 55 31 C55 31.66 55 32.32 55 33 C55.57234375 33.2475 56.1446875 33.495 56.734375 33.75 C59.35010611 35.19316199 61.14773456 36.88216222 63.25 39 C63.95640625 39.70125 64.6628125 40.4025 65.390625 41.125 C67 43 67 43 67 45 C67.99 45.33 68.98 45.66 70 46 C70 46.99 70 47.98 70 49 C70.99 49.33 71.98 49.66 73 50 C74.1875 52.5625 74.1875 52.5625 75 55 C75.66 55 76.32 55 77 55 C77.31453125 55.56847656 77.6290625 56.13695312 77.953125 56.72265625 C78.38109375 57.49480469 78.8090625 58.26695312 79.25 59.0625 C79.70890625 59.89652344 80.1678125 60.73054688 80.640625 61.58984375 C81.70091266 63.46972158 82.83657393 65.30714677 84 67.125 C96.40396758 88.85715459 95.68473783 118.60393505 89.47729492 142.09985352 C85.75549508 155.38639232 80.02851311 168.13938412 73 180 C72.34 180 71.68 180 71 180 C70.731875 180.7425 70.46375 181.485 70.1875 182.25 C69.04723249 184.89061949 67.90619694 186.85552844 66 189 C65.34 189 64.68 189 64 189 C63.67 189.99 63.34 190.98 63 192 C62.34 192 61.68 192 61 192 C61 192.66 61 193.32 61 194 C59.5390625 195.2890625 59.5390625 195.2890625 57.625 196.625 C56.99851562 197.07101562 56.37203125 197.51703125 55.7265625 197.9765625 C54 199 54 199 52 199 C52 199.66 52 200.32 52 201 C50.00244091 201.79780561 48.00181115 202.58792425 46 203.375 C44.88625 203.81585938 43.7725 204.25671875 42.625 204.7109375 C35.62512112 207.20011857 29.37472375 208.36469643 21.9375 208.3125 C20.69794556 208.30621582 20.69794556 208.30621582 19.43334961 208.29980469 C7.39451812 208.08182334 -3.720166 205.08208826 -15 201 C-16.21429688 200.58363281 -17.42859375 200.16726563 -18.6796875 199.73828125 C-24.14508595 197.84641256 -29.05351497 196.00150791 -34 193 C-35.71289082 192.33168315 -37.44345904 191.7072057 -39.1875 191.125 C-43.77301701 189.51089801 -47.99017645 187.56472484 -52.3046875 185.33984375 C-59.23554777 181.89450307 -66.45756863 179.02655638 -73.62890625 176.12109375 C-82.57843153 172.46767399 -91.02709474 168.55914456 -99.3125 163.56640625 C-101.9635069 161.89854812 -101.9635069 161.89854812 -105 161 C-105 160.34 -105 159.68 -105 159 C-105.7425 158.731875 -106.485 158.46375 -107.25 158.1875 C-109.89061949 157.04723249 -111.85552844 155.90619694 -114 154 C-114 153.34 -114 152.68 -114 152 C-114.99 151.67 -115.98 151.34 -117 151 C-117 150.34 -117 149.68 -117 149 C-117.99 148.67 -118.98 148.34 -120 148 C-120 147.34 -120 146.68 -120 146 C-120.99 145.67 -121.98 145.34 -123 145 C-135.82523078 127.04467691 -136.06127464 105.00659106 -132.75390625 83.8671875 C-130.06389943 70.0687069 -126.17516954 57.05229223 -121 44 C-120.26347935 41.96097471 -119.5334677 39.91957633 -118.8125 37.875 C-117.44638899 34.08532805 -115.91494314 30.54264481 -114 27 C-113.34 27 -112.68 27 -112 27 C-111.731875 26.278125 -111.46375 25.55625 -111.1875 24.8125 C-110.00098638 22.00233617 -108.72514361 19.51583443 -107 17 C-106.34 17 -105.68 17 -105 17 C-104.67 16.01 -104.34 15.02 -104 14 C-103.34 14 -102.68 14 -102 14 C-101.505 12.515 -101.505 12.515 -101 11 C-100.34 11 -99.68 11 -99 11 C-98.505 9.515 -98.505 9.515 -98 8 C-97.01 8 -96.02 8 -95 8 C-95 7.34 -95 6.68 -95 6 C-92.87440006 4.79343965 -90.74191317 3.60289762 -88.59765625 2.4296875 C-86.98722241 1.54334346 -85.38808644 0.63568783 -83.80859375 -0.3046875 C-58.58697406 -14.42879452 -25.97095473 -8.89005758 0 0 Z M-73 6 C-73.85335937 6.31195313 -74.70671875 6.62390625 -75.5859375 6.9453125 C-83.35119423 10.09911984 -90.38098503 14.77352396 -96 21 C-96.53882813 21.59296875 -97.07765625 22.1859375 -97.6328125 22.796875 C-100.85263666 25.95278675 -100.85263666 25.95278675 -102 30 C-102.66 30 -103.32 30 -104 30 C-109.07650102 39.49466618 -112.79017818 48.71067571 -116 59 C-116.70533927 61.04270297 -117.41348851 63.08443873 -118.125 65.125 C-125.19150873 86.58097208 -128.89133595 111.86850957 -119 133 C-118.34 133 -117.68 133 -117 133 C-116.86464844 133.84691406 -116.86464844 133.84691406 -116.7265625 134.7109375 C-113.51093006 144.8419085 -100.86393917 152.11409297 -92 157 C-86.74723099 159.61737075 -81.35068334 161.89090536 -75.94140625 164.16113281 C-73.4656383 165.23089371 -71.07712329 166.43837874 -68.6875 167.6875 C-63.98884937 170.10556633 -59.10956744 171.89876813 -54.1640625 173.74609375 C-50.46125881 175.21350114 -46.99166724 176.98248352 -43.4609375 178.81640625 C-39.97485864 180.49304418 -36.36128921 181.70084072 -32.7109375 182.96875 C-30.05583317 183.97876087 -27.6323083 185.16926032 -25.125 186.5 C-20.24886568 189.03558985 -15.25399281 190.59599475 -9.98046875 192.10546875 C-7.23624403 192.92909583 -4.65550537 193.93188735 -2 195 C5.89033894 197.59050284 13.43421447 198.3093356 21.6875 198.375 C22.55375 198.38869629 23.42 198.40239258 24.3125 198.41650391 C32.94865386 198.35589357 40.69420597 196.61439166 47.625 191.25 C48.53636719 190.54488281 49.44773437 189.83976563 50.38671875 189.11328125 C51.24910156 188.41589844 52.11148438 187.71851563 53 187 C53.76957031 186.39542969 54.53914062 185.79085937 55.33203125 185.16796875 C59.81964585 181.47963244 62.37219204 178.16500185 65 173 C65.78480745 171.80795569 66.57695423 170.62072243 67.375 169.4375 C75.70331706 156.1275209 80.81157596 139.47164904 83 124 C83.11085938 123.319375 83.22171875 122.63875 83.3359375 121.9375 C86.03880434 103.82098713 82.5651668 85.80710105 73.8125 69.875 C73.34908203 69.01390625 72.88566406 68.1528125 72.40820312 67.265625 C71.28024554 65.17250783 70.14419787 63.08426956 69 61 C68.34 61 67.68 61 67 61 C67 60.01 67 59.02 67 58 C65.3777546 56.29006566 63.70586575 54.62652316 62 53 C61.443125 52.236875 60.88625 51.47375 60.3125 50.6875 C59.879375 50.130625 59.44625 49.57375 59 49 C58.34 49 57.68 49 57 49 C56.77183594 48.43410156 56.54367187 47.86820313 56.30859375 47.28515625 C54.64681917 44.38325139 52.58443031 42.62613556 50.0625 40.4375 C45.074387 36.08116567 45.074387 36.08116567 43.37109375 34.22265625 C41.93300026 32.66722459 41.93300026 32.66722459 39 33 C39 32.34 39 31.68 39 31 C37.34053676 29.68999824 37.34053676 29.68999824 35.15234375 28.42578125 C34.32653809 27.92626953 33.50073242 27.42675781 32.64990234 26.91210938 C31.75480957 26.38423828 30.8597168 25.85636719 29.9375 25.3125 C28.5755249 24.50329102 28.5755249 24.50329102 27.18603516 23.67773438 C19.65880155 19.26599429 12.0393345 15.39242247 4 12 C3.24976563 11.67668701 2.49953125 11.35337402 1.7265625 11.02026367 C-4.32858114 8.48598136 -10.35304997 6.75204519 -16.75 5.3125 C-17.65621094 5.10044922 -18.56242187 4.88839844 -19.49609375 4.66992188 C-21.99328601 4.0921044 -24.49425066 3.53932858 -27 3 C-27.95519531 2.79375 -28.91039062 2.5875 -29.89453125 2.375 C-44.3203657 0.63301244 -59.31730073 0.87340725 -73 6 Z " fill="#F8C741" transform="translate(301,182)"/>
</svg>
