<?xml version="1.0" encoding="UTF-8"?>
<svg version="1.1" xmlns="http://www.w3.org/2000/svg" width="685" height="634">
<path d="M0 0 C4.2208405 0.011403 8.44142907 0.00461048 12.66226101 -0.00687504 C34.40442745 -0.05720625 55.85048004 0.29416146 77.31518555 4.19824219 C78.31026123 4.37371582 79.30533691 4.54918945 80.33056641 4.72998047 C82.30834641 5.07880371 84.28566706 5.43024455 86.26245117 5.78466797 C88.76058594 6.21868105 91.25961808 6.60844721 93.76831055 6.97558594 C111.21751041 9.59626848 128.53690805 17.13469794 143.00268555 27.26074219 C143.00268555 27.92074219 143.00268555 28.58074219 143.00268555 29.26074219 C144.30979492 29.61458984 144.30979492 29.61458984 145.64331055 29.97558594 C149.38909029 31.40856447 151.72215447 33.21547857 154.75268555 35.82324219 C158.16829469 38.85684689 158.16829469 38.85684689 162.00268555 41.26074219 C162.00268555 41.92074219 162.00268555 42.58074219 162.00268555 43.26074219 C162.5544043 43.50824219 163.10612305 43.75574219 163.67456055 44.01074219 C166.45405262 45.50308693 168.78415624 47.29746742 171.25268555 49.26074219 C172.1447168 49.96199219 173.03674805 50.66324219 173.95581055 51.38574219 C174.96901367 52.31386719 174.96901367 52.31386719 176.00268555 53.26074219 C176.00268555 53.92074219 176.00268555 54.58074219 176.00268555 55.26074219 C176.64206055 55.52886719 177.28143555 55.79699219 177.94018555 56.07324219 C180.00268555 57.26074219 180.00268555 57.26074219 181.00268555 60.26074219 C181.66268555 60.26074219 182.32268555 60.26074219 183.00268555 60.26074219 C183.00268555 60.92074219 183.00268555 61.58074219 183.00268555 62.26074219 C183.64206055 62.52886719 184.28143555 62.79699219 184.94018555 63.07324219 C187.00268555 64.26074219 187.00268555 64.26074219 188.00268555 67.26074219 C188.58791992 67.54175781 189.1731543 67.82277344 189.77612305 68.11230469 C192.86385644 69.70492507 194.46388028 71.93641321 196.62768555 74.63574219 C197.40370117 75.59222656 198.1797168 76.54871094 198.97924805 77.53417969 C200.62406003 79.75054795 201.89560115 81.74897006 203.00268555 84.26074219 C203.66268555 84.26074219 204.32268555 84.26074219 205.00268555 84.26074219 C206.63408492 86.18661798 208.1399178 88.10400936 209.62768555 90.13574219 C210.04791992 90.69132812 210.4681543 91.24691406 210.90112305 91.81933594 C214.00268555 95.99838931 214.00268555 95.99838931 214.00268555 98.26074219 C214.66268555 98.26074219 215.32268555 98.26074219 216.00268555 98.26074219 C217.80479821 100.49713445 219.47833052 102.72857083 221.12768555 105.07324219 C221.59561523 105.71583984 222.06354492 106.3584375 222.5456543 107.02050781 C226.00268555 111.88353282 226.00268555 111.88353282 226.00268555 115.26074219 C226.66268555 115.26074219 227.32268555 115.26074219 228.00268555 115.26074219 C229.51049805 117.37792969 229.51049805 117.37792969 231.12768555 120.13574219 C231.66651367 121.04066406 232.2053418 121.94558594 232.76049805 122.87792969 C234.00268555 125.26074219 234.00268555 125.26074219 234.00268555 127.26074219 C234.66268555 127.26074219 235.32268555 127.26074219 236.00268555 127.26074219 C236.65361144 128.50809786 237.29820224 129.75876051 237.94018555 131.01074219 C238.29983398 131.70683594 238.65948242 132.40292969 239.0300293 133.12011719 C239.95826737 135.16298652 240.53435133 137.07189595 241.00268555 139.26074219 C241.66268555 139.26074219 242.32268555 139.26074219 243.00268555 139.26074219 C243.49897461 140.25332031 243.99526367 141.24589844 244.5065918 142.26855469 C244.83159668 142.91832275 245.15660156 143.56809082 245.49145508 144.23754883 C246.21586695 145.68686672 246.93948171 147.13658328 247.66235352 148.58666992 C249.38421578 152.0382929 251.11225125 155.48552284 252.8815918 158.91308594 C256.53165988 166.04174239 259.70937897 173.21722541 262.6003418 180.67480469 C263.86175513 183.90036858 265.19640827 187.07972086 266.56518555 190.26074219 C281.82390762 226.87192518 288.2666214 267.80935758 285.00268555 307.26074219 C284.94064941 308.07687988 284.87861328 308.89301758 284.81469727 309.73388672 C282.38342693 340.76833752 272.74047453 368.52272544 257.00268555 395.26074219 C255.66314063 397.59058731 254.33256017 399.9253526 253.00268555 402.26074219 C252.34268555 402.26074219 251.68268555 402.26074219 251.00268555 402.26074219 C250.76549805 402.95554687 250.52831055 403.65035156 250.28393555 404.36621094 C248.77163285 407.78272404 246.75030188 410.6183089 244.50268555 413.57324219 C244.09920898 414.12302734 243.69573242 414.6728125 243.2800293 415.23925781 C242.23999863 416.6208167 241.126351 417.94630517 240.00268555 419.26074219 C239.34268555 419.26074219 238.68268555 419.26074219 238.00268555 419.26074219 C237.77581055 419.98261719 237.54893555 420.70449219 237.31518555 421.44824219 C235.73171859 424.84138567 233.69347723 426.6623382 231.00268555 429.26074219 C230.17768555 430.08574219 229.35268555 430.91074219 228.50268555 431.76074219 C221.00268555 439.26074219 221.00268555 439.26074219 218.5456543 441.70996094 C216.74557153 443.51557391 214.95734506 445.32908781 213.1784668 447.15527344 C212.22406465 448.12795415 211.26963743 449.10061027 210.31518555 450.07324219 C209.82985352 450.57533203 209.34452148 451.07742188 208.84448242 451.59472656 C207.60143949 452.85491492 206.30568663 454.06265263 205.00268555 455.26074219 C204.34268555 455.26074219 203.68268555 455.26074219 203.00268555 455.26074219 C203.00268555 455.92074219 203.00268555 456.58074219 203.00268555 457.26074219 C197.52649507 462.26074219 197.52649507 462.26074219 195.00268555 462.26074219 C195.00268555 462.92074219 195.00268555 463.58074219 195.00268555 464.26074219 C193.54174805 465.54980469 193.54174805 465.54980469 191.62768555 466.88574219 C191.00120117 467.33175781 190.3747168 467.77777344 189.72924805 468.23730469 C188.00268555 469.26074219 188.00268555 469.26074219 186.00268555 469.26074219 C185.67268555 470.25074219 185.34268555 471.24074219 185.00268555 472.26074219 C183.57910156 473.5 183.57910156 473.5 181.7565918 474.71386719 C180.75619873 475.38977905 180.75619873 475.38977905 179.7355957 476.0793457 C179.01936035 476.55170654 178.303125 477.02406738 177.56518555 477.51074219 C176.08433506 478.50366268 174.60386477 479.49715045 173.1237793 480.49121094 C172.40689941 480.96993652 171.69001953 481.44866211 170.95141602 481.94189453 C168.63287518 483.51101976 166.38184062 485.16332834 164.12768555 486.82324219 C157.51230778 491.47068404 150.33729192 495.20896159 143.23510742 499.04833984 C141.20635033 500.15013421 139.18900113 501.26977752 137.17456055 502.39746094 C127.43609716 507.79709576 117.34267576 512.1465145 107.00268555 516.26074219 C106.28371094 516.54723633 105.56473633 516.83373047 104.82397461 517.12890625 C95.68687722 520.7368883 86.4978941 523.71184703 77.00268555 526.26074219 C76.07069336 526.52628906 75.13870117 526.79183594 74.1784668 527.06542969 C9.58743077 545.35836544 -59.4924611 537.73983978 -117.99731445 505.26074219 C-118.98344727 504.71933594 -119.96958008 504.17792969 -120.9855957 503.62011719 C-121.98139648 502.94722656 -121.98139648 502.94722656 -122.99731445 502.26074219 C-122.99731445 501.60074219 -122.99731445 500.94074219 -122.99731445 500.26074219 C-123.53356445 500.17824219 -124.06981445 500.09574219 -124.62231445 500.01074219 C-127.83091392 498.99750025 -130.27828831 497.18005476 -132.99731445 495.26074219 C-133.8584082 494.68324219 -134.71950195 494.10574219 -135.60668945 493.51074219 C-136.5193457 492.89199219 -137.43200195 492.27324219 -138.37231445 491.63574219 C-139.24629883 491.04535156 -140.1202832 490.45496094 -141.02075195 489.84667969 C-141.67301758 489.32332031 -142.3252832 488.79996094 -142.99731445 488.26074219 C-142.99731445 487.60074219 -142.99731445 486.94074219 -142.99731445 486.26074219 C-143.65731445 486.26074219 -144.31731445 486.26074219 -144.99731445 486.26074219 C-144.99731445 485.60074219 -144.99731445 484.94074219 -144.99731445 484.26074219 C-145.86888184 483.87595703 -145.86888184 483.87595703 -146.75805664 483.48339844 C-149.20788549 482.14576838 -150.85048839 480.6662357 -152.82543945 478.69824219 C-153.53949951 477.98829102 -154.25355957 477.27833984 -154.98925781 476.546875 C-155.7344165 475.79245117 -156.4795752 475.03802734 -157.24731445 474.26074219 C-158.00858643 473.49342773 -158.7698584 472.72611328 -159.55419922 471.93554688 C-173.16699235 458.08172886 -173.16699235 458.08172886 -175.99731445 450.26074219 C-176.65731445 450.26074219 -177.31731445 450.26074219 -177.99731445 450.26074219 C-179.28637695 448.79980469 -179.28637695 448.79980469 -180.62231445 446.88574219 C-181.06833008 446.25925781 -181.5143457 445.63277344 -181.97387695 444.98730469 C-182.99731445 443.26074219 -182.99731445 443.26074219 -182.99731445 441.26074219 C-183.98731445 440.93074219 -184.97731445 440.60074219 -185.99731445 440.26074219 C-187.70727867 438.20878513 -189.30259172 436.1649863 -190.87231445 434.01074219 C-193.35731162 430.62901821 -195.76606638 427.49002498 -198.75512695 424.52636719 C-200.99731445 422.26074219 -200.99731445 422.26074219 -201.99731445 419.26074219 C-203.32386341 418.58067595 -204.65818888 417.91569633 -205.99731445 417.26074219 C-207.70825195 415.49121094 -207.70825195 415.49121094 -209.37231445 413.44824219 C-211.58104624 410.81970825 -213.7428106 408.51770741 -216.43481445 406.38574219 C-217.28043945 405.68449219 -218.12606445 404.98324219 -218.99731445 404.26074219 C-218.99731445 403.60074219 -218.99731445 402.94074219 -218.99731445 402.26074219 C-219.89450195 401.85855469 -219.89450195 401.85855469 -220.80981445 401.44824219 C-222.99579299 400.26156812 -224.41064039 399.16475106 -225.99731445 397.26074219 C-225.99731445 396.60074219 -225.99731445 395.94074219 -225.99731445 395.26074219 C-226.98731445 395.26074219 -227.97731445 395.26074219 -228.99731445 395.26074219 C-230.10081608 393.91584958 -231.19690798 392.56432675 -232.2590332 391.18652344 C-235.36300932 387.74773642 -239.11742289 385.04855756 -242.7668457 382.21386719 C-243.50290039 381.56933594 -244.23895508 380.92480469 -244.99731445 380.26074219 C-244.99731445 379.60074219 -244.99731445 378.94074219 -244.99731445 378.26074219 C-245.98731445 378.26074219 -246.97731445 378.26074219 -247.99731445 378.26074219 C-247.99731445 377.60074219 -247.99731445 376.94074219 -247.99731445 376.26074219 C-248.65731445 376.26074219 -249.31731445 376.26074219 -249.99731445 376.26074219 C-249.99731445 375.60074219 -249.99731445 374.94074219 -249.99731445 374.26074219 C-250.77848633 373.93589844 -250.77848633 373.93589844 -251.57543945 373.60449219 C-254.9772293 371.7170475 -257.79140854 369.27488634 -260.74731445 366.76074219 C-261.34930664 366.261875 -261.95129883 365.76300781 -262.5715332 365.24902344 C-264.08779723 363.96655976 -265.54774822 362.61813947 -266.99731445 361.26074219 C-266.99731445 360.60074219 -266.99731445 359.94074219 -266.99731445 359.26074219 C-267.65731445 359.26074219 -268.31731445 359.26074219 -268.99731445 359.26074219 C-268.99731445 358.60074219 -268.99731445 357.94074219 -268.99731445 357.26074219 C-269.80168945 356.95136719 -269.80168945 356.95136719 -270.62231445 356.63574219 C-273.91709454 354.72823793 -276.59095074 352.21254835 -278.99731445 349.26074219 C-278.99731445 348.60074219 -278.99731445 347.94074219 -278.99731445 347.26074219 C-279.65731445 347.26074219 -280.31731445 347.26074219 -280.99731445 347.26074219 C-280.99731445 346.60074219 -280.99731445 345.94074219 -280.99731445 345.26074219 C-281.5902832 345.01324219 -282.18325195 344.76574219 -282.79418945 344.51074219 C-285.33164065 343.07105356 -286.53775547 341.60922726 -288.24731445 339.26074219 C-288.7680957 338.55949219 -289.28887695 337.85824219 -289.82543945 337.13574219 C-290.99731445 335.26074219 -290.99731445 335.26074219 -290.99731445 333.26074219 C-291.65731445 333.26074219 -292.31731445 333.26074219 -292.99731445 333.26074219 C-315.19126558 304.94845859 -320.6401068 266.54109831 -320.37231445 231.76074219 C-320.36865875 230.71813232 -320.36500305 229.67552246 -320.36123657 228.60131836 C-320.29177872 211.65554617 -319.50668762 195.04068156 -316.99731445 178.26074219 C-316.88516602 177.46522949 -316.77301758 176.6697168 -316.6574707 175.85009766 C-314.22522534 159.03832762 -309.24704464 143.31831844 -300.8527832 128.56933594 C-298.93944443 125.40083095 -298.93944443 125.40083095 -297.99731445 122.26074219 C-297.33731445 122.26074219 -296.67731445 122.26074219 -295.99731445 122.26074219 C-295.90321289 121.70902344 -295.80911133 121.15730469 -295.7121582 120.58886719 C-294.80570005 117.63668653 -293.33387927 115.53352875 -291.55981445 113.01074219 C-290.94235352 112.11871094 -290.32489258 111.22667969 -289.6887207 110.30761719 C-289.13055664 109.63214844 -288.57239258 108.95667969 -287.99731445 108.26074219 C-287.33731445 108.26074219 -286.67731445 108.26074219 -285.99731445 108.26074219 C-285.99731445 107.27074219 -285.99731445 106.28074219 -285.99731445 105.26074219 C-285.33731445 105.26074219 -284.67731445 105.26074219 -283.99731445 105.26074219 C-283.76915039 104.71675781 -283.54098633 104.17277344 -283.3059082 103.61230469 C-281.61697551 100.57726742 -279.41129191 98.16190083 -277.05981445 95.63574219 C-276.57327393 95.11012695 -276.0867334 94.58451172 -275.58544922 94.04296875 C-255.98017959 73.14161326 -255.98017959 73.14161326 -244.99731445 69.26074219 C-244.99731445 68.60074219 -244.99731445 67.94074219 -244.99731445 67.26074219 C-240.61269907 64.26074219 -240.61269907 64.26074219 -237.99731445 64.26074219 C-237.99731445 63.60074219 -237.99731445 62.94074219 -237.99731445 62.26074219 C-237.16071289 61.78765625 -236.32411133 61.31457031 -235.4621582 60.82714844 C-234.28618823 60.159512 -233.11042411 59.4915129 -231.93481445 58.82324219 C-230.9912207 58.28787842 -230.9912207 58.28787842 -230.02856445 57.74169922 C-226.72577174 55.85730882 -223.45133979 53.94123948 -220.2199707 51.93652344 C-213.08468927 47.51650383 -206.11094763 43.81967546 -198.31762695 40.65527344 C-195.17211333 39.33415772 -192.20114167 37.85109455 -189.18481445 36.26074219 C-182.38370869 32.79688114 -175.29982744 30.37614421 -168.07739258 27.95898438 C-166.18715374 27.32446758 -164.30280428 26.67247337 -162.41918945 26.01855469 C-134.8959196 16.57671548 -106.77570407 9.52942333 -77.99731445 5.26074219 C-77.06822266 5.12039551 -76.13913086 4.98004883 -75.18188477 4.83544922 C-50.07539337 1.07876765 -25.34831072 -0.06915776 0 0 Z M-19.58569336 11.28271484 C-33.31804615 11.41768216 -46.87804175 13.06278601 -60.49731445 14.69824219 C-61.41128998 14.80752045 -62.3252655 14.91679871 -63.26693726 15.02938843 C-65.89683307 15.34753269 -68.52534451 15.67515646 -71.15356445 16.00683594 C-71.94116653 16.1027301 -72.72876862 16.19862427 -73.54023743 16.29742432 C-78.18557398 16.89899626 -82.50012288 17.9034554 -86.99731445 19.26074219 C-88.34406574 19.53030234 -89.69681294 19.77353388 -91.0559082 19.97167969 C-91.76328125 20.07988037 -92.4706543 20.18808105 -93.19946289 20.29956055 C-93.93712891 20.41050049 -94.67479492 20.52144043 -95.43481445 20.63574219 C-108.2062815 22.66661051 -120.52290159 26.0440063 -132.93041992 29.66601562 C-135.34579466 30.3610136 -137.76689524 31.03388529 -140.1887207 31.70605469 C-141.1062915 31.96273926 -142.0238623 32.21942383 -142.96923828 32.48388672 C-144.76611077 32.98636042 -146.56406302 33.4849955 -148.36328125 33.97900391 C-153.6538821 35.46779081 -158.71059105 37.26063242 -163.79174805 39.35498047 C-166.31152276 40.38977836 -168.86182849 41.30490146 -171.43481445 42.19824219 C-177.11138156 44.2465699 -182.53443828 46.70471756 -187.99731445 49.26074219 C-189.09430664 49.751875 -190.19129883 50.24300781 -191.3215332 50.74902344 C-207.53546659 58.09349705 -222.88413038 66.66450685 -237.32446289 77.08447266 C-238.99954528 78.2623108 -240.71286424 79.35676685 -242.44262695 80.45214844 C-243.28567383 81.04898438 -244.1287207 81.64582031 -244.99731445 82.26074219 C-244.99731445 82.92074219 -244.99731445 83.58074219 -244.99731445 84.26074219 C-245.85583008 84.66292969 -245.85583008 84.66292969 -246.73168945 85.07324219 C-249.0761608 86.30206855 -251.12136383 87.68596395 -253.24731445 89.26074219 C-254.30692383 90.03417969 -254.30692383 90.03417969 -255.38793945 90.82324219 C-255.9190332 91.29761719 -256.45012695 91.77199219 -256.99731445 92.26074219 C-256.99731445 92.92074219 -256.99731445 93.58074219 -256.99731445 94.26074219 C-257.95637695 94.66292969 -257.95637695 94.66292969 -258.93481445 95.07324219 C-261.32863132 96.14741971 -261.32863132 96.14741971 -261.99731445 99.26074219 C-262.65731445 99.26074219 -263.31731445 99.26074219 -263.99731445 99.26074219 C-263.99731445 99.92074219 -263.99731445 100.58074219 -263.99731445 101.26074219 C-264.56063477 101.48117188 -265.12395508 101.70160156 -265.7043457 101.92871094 C-278.83689183 109.55766874 -290.97176384 132.15572754 -296.0402832 145.74121094 C-296.77355622 147.67166439 -297.59384352 149.56925755 -298.45043945 151.44824219 C-300.35000613 155.85763285 -301.46331764 160.4092577 -302.55981445 165.07324219 C-302.77669922 165.99540527 -302.99358398 166.91756836 -303.21704102 167.86767578 C-305.20037237 176.62713846 -306.32221947 185.31472307 -306.99731445 194.26074219 C-307.05371094 194.92493164 -307.11010742 195.58912109 -307.16821289 196.2734375 C-308.09081603 207.42656301 -308.12117678 218.62315136 -308.17254639 229.80773926 C-308.18057675 231.4543229 -308.19156933 233.10089541 -308.20587158 234.74743652 C-308.44598815 265.69315247 -303.2557215 297.48416754 -284.99731445 323.26074219 C-284.33731445 323.26074219 -283.67731445 323.26074219 -282.99731445 323.26074219 C-282.77043945 323.94136719 -282.54356445 324.62199219 -282.30981445 325.32324219 C-280.68505299 328.95961308 -278.66928189 332.28903482 -275.99731445 335.26074219 C-275.33731445 335.26074219 -274.67731445 335.26074219 -273.99731445 335.26074219 C-273.99731445 335.92074219 -273.99731445 336.58074219 -273.99731445 337.26074219 C-272.66398112 338.92740885 -272.66398112 338.92740885 -270.99731445 340.26074219 C-270.33731445 340.26074219 -269.67731445 340.26074219 -268.99731445 340.26074219 C-268.99731445 340.92074219 -268.99731445 341.58074219 -268.99731445 342.26074219 C-266.66398112 344.92740885 -266.66398112 344.92740885 -263.99731445 347.26074219 C-263.33731445 347.26074219 -262.67731445 347.26074219 -261.99731445 347.26074219 C-261.99731445 347.92074219 -261.99731445 348.58074219 -261.99731445 349.26074219 C-260.66398112 350.92740885 -260.66398112 350.92740885 -258.99731445 352.26074219 C-258.33731445 352.26074219 -257.67731445 352.26074219 -256.99731445 352.26074219 C-256.99731445 352.92074219 -256.99731445 353.58074219 -256.99731445 354.26074219 C-255.40397206 355.69623945 -253.74480363 357.05901545 -252.05981445 358.38574219 C-247.46943098 362.04500136 -243.07763923 365.83541378 -238.7746582 369.82714844 C-237.11843634 371.4700153 -237.11843634 371.4700153 -234.99731445 371.26074219 C-234.50231445 372.74574219 -234.50231445 372.74574219 -233.99731445 374.26074219 C-232.28567357 375.84790009 -230.50403626 377.36063604 -228.68481445 378.82324219 C-227.71930664 379.60828125 -226.75379883 380.39332031 -225.7590332 381.20214844 C-223.52798436 382.86517919 -221.529892 384.14785182 -218.99731445 385.26074219 C-218.99731445 385.92074219 -218.99731445 386.58074219 -218.99731445 387.26074219 C-217.66398112 388.92740885 -217.66398112 388.92740885 -215.99731445 390.26074219 C-215.33731445 390.26074219 -214.67731445 390.26074219 -213.99731445 390.26074219 C-213.99731445 390.92074219 -213.99731445 391.58074219 -213.99731445 392.26074219 C-212.48011463 393.79531585 -212.48011463 393.79531585 -210.49731445 395.38574219 C-199.08161678 405.09213754 -199.08161678 405.09213754 -196.99731445 409.26074219 C-196.33731445 409.26074219 -195.67731445 409.26074219 -194.99731445 409.26074219 C-194.99731445 409.92074219 -194.99731445 410.58074219 -194.99731445 411.26074219 C-193.66398112 412.92740885 -193.66398112 412.92740885 -191.99731445 414.26074219 C-191.33731445 414.26074219 -190.67731445 414.26074219 -189.99731445 414.26074219 C-189.77946289 414.79054688 -189.56161133 415.32035156 -189.3371582 415.86621094 C-187.50430779 419.1418299 -185.04257199 421.78472825 -182.55981445 424.57324219 C-175.45202248 432.6956579 -168.98506746 441.27911268 -162.99731445 450.26074219 C-162.33731445 450.26074219 -161.67731445 450.26074219 -160.99731445 450.26074219 C-160.74981445 450.81246094 -160.50231445 451.36417969 -160.24731445 451.93261719 C-158.75496972 454.71210926 -156.96058922 457.04221288 -154.99731445 459.51074219 C-154.29606445 460.40277344 -153.59481445 461.29480469 -152.87231445 462.21386719 C-152.25356445 462.88933594 -151.63481445 463.56480469 -150.99731445 464.26074219 C-150.33731445 464.26074219 -149.67731445 464.26074219 -148.99731445 464.26074219 C-148.72918945 464.90011719 -148.46106445 465.53949219 -148.18481445 466.19824219 C-147.11063693 468.59205905 -147.11063693 468.59205905 -143.99731445 469.26074219 C-143.66731445 470.25074219 -143.33731445 471.24074219 -142.99731445 472.26074219 C-140.7858918 474.35047194 -140.7858918 474.35047194 -138.12231445 476.38574219 C-137.23801758 477.08957031 -136.3537207 477.79339844 -135.44262695 478.51855469 C-133.04279965 480.40831891 -133.04279965 480.40831891 -129.99731445 481.26074219 C-129.99731445 481.92074219 -129.99731445 482.58074219 -129.99731445 483.26074219 C-126.77617288 485.57666241 -126.77617288 485.57666241 -122.99731445 486.26074219 C-122.99731445 486.92074219 -122.99731445 487.58074219 -122.99731445 488.26074219 C-122.00731445 488.26074219 -121.01731445 488.26074219 -119.99731445 488.26074219 C-119.99731445 488.92074219 -119.99731445 489.58074219 -119.99731445 490.26074219 C-118.54770536 491.40825921 -118.54770536 491.40825921 -116.63012695 492.46777344 C-115.9146167 492.88704102 -115.19910645 493.30630859 -114.46191406 493.73828125 C-113.68984619 494.17881836 -112.91777832 494.61935547 -112.12231445 495.07324219 C-111.33800049 495.52538086 -110.55368652 495.97751953 -109.74560547 496.44335938 C-99.15833702 502.50698671 -88.478935 507.17615761 -76.99731445 511.26074219 C-75.92102783 511.65011963 -75.92102783 511.65011963 -74.82299805 512.04736328 C-50.94537336 520.63862106 -25.79703641 524.88901822 -0.43481445 524.76074219 C0.43356049 524.76030914 1.30193542 524.7598761 2.19662476 524.75942993 C44.13175342 524.64641523 86.71652374 514.65134309 123.97631836 495.30175781 C126.0447657 494.23912414 128.12585809 493.20673099 130.21362305 492.18261719 C141.50688858 486.89017917 141.50688858 486.89017917 152.00268555 480.26074219 C152.00268555 479.60074219 152.00268555 478.94074219 152.00268555 478.26074219 C152.53506836 478.18210937 153.06745117 478.10347656 153.6159668 478.02246094 C156.89223925 476.97684207 159.43049664 475.06336752 162.19018555 473.07324219 C163.34322413 472.2546778 164.49687354 471.43697318 165.65112305 470.62011719 C166.21669922 470.21857422 166.78227539 469.81703125 167.36499023 469.40332031 C170.34447668 467.32460884 173.41785648 465.38870449 176.4909668 463.45214844 C176.98983398 463.05898438 177.48870117 462.66582031 178.00268555 462.26074219 C178.00268555 461.60074219 178.00268555 460.94074219 178.00268555 460.26074219 C179.08549805 459.88949219 179.08549805 459.88949219 180.19018555 459.51074219 C183.27875136 458.13804627 185.51279972 456.53720923 188.00268555 454.26074219 C188.00268555 453.60074219 188.00268555 452.94074219 188.00268555 452.26074219 C188.55698242 452.02355469 189.1112793 451.78636719 189.68237305 451.54199219 C198.56323281 446.63808309 206.1579418 437.22107596 213.31518555 430.13574219 C214.06751465 429.39646484 214.81984375 428.6571875 215.5949707 427.89550781 C219.93466239 423.56253243 223.83828038 419.10596423 227.50219727 414.18603516 C229.00268555 412.26074219 229.00268555 412.26074219 231.81518555 409.51074219 C234.08676603 407.17425941 235.03383319 405.34345423 236.00268555 402.26074219 C236.66268555 402.26074219 237.32268555 402.26074219 238.00268555 402.26074219 C238.00268555 401.27074219 238.00268555 400.28074219 238.00268555 399.26074219 C238.66268555 399.26074219 239.32268555 399.26074219 240.00268555 399.26074219 C242.29917204 396.69927649 243.00268555 395.78106647 243.00268555 392.26074219 C243.66268555 392.26074219 244.32268555 392.26074219 245.00268555 392.26074219 C245.36620117 391.59429687 245.7297168 390.92785156 246.10424805 390.24121094 C246.60698242 389.31953125 247.1097168 388.39785156 247.62768555 387.44824219 C248.17424805 386.44277344 248.72081055 385.43730469 249.28393555 384.40136719 C250.37631678 382.40528875 251.47931605 380.41495669 252.59643555 378.43261719 C255.91424392 372.50795937 258.61990476 366.61190421 261.00268555 360.26074219 C261.71424805 358.50310547 261.71424805 358.50310547 262.44018555 356.70996094 C277.90085882 318.07046686 280.66564583 264.17340914 265.00268555 225.26074219 C264.51246522 223.20558776 264.05608647 221.14216663 263.62768555 219.07324219 C262.49872034 214.01000429 261.00816131 209.42316093 258.97143555 204.66308594 C257.97113478 202.18250137 257.2237216 199.71031113 256.50268555 197.13574219 C255.38253256 193.24850858 253.91174475 189.85874159 252.0222168 186.29199219 C250.94882191 184.15342766 250.09925834 181.99837953 249.25268555 179.76074219 C242.94601726 163.67381096 234.1298091 147.89311487 225.00268555 133.26074219 C224.49479492 132.43832031 223.9869043 131.61589844 223.46362305 130.76855469 C219.87368684 125.0348651 216.12146703 119.41472596 212.31518555 113.82324219 C211.61969604 112.79336182 211.61969604 112.79336182 210.91015625 111.74267578 C208.50636315 108.2379913 206.0784949 105.21645486 203.00268555 102.26074219 C202.30143555 101.18824219 201.60018555 100.11574219 200.87768555 99.01074219 C200.25893555 98.10324219 199.64018555 97.19574219 199.00268555 96.26074219 C198.34268555 96.26074219 197.68268555 96.26074219 197.00268555 96.26074219 C196.7809668 95.55691406 196.55924805 94.85308594 196.33081055 94.12792969 C194.70558863 90.61936237 192.40172731 88.13577122 189.75268555 85.38574219 C188.75819051 84.33200271 187.76469446 83.27731947 186.7722168 82.22167969 C186.29478027 81.71604492 185.81734375 81.21041016 185.32543945 80.68945312 C183.62588904 78.85376301 182.0289857 76.94253393 180.44018555 75.01074219 C179.23362305 73.64949219 179.23362305 73.64949219 178.00268555 72.26074219 C177.34268555 72.26074219 176.68268555 72.26074219 176.00268555 72.26074219 C176.00268555 71.60074219 176.00268555 70.94074219 176.00268555 70.26074219 C174.66935221 68.59407552 174.66935221 68.59407552 173.00268555 67.26074219 C172.34268555 67.26074219 171.68268555 67.26074219 171.00268555 67.26074219 C171.00268555 66.60074219 171.00268555 65.94074219 171.00268555 65.26074219 C169.55905279 63.72179533 169.55905279 63.72179533 167.62768555 62.13574219 C166.90709961 61.52085937 166.18651367 60.90597656 165.4440918 60.27246094 C162.01054245 57.44321628 158.51951526 54.68985108 155.0065918 51.95996094 C153.00268555 50.26074219 153.00268555 50.26074219 152.00268555 48.26074219 C151.01268555 48.26074219 150.02268555 48.26074219 149.00268555 48.26074219 C149.00268555 47.60074219 149.00268555 46.94074219 149.00268555 46.26074219 C147.63660199 45.02213692 147.63660199 45.02213692 145.8190918 43.83496094 C145.14354248 43.37057617 144.46799316 42.90619141 143.77197266 42.42773438 C143.04373291 41.93950195 142.31549316 41.45126953 141.56518555 40.94824219 C140.82598877 40.4484082 140.08679199 39.94857422 139.32519531 39.43359375 C134.34562761 36.09454098 129.38085371 32.92328925 124.00268555 30.26074219 C122.36299805 29.41576172 122.36299805 29.41576172 120.69018555 28.55371094 C112.84445288 24.62095284 105.21990205 22.00769833 96.65893555 20.08496094 C94.34592795 19.56354576 92.04663197 18.97234885 89.77661133 18.28759766 C85.85907462 17.22166679 81.97766897 16.55111965 77.96362305 16.00683594 C76.82130722 15.84816795 76.82130722 15.84816795 75.65591431 15.68629456 C74.04433132 15.46437929 72.43237178 15.24518345 70.82006836 15.02856445 C68.43145496 14.70551428 66.04530476 14.36749592 63.65893555 14.02832031 C44.53755787 11.38403963 25.40518949 11.07429209 6.12768555 11.13574219 C5.16180511 11.1382901 4.19592468 11.14083801 3.20077515 11.14346313 C-2.42447062 11.16080943 -8.0494331 11.19312272 -13.67449951 11.2411499 C-15.64487608 11.25776947 -17.61528364 11.27064947 -19.58569336 11.28271484 Z " fill="#7573F1" transform="translate(359.997314453125,73.7392578125)"/>
<path d="M0 0 C1.0623436 -0.0033284 2.12468719 -0.0066568 3.21922302 -0.01008606 C5.4657244 -0.01512916 7.7122332 -0.0174952 9.95874023 -0.01733398 C13.30921709 -0.01949141 16.65934815 -0.03759432 20.00976562 -0.05664062 C42.14936169 -0.11441464 63.94084391 1.77453241 85.80859375 5.16796875 C86.4594696 5.26764954 87.11034546 5.36733032 87.78094482 5.47003174 C113.51092698 9.41548926 136.79977273 13.5569247 158.6640625 28.6875 C160.21006467 29.75477654 161.77825799 30.7901576 163.359375 31.8046875 C164.60267578 32.60326172 164.60267578 32.60326172 165.87109375 33.41796875 C166.62519531 33.8975 167.37929688 34.37703125 168.15625 34.87109375 C168.97416016 35.51304687 168.97416016 35.51304687 169.80859375 36.16796875 C169.80859375 36.82796875 169.80859375 37.48796875 169.80859375 38.16796875 C170.36675781 38.40902344 170.92492187 38.65007812 171.5 38.8984375 C178.0760649 42.51471684 183.6012 48.82705208 188.80859375 54.16796875 C189.50855469 54.85761719 190.20851563 55.54726562 190.9296875 56.2578125 C199.271999 64.49053699 199.271999 64.49053699 202.80859375 69.16796875 C202.80859375 69.82796875 202.80859375 70.48796875 202.80859375 71.16796875 C203.79859375 71.49796875 204.78859375 71.82796875 205.80859375 72.16796875 C207.38671875 74.1015625 207.38671875 74.1015625 209.05859375 76.60546875 C209.66574219 77.50265625 210.27289062 78.39984375 210.8984375 79.32421875 C211.52878906 80.26265625 212.15914062 81.20109375 212.80859375 82.16796875 C214.07563276 83.98312322 215.34630536 85.79574828 216.62109375 87.60546875 C221.80859375 95.0009207 221.80859375 95.0009207 221.80859375 98.16796875 C222.46859375 98.16796875 223.12859375 98.16796875 223.80859375 98.16796875 C241.35072533 128.73606612 252.91180062 158.63769372 259.80859375 193.16796875 C259.98874023 194.04751221 260.16888672 194.92705566 260.35449219 195.83325195 C263.08541418 209.87400839 262.00618505 224.95069386 261.80859375 239.16796875 C261.80134277 239.90080078 261.7940918 240.63363281 261.78662109 241.38867188 C261.66040931 249.38921553 260.14399718 257.05411169 258.49609375 264.85546875 C258.19505737 266.28197754 258.19505737 266.28197754 257.88793945 267.73730469 C256.57965848 273.58680584 254.85918448 279.13149635 252.72338867 284.73217773 C251.87749694 286.98450273 251.13616267 289.24263564 250.43359375 291.54296875 C246.67488155 302.8390985 240.76004257 313.21629682 234.79541016 323.46484375 C233.89935952 325.01131808 233.03013669 326.57325941 232.1640625 328.13671875 C231.71675781 328.80703125 231.26945312 329.47734375 230.80859375 330.16796875 C230.14859375 330.16796875 229.48859375 330.16796875 228.80859375 330.16796875 C228.80859375 331.15796875 228.80859375 332.14796875 228.80859375 333.16796875 C228.14859375 333.16796875 227.48859375 333.16796875 226.80859375 333.16796875 C226.54046875 333.91046875 226.27234375 334.65296875 225.99609375 335.41796875 C224.85582624 338.05858824 223.71479069 340.02349719 221.80859375 342.16796875 C221.14859375 342.16796875 220.48859375 342.16796875 219.80859375 342.16796875 C219.49921875 343.18890625 219.49921875 343.18890625 219.18359375 344.23046875 C217.37964348 348.0843625 214.90755925 351.24584639 211.80859375 354.16796875 C211.14859375 354.16796875 210.48859375 354.16796875 209.80859375 354.16796875 C209.54046875 354.76609375 209.27234375 355.36421875 208.99609375 355.98046875 C207.80941969 358.16644729 206.71260262 359.58129469 204.80859375 361.16796875 C204.14859375 361.16796875 203.48859375 361.16796875 202.80859375 361.16796875 C202.54046875 361.80734375 202.27234375 362.44671875 201.99609375 363.10546875 C200.80859375 365.16796875 200.80859375 365.16796875 197.80859375 366.16796875 C197.10708223 367.48330285 196.4433345 368.81914467 195.80859375 370.16796875 C194.30859375 371.91796875 194.30859375 371.91796875 192.80859375 373.16796875 C192.14859375 373.16796875 191.48859375 373.16796875 190.80859375 373.16796875 C190.46828125 374.02648437 190.46828125 374.02648437 190.12109375 374.90234375 C188.4486713 377.78926346 186.4271919 379.36267369 183.80859375 381.41796875 C182.92171875 382.124375 182.03484375 382.83078125 181.12109375 383.55859375 C178.80859375 385.16796875 178.80859375 385.16796875 176.80859375 385.16796875 C176.47859375 386.15796875 176.14859375 387.14796875 175.80859375 388.16796875 C173.6640625 389.88671875 173.6640625 389.88671875 170.99609375 391.66796875 C167.2400677 394.19065447 167.2400677 394.19065447 163.609375 396.88671875 C161.80859375 398.16796875 161.80859375 398.16796875 159.80859375 398.16796875 C159.80859375 398.82796875 159.80859375 399.48796875 159.80859375 400.16796875 C157.58171399 401.46371746 155.352262 402.75464183 153.12109375 404.04296875 C152.49525391 404.40777344 151.86941406 404.77257812 151.22460938 405.1484375 C147.82664433 407.10538072 144.50791756 408.82404614 140.80859375 410.16796875 C140.80859375 410.82796875 140.80859375 411.48796875 140.80859375 412.16796875 C139.720625 412.67585938 138.63265625 413.18375 137.51171875 413.70703125 C136.02723401 414.40210942 134.54286755 415.09744024 133.05859375 415.79296875 C131.88659424 416.34102173 131.88659424 416.34102173 130.69091797 416.90014648 C126.38666018 418.92216518 122.1437588 421.01743328 117.93359375 423.23046875 C109.86257167 427.29914837 101.33716742 430.2189854 92.80859375 433.16796875 C92.11717285 433.4093457 91.42575195 433.65072266 90.71337891 433.89941406 C80.2363625 437.513248 69.62813077 439.79221101 58.73120117 441.76660156 C56.60321444 442.17215916 56.60321444 442.17215916 53.80859375 443.16796875 C41.02465488 444.94632282 28.32799112 445.53711595 15.43359375 445.48046875 C14.58552155 445.47897827 13.73744934 445.47748779 12.86367798 445.47595215 C-0.04605773 445.435293 -12.5184064 444.79103057 -25.19140625 442.16796875 C-26.74212978 441.87469466 -28.2929116 441.58172856 -29.84375 441.2890625 C-53.43205508 436.62565036 -76.50245529 426.9432772 -96.19140625 413.16796875 C-97.10664063 412.554375 -98.021875 411.94078125 -98.96484375 411.30859375 C-99.88523438 410.6846875 -100.805625 410.06078125 -101.75390625 409.41796875 C-102.60082031 408.845625 -103.44773438 408.27328125 -104.3203125 407.68359375 C-104.93777344 407.1834375 -105.55523437 406.68328125 -106.19140625 406.16796875 C-106.19140625 405.50796875 -106.19140625 404.84796875 -106.19140625 404.16796875 C-107.27421875 403.82765625 -107.27421875 403.82765625 -108.37890625 403.48046875 C-111.06837815 402.22538186 -112.66691653 400.93387865 -114.67578125 398.78515625 C-116.62346736 396.70695509 -118.66071616 394.72753814 -120.69140625 392.73046875 C-130.19140625 383.21460898 -130.19140625 383.21460898 -130.19140625 380.16796875 C-130.85140625 380.16796875 -131.51140625 380.16796875 -132.19140625 380.16796875 C-133.48046875 378.70703125 -133.48046875 378.70703125 -134.81640625 376.79296875 C-135.26242188 376.16648437 -135.7084375 375.54 -136.16796875 374.89453125 C-137.19140625 373.16796875 -137.19140625 373.16796875 -137.19140625 371.16796875 C-137.85140625 371.16796875 -138.51140625 371.16796875 -139.19140625 371.16796875 C-140.63671875 369.33203125 -140.63671875 369.33203125 -142.31640625 366.79296875 C-145.53349126 362.03845575 -149.01244316 357.60649754 -152.6875 353.19921875 C-154.19140625 351.16796875 -154.19140625 351.16796875 -154.19140625 349.16796875 C-154.85140625 349.16796875 -155.51140625 349.16796875 -156.19140625 349.16796875 C-157.52512785 347.48683181 -158.78411741 345.74601397 -160.00390625 343.98046875 C-162.8333755 339.98771681 -165.68602366 336.58571677 -169.19140625 333.16796875 C-171.2724724 330.63038414 -173.30398563 328.05886908 -175.32421875 325.47265625 C-177.08942068 323.19769525 -177.08942068 323.19769525 -178.93359375 321.48828125 C-180.19140625 320.16796875 -180.19140625 320.16796875 -180.19140625 318.16796875 C-180.85140625 318.16796875 -181.51140625 318.16796875 -182.19140625 318.16796875 C-183.8828125 316.3046875 -183.8828125 316.3046875 -185.75390625 313.85546875 C-186.37394531 313.05496094 -186.99398437 312.25445312 -187.6328125 311.4296875 C-189.19140625 309.16796875 -189.19140625 309.16796875 -190.19140625 306.16796875 C-190.85140625 306.16796875 -191.51140625 306.16796875 -192.19140625 306.16796875 C-193.77570621 304.30641629 -195.24041324 302.44253128 -196.69140625 300.48046875 C-197.58683969 299.28876192 -198.48268536 298.09736474 -199.37890625 296.90625 C-199.84039062 296.28959473 -200.301875 295.67293945 -200.77734375 295.03759766 C-202.16508332 293.2027721 -203.57824699 291.39140752 -205.00390625 289.5859375 C-205.45443359 289.01254639 -205.90496094 288.43915527 -206.36914062 287.84838867 C-207.6307974 286.24499436 -208.89540326 284.6439219 -210.16015625 283.04296875 C-212.00017389 280.43863609 -213.1751262 278.17262282 -214.19140625 275.16796875 C-214.85140625 275.16796875 -215.51140625 275.16796875 -216.19140625 275.16796875 C-219.19140625 270.78335337 -219.19140625 270.78335337 -219.19140625 268.16796875 C-219.85140625 268.16796875 -220.51140625 268.16796875 -221.19140625 268.16796875 C-221.69929688 267.27335937 -222.2071875 266.37875 -222.73046875 265.45703125 C-223.42549809 264.23551592 -224.12083246 263.01417413 -224.81640625 261.79296875 C-225.36228394 260.83438965 -225.36228394 260.83438965 -225.91918945 259.85644531 C-228.02138967 256.17724879 -230.16723138 252.53287336 -232.37890625 248.91796875 C-247.95928181 222.9787489 -254.49994569 191.79649506 -247.19140625 162.16796875 C-244.60874899 153.23367749 -241.16354339 144.57056655 -237.19140625 136.16796875 C-236.53140625 136.16796875 -235.87140625 136.16796875 -235.19140625 136.16796875 C-235.10890625 135.48734375 -235.02640625 134.80671875 -234.94140625 134.10546875 C-233.96808097 130.29327805 -232.2333317 127.52726546 -230.19140625 124.16796875 C-229.53140625 124.16796875 -228.87140625 124.16796875 -228.19140625 124.16796875 C-227.88203125 123.38421875 -227.57265625 122.60046875 -227.25390625 121.79296875 C-226.19140625 119.16796875 -226.19140625 119.16796875 -225.19140625 117.16796875 C-224.53140625 117.16796875 -223.87140625 117.16796875 -223.19140625 117.16796875 C-223.19140625 116.17796875 -223.19140625 115.18796875 -223.19140625 114.16796875 C-222.53140625 114.16796875 -221.87140625 114.16796875 -221.19140625 114.16796875 C-220.92328125 113.595625 -220.65515625 113.02328125 -220.37890625 112.43359375 C-219.15007989 110.08912241 -217.76618449 108.04391937 -216.19140625 105.91796875 C-215.67578125 105.2115625 -215.16015625 104.50515625 -214.62890625 103.77734375 C-214.15453125 103.24625 -213.68015625 102.71515625 -213.19140625 102.16796875 C-212.53140625 102.16796875 -211.87140625 102.16796875 -211.19140625 102.16796875 C-211.19140625 101.50796875 -211.19140625 100.84796875 -211.19140625 100.16796875 C-210.53140625 100.16796875 -209.87140625 100.16796875 -209.19140625 100.16796875 C-208.93166016 99.58370117 -208.67191406 98.99943359 -208.40429688 98.39746094 C-207.10675025 96.01235711 -205.69799503 94.41606238 -203.78515625 92.49609375 C-202.79322266 91.50029297 -202.79322266 91.50029297 -201.78125 90.484375 C-201.09160156 89.80246094 -200.40195313 89.12054688 -199.69140625 88.41796875 C-199.00175781 87.72058594 -198.31210938 87.02320313 -197.6015625 86.3046875 C-196.94027344 85.64597656 -196.27898437 84.98726563 -195.59765625 84.30859375 C-194.99244141 83.70563477 -194.38722656 83.10267578 -193.76367188 82.48144531 C-192.19140625 81.16796875 -192.19140625 81.16796875 -190.19140625 81.16796875 C-189.69640625 79.68296875 -189.69640625 79.68296875 -189.19140625 78.16796875 C-188.53140625 78.16796875 -187.87140625 78.16796875 -187.19140625 78.16796875 C-187.19140625 77.50796875 -187.19140625 76.84796875 -187.19140625 76.16796875 C-185.47807871 74.58263173 -183.69451578 73.0725566 -181.87890625 71.60546875 C-180.39970703 70.39697266 -180.39970703 70.39697266 -178.890625 69.1640625 C-176.19140625 67.16796875 -176.19140625 67.16796875 -173.19140625 66.16796875 C-173.19140625 65.50796875 -173.19140625 64.84796875 -173.19140625 64.16796875 C-171.54140625 63.50796875 -169.89140625 62.84796875 -168.19140625 62.16796875 C-168.19140625 61.50796875 -168.19140625 60.84796875 -168.19140625 60.16796875 C-166.71020508 58.88696289 -166.71020508 58.88696289 -164.6484375 57.453125 C-163.90400391 56.93169922 -163.15957031 56.41027344 -162.39257812 55.87304688 C-161.60431641 55.33099609 -160.81605469 54.78894531 -160.00390625 54.23046875 C-159.23498047 53.69228516 -158.46605469 53.15410156 -157.67382812 52.59960938 C-146.99829011 45.16796875 -146.99829011 45.16796875 -144.19140625 45.16796875 C-144.19140625 44.50796875 -144.19140625 43.84796875 -144.19140625 43.16796875 C-143.51335937 42.80445313 -142.8353125 42.4409375 -142.13671875 42.06640625 C-137.40294385 39.50938102 -132.71832391 36.91457177 -128.12890625 34.10546875 C-108.86213541 22.4670125 -86.9153423 14.12039777 -65.015625 9.06640625 C-62.50570809 8.47674242 -60.00683269 7.83744876 -57.5234375 7.14453125 C-46.24616277 4.03597677 -34.87173321 2.7217402 -23.25415039 1.4934082 C-21.57487599 1.31497275 -19.89608301 1.12978188 -18.22129822 0.91322327 C-12.13491396 0.15496202 -6.12940136 0.00686334 0 0 Z M-47.50390625 16.91796875 C-48.64690186 17.17892334 -49.78989746 17.43987793 -50.9675293 17.70874023 C-69.6364762 22.0479668 -88.52868186 26.87785426 -105.5703125 35.8359375 C-108.06785793 37.1051819 -110.57540053 38.16981828 -113.19140625 39.16796875 C-113.19140625 39.82796875 -113.19140625 40.48796875 -113.19140625 41.16796875 C-113.92713867 41.28567627 -114.66287109 41.40338379 -115.42089844 41.5246582 C-118.18810141 42.16720137 -120.08093285 43.0323556 -122.51953125 44.4609375 C-123.32003906 44.92693359 -124.12054688 45.39292969 -124.9453125 45.87304688 C-125.76902344 46.36224609 -126.59273438 46.85144531 -127.44140625 47.35546875 C-128.24964844 47.82533203 -129.05789062 48.29519531 -129.890625 48.77929688 C-134.80442508 51.66074924 -139.5791423 54.70001955 -144.29077148 57.90112305 C-145.82449587 58.92340896 -147.40794545 59.87085807 -149.00390625 60.79296875 C-151.2860163 62.11433857 -151.2860163 62.11433857 -153.19140625 64.16796875 C-155.19140625 66.16796875 -155.19140625 66.16796875 -157.94140625 67.79296875 C-158.68390625 68.24671875 -159.42640625 68.70046875 -160.19140625 69.16796875 C-160.19140625 69.82796875 -160.19140625 70.48796875 -160.19140625 71.16796875 C-160.76375 71.43609375 -161.33609375 71.70421875 -161.92578125 71.98046875 C-164.27025259 73.20929511 -166.31545563 74.59319051 -168.44140625 76.16796875 C-169.50101563 76.94140625 -169.50101563 76.94140625 -170.58203125 77.73046875 C-171.113125 78.20484375 -171.64421875 78.67921875 -172.19140625 79.16796875 C-172.19140625 79.82796875 -172.19140625 80.48796875 -172.19140625 81.16796875 C-173.18140625 81.16796875 -174.17140625 81.16796875 -175.19140625 81.16796875 C-177.67399554 83.4025972 -177.67399554 83.4025972 -180.19140625 86.16796875 C-181.82633459 87.79215837 -183.46176567 89.41584205 -185.09765625 91.0390625 C-186.48729511 92.42180245 -187.87692579 93.80455072 -189.26611328 95.18774414 C-190.6861081 96.60019874 -192.10867503 98.01006594 -193.53125 99.41992188 C-200.20037076 105.99309017 -200.20037076 105.99309017 -206.19140625 113.16796875 C-206.19140625 113.82796875 -206.19140625 114.48796875 -206.19140625 115.16796875 C-207.67640625 115.66296875 -207.67640625 115.66296875 -209.19140625 116.16796875 C-212.10607352 119.64816847 -214.61003202 123.43603914 -217.19140625 127.16796875 C-217.73410156 127.92980469 -218.27679688 128.69164062 -218.8359375 129.4765625 C-234.15666306 151.50768501 -240.91910917 176.80073086 -236.9140625 203.32421875 C-235.03135034 213.33821205 -232.52556459 222.3972149 -227.65625 231.38671875 C-226.19140625 234.16796875 -226.19140625 234.16796875 -224.78125 237.5234375 C-223.03681848 241.52234317 -221.02602092 245.22483402 -218.81640625 248.98046875 C-218.17807861 250.06775269 -218.17807861 250.06775269 -217.52685547 251.17700195 C-212.70274236 259.22494628 -207.17282103 266.74143181 -201.57128906 274.25927734 C-200.28919192 276.03270895 -199.10433829 277.83949651 -197.93359375 279.6875 C-197.07121094 280.91533203 -197.07121094 280.91533203 -196.19140625 282.16796875 C-195.53140625 282.16796875 -194.87140625 282.16796875 -194.19140625 282.16796875 C-193.98515625 282.84859375 -193.77890625 283.52921875 -193.56640625 284.23046875 C-191.76245598 288.0843625 -189.29037175 291.24584639 -186.19140625 294.16796875 C-185.53140625 294.16796875 -184.87140625 294.16796875 -184.19140625 294.16796875 C-183.79888672 295.26625 -183.79888672 295.26625 -183.3984375 296.38671875 C-180.54721442 302.95652727 -175.2576365 308.22236303 -170.19140625 313.16796875 C-161.50483909 322.54110308 -161.50483909 322.54110308 -160.19140625 325.16796875 C-159.53140625 325.16796875 -158.87140625 325.16796875 -158.19140625 325.16796875 C-157.94390625 325.91046875 -157.69640625 326.65296875 -157.44140625 327.41796875 C-156.05706379 330.46352217 -154.58166317 331.84410786 -152.19140625 334.16796875 C-150.60938211 336.2732778 -149.075083 338.40565046 -147.55859375 340.55859375 C-147.10742188 341.0896875 -146.65625 341.62078125 -146.19140625 342.16796875 C-145.53140625 342.16796875 -144.87140625 342.16796875 -144.19140625 342.16796875 C-143.92328125 342.72484375 -143.65515625 343.28171875 -143.37890625 343.85546875 C-142.08241129 346.38022209 -140.76664302 348.80511359 -139.19140625 351.16796875 C-138.53140625 351.16796875 -137.87140625 351.16796875 -137.19140625 351.16796875 C-137.19140625 352.15796875 -137.19140625 353.14796875 -137.19140625 354.16796875 C-135.89627117 355.53843607 -134.55511023 356.86571417 -133.19140625 358.16796875 C-131.80995113 359.95975707 -130.45802156 361.77451924 -129.12890625 363.60546875 C-118.48574087 377.9812027 -106.77472626 390.66980411 -92.19140625 401.16796875 C-91.15113281 401.9259375 -90.11085937 402.68390625 -89.0390625 403.46484375 C-58.68494386 424.97343702 -21.05764125 434.26786033 15.80859375 434.16796875 C16.78973145 434.17054688 17.77086914 434.173125 18.78173828 434.17578125 C39.9509255 434.1212127 60.80596359 431.19349267 80.80859375 424.16796875 C82.95127624 423.51175754 85.09642279 422.86341122 87.24609375 422.23046875 C103.94731401 417.1223297 120.98314333 410.0996186 135.65234375 400.52734375 C139.49758126 398.10317228 143.496389 395.93381571 147.46484375 393.71875 C148.23828125 393.20699219 149.01171875 392.69523437 149.80859375 392.16796875 C149.80859375 391.50796875 149.80859375 390.84796875 149.80859375 390.16796875 C150.51757812 389.92046875 151.2265625 389.67296875 151.95703125 389.41796875 C155.1523947 388.01726148 157.64375787 386.25842429 160.43359375 384.16796875 C163.19859563 382.10747419 165.93894223 380.08106976 168.80859375 378.16796875 C168.80859375 377.50796875 168.80859375 376.84796875 168.80859375 376.16796875 C169.3809375 375.89984375 169.95328125 375.63171875 170.54296875 375.35546875 C172.88744009 374.12664239 174.93264313 372.74274699 177.05859375 371.16796875 C177.765 370.65234375 178.47140625 370.13671875 179.19921875 369.60546875 C179.7303125 369.13109375 180.26140625 368.65671875 180.80859375 368.16796875 C180.80859375 367.50796875 180.80859375 366.84796875 180.80859375 366.16796875 C181.46859375 366.16796875 182.12859375 366.16796875 182.80859375 366.16796875 C184.47526042 364.83463542 184.47526042 364.83463542 185.80859375 363.16796875 C185.80859375 362.50796875 185.80859375 361.84796875 185.80859375 361.16796875 C186.3809375 360.92046875 186.95328125 360.67296875 187.54296875 360.41796875 C190.15869986 358.97480676 191.95632831 357.28580653 194.05859375 355.16796875 C194.765 354.46671875 195.47140625 353.76546875 196.19921875 353.04296875 C198.02569774 351.32686107 198.02569774 351.32686107 197.80859375 349.16796875 C198.46859375 349.16796875 199.12859375 349.16796875 199.80859375 349.16796875 C204.21591328 344.89695808 207.84623238 339.85115726 211.46484375 334.9140625 C213.07893792 332.8166785 214.93932363 331.03723887 216.80859375 329.16796875 C219.12325983 325.92889866 219.12325983 325.92889866 219.80859375 322.16796875 C220.46859375 322.16796875 221.12859375 322.16796875 221.80859375 322.16796875 C231.95177642 304.35662837 240.42969679 287.02118097 245.80859375 267.16796875 C246.14890625 265.91886719 246.14890625 265.91886719 246.49609375 264.64453125 C247.02360804 262.49326203 247.4338178 260.35112965 247.80859375 258.16796875 C248.08509766 256.6984375 248.08509766 256.6984375 248.3671875 255.19921875 C251.75795208 233.68540209 250.9761558 210.48967926 246.80859375 189.16796875 C246.64810547 188.33773193 246.48761719 187.50749512 246.32226562 186.65209961 C243.82651558 173.95292357 240.71041488 162.00988273 235.61621094 150.09814453 C234.69026554 147.88516863 233.82214958 145.65237159 232.94921875 143.41796875 C230.7272211 137.84075466 228.16942182 132.44677569 225.55859375 127.04296875 C225.0996875 126.08648437 224.64078125 125.13 224.16796875 124.14453125 C223.0510471 121.81761115 221.93122575 119.49213775 220.80859375 117.16796875 C220.14859375 117.16796875 219.48859375 117.16796875 218.80859375 117.16796875 C218.72609375 116.48734375 218.64359375 115.80671875 218.55859375 115.10546875 C217.58526847 111.29327805 215.8505192 108.52726546 213.80859375 105.16796875 C213.14859375 105.16796875 212.48859375 105.16796875 211.80859375 105.16796875 C211.59203125 104.33652344 211.37546875 103.50507813 211.15234375 102.6484375 C209.48865867 98.3392997 207.09919772 95.12555998 204.30859375 91.48046875 C203.31862731 90.16435058 202.32902982 88.84795479 201.33984375 87.53125 C200.90220703 86.95673096 200.46457031 86.38221191 200.01367188 85.7902832 C198.89564686 84.28516241 197.84861868 82.72800614 196.80859375 81.16796875 C196.14859375 81.16796875 195.48859375 81.16796875 194.80859375 81.16796875 C194.56109375 80.61625 194.31359375 80.06453125 194.05859375 79.49609375 C192.56624901 76.71660168 190.77186852 74.38649805 188.80859375 71.91796875 C188.10734375 71.0259375 187.40609375 70.13390625 186.68359375 69.21484375 C186.06484375 68.539375 185.44609375 67.86390625 184.80859375 67.16796875 C184.14859375 67.16796875 183.48859375 67.16796875 182.80859375 67.16796875 C182.14859375 65.51796875 181.48859375 63.86796875 180.80859375 62.16796875 C180.14859375 62.16796875 179.48859375 62.16796875 178.80859375 62.16796875 C178.80859375 61.50796875 178.80859375 60.84796875 178.80859375 60.16796875 C175.32860868 56.53163336 175.32860868 56.53163336 170.80859375 55.16796875 C170.5971875 54.60464844 170.38578125 54.04132813 170.16796875 53.4609375 C168.35342465 50.40019789 165.86831646 48.56911583 163.05859375 46.48046875 C162.192948 45.830177 162.192948 45.830177 161.30981445 45.16674805 C146.64579028 34.28890252 131.82921875 25.98023895 113.80859375 22.16796875 C112.80151367 21.94085205 111.79443359 21.71373535 110.75683594 21.47973633 C102.31772716 19.60011665 93.87874168 18.1493941 85.32470703 16.9152832 C83.20498445 16.60856394 81.08688155 16.29210811 78.96875 15.97460938 C74.58780223 15.32638635 70.20037835 14.73761645 65.80859375 14.16796875 C65.07888367 14.07014099 64.34917358 13.97231323 63.59735107 13.871521 C48.69531984 11.92636325 33.80689541 11.85695458 18.79931641 11.90722656 C15.3661626 11.91864323 11.93331793 11.91181796 8.50017452 11.90036392 C-10.62998149 11.84585624 -28.81750941 12.55719094 -47.50390625 16.91796875 Z " fill="#7573F1" transform="translate(345.19140625,126.83203125)"/>
<path d="M0 0 C1.05098877 0.00343414 2.10197754 0.00686829 3.18481445 0.01040649 C18.22302995 0.06792302 33.1409074 0.20189108 48.0625 2.25 C49.94775391 2.50789307 49.94775391 2.50789307 51.87109375 2.77099609 C74.3696528 5.9062688 96.06564047 9.06254416 115.9375 20.75 C116.76507813 21.22308594 117.59265625 21.69617188 118.4453125 22.18359375 C122.49480493 24.54144337 125.87875622 26.76159174 129.0625 30.25 C130.135 30.95125 131.2075 31.6525 132.3125 32.375 C133.22 32.99375 134.1275 33.6125 135.0625 34.25 C135.0625 34.91 135.0625 35.57 135.0625 36.25 C135.7225 36.25 136.3825 36.25 137.0625 36.25 C137.0625 36.91 137.0625 37.57 137.0625 38.25 C137.60390625 38.4665625 138.1453125 38.683125 138.703125 38.90625 C141.87895344 40.71499997 144.26978081 43.16723799 146.8125 45.75 C147.31910156 46.24886719 147.82570313 46.74773437 148.34765625 47.26171875 C152.0625 50.99658861 152.0625 50.99658861 152.0625 53.25 C152.7225 53.25 153.3825 53.25 154.0625 53.25 C155.41767144 54.95129749 156.69772958 56.71285924 157.9375 58.5 C160.43437492 62.08866434 162.93562479 65.20145987 166.0625 68.25 C167.44373963 70.21722008 168.77738126 72.21868328 170.0625 74.25 C170.92875 75.61125 170.92875 75.61125 171.8125 77 C173.0625 79.25 173.0625 79.25 173.0625 81.25 C173.7225 81.25 174.3825 81.25 175.0625 81.25 C177.07747909 84.90856987 179.07250139 88.57780481 181.0625 92.25 C181.60849854 93.25401855 181.60849854 93.25401855 182.16552734 94.27832031 C190.53460665 109.704512 190.53460665 109.704512 193.2109375 116.9765625 C193.91916138 118.86732535 194.70771888 120.72775938 195.515625 122.578125 C212.80757743 163.62467874 214.09801191 211.40035402 197.53125 252.76953125 C195.58058427 257.39198649 193.43504942 261.83214936 191.0625 266.25 C190.68222656 267.03632813 190.30195312 267.82265625 189.91015625 268.6328125 C186.53731728 275.33748328 182.28662838 281.32622853 177.875 287.375 C177.25633057 288.22956787 176.63766113 289.08413574 176.00024414 289.96459961 C175.40848389 290.76260986 174.81672363 291.56062012 174.20703125 292.3828125 C173.67440674 293.10355957 173.14178223 293.82430664 172.59301758 294.56689453 C171.0625 296.25 171.0625 296.25 168.0625 297.25 C168.0625 298.24 168.0625 299.23 168.0625 300.25 C167.4025 300.25 166.7425 300.25 166.0625 300.25 C166.0625 300.91 166.0625 301.57 166.0625 302.25 C165.4025 302.25 164.7425 302.25 164.0625 302.25 C163.82917969 302.80945313 163.59585937 303.36890625 163.35546875 303.9453125 C159.57080356 310.69139245 152.48097443 316.04980727 146.5703125 320.95703125 C145.18546626 322.14455484 143.89853277 323.44381254 142.625 324.75 C133.9125 333.25 133.9125 333.25 130.0625 333.25 C129.7325 334.24 129.4025 335.23 129.0625 336.25 C126.87934449 337.81274135 124.72501288 339.2332984 122.4375 340.625 C121.15015353 341.4269615 119.86368354 342.23033179 118.578125 343.03515625 C117.96388672 343.41816895 117.34964844 343.80118164 116.71679688 344.19580078 C114.81325333 345.40883222 112.99299055 346.70838209 111.1875 348.0625 C108.86213341 349.69025661 106.84684916 350.92288777 104.33203125 352.1484375 C101.66847129 353.45801101 99.01534197 354.78113971 96.37890625 356.14453125 C66.26777502 371.60322839 35.05101191 380.43896392 1.08251953 380.43530273 C-1.17044151 380.43748349 -3.42290653 380.45570035 -5.67578125 380.47460938 C-19.3818059 380.52932647 -32.6039083 379.15106598 -45.9375 375.8125 C-46.79988281 375.60818359 -47.66226563 375.40386719 -48.55078125 375.19335938 C-53.86027554 373.90022761 -58.85632583 372.25971814 -63.9375 370.25 C-64.75476563 369.94578125 -65.57203125 369.6415625 -66.4140625 369.328125 C-82.41368566 363.16099753 -99.41303917 354.19745315 -111.9375 342.25 C-111.9375 341.59 -111.9375 340.93 -111.9375 340.25 C-112.47375 340.023125 -113.01 339.79625 -113.5625 339.5625 C-117.75034172 337.24816642 -121.18563755 334.78790047 -123.3125 330.4375 C-123.621875 329.3546875 -123.621875 329.3546875 -123.9375 328.25 C-124.5975 328.25 -125.2575 328.25 -125.9375 328.25 C-127.2265625 326.7890625 -127.2265625 326.7890625 -128.5625 324.875 C-129.00851563 324.24851562 -129.45453125 323.62203125 -129.9140625 322.9765625 C-130.9375 321.25 -130.9375 321.25 -130.9375 319.25 C-131.9275 318.92 -132.9175 318.59 -133.9375 318.25 C-135.515625 316.31640625 -135.515625 316.31640625 -137.1875 313.8125 C-137.80109375 312.90628906 -138.4146875 312.00007813 -139.046875 311.06640625 C-139.67078125 310.13699219 -140.2946875 309.20757812 -140.9375 308.25 C-142.10019265 306.58055857 -143.2667666 304.91381255 -144.4375 303.25 C-146.22799261 300.6950274 -148.01514485 298.13802795 -149.79296875 295.57421875 C-152.18801004 292.12719771 -154.56466923 288.71603846 -157.1875 285.4375 C-161.9375 279.5 -161.9375 279.5 -161.9375 276.25 C-162.5975 276.25 -163.2575 276.25 -163.9375 276.25 C-165.11083984 274.69287109 -165.11083984 274.69287109 -166.3984375 272.5234375 C-166.87023437 271.73839844 -167.34203125 270.95335937 -167.828125 270.14453125 C-168.31796875 269.31308594 -168.8078125 268.48164063 -169.3125 267.625 C-170.27753404 266.00714881 -171.24365959 264.38994813 -172.2109375 262.7734375 C-172.6759668 261.99395752 -173.14099609 261.21447754 -173.62011719 260.41137695 C-174.73584517 258.58084696 -175.91242073 256.78761891 -177.1015625 255.00390625 C-178.879659 252.3367615 -180.42798734 249.6387343 -181.9375 246.8125 C-183.56289273 243.77761884 -185.20389026 240.81408866 -187 237.875 C-189.4423752 233.64898151 -191.0192144 229.06316155 -192.71484375 224.5 C-193.74074376 221.77300701 -194.84792409 219.11212329 -196 216.4375 C-200.48848116 205.2253831 -202.53748074 193.18700633 -203.9375 181.25 C-204.04964844 180.39148438 -204.16179687 179.53296875 -204.27734375 178.6484375 C-206.64810896 158.70802875 -204.2405624 137.77315348 -199.9375 118.25 C-199.79054687 117.55712891 -199.64359375 116.86425781 -199.4921875 116.15039062 C-195.07954598 95.414715 -187.25561534 76.88382871 -173.9375 60.25 C-173.2775 60.25 -172.6175 60.25 -171.9375 60.25 C-171.6075 59.26 -171.2775 58.27 -170.9375 57.25 C-170.2775 57.25 -169.6175 57.25 -168.9375 57.25 C-168.9375 56.59 -168.9375 55.93 -168.9375 55.25 C-168.2775 55.25 -167.6175 55.25 -166.9375 55.25 C-166.9375 54.59 -166.9375 53.93 -166.9375 53.25 C-166.2775 53.25 -165.6175 53.25 -164.9375 53.25 C-164.6075 52.26 -164.2775 51.27 -163.9375 50.25 C-163.2775 50.25 -162.6175 50.25 -161.9375 50.25 C-161.9375 49.59 -161.9375 48.93 -161.9375 48.25 C-161.2775 48.25 -160.6175 48.25 -159.9375 48.25 C-159.6075 47.26 -159.2775 46.27 -158.9375 45.25 C-157.37890625 43.86328125 -157.37890625 43.86328125 -155.5 42.5625 C-154.88253906 42.12550781 -154.26507813 41.68851563 -153.62890625 41.23828125 C-151.9375 40.25 -151.9375 40.25 -149.9375 40.25 C-149.9375 39.59 -149.9375 38.93 -149.9375 38.25 C-148.22851562 36.98486328 -148.22851562 36.98486328 -145.84375 35.5703125 C-144.544375 34.79494141 -144.544375 34.79494141 -143.21875 34.00390625 C-142.3009375 33.46636719 -141.383125 32.92882812 -140.4375 32.375 C-139.1071875 31.58029297 -139.1071875 31.58029297 -137.75 30.76953125 C-129.89430312 26.1138756 -122.22145024 22.1610453 -113.5625 19.25 C-108.99798137 17.68618435 -104.48998769 16.11283355 -100.0625 14.1875 C-87.80596338 9.25225564 -74.64064136 6.86045813 -61.6875 4.5625 C-60.57205811 4.36019775 -59.45661621 4.15789551 -58.30737305 3.94946289 C-38.98182396 0.66399639 -19.56850349 -0.10553633 0 0 Z M-68.9375 18.25 C-69.69788574 18.42402344 -70.45827148 18.59804687 -71.24169922 18.77734375 C-92.84496854 23.78830004 -114.10328106 30.25830464 -132.9375 42.25 C-135.25875442 43.60581406 -137.59719138 44.92721687 -139.9375 46.25 C-139.9375 46.91 -139.9375 47.57 -139.9375 48.25 C-140.9275 48.25 -141.9175 48.25 -142.9375 48.25 C-142.9375 48.91 -142.9375 49.57 -142.9375 50.25 C-143.618125 50.45625 -144.29875 50.6625 -145 50.875 C-148.85389375 52.67895027 -152.01537764 55.1510345 -154.9375 58.25 C-154.9375 58.91 -154.9375 59.57 -154.9375 60.25 C-155.5975 60.25 -156.2575 60.25 -156.9375 60.25 C-156.9375 60.91 -156.9375 61.57 -156.9375 62.25 C-157.9275 62.58 -158.9175 62.91 -159.9375 63.25 C-159.9375 63.91 -159.9375 64.57 -159.9375 65.25 C-160.5975 65.25 -161.2575 65.25 -161.9375 65.25 C-164.50571165 68.05538159 -166.68543805 71.18810567 -168.9375 74.25 C-169.54464844 75.06597656 -170.15179688 75.88195312 -170.77734375 76.72265625 C-182.32840896 92.67172003 -186.80017008 110.12915488 -189.9375 129.25 C-190.08993164 130.13751953 -190.24236328 131.02503906 -190.39941406 131.93945312 C-194.84366091 158.18258676 -195.16154135 186.21872636 -184.9375 211.25 C-184.56109375 212.28382813 -184.1846875 213.31765625 -183.796875 214.3828125 C-178.59273046 228.4193432 -171.35553029 241.29788363 -163.9375 254.25 C-163.2775 254.25 -162.6175 254.25 -161.9375 254.25 C-161.78087891 255.07757813 -161.78087891 255.07757813 -161.62109375 255.921875 C-160.79189616 258.74588509 -159.5095035 260.97554916 -158 263.5 C-157.47535156 264.39203125 -156.95070312 265.2840625 -156.41015625 266.203125 C-155.92417969 266.87859375 -155.43820313 267.5540625 -154.9375 268.25 C-154.2775 268.25 -153.6175 268.25 -152.9375 268.25 C-152.628125 269.03375 -152.31875 269.8175 -152 270.625 C-151.00874962 273.17330128 -151.00874962 273.17330128 -149.9375 275.25 C-149.2775 275.25 -148.6175 275.25 -147.9375 275.25 C-147.628125 276.03375 -147.31875 276.8175 -147 277.625 C-146.00874962 280.17330128 -146.00874962 280.17330128 -144.9375 282.25 C-144.2775 282.25 -143.6175 282.25 -142.9375 282.25 C-142.9375 283.24 -142.9375 284.23 -142.9375 285.25 C-142.2775 285.25 -141.6175 285.25 -140.9375 285.25 C-140.628125 286.03375 -140.31875 286.8175 -140 287.625 C-139.00874962 290.17330128 -139.00874962 290.17330128 -137.9375 292.25 C-137.2775 292.25 -136.6175 292.25 -135.9375 292.25 C-135.628125 293.03375 -135.31875 293.8175 -135 294.625 C-134.00874962 297.17330128 -134.00874962 297.17330128 -132.9375 299.25 C-132.2775 299.25 -131.6175 299.25 -130.9375 299.25 C-130.59525391 300.0234375 -130.59525391 300.0234375 -130.24609375 300.8125 C-128.44460178 304.16811489 -126.23271639 307.16994679 -124 310.25 C-123.55720703 310.86617188 -123.11441406 311.48234375 -122.65820312 312.1171875 C-121.80325182 313.30469065 -120.94484395 314.48971509 -120.08251953 315.671875 C-119.12012155 316.99830155 -118.18036473 318.3411141 -117.24609375 319.6875 C-116.59833984 320.4609375 -116.59833984 320.4609375 -115.9375 321.25 C-115.2775 321.25 -114.6175 321.25 -113.9375 321.25 C-113.68097656 321.84554688 -113.42445313 322.44109375 -113.16015625 323.0546875 C-111.82780313 325.44696371 -110.50381395 326.67728199 -108.375 328.375 C-105.03472222 331.05555556 -105.03472222 331.05555556 -103.9375 333.25 C-103.2775 333.25 -102.6175 333.25 -101.9375 333.25 C-101.9375 333.91 -101.9375 334.57 -101.9375 335.25 C-80.91140214 353.47844659 -54.01317644 363.06711888 -26.9375 367.25 C-26.03572021 367.42200928 -25.13394043 367.59401855 -24.20483398 367.77124023 C-20.43363697 368.32383064 -16.72100777 368.44832979 -12.91796875 368.48828125 C-12.1504126 368.49802979 -11.38285645 368.50777832 -10.59204102 368.51782227 C7.29406901 368.69787169 24.53997638 368.29417821 42.0625 364.25 C42.8157959 364.07871582 43.5690918 363.90743164 44.34521484 363.73095703 C61.50648755 359.64568722 78.46119048 352.37140714 94.0625 344.25 C94.0625 343.59 94.0625 342.93 94.0625 342.25 C94.743125 342.1675 95.42375 342.085 96.125 342 C99.9371907 341.02667472 102.70320329 339.29192545 106.0625 337.25 C106.0625 336.59 106.0625 335.93 106.0625 335.25 C106.91972656 335.01925781 107.77695312 334.78851563 108.66015625 334.55078125 C112.49579544 333.08434285 115.35146488 330.99641654 118.5 328.4375 C119.63718494 327.53410304 120.77519904 326.63174878 121.9140625 325.73046875 C122.45450195 325.30040527 122.99494141 324.8703418 123.55175781 324.42724609 C125.44050579 322.95543893 127.39493384 321.5956368 129.375 320.25 C130.261875 319.59 131.14875 318.93 132.0625 318.25 C132.0625 317.59 132.0625 316.93 132.0625 316.25 C132.59875 316.023125 133.135 315.79625 133.6875 315.5625 C141.83589842 311.05943772 148.06573887 303.26162279 154.375 296.5625 C155.02017578 295.88638672 155.66535156 295.21027344 156.33007812 294.51367188 C157.24370117 293.54204102 157.24370117 293.54204102 158.17578125 292.55078125 C159.00783081 291.67160034 159.00783081 291.67160034 159.85668945 290.7746582 C161.26927335 289.31252578 161.26927335 289.31252578 161.0625 287.25 C161.7225 287.25 162.3825 287.25 163.0625 287.25 C164.4231009 285.76363242 164.4231009 285.76363242 165.6875 283.875 C166.13351562 283.24851562 166.57953125 282.62203125 167.0390625 281.9765625 C168.23246969 280.29777357 168.23246969 280.29777357 168.0625 278.25 C168.7225 278.25 169.3825 278.25 170.0625 278.25 C174.79744491 272.05063914 178.34300824 265.00765227 181.7265625 258.0078125 C182.8060555 255.77938543 183.94731615 253.61385976 185.125 251.4375 C190.03144397 241.52239447 192.63758844 230.83504758 194.4375 219.98828125 C194.80512674 217.78941382 195.20705792 215.59497192 195.6875 213.41796875 C201.7763243 184.5383368 195.56037882 148.17567525 182.01660156 122.12695312 C180.54646251 119.23482696 179.33409534 116.23374339 178.0625 113.25 C174.33325623 105.24025084 170.45997086 97.37282344 165.3671875 90.1328125 C164.11197744 88.32140158 163.01149384 86.48569827 161.9375 84.5625 C160.09914533 81.31474009 158.26508974 78.26020597 156.0625 75.25 C155.4025 75.25 154.7425 75.25 154.0625 75.25 C153.815 74.528125 153.5675 73.80625 153.3125 73.0625 C151.93980408 69.97393418 150.33896704 67.73988582 148.0625 65.25 C147.4025 65.25 146.7425 65.25 146.0625 65.25 C145.4025 63.6 144.7425 61.95 144.0625 60.25 C143.4025 60.25 142.7425 60.25 142.0625 60.25 C142.0625 59.59 142.0625 58.93 142.0625 58.25 C140.44275441 56.53769752 138.7666054 54.87836738 137.0625 53.25 C136.175625 52.321875 135.28875 51.39375 134.375 50.4375 C132.35087851 48.02093338 132.35087851 48.02093338 130.0625 48.25 C130.0625 47.59 130.0625 46.93 130.0625 46.25 C126.58251493 42.61366461 126.58251493 42.61366461 122.0625 41.25 C122.0625 40.59 122.0625 39.93 122.0625 39.25 C119.5010343 36.95351351 118.58282428 36.25 115.0625 36.25 C115.0625 35.59 115.0625 34.93 115.0625 34.25 C112.54418311 32.80793859 110.02302215 31.37128792 107.5 29.9375 C106.79552734 29.53337891 106.09105469 29.12925781 105.36523438 28.71289062 C60.01690881 3.00854019 -19.61678293 6.88004189 -68.9375 18.25 Z " fill="#7573F1" transform="translate(362.9375,159.75)"/>
<path d="M0 0 C0 0.66 0 1.32 0 2 C0.8353125 2.1546875 0.8353125 2.1546875 1.6875 2.3125 C10.89642478 5.05028845 19.47890605 13.23345546 27 19 C27.77472656 19.54140625 28.54945313 20.0828125 29.34765625 20.640625 C29.89292969 21.08921875 30.43820312 21.5378125 31 22 C31 22.66 31 23.32 31 24 C31.81984375 24.32871094 31.81984375 24.32871094 32.65625 24.6640625 C35.75622878 26.4310504 38.04323367 28.83120925 40.5 31.375 C40.97308594 31.85710937 41.44617188 32.33921875 41.93359375 32.8359375 C43.29219978 34.22088769 44.6461937 35.61035765 46 37 C47.16015625 38.10214844 47.16015625 38.10214844 48.34375 39.2265625 C50 41 50 41 50 43 C50.66 43 51.32 43 52 43 C53.2890625 44.4609375 53.2890625 44.4609375 54.625 46.375 C55.07101562 47.00148438 55.51703125 47.62796875 55.9765625 48.2734375 C57 50 57 50 57 52 C57.66 52 58.32 52 59 52 C60.70555977 54.57494246 62.2785963 57.13721707 63.8125 59.8125 C64.48962036 60.98510376 64.48962036 60.98510376 65.18041992 62.18139648 C76.10862913 81.31810696 81.41678298 100.67421371 81.3125 122.75 C81.30831055 123.97356201 81.30412109 125.19712402 81.29980469 126.45776367 C81.18179043 135.95728383 80.24331914 144.78498646 78 154 C77.7215625 155.21816406 77.443125 156.43632812 77.15625 157.69140625 C71.03343434 182.57854059 59.59055752 210.64836334 40 228 C39.34 228 38.68 228 38 228 C38 228.66 38 229.32 38 230 C17.7152973 244.60905815 -3.22907946 248.33228231 -27.81835938 244.38476562 C-48.80825445 240.68287724 -70.30374367 232.49234275 -89.0703125 222.48828125 C-93.2879197 220.34573679 -97.67355066 218.75705078 -102.10546875 217.1171875 C-105.21941518 215.91531344 -108.12211471 214.49220474 -111.078125 212.953125 C-114.93668817 211.03952863 -118.99427017 209.57423624 -123 208 C-133.67346287 203.78642012 -144.05071106 199.22398308 -154.23095703 193.92138672 C-155.83549115 193.08568264 -157.44668674 192.26279948 -159.05859375 191.44140625 C-165.76501954 187.93123446 -172.24370058 183.94351439 -178 179 C-178 178.34 -178 177.68 -178 177 C-178.7321875 176.77699219 -179.464375 176.55398438 -180.21875 176.32421875 C-185.50021522 173.80958854 -188.50426738 168.55020406 -192 164 C-192.48855469 163.4328125 -192.97710937 162.865625 -193.48046875 162.28125 C-196.65839213 158.41426233 -198.39269747 153.94251522 -200.1875 149.3125 C-200.56297974 148.35984253 -200.56297974 148.35984253 -200.94604492 147.38793945 C-204.60611332 137.4400295 -205.34355632 127.20602084 -205.25 116.6875 C-205.24468262 115.59880615 -205.23936523 114.5101123 -205.23388672 113.38842773 C-205.1368134 105.11692046 -204.5250411 97.14296637 -203 89 C-202.86287598 88.26499268 -202.72575195 87.52998535 -202.58447266 86.77270508 C-201.33913731 80.30348874 -199.78763569 73.93593681 -198.125 67.5625 C-197.88136719 66.60279297 -197.63773438 65.64308594 -197.38671875 64.65429688 C-195.64146632 57.94004852 -193.47292918 51.47925401 -191 45 C-190.54496094 43.78828125 -190.08992187 42.5765625 -189.62109375 41.328125 C-185.96675084 31.82442132 -181.968981 22.89270709 -177 14 C-176.34 14 -175.68 14 -175 14 C-174.773125 13.319375 -174.54625 12.63875 -174.3125 11.9375 C-167.7797976 -2.68331013 -151.24407864 -13.03539768 -137 -19 C-91.44900538 -36.28289898 -41.44894688 -21.12808775 0 0 Z M-123 -11 C-124.06311401 -10.70186401 -124.06311401 -10.70186401 -125.14770508 -10.39770508 C-133.62345615 -7.85946915 -140.78885036 -4.06694939 -148 1 C-148.99 1.66 -149.98 2.32 -151 3 C-151 3.66 -151 4.32 -151 5 C-151.53625 5.20625 -152.0725 5.4125 -152.625 5.625 C-155.91978009 7.53250426 -158.59363628 10.04819384 -161 13 C-161 13.66 -161 14.32 -161 15 C-161.66 15 -162.32 15 -163 15 C-165.31592022 18.22114157 -165.31592022 18.22114157 -166 22 C-166.66 22 -167.32 22 -168 22 C-175.51295171 35.99829604 -181.00501028 50.61817614 -185.16796875 65.94140625 C-185.90532488 68.65196893 -186.71615249 71.32206968 -187.5625 74 C-195.21586489 99.4973515 -198.4544027 128.26936174 -185.6328125 152.59375 C-184.22955761 155.02821926 -184.22955761 155.02821926 -182 158 C-181.34 158 -180.68 158 -180 158 C-179.7525 158.57234375 -179.505 159.1446875 -179.25 159.734375 C-177.80683801 162.35010611 -176.11783778 164.14773456 -174 166.25 C-173.29875 166.95640625 -172.5975 167.6628125 -171.875 168.390625 C-170.15889232 170.21710399 -170.15889232 170.21710399 -168 170 C-168 170.66 -168 171.32 -168 172 C-167.01 172 -166.02 172 -165 172 C-165 172.66 -165 173.32 -165 174 C-163.68 174.33 -162.36 174.66 -161 175 C-161 175.66 -161 176.32 -161 177 C-160.27296875 177.36351562 -159.5459375 177.72703125 -158.796875 178.1015625 C-157.79140625 178.60429687 -156.7859375 179.10703125 -155.75 179.625 C-154.10451172 180.44677734 -154.10451172 180.44677734 -152.42578125 181.28515625 C-150.25439542 182.37208713 -148.08488396 183.46277731 -145.91796875 184.55859375 C-137.39885218 188.85723055 -128.87490706 192.95257253 -119.9375 196.3125 C-109.1729948 200.38278853 -98.72896832 205.24348164 -88.3125 210.125 C-82.4967013 212.82780821 -76.58752729 215.21884614 -70.62109375 217.5625 C-67.38931794 218.84544876 -64.1945674 220.19033682 -61 221.5625 C-38.5814463 230.94630915 -12.94503707 238.90186223 11 231 C11.86109375 230.73316406 12.7221875 230.46632813 13.609375 230.19140625 C20.50551968 227.78203893 25.59660416 223.84054211 31 219 C31.763125 218.33097656 32.52625 217.66195312 33.3125 216.97265625 C39.88975781 210.84073361 44.48838585 203.68900712 49 196 C49.34949707 195.41476562 49.69899414 194.82953125 50.05908203 194.2265625 C56.27510164 183.70579588 60.46709838 172.67506802 64 161 C64.25974609 160.16146484 64.51949219 159.32292969 64.78710938 158.45898438 C71.04651622 137.55674919 72.27481229 112.78517796 65 92 C64.58427734 90.50726563 64.58427734 90.50726563 64.16015625 88.984375 C61.46517391 79.69475844 56.66640112 71.41547552 52 63 C51.34 63 50.68 63 50 63 C49.5978125 61.9171875 49.5978125 61.9171875 49.1875 60.8125 C46.93314405 55.47323591 44.09011748 52.06644097 40 48 C38.36618163 46.19544499 36.74129431 44.38276755 35.125 42.5625 C31.30028781 38.33819102 27.51444139 34.4798819 23 31 C22.34 31 21.68 31 21 31 C21 30.34 21 29.68 21 29 C20.01 29 19.02 29 18 29 C17.67 28.01 17.34 27.02 17 26 C5.70063683 16.30765737 -8.77488825 9.36120879 -22.1003418 2.92919922 C-24.1377235 1.9326339 -26.15324443 0.89723123 -28.171875 -0.13671875 C-31.00968528 -1.55820466 -33.73532489 -2.68085706 -36.8125 -3.5 C-40.41039036 -4.51070508 -43.88126265 -5.6728825 -47.375 -7 C-62.69891825 -12.63094892 -78.31139011 -14.35270562 -94.5625 -14.3125 C-95.86896484 -14.32861328 -97.17542969 -14.34472656 -98.52148438 -14.36132812 C-107.08467192 -14.36559479 -114.76637815 -13.34127682 -123 -11 Z " fill="#7573F1" transform="translate(424,232)"/>
</svg>
