<svg width="496" height="492" viewBox="0 0 496 492" fill="none" xmlns="http://www.w3.org/2000/svg">
<path d="M169.546 14.192L116.104 39.884L326.271 477.058L379.713 451.366L169.546 14.192Z" fill="#FFB6C1"/>
<path d="M116.098 39.8877L121.035 50.1569L144.076 39.0802L139.139 28.811L116.098 39.8877Z" fill="#7573F1"/>
<path d="M130.807 70.4816L137.969 85.379L161.01 74.3023L153.848 59.4049L130.807 70.4816Z" fill="#7573F1"/>
<path d="M148.263 106.794L154.064 118.862L177.105 107.785L171.304 95.717L148.263 106.794Z" fill="#7573F1"/>
<path d="M166.912 146.627L171.891 156.906L194.89 145.768L189.912 135.488L166.912 146.627Z" fill="#7573F1"/>
<path d="M188.381 190.251L194.518 203.015L217.558 191.939L211.422 179.174L188.381 190.251Z" fill="#7573F1"/>
<path d="M208.835 232.801L214.736 245.078L237.777 234.001L231.876 221.725L208.835 232.801Z" fill="#7573F1"/>
<path d="M231.18 279.282L236.846 291.066L259.887 279.989L254.221 268.205L231.18 279.282Z" fill="#7573F1"/>
<path d="M255.098 329.035L260.133 339.509L283.174 328.432L278.139 317.958L255.098 329.035Z" fill="#7573F1"/>
<path d="M278.068 376.822L282.789 386.643L305.83 375.566L301.109 365.746L278.068 376.822Z" fill="#7573F1"/>
<path d="M301.041 424.613L306.076 435.087L329.117 424.01L324.082 413.536L301.041 424.613Z" fill="#7573F1"/>
<path d="M322.443 469.131L326.254 477.059L349.295 465.982L345.483 458.054L322.443 469.131Z" fill="#7573F1"/>
<path d="M165.065 16.3478L161.055 18.2759L371.222 455.45L375.233 453.522L165.065 16.3478Z" fill="#000D26"/>
</svg>
