<svg width="310" height="345" viewBox="0 0 310 345" fill="none" xmlns="http://www.w3.org/2000/svg">
<path d="M179.738 38.0555C202.821 54.953 216.732 46.1618 240.688 57.4736C248.025 60.9247 262.229 68.0961 269.623 80.6507C282.687 102.791 257.922 119.237 231.67 186.01C213.402 232.537 220.576 256.492 197.061 284.964C174.697 312.068 160.06 312.62 156.025 312.578C131.892 312.214 108.917 287.62 106.193 262.451C103.847 240.778 117.683 234.33 124.887 194.601C127.961 177.632 131.042 159.199 120.358 147.799C109.182 135.875 93.64 143.874 85.6293 134.627C66.8867 112.978 122.881 13.492 154.292 19.9112C163.15 21.7208 164.718 27.0645 179.738 38.0555Z" fill="#000D26"/>
<path d="M183.314 40.0226C205.849 54.6628 219.994 46.2354 242.816 58.0919C249.802 61.7132 263.523 68.831 270.607 81.2145C283.076 103.027 258.689 119.682 232.194 186.32C213.738 232.721 220.443 256.417 197.121 284.996C174.929 312.195 160.612 312.923 156.659 312.926C133.093 312.874 110.961 288.743 108.62 263.785C106.603 242.293 120.2 235.714 127.742 196.171C130.96 179.281 134.213 160.943 123.926 149.761C113.159 138.063 97.8742 146.204 90.1699 137.125C72.1304 115.863 128.098 16.362 158.702 22.3371C167.325 24.0178 168.172 30.1918 183.314 40.0226Z" fill="#FFB6C1"/>
<path d="M145.925 116.873C161.658 130.335 169.792 145.182 175.012 154.925C175.99 156.743 176.871 158.396 177.683 159.918C177.867 160.266 178.043 160.609 178.216 160.945C178.586 161.66 178.939 162.342 179.271 163.018C180.014 164.507 180.679 165.912 181.275 167.303C182.523 170.191 183.509 173.184 184.221 176.247C188.339 193.634 182.413 202.492 181.268 217.546C179.628 239.174 189.597 250.903 195.255 262.484C198.447 268.985 200.281 275.426 197.925 283.537C197.842 283.814 197.76 284.092 197.666 284.369C194.3 294.753 185.348 303.549 174.732 308.487C170.767 310.354 166.558 311.651 162.23 312.34C160.693 312.583 159.142 312.732 157.587 312.786C157.296 312.802 156.993 312.799 156.716 312.811C156.439 312.823 156.009 312.815 155.657 312.815C132.515 312.41 118.867 287.341 116.907 262.128C116.123 252.073 117.473 244.936 119.61 237.192L120.193 235.129C121.371 231.027 122.73 226.678 124.081 221.579C124.359 220.526 124.635 219.445 124.909 218.335C125.534 215.802 126.15 213.082 126.732 210.126C126.983 208.848 127.233 207.518 127.467 206.144C128.055 202.815 128.591 199.205 129.068 195.245L129.285 193.357L129.353 192.754C129.72 189.462 130.113 186.038 130.284 182.527L130.336 181.44C130.452 179.096 132.704 176.871 132.578 174.518C132.532 173.535 131.654 172.377 132.332 171.658C138.019 165.592 132.087 158.81 125.556 153.114C108.893 138.581 86.8282 140.113 84.5283 129.152C83.7472 125.44 85.6236 120.836 89.1624 116.465C95.702 108.52 107.756 101.373 119.57 101.909C119.769 101.919 119.969 101.929 120.144 101.932C129.249 102.598 135.182 107.672 145.925 116.873Z" fill="#000D26"/>
<path d="M143.142 121.929C158.941 135.269 167.217 149.859 172.543 159.408C173.538 161.195 174.444 162.803 175.259 164.321L175.801 165.33C176.179 166.031 176.539 166.699 176.879 167.362C177.637 168.824 178.317 170.202 178.931 171.562C180.202 174.374 181.222 177.294 181.98 180.286C186.316 197.276 180.561 205.823 179.639 220.472C178.322 241.514 188.367 253.103 194.159 264.441C197.42 270.816 199.331 277.117 197.109 284.984C197.032 285.253 196.955 285.521 196.866 285.79C193.673 295.858 184.917 304.298 174.455 308.957C170.529 310.723 166.372 311.924 162.109 312.526C160.58 312.751 159.039 312.883 157.493 312.922C157.205 312.933 156.904 312.926 156.63 312.934C156.355 312.941 155.93 312.924 155.585 312.911C132.63 312.167 118.719 287.576 116.416 262.985C115.494 253.182 116.732 246.248 118.74 238.739C118.915 238.078 119.101 237.411 119.288 236.739C120.399 232.758 121.687 228.54 122.953 223.594C123.218 222.566 123.476 221.516 123.729 220.445C124.312 217.989 124.883 215.35 125.421 212.475C125.651 211.233 125.88 209.944 126.091 208.61C126.624 205.38 127.108 201.865 127.525 198.014L127.713 196.179L127.771 195.594C128.088 192.393 128.429 189.063 128.548 185.646C128.567 185.293 128.576 184.945 128.585 184.586C128.676 182.288 130.866 180.175 130.711 177.876C130.65 176.92 129.762 175.78 130.425 175.088C135.981 169.262 129.999 162.569 123.439 156.927C106.698 142.534 84.8271 143.715 82.3908 133.002C81.5624 129.375 83.3595 124.915 86.8065 120.711C93.1249 113.062 105.006 106.283 116.722 106.995C116.92 107.009 117.12 107.02 117.292 107.026C126.393 107.784 132.351 112.813 143.142 121.929Z" fill="#89CFF0"/>
<path d="M183.312 40.0227C204.446 53.7511 215.751 44.5415 242.814 58.092C253.654 63.5119 265.167 69.2668 270.605 81.2146C275.121 91.146 273.87 101.955 265.83 124.147C255.673 152.151 244.399 171.483 239.843 179.674C209.371 234.464 219.48 256.67 186.498 298.182C174.161 313.705 164.765 320.694 153.353 321.489C135.7 322.73 118.912 308.764 111.131 295.109C99.1161 274.04 107.11 251.205 108.531 247.096C111.698 238.035 114.898 236.244 120.65 220.96C122.879 215.022 126.011 206.706 127.73 196.189C129.677 184.255 132.673 165.945 123.914 149.779C114.836 133.039 101.489 133.978 100.797 124.226C99.8283 110.856 124.85 109.66 142.22 81.7692C146.063 75.5987 152.916 64.597 155.263 48.7779C157.451 34.0278 154.351 24.3181 158.69 22.3553C163.462 20.1723 169.318 30.9348 183.312 40.0227Z" fill="#89CFF0"/>
<path d="M241.416 59.4642C213.943 45.8353 201.955 56.1368 180.61 42.0985C166.47 32.7954 162.244 19.6591 157.244 22.1277C152.7 24.3887 154.127 36.5073 151.34 52.454C151.34 52.454 148.131 71.2045 136.739 88.393C120.771 112.487 96.3925 115.183 96.9656 127.424C97.421 137.17 110.672 139.019 123.466 156.924C131.366 167.984 128.076 184.587 129.293 193.343C134.523 190.99 147.837 183.25 153.313 181.601C158.313 180.091 163.179 184.736 164.213 189.163C165.451 194.477 161.369 198.502 156.718 199.899L156.123 200.083L155.3 200.352C154.745 200.54 154.189 200.727 153.636 200.922C152.128 201.454 150.634 202.012 149.149 202.61C146.505 203.668 143.897 204.833 141.35 206.11C139.74 206.903 138.188 207.769 136.643 208.657C135.706 210.575 134.497 212.349 133.053 213.921C132.89 215.318 132.351 216.645 131.492 217.759C128.936 220.962 126.289 224.097 123.678 227.252C123.433 228.332 122.966 229.349 122.305 230.237C121.404 231.426 120.541 232.642 119.752 233.905C119.319 234.595 118.93 235.302 118.518 235.997L118.439 236.142C117.415 238.514 116.752 240.903 115.872 243.29L115.756 243.907C115.688 244.328 115.623 244.756 115.567 245.178C115.393 246.44 115.282 247.709 115.235 248.982C115.217 249.612 115.234 250.244 115.225 250.879L115.23 250.923C115.364 252.077 115.475 253.23 115.676 254.38C115.877 255.53 116.112 256.67 116.404 257.805C116.531 258.31 116.711 259.924 117.106 260.264C117.047 260.232 116.268 258.041 116.945 259.712C117.868 262.153 118.948 264.532 120.178 266.834C120.706 267.806 121.292 268.746 121.856 269.696L121.886 269.748L122.376 270.458C122.638 270.825 122.902 271.188 123.166 271.55C124.794 273.741 126.558 275.828 128.447 277.798C129.246 278.629 130.062 279.441 130.895 280.232C131.215 280.537 133.012 282.031 131.166 280.498C131.525 280.795 131.872 281.104 132.224 281.403C134.006 282.901 135.866 284.312 137.78 285.636C139.907 287.106 142.088 288.594 144.339 289.915C145.346 290.517 146.398 291.048 147.405 291.662C145.333 290.445 148.436 292.158 149.001 292.422C151.162 293.423 153.386 294.282 155.659 294.995C156.416 295.283 157.189 295.528 157.974 295.728C158.22 295.732 158.467 295.752 158.711 295.787C159.134 295.862 159.559 295.931 159.99 295.992C161.264 296.175 162.548 296.293 163.834 296.347C164.297 296.36 164.786 296.324 165.252 296.352C166.3 296.23 167.338 296.138 168.374 295.951C169.061 295.823 171.052 295.663 171.565 295.199C170.347 295.598 170.082 295.675 170.768 295.442C171.088 295.33 171.408 295.207 171.717 295.095C172.352 294.858 172.992 294.581 173.613 294.295C174.577 293.859 175.519 293.375 176.438 292.843C176.636 292.729 177 292.495 177.224 292.354C177.529 292.14 177.839 291.929 178.171 291.701C179.221 290.927 180.226 290.094 181.182 289.206C181.418 288.99 182.592 287.71 182.515 287.85C182.713 287.618 182.909 287.391 183.098 287.155C183.95 286.097 184.74 284.993 185.496 283.865C186.252 282.737 186.954 281.514 187.639 280.312L187.825 279.974L187.922 279.798C188.212 279.153 188.543 278.519 188.838 277.877C193.66 267.325 196.288 255.806 198.925 244.55C201.796 232.238 205.012 219.962 209.789 208.252C214.497 196.721 220.765 185.996 227.832 175.769C236.249 163.59 246.153 151.155 258.166 141.801C259.744 137.972 261.33 133.918 262.925 129.74C271.995 105.59 273.653 93.913 269.335 83.3862C264.101 70.7166 252.408 64.9154 241.416 59.4642Z" fill="#000D26"/>
<path d="M183.172 40.2796C204.289 54.0395 215.738 44.5686 242.823 58.0785C253.68 63.4668 265.195 69.2172 270.542 81.3318C274.979 91.4074 273.623 102.405 265.34 125.04C254.873 153.606 243.361 173.371 238.704 181.747C207.564 237.75 217.52 260.234 183.984 302.752C171.434 318.662 161.931 325.846 150.45 326.767C132.705 328.163 115.948 314.142 108.253 300.33C96.3746 279.013 104.631 255.701 106.088 251.529C109.356 242.282 112.591 240.428 118.511 224.837C120.807 218.779 124.046 210.268 125.859 199.581C127.928 187.425 131.108 168.782 122.455 152.422C113.486 135.484 100.057 136.572 99.4566 126.652C98.5938 113.059 123.754 111.611 141.477 83.0798C145.396 76.7695 152.386 65.5199 154.892 49.4125C157.229 34.3919 154.203 24.5471 158.582 22.5121C158.985 22.3449 159.413 22.2452 159.849 22.2168C167.758 21.438 177.123 36.3337 183.172 40.2796Z" fill="#89CFF0"/>
<path d="M190.258 261.33C173.166 258.353 156.057 255.595 138.707 254.643C136.679 254.53 134.64 254.501 132.608 254.533C132.087 254.54 131.571 254.55 131.048 254.573C130.24 254.621 129.435 254.666 128.617 254.721C124.771 254.999 120.938 255.433 117.11 255.88C113.282 256.328 109.594 256.734 105.824 257.055C105.572 258.355 105.35 259.73 105.146 261.221C107.047 260.776 108.95 260.379 110.877 260.025C142.642 254.407 174.032 264.214 205.437 267.711C205.972 266.526 206.486 265.347 206.979 264.174C201.408 263.274 195.831 262.301 190.258 261.33Z" fill="#000D26"/>
<path d="M258.023 133.438C241.785 120.02 226.38 104.96 214.097 87.782C205.653 75.971 196.793 61.1712 195.458 46.0263C192.533 45.0252 189.705 43.7614 187.008 42.2503C187.33 44.5417 187.768 46.8151 188.32 49.062C188.683 50.5361 189.091 51.982 189.522 53.4288L189.586 53.6224C189.811 54.2806 190.038 54.9342 190.268 55.5834C191.314 58.4198 192.506 61.1952 193.811 63.9221C195.117 66.6491 196.552 69.3121 198.054 71.9179C198.899 73.3695 199.771 74.8061 200.668 76.2276C200.774 76.3976 200.887 76.5655 200.979 76.728C201.371 77.3076 201.753 77.8937 202.147 78.4687C209.593 89.3608 218.389 99.2932 227.832 108.5C229.106 109.742 230.389 110.967 231.681 112.175C232.256 112.709 232.827 113.24 233.405 113.77C233.728 114.047 234.071 114.301 234.431 114.529C234.917 114.831 234.768 114.749 234.431 114.529C234.283 114.447 234.075 114.333 233.811 114.152C235.133 114.95 236.331 116.402 237.506 117.425C238.681 118.447 239.826 119.43 241.002 120.418C245.818 124.47 250.749 128.358 255.793 132.081C257.485 133.33 259.19 134.56 260.908 135.771C259.927 134.993 258.965 134.215 258.023 133.438Z" fill="#000D26"/>
<path d="M111.932 120.746C118.045 112.925 125.923 106.72 133.071 99.9093L132.363 100.588C135.733 97.4104 138.488 92.9905 141.262 89.285C145.331 83.9639 149.059 78.3906 152.425 72.5986C152.549 72.3733 153.665 70.3452 153.613 70.4399C153.948 69.8315 154.235 69.1912 154.534 68.563C155.147 67.2794 155.725 65.983 156.263 64.6643C157.348 62.0068 158.259 59.2818 158.991 56.5065C158.909 56.6552 159.414 54.4902 159.464 54.2067C159.595 53.4037 159.708 52.5793 159.807 51.782C159.977 50.4472 160.125 49.113 160.248 47.7795C160.49 44.6831 160.487 41.6047 160.462 38.5024L160.386 37.286C160.287 35.9513 159.996 33.8654 159.975 33.7656C159.795 32.1514 158.844 29.2266 158.485 26.7742C158.164 25.8571 158.02 24.8872 158.062 23.9163C158.082 23.6625 158.131 23.4119 158.209 23.1693C158.292 22.851 158.453 22.5584 158.677 22.3175C158.779 22.2271 158.889 22.1459 159.005 22.0749C158.307 22.4088 157.649 22.8182 157.041 23.2958C156.112 24.0765 155.42 25.5157 155.033 28.5442C154.353 33.8128 154.361 35.015 154.361 35.015C154.05 39.9758 154.356 43.0041 153.916 47.0366C153.531 50.6062 151.772 55.199 148.219 64.3649C145.164 72.2726 143.59 76.3386 141.463 80.3528C136.341 90 129.844 95.8193 121.757 102.907C107.299 115.583 96.0706 120.226 96.9626 127.428C97.1619 128.822 97.7327 130.136 98.615 131.233C99.5326 131.783 100.413 132.393 101.25 133.059C102.181 133.8 109.538 138.155 110.193 138.832C108.81 137.93 107.064 136.441 106.352 134.181C104.972 129.775 108.377 125.296 111.932 120.746Z" fill="#000D26"/>
<path d="M129.431 135.95C134.439 128.824 140.766 122.6 146.957 116.472C151.371 112.101 155.891 107.825 160.136 103.291C160.122 103.318 161.405 101.893 161.557 101.724C162.056 101.159 162.543 100.593 163.028 100.021C163.999 98.8755 164.941 97.7085 165.854 96.5197C167.691 94.1401 169.378 91.6485 170.905 89.0593C170.942 88.9917 171.682 87.6486 171.775 87.5533C172.125 86.8611 172.459 86.1582 172.777 85.4448C173.34 84.1984 173.855 82.9317 174.336 81.6522C175.256 79.2063 176.041 76.7116 176.687 74.1794C176.814 73.6618 176.931 73.1392 177.063 72.5895L177.343 71.1524C177.568 69.8904 177.756 68.62 177.912 67.3552C178.228 64.812 178.416 62.2539 178.478 59.6807C178.498 59.0575 178.527 57.4585 178.368 54.664C178.239 51.2062 177.922 47.758 177.417 44.3348C176.855 41.0893 175.729 37.7155 172.724 31.7695C175.207 40.6669 175.938 49.9617 174.878 59.1379C174.371 63.7387 173.5 71.1157 169.597 79.6369C167.725 83.7095 164.988 87.9045 159.026 95.9622C155.203 101.127 151.324 106.403 146.918 111.112C144.379 113.826 141.576 116.241 138.81 118.705C137.051 120.28 135.31 121.864 133.594 123.468C132.711 124.303 131.838 125.144 130.982 126.005C130.55 126.437 130.13 126.87 129.685 127.294L129.054 128.015C128.555 128.698 126.354 130.787 124.693 133.09C122.834 135.72 122.047 137.353 121.624 138.506C121.468 138.937 121.398 139.151 121.317 139.459C120.564 142.362 121.6 144.94 122.434 146.956C122.902 148.103 123.475 149.205 124.146 150.247C125.59 145.34 126.728 139.794 129.431 135.95Z" fill="#000D26"/>
<path d="M268.613 87.2465C269.677 113.98 259.331 133.782 243.789 147.682C217.421 171.186 201.227 204.023 198.629 239.25C197.509 255.114 193.301 270.606 186.24 284.857C181.442 294.482 173.847 304.43 173.307 305.155C168.011 312.337 162.194 319.119 155.903 325.446C161.178 325.86 168.934 325.743 176.446 322.39C180.426 320.611 186.25 317.07 198.162 295.811C204.01 285.474 209.132 274.743 213.49 263.695C220.788 244.993 223.694 235.412 226.599 224.298C231.543 205.405 230.779 199.453 240.273 183.856C241.812 181.338 243.418 178.858 245.042 176.387C251.047 167.226 258.712 158.356 263.361 148.437C264.321 146.405 265.577 144.988 267.023 143.224C276.235 131.981 282.092 117.519 285.423 103.392C288.272 91.3018 272.484 79.8292 263.811 71.4972C263.565 74.9319 268.451 83.082 268.613 87.2465Z" fill="#000D26"/>
<path d="M273.405 89.8832C272.761 115.677 262.361 135.449 247.665 149.815C222.868 174.065 206.367 206.639 201.942 241.073C199.937 256.697 195.284 271.865 188.184 285.926C183.321 295.54 175.967 305.584 175.44 306.328C169.249 315.07 160.53 320.435 155.909 325.449C160.588 325.535 170.319 326.504 177.218 322.814C180.873 320.857 186.278 317.085 198.172 295.816C203.993 285.473 209.191 274.793 213.738 263.831C221.357 245.305 224.52 235.866 227.777 224.946C233.302 206.372 232.98 200.663 242.375 185.012C243.895 182.484 245.479 179.991 247.089 177.513C252.995 168.297 260.358 159.261 265.111 149.399C266.084 147.375 267.29 145.93 268.683 144.137C277.57 132.716 283.653 118.377 287.461 104.513C290.72 92.6487 275.373 82.9686 268.123 75.4435C267.683 78.7714 273.504 85.8626 273.405 89.8832Z" fill="#89CFF0"/>
<path d="M172.956 207.042C176.447 199.701 175.226 191.824 170.228 189.447C165.23 187.069 158.348 191.093 154.857 198.433C151.365 205.774 152.587 213.651 157.585 216.028C162.583 218.406 169.465 214.382 172.956 207.042Z" fill="#000D26"/>
<path d="M163.304 238.993C166.795 231.653 165.574 223.775 160.576 221.398C155.578 219.021 148.696 223.044 145.205 230.384C141.713 237.725 142.934 245.602 147.932 247.98C152.93 250.357 159.812 246.333 163.304 238.993Z" fill="#000D26"/>
<path d="M179.722 176.136C183.213 168.795 181.992 160.918 176.994 158.54C171.996 156.163 165.114 160.187 161.622 167.527C158.131 174.867 159.352 182.745 164.35 185.122C169.348 187.499 176.23 183.476 179.722 176.136Z" fill="#000D26"/>
<path d="M170.579 205.907C174.071 198.566 173.192 190.852 168.618 188.676C164.043 186.5 157.504 190.687 154.013 198.027C150.522 205.367 151.4 213.082 155.974 215.258C160.549 217.434 167.088 213.247 170.579 205.907Z" fill="#89CFF0"/>
<path d="M160.548 237.677C164.039 230.336 163.161 222.622 158.587 220.446C154.012 218.27 147.473 222.457 143.982 229.797C140.49 237.137 141.369 244.852 145.943 247.028C150.518 249.204 157.057 245.017 160.548 237.677Z" fill="#89CFF0"/>
<path d="M178.19 175.408C181.682 168.068 180.804 160.353 176.229 158.177C171.655 156.001 165.116 160.188 161.624 167.529C158.133 174.869 159.011 182.583 163.586 184.759C168.16 186.935 174.699 182.748 178.19 175.408Z" fill="#89CFF0"/>
<path d="M142.673 188.353C150.01 187.623 156.523 190.321 161.091 193.052C162.856 194.12 164.199 195.764 164.895 197.706C165.59 199.648 165.596 201.77 164.91 203.716L164.858 203.875C164.464 205.008 163.847 206.05 163.044 206.941C162.241 207.832 161.268 208.553 160.182 209.061C159.096 209.57 157.919 209.856 156.721 209.903C155.522 209.95 154.327 209.756 153.204 209.334C146.516 206.827 139.26 205.576 132.163 207.448C120.944 210.41 124.127 217.036 123.017 216.172C121.228 214.771 122.205 190.388 142.673 188.353Z" fill="#000D26"/>
<path d="M130.608 219.81C136.842 218.544 142.272 221.022 146.287 223.009C147.389 223.556 148.416 224.133 149.357 224.698C151.024 225.714 152.293 227.271 152.952 229.109C153.612 230.948 153.621 232.956 152.98 234.801L152.923 234.958C152.517 236.126 151.862 237.193 151.003 238.083C150.144 238.973 149.101 239.665 147.948 240.111C146.794 240.558 145.557 240.747 144.323 240.667C143.088 240.587 141.886 240.239 140.8 239.647C135.072 236.495 129.17 234.18 122.406 235.983C113.016 238.448 112.447 240.208 111.862 240.203C111.71 240.17 111.571 240.093 111.461 239.983C111.006 239.55 112.309 236.116 115.55 231.892C119.819 226.344 123.773 221.186 130.608 219.81Z" fill="#000D26"/>
<path d="M142.027 185.548C148.51 184.759 154.233 186.981 158.315 189.369C160.018 190.375 161.316 191.945 161.985 193.806C162.653 195.668 162.65 197.704 161.976 199.564L161.922 199.716C161.542 200.774 160.957 201.746 160.199 202.577C159.442 203.408 158.529 204.081 157.511 204.557C156.493 205.034 155.39 205.304 154.267 205.353C153.144 205.402 152.023 205.229 150.967 204.843C145.002 202.676 138.508 201.715 132.113 203.562C121.84 206.534 123.667 215.355 122.664 214.585C121.052 213.311 123.348 187.822 142.027 185.548Z" fill="#FAD267"/>
<path d="M149.844 156.364C157.181 155.634 163.7 158.33 168.266 161.066C170.031 162.134 171.375 163.777 172.07 165.719C172.766 167.661 172.771 169.784 172.086 171.729L172.006 171.874C171.613 173.006 170.996 174.048 170.194 174.939C169.391 175.83 168.418 176.551 167.333 177.06C166.247 177.568 165.071 177.855 163.873 177.902C162.675 177.95 161.479 177.757 160.357 177.335C153.681 174.806 146.411 173.57 139.319 175.445C128.097 178.411 131.28 185.037 130.172 184.169C128.399 182.782 129.383 158.397 149.844 156.364Z" fill="#000D26"/>
<path d="M149.202 153.562C155.68 152.77 161.404 154.993 165.493 157.378C167.195 158.386 168.492 159.957 169.16 161.819C169.828 163.681 169.825 165.717 169.151 167.577L169.1 167.725C168.719 168.783 168.133 169.755 167.375 170.585C166.617 171.416 165.703 172.089 164.685 172.565C163.667 173.041 162.564 173.312 161.441 173.36C160.318 173.409 159.196 173.236 158.14 172.85C152.182 170.681 145.686 169.724 139.291 171.571C129.02 174.538 130.84 183.362 129.839 182.588C128.227 181.324 130.523 155.836 149.202 153.562Z" fill="#FAD267"/>
<path d="M130.131 216.669C136.609 215.877 142.333 218.1 146.422 220.485C148.124 221.493 149.421 223.064 150.089 224.926C150.757 226.788 150.754 228.824 150.08 230.684L150.006 230.82C149.625 231.877 149.039 232.85 148.282 233.68C147.524 234.511 146.61 235.183 145.591 235.66C144.573 236.136 143.471 236.406 142.348 236.455C141.224 236.504 140.103 236.331 139.047 235.945C133.089 233.775 126.592 232.819 120.197 234.666C109.924 237.637 112.441 240.755 111.448 239.968C109.863 238.719 111.457 218.945 130.131 216.669Z" fill="#FAD267"/>
<path d="M119.586 169.68C111.667 178.392 109.479 179.508 107.5 180.116C101.004 182.083 93.2462 179.534 89.2332 174.172C83.3025 166.299 86.6983 153.952 93.1003 147.622C105.55 135.319 131.355 143.75 132.707 152.134C133.128 154.784 128.622 159.738 119.586 169.68ZM123.489 154.054C123.753 146.777 107.818 145.047 100.211 152.487C96.317 156.298 94.2582 163.303 97.2042 168.107C99.151 171.281 103.401 173.673 107.082 172.628C109.287 172.004 110.275 170.433 113.072 166.941C121.163 156.86 123.45 156.258 123.511 154.066L123.489 154.054Z" fill="#000D26"/>
<path d="M148.129 150.199C157.296 146.143 166.336 137.666 164.307 128.839C162.277 120.012 150.008 115.056 140.405 116.788C123.332 119.834 111.012 144.321 121.112 151.554C126.801 155.631 139.461 154.031 148.129 150.199ZM127.998 145.167C121.896 141.222 129.734 127.28 140.221 125.359C146.13 124.278 153.574 126.884 154.72 131.865C155.865 136.847 150.209 141.714 144.56 144.083C139.196 146.34 131.43 147.391 127.984 145.16L127.998 145.167Z" fill="#000D26"/>
<path d="M197.005 214.406C178.148 218.677 165.25 218.267 157.582 213.154C153.52 210.443 151.02 206.524 150.15 201.512C149.186 195.955 150.552 190.753 151.869 185.723C152.992 181.444 154.054 177.401 153.765 173.167C153.477 168.934 152.587 155.86 118.311 156.267L118.21 147.521C133.701 147.339 144.85 149.699 152.295 154.736C158.547 158.964 161.973 164.966 162.487 172.577C162.892 178.243 161.521 183.39 160.33 187.943C159.14 192.497 158.132 196.334 158.776 200.006C158.929 201.19 159.336 202.327 159.969 203.338C160.602 204.349 161.447 205.212 162.445 205.866C166.216 208.382 174.94 210.423 195.081 205.866L197.005 214.406Z" fill="#000D26"/>
<path d="M122.067 238.463L116.287 245.018C101.812 232.195 94.6011 221.473 94.3014 212.277C94.1306 207.392 95.8438 203.073 99.4175 199.45C103.389 195.435 108.386 193.494 113.242 191.627C117.373 190.043 121.274 188.544 124.543 185.839C127.811 183.134 137.914 174.784 117.553 147.189L124.594 142.003C133.782 154.477 138.376 164.909 138.626 173.895C138.839 181.435 135.976 187.704 130.099 192.59C125.726 196.202 120.751 198.115 116.358 199.802C111.966 201.488 108.262 202.915 105.643 205.583C104.771 206.397 104.086 207.389 103.633 208.492C103.181 209.595 102.973 210.783 103.023 211.975C103.179 216.494 106.616 224.768 122.067 238.463Z" fill="#000D26"/>
<path d="M129.778 156.57C132.381 151.841 130.657 145.898 125.928 143.295C121.199 140.692 115.255 142.416 112.652 147.145C110.049 151.874 111.773 157.818 116.502 160.42C121.231 163.023 127.175 161.3 129.778 156.57Z" fill="#FAD267"/>
</svg>
