<svg width="86" height="70" viewBox="0 0 86 70" fill="none" xmlns="http://www.w3.org/2000/svg">
<g clip-path="url(#clip0_4127_448)">
<path d="M72.873 39.0199C74.568 48.3579 63.2957 58.2241 47.6936 61.0562C41.8193 62.1224 36.1689 62.0392 31.3164 61.0212L20.1703 68.0381C22.2087 65.2586 23.9373 62.2647 25.3253 59.1096C20.4705 56.9256 17.1615 53.5177 16.3909 49.2724C14.6965 39.9377 25.9687 30.0715 41.5709 27.2394C57.1731 24.4074 71.1786 29.6852 72.873 39.0199Z" fill="#FFF8E1"/>
<path d="M73.8378 34.8521C75.5671 44.3791 63.9328 54.4697 47.8512 57.3888C41.7964 58.4879 35.9731 58.4133 30.9755 57.3833L19.4781 64.5686C21.5778 61.7306 23.3612 58.6718 24.7968 55.4466C19.7992 53.2257 16.3884 49.756 15.6018 45.4229C13.8728 35.8976 25.5071 25.8069 41.5887 22.8878C57.6702 19.9688 72.109 25.3284 73.8378 34.8521Z" fill="#000D26"/>
<path d="M72.0053 33.866C73.6874 43.1331 62.3723 52.9461 46.7297 55.7855C40.8402 56.8545 35.1781 56.7839 30.3163 55.7815L19.1398 62.7656C21.1833 60.0064 22.9184 57.0317 24.314 53.8947C19.453 51.7344 16.1343 48.3596 15.3695 44.1464C13.6877 34.881 25.0028 25.068 40.6455 22.2286C56.2881 19.3891 70.3234 24.6006 72.0053 33.866Z" fill="#F8C741"/>
<path d="M29.6714 29.5881C30.784 28.9938 31.8145 28.35 31.3788 28.0437C30.5376 27.4536 28.0522 28.5255 27.2181 28.8774C23.207 30.5732 22.1077 34.4012 22.0579 34.5881C21.8475 35.3499 21.2961 36.5868 21.87 37.222C23.3004 36.2649 23.8655 34.7674 24.8362 33.545C25.6452 32.5264 26.5384 31.4628 27.6661 30.6635C27.9691 30.4498 28.837 30.0343 29.6714 29.5881Z" fill="#FFF8E1"/>
<path opacity="0.59" d="M63.8595 24.492C64.0458 25.0667 64.204 25.65 64.3356 26.2312C64.5428 27.1613 64.7216 28.0983 64.8451 29.0383C64.8451 29.0383 64.8476 29.0518 64.8488 29.0586C65.316 31.3346 65.4666 33.7204 64.9175 35.9979C64.3815 38.2224 63.4639 39.939 62.2204 41.8107C59.1478 46.4293 53.8956 49.5291 48.7391 51.1974C43.3502 52.9393 37.4471 53.472 31.8449 52.5309C26.8087 51.6822 21.3974 49.3237 18.559 44.7911C17.1158 42.469 16.397 39.7696 16.4942 37.0372C15.3619 39.3578 14.9366 41.7697 15.368 44.1464C16.134 48.3664 19.4498 51.7347 24.3124 53.8946C22.9168 57.0317 21.1817 60.0064 19.1383 62.7656L30.3215 55.7802C35.1833 56.7826 40.8454 56.8533 46.7349 55.7843C62.3775 52.9448 73.6926 43.1318 72.0104 33.8647C71.2818 29.889 68.2873 26.6577 63.8595 24.492Z" fill="#DFAD27"/>
<path d="M21.9527 39.4885C22.1372 39.0133 22.0255 38.5266 21.7031 38.4015C21.3807 38.2763 20.9698 38.56 20.7853 39.0352C20.6008 39.5104 20.7125 39.9971 21.0349 40.1222C21.3573 40.2474 21.7682 39.9637 21.9527 39.4885Z" fill="#FFF8E1"/>
<path d="M68.6291 15.23C73.8591 14.2806 77.5498 10.4866 76.8726 6.75568C76.1954 3.02479 71.4067 0.769895 66.1767 1.71923C60.9467 2.66856 57.256 6.46262 57.9333 10.1935C58.6105 13.9244 63.3992 16.1793 68.6291 15.23Z" fill="#F8C741"/>
<path d="M61.9281 6.34812C62.2848 5.42955 62.0692 4.48889 61.4465 4.2471C60.8238 4.0053 60.0299 4.55394 59.6732 5.4725C59.3165 6.39107 59.5321 7.33173 60.1548 7.57352C60.7775 7.81532 61.5714 7.26669 61.9281 6.34812Z" fill="#FFF8E1"/>
<path d="M9.6822 32.9096C12.9973 32.3079 15.3367 29.9027 14.9074 27.5376C14.4781 25.1725 11.4426 23.7429 8.12752 24.3447C4.81242 24.9465 2.47303 27.3516 2.90234 29.7167C3.33166 32.0818 6.3671 33.5114 9.6822 32.9096Z" fill="#F8C741"/>
<path d="M5.43467 27.2784C5.66068 26.6963 5.52385 26.1002 5.12905 25.9469C4.73424 25.7936 4.23096 26.1411 4.00495 26.7232C3.77893 27.3053 3.91576 27.9014 4.31056 28.0547C4.70537 28.208 5.20865 27.8604 5.43467 27.2784Z" fill="#FFF8E1"/>
</g>
<defs>
<clipPath id="clip0_4127_448">
<rect width="76.8821" height="57.0362" fill="white" transform="translate(0 13.7311) rotate(-10.2882)"/>
</clipPath>
</defs>
</svg>
