<svg width="79" height="67" viewBox="0 0 79 67" fill="none" xmlns="http://www.w3.org/2000/svg">
<path d="M72.8133 39.6162C74.0239 49.5063 61.6082 59.1658 45.0814 61.1906C38.8574 61.9526 32.9395 61.5239 27.9152 60.162L15.8057 66.8436C18.1107 64.0527 20.1042 61.0185 21.7506 57.7948C16.7839 55.2115 13.5106 51.441 12.9702 46.9428C11.7596 37.0545 24.1754 27.395 40.7021 25.3701C57.2288 23.3453 71.6009 29.7243 72.8133 39.6162Z" fill="#FFF8E1"/>
<path d="M74.0745 35.3088C75.3103 45.3971 62.5036 55.2745 45.4671 57.3606C39.0539 58.1461 32.9541 57.7209 27.7784 56.3338L15.2906 63.1614C17.6625 60.3136 19.7163 57.2153 21.4156 53.9216C16.3085 51.2915 12.9487 47.4471 12.3812 42.8588C11.1454 32.7705 23.9539 22.8967 40.9886 20.8106C58.0234 18.7244 72.8405 25.2206 74.0745 35.3088Z" fill="#000D26"/>
<path d="M72.2242 34.1595C73.4258 43.9758 60.9686 53.5776 44.3986 55.6061C38.1601 56.3699 32.2279 55.952 27.1928 54.6081L15.0454 61.2501C17.3554 58.481 19.355 55.4672 21.0083 52.2625C16.0417 49.7045 12.7684 45.9574 12.2207 41.5023C11.0192 31.6879 23.4763 22.0861 40.0463 20.0648C56.6162 18.0436 71.0226 24.3451 72.2242 34.1595Z" fill="#89CFF0"/>
<path d="M28.1055 27.1086C29.2999 26.5555 30.4276 25.9412 29.9898 25.5954C29.1432 24.9252 26.4734 25.898 25.5762 26.2169C21.2599 27.7427 19.8764 31.706 19.8187 31.8861C19.5593 32.6715 18.9 33.9362 19.4584 34.637C21.0167 33.72 21.6923 32.1924 22.7912 30.9619C23.6919 29.9423 24.7007 28.8812 25.9329 28.1102C26.259 27.9102 27.2048 27.5265 28.1055 27.1086Z" fill="#FFF8E1"/>
<path d="M64.2476 23.8389C64.4074 24.4526 64.5383 25.0699 64.6404 25.6908C64.8025 26.678 64.9322 27.6724 65.0006 28.665C64.9998 28.6722 64.9998 28.6795 65.0006 28.6866C65.3519 31.1006 65.3609 33.6101 64.6512 35.9664C63.9558 38.2651 62.8893 40.0089 61.4716 41.895C57.9713 46.5518 52.284 49.4828 46.7697 50.9186C41.0158 52.4192 34.7953 52.6192 28.9802 51.2933C23.7451 50.0989 18.2218 47.2976 15.5214 42.376C14.1486 39.8542 13.5584 36.9805 13.8262 34.1217C12.4985 36.4852 11.9058 38.9857 12.2049 41.5077C12.7453 45.97 16.0258 49.7098 20.9925 52.2679C19.3439 55.4699 17.3498 58.4819 15.0458 61.2501L27.1931 54.6044C32.2282 55.9483 38.1605 56.3663 44.399 55.6024C60.9726 53.574 73.4261 43.9721 72.2246 34.1649C71.7003 29.9459 68.7567 26.3789 64.2476 23.8389Z" fill="#70B6D6"/>
<path d="M19.4034 37.0206C19.6257 36.5336 19.538 36.0166 19.2076 35.8659C18.8773 35.7151 18.4293 35.9876 18.2071 36.4746C17.9848 36.9616 18.0725 37.4785 18.4029 37.6293C18.7332 37.7801 19.1812 37.5075 19.4034 37.0206Z" fill="#FFF8E1"/>
<path d="M69.807 14.4184C75.3472 13.7401 79.4462 9.98637 78.9623 6.03419C78.4784 2.08201 73.595 -0.572015 68.0548 0.106269C62.5146 0.784553 58.4157 4.53829 58.8996 8.49047C59.3834 12.4427 64.2669 15.0967 69.807 14.4184Z" fill="#89CFF0"/>
<path d="M63.3191 4.7012C63.7487 3.75987 63.5797 2.76069 62.9415 2.46948C62.3034 2.17827 61.4379 2.70531 61.0083 3.64664C60.5787 4.58797 60.7478 5.58715 61.3859 5.87836C62.024 6.16957 62.8895 5.64254 63.3191 4.7012Z" fill="#FFF8E1"/>
<path d="M6.93811 29.3811C10.4498 28.9511 13.048 26.5715 12.7413 24.0661C12.4345 21.5607 9.33905 19.8782 5.82731 20.3081C2.31558 20.7381 -0.282589 23.1177 0.0241506 25.6231C0.33089 28.1285 3.42638 29.811 6.93811 29.3811Z" fill="#89CFF0"/>
<path d="M2.82913 23.2215C3.10134 22.625 2.99402 21.9918 2.58943 21.8071C2.18484 21.6225 1.63618 21.9564 1.36397 22.5529C1.09176 23.1493 1.19908 23.7826 1.60367 23.9672C2.00827 24.1518 2.55692 23.818 2.82913 23.2215Z" fill="#FFF8E1"/>
</svg>
