<svg width="590" height="323" viewBox="0 0 590 323" fill="none" xmlns="http://www.w3.org/2000/svg">
<g clip-path="url(#clip0_4127_625)">
<path d="M536.946 261.893C531.43 295.926 480.847 316.046 423.989 306.827C402.578 303.362 383.323 296.231 367.94 286.881L321.26 297.378C331.593 290.315 341.124 282.145 349.683 273.012C335.702 259.642 328.49 243.96 330.983 228.489C336.5 194.456 387.082 174.335 443.941 183.554C500.8 192.773 542.462 227.859 536.946 261.893Z" fill="#FFEEF2"/>
<path d="M544.313 249.495C538.628 284.569 486.033 305.219 426.83 295.62C404.546 292.005 384.494 284.625 368.469 274.939L319.906 285.703C330.645 278.461 340.56 270.067 349.476 260.671C334.903 246.864 327.355 230.689 329.942 214.745C335.62 179.683 388.215 159.027 447.418 168.62C506.621 178.212 549.997 214.421 544.313 249.495Z" fill="#000D26"/>
<path d="M540.247 243.193C534.768 276.97 484.117 296.86 427.096 287.617C405.629 284.139 386.325 277.02 370.885 267.702L324.137 278.068C334.48 271.092 344.03 263.008 352.616 253.958C338.579 240.662 331.311 225.079 333.798 209.702C339.271 175.931 389.897 156.035 446.942 165.278C503.988 174.522 545.719 209.434 540.247 243.193Z" fill="#FFB6C1"/>
<path d="M400.413 177.196C404.913 176.511 409.257 175.557 408.135 173.986C405.973 170.945 396.155 171.599 392.87 171.792C377.107 172.733 368.673 184.502 368.274 185.125C366.654 187.481 363.244 191.053 364.441 193.92C370.5 192.374 374.221 187.949 379.058 184.925C383.059 182.432 387.41 179.858 392.247 178.48C393.531 178.088 397.015 177.72 400.413 177.196Z" fill="#FFF8E1"/>
<path opacity="0.63" d="M523.698 201.207C523.636 203.401 523.474 205.57 523.212 207.739C522.801 211.173 522.271 214.595 521.554 217.968C521.554 217.999 521.554 218.024 521.554 218.049C520.395 226.407 518.02 234.76 513.376 241.897C508.845 248.865 503.621 253.634 497.089 258.533C480.97 270.632 459.216 274.876 439.538 274.334C418.969 273.773 398.106 268.437 380.061 258.421C363.818 249.408 348.166 234.766 343.909 215.805C341.782 206.1 342.594 195.981 346.24 186.739C339.546 193.322 335.164 201.076 333.774 209.727C331.281 225.08 338.555 240.662 352.592 253.983C344.008 263.023 334.462 271.1 324.125 278.068L370.874 267.702C386.313 277.052 405.617 284.139 427.084 287.617C484.105 296.861 534.756 276.971 540.235 243.193C542.597 228.695 536.233 213.991 523.698 201.207Z" fill="#E59CA8"/>
<path d="M361.974 201.758C363.182 200.355 363.39 198.552 362.438 197.733C361.485 196.913 359.734 197.386 358.526 198.79C357.317 200.194 357.11 201.996 358.062 202.816C359.015 203.636 360.766 203.162 361.974 201.758Z" fill="#FFF8E1"/>
<path d="M589.791 156.248C591.996 142.649 578.329 129.119 559.266 126.028C540.203 122.937 522.961 131.456 520.756 145.055C518.551 158.654 532.218 172.184 551.281 175.275C570.344 178.366 587.586 169.847 589.791 156.248Z" fill="#FFB6C1"/>
<path d="M539.081 136.723C541.417 134.01 541.819 130.526 539.98 128.943C538.14 127.36 534.756 128.276 532.42 130.99C530.085 133.703 529.683 137.186 531.522 138.769C533.361 140.353 536.746 139.436 539.081 136.723Z" fill="#FFF8E1"/>
<path d="M352.354 152.293C353.752 143.672 345.09 135.095 333.006 133.135C320.922 131.176 309.993 136.576 308.595 145.197C307.198 153.818 315.86 162.395 327.944 164.355C340.027 166.314 350.956 160.914 352.354 152.293Z" fill="#FFB6C1"/>
<path d="M320.208 139.908C321.688 138.189 321.942 135.981 320.776 134.977C319.609 133.974 317.464 134.554 315.984 136.273C314.504 137.992 314.25 140.2 315.416 141.204C316.583 142.208 318.728 141.628 320.208 139.908Z" fill="#FFF8E1"/>
<path d="M436.753 208.873C434.316 243.262 385.753 267.845 328.296 263.775C306.654 262.242 286.839 256.869 270.677 248.921L225.131 263.588C234.796 255.631 243.564 246.644 251.279 236.785C236.151 224.73 227.543 209.758 228.653 194.119C231.09 159.731 279.646 135.147 337.11 139.224C394.573 143.3 439.19 174.485 436.753 208.873Z" fill="#E9E9FF"/>
<path d="M442.662 194.655C440.168 229.561 390.453 254.444 331.562 250.268C309.39 248.697 289.083 243.23 272.509 235.158L225.854 250.006C235.752 241.956 244.74 232.848 252.656 222.842C237.148 210.6 228.316 195.416 229.444 179.546C231.937 144.641 281.653 119.764 340.544 123.934C399.435 128.104 445.136 159.775 442.662 194.655Z" fill="#000D26"/>
<path d="M438.359 189.949C435.941 224.082 387.279 248.441 329.659 244.365C307.968 242.825 288.097 237.477 271.89 229.58L226.264 244.103C235.929 236.225 244.708 227.317 252.443 217.537C237.265 205.557 228.626 190.691 229.723 175.152C232.142 141.025 280.835 116.66 338.423 120.743C396.011 124.825 440.778 155.829 438.359 189.949Z" fill="#7573F1"/>
<path d="M293.165 136.787C297.584 135.696 301.823 134.356 300.57 132.891C298.133 130.055 288.422 131.595 285.168 132.081C269.523 134.437 262.211 146.922 261.862 147.539C260.466 150.032 257.387 153.891 258.839 156.639C264.736 154.558 268.046 149.82 272.583 146.367C276.323 143.512 280.449 140.57 285.143 138.769C286.39 138.289 289.843 137.61 293.165 136.787Z" fill="#FFF8E1"/>
<path opacity="0.66" d="M418.104 149.596C418.241 151.784 418.279 153.959 418.21 156.141C418.11 159.606 417.892 163.066 417.475 166.488V166.563C417.069 174.99 415.455 183.523 411.472 191.053C407.582 198.402 402.808 203.613 396.749 209.079C381.79 222.58 360.497 228.763 340.844 229.991C320.275 231.275 299.051 227.841 280.177 219.482C263.191 211.965 246.293 198.788 240.378 180.288C237.385 170.813 237.285 160.661 240.091 151.129C234.014 158.322 230.342 166.425 229.719 175.152C228.622 190.666 237.261 205.532 252.439 217.537C244.704 227.32 235.926 236.23 226.26 244.109L271.911 229.586C288.118 237.484 307.989 242.832 329.68 244.371C387.3 248.448 435.962 224.088 438.381 189.956C439.397 175.302 431.736 161.233 418.104 149.596Z" fill="#5B59D8"/>
<path d="M257.097 164.723C258.175 163.216 258.219 161.403 257.197 160.672C256.175 159.941 254.473 160.57 253.396 162.076C252.319 163.582 252.274 165.396 253.296 166.127C254.318 166.858 256.02 166.229 257.097 164.723Z" fill="#FFF8E1"/>
<path d="M478.433 115.097C479.406 101.354 464.579 89.1081 445.314 87.7442C426.05 86.3802 409.645 96.4149 408.672 110.157C407.699 123.9 422.527 136.146 441.791 137.51C461.055 138.874 477.46 128.839 478.433 115.097Z" fill="#7573F1"/>
<path d="M426.164 105.152C428.246 102.24 428.334 98.7344 426.36 97.3227C424.386 95.9109 421.098 97.1272 419.015 100.039C416.932 102.952 416.844 106.457 418.819 107.868C420.793 109.28 424.081 108.064 426.164 105.152Z" fill="#FFF8E1"/>
<path d="M350.365 311.035C350.859 304.054 342.703 297.789 332.147 297.041C321.591 296.294 312.633 301.347 312.139 308.328C311.645 315.309 319.801 321.575 330.357 322.322C340.913 323.069 349.871 318.016 350.365 311.035Z" fill="#6565CE"/>
<path d="M321.497 306.056C322.725 304.655 322.929 302.826 321.953 301.971C320.977 301.116 319.19 301.558 317.963 302.958C316.735 304.359 316.531 306.188 317.508 307.043C318.484 307.899 320.27 307.457 321.497 306.056Z" fill="#FFF8E1"/>
<path d="M374.92 139.959C374.92 174.441 328.215 202.397 270.602 202.397C248.91 202.397 228.765 198.433 212.079 191.651L167.674 209.503C176.753 200.885 184.865 191.302 191.864 180.924C175.92 169.966 166.277 155.636 166.277 139.959C166.277 105.49 212.976 77.5343 270.589 77.5343C328.202 77.5343 374.92 105.49 374.92 139.959Z" fill="#FFF8E1"/>
<path d="M381.066 125.692C381.066 160.872 332.927 189.395 273.544 189.395C251.185 189.395 230.423 185.349 213.219 178.431L167.461 196.644C176.809 187.861 185.169 178.083 192.394 167.485C175.963 156.303 166.021 141.686 166.021 125.723C166.021 90.5492 214.16 62.0325 273.544 62.0325C332.927 62.0325 381.066 90.518 381.066 125.692Z" fill="#000D26"/>
<path d="M375.188 120.973C375.188 155.193 328.364 182.931 270.601 182.931C248.86 182.931 228.659 179.004 211.929 172.266L167.424 189.987C176.516 181.444 184.649 171.934 191.677 161.626C175.689 150.749 166.021 136.531 166.021 120.973C166.021 86.7657 212.845 59.0219 270.601 59.0219C328.358 59.0219 375.188 86.7657 375.188 120.973Z" fill="#F8C741"/>
<path d="M226.593 78.2074C230.957 76.805 235.064 75.1719 233.706 73.7944C231.075 71.139 221.495 73.358 218.285 74.0811C202.845 77.5343 196.431 90.5055 196.132 91.1412C194.885 93.728 192.118 97.792 193.757 100.435C199.492 97.9416 202.484 92.9551 206.741 89.2152C210.294 86.0986 214.177 82.8761 218.733 80.7506C219.943 80.1833 223.327 79.2608 226.593 78.2074Z" fill="#FFF8E1"/>
<path opacity="0.59" d="M352.131 82.178C352.418 84.3534 352.611 86.5412 352.698 88.7041C352.842 92.1635 352.867 95.6291 352.698 99.0699V99.1509C352.892 107.584 351.882 116.211 348.441 124.003C345.082 131.601 340.687 137.142 335.027 143.026C321.046 157.543 300.259 165.216 280.743 167.834C260.348 170.57 238.9 168.638 219.483 161.638C202.03 155.337 184.222 143.394 177.017 125.349C173.364 116.111 172.546 105.995 174.667 96.2899C169.107 103.851 166.021 112.203 166.021 120.973C166.021 136.556 175.689 150.749 191.677 161.626C184.649 171.934 176.516 181.444 167.424 189.987L211.929 172.266C228.659 179.004 248.86 182.931 270.601 182.931C328.364 182.931 375.188 155.193 375.188 120.973C375.188 106.288 366.549 92.7931 352.131 82.178Z" fill="#DFAD27"/>
<path d="M191.793 108.782C192.756 107.208 192.671 105.402 191.603 104.749C190.535 104.095 188.889 104.842 187.925 106.416C186.962 107.99 187.047 109.796 188.115 110.45C189.184 111.103 190.83 110.357 191.793 108.782Z" fill="#FFF8E1"/>
<path d="M375.189 52.159C394.501 52.159 410.157 40.9907 410.157 27.2139C410.157 13.4371 394.501 2.2688 375.189 2.2688C355.876 2.2688 340.221 13.4371 340.221 27.2139C340.221 40.9907 355.876 52.159 375.189 52.159Z" fill="#F8C741"/>
<path d="M356.982 16.0597C358.854 13.0074 358.693 9.5048 356.624 8.23636C354.555 6.96792 351.361 8.41402 349.49 11.4663C347.618 14.5186 347.779 18.0212 349.848 19.2896C351.917 20.5581 355.111 19.112 356.982 16.0597Z" fill="#FFF8E1"/>
<path d="M152.982 77.1105C165.223 77.1105 175.147 70.0305 175.147 61.2969C175.147 52.5634 165.223 45.4834 152.982 45.4834C140.74 45.4834 130.816 52.5634 130.816 61.2969C130.816 70.0305 140.74 77.1105 152.982 77.1105Z" fill="#F8C741"/>
<path d="M141.452 54.2282C142.638 52.2941 142.536 50.0742 141.224 49.27C139.912 48.4658 137.887 49.3817 136.702 51.3158C135.516 53.2499 135.618 55.4697 136.93 56.274C138.242 57.0782 140.267 56.1623 141.452 54.2282Z" fill="#FFF8E1"/>
<path d="M251.939 137.073C256.128 171.293 213.169 204.716 155.986 211.722C134.45 214.358 113.974 212.875 96.59 208.163L54.6907 231.281C62.6662 221.625 69.5635 211.126 75.2601 199.972C58.0753 191.034 46.7497 177.988 44.8797 162.424C40.691 128.21 83.65 94.7876 140.833 87.7816C198.016 80.7755 247.744 102.847 251.939 137.073Z" fill="#FFF8E1"/>
<path d="M256.303 122.17C260.579 157.076 216.267 191.252 157.32 198.47C135.13 201.188 114.025 199.717 96.1166 194.917L52.9083 218.541C61.1152 208.687 68.2215 197.967 74.1011 186.571C56.4301 177.471 44.8052 164.169 42.8418 148.293C38.5658 113.387 82.8836 79.2235 141.824 72.0055C200.765 64.7875 252.033 87.2643 256.303 122.17Z" fill="#000D26"/>
<path d="M249.893 118.193C254.051 152.158 210.949 185.38 153.616 192.399C132.03 195.042 111.505 193.596 94.083 188.946L52.0527 211.928C60.0453 202.347 66.9638 191.919 72.6845 180.83C55.4997 171.979 44.174 159.014 42.2791 143.6C38.1216 109.641 81.2239 76.4186 138.557 69.425C195.889 62.4313 245.736 84.2349 249.893 118.193Z" fill="#89CFF0"/>
<path d="M97.2386 93.7967C101.371 91.8831 105.273 89.7576 103.759 88.5608C100.829 86.2421 91.5914 89.608 88.4873 90.7112C73.5526 95.9907 68.7655 109.704 68.5661 110.327C67.6685 113.045 65.3872 117.42 67.3194 119.845C72.7111 116.672 75.0486 111.387 78.8508 107.129C81.9674 103.601 85.4579 99.9301 89.7214 97.2623C90.8496 96.5704 94.122 95.2428 97.2386 93.7967Z" fill="#FFF8E1"/>
<path d="M222.294 82.4834C222.846 84.6068 223.299 86.7427 223.652 88.8911C224.213 92.3069 224.662 95.7476 224.899 99.182C224.896 99.2069 224.896 99.232 224.899 99.2568C226.115 107.609 226.146 116.292 223.69 124.445C221.284 132.399 217.594 138.432 212.688 144.958C200.577 161.071 180.899 171.212 161.819 176.18C141.911 181.373 120.388 182.064 100.267 177.477C82.1534 173.344 63.0426 163.652 53.6991 146.623C48.949 137.897 46.907 127.954 47.8336 118.062C43.2398 126.24 41.1891 134.892 42.2238 143.618C44.0937 159.058 55.4443 171.998 72.6292 180.849C66.9249 191.928 60.0253 202.35 52.0535 211.927L94.0837 188.933C111.505 193.583 132.031 195.029 153.617 192.387C210.962 185.368 254.052 152.145 249.894 118.212C248.08 103.614 237.895 91.2722 222.294 82.4834Z" fill="#70B6D6"/>
<path d="M67.1372 128.093C67.9062 126.408 67.6028 124.619 66.4597 124.097C65.3166 123.576 63.7666 124.519 62.9977 126.204C62.2288 127.888 62.5321 129.677 63.6752 130.199C64.8183 130.72 66.3683 129.778 67.1372 128.093Z" fill="#FFF8E1"/>
<path d="M241.533 49.888C260.703 47.5411 274.885 34.5531 273.211 20.8783C271.537 7.20365 254.64 -1.97936 235.471 0.367526C216.301 2.71441 202.119 15.7025 203.793 29.3772C205.467 43.0519 222.364 52.2349 241.533 49.888Z" fill="#89CFF0"/>
<path d="M219.091 16.2661C220.578 13.009 219.993 9.55183 217.785 8.54424C215.577 7.53664 212.582 9.3602 211.096 12.6172C209.609 15.8743 210.194 19.3315 212.402 20.3391C214.61 21.3467 217.605 19.5231 219.091 16.2661Z" fill="#FFF8E1"/>
<path d="M24.0044 101.659C36.1552 100.172 45.1449 91.9382 44.0836 83.2694C43.0222 74.6006 32.3117 68.779 20.161 70.2666C8.01027 71.7543 -0.979466 79.9877 0.0818625 88.6565C1.14319 97.3254 11.8537 103.147 24.0044 101.659Z" fill="#89CFF0"/>
<path d="M9.7905 80.3471C10.7324 78.2833 10.361 76.0923 8.96112 75.4534C7.56122 74.8146 5.66285 75.9698 4.721 78.0336C3.77915 80.0974 4.15047 82.2884 5.55038 82.9273C6.95028 83.5661 8.84865 82.4109 9.7905 80.3471Z" fill="#FFF8E1"/>
</g>
<defs>
<clipPath id="clip0_4127_625">
<rect width="590" height="322.41" fill="white"/>
</clipPath>
</defs>
</svg>
