<svg width="158" height="113" viewBox="0 0 158 113" fill="none" xmlns="http://www.w3.org/2000/svg">
<g clip-path="url(#clip0_3638_6490)">
<rect x="0.5" width="157" height="113" rx="13" fill="#DCE8FD"/>
<path d="M143.897 260.808C147.092 146.727 -2.88609 66.4144 75.2973 -7.50964C153.481 -81.4337 155.61 -157.487 82.7513 -273.698" stroke="#2C70F0" stroke-width="30.4334" stroke-linecap="round"/>
<path d="M143.897 260.808C147.092 146.727 -2.88609 66.4144 75.2973 -7.50964C153.481 -81.4337 155.61 -157.487 82.7513 -273.698" stroke="#1A58CC" stroke-width="3.04334" stroke-linecap="round"/>
<rect x="52.0001" y="34.8848" width="6.36244" height="24.4789" rx="3.18122" transform="rotate(2.25894 52.0001 34.8848)" fill="#FFD563"/>
<path d="M43.1911 33.0012C46.2435 39.3062 53.8292 41.9429 60.1342 38.8905C66.4392 35.8381 69.0759 28.2524 66.0235 21.9474C62.9711 15.6424 55.3854 13.0057 49.0804 16.0581C42.7754 19.1106 40.1387 26.6962 43.1911 33.0012Z" fill="#228BE6"/>
<path d="M50.0406 29.6853C51.2616 32.2072 54.2958 33.2619 56.8178 32.041C59.3398 30.82 60.3945 27.7857 59.1735 25.2637C57.9526 22.7417 54.9183 21.6871 52.3963 22.908C49.8743 24.129 48.8196 27.1633 50.0406 29.6853Z" fill="white"/>
<rect x="77.4445" y="92.293" width="8.38444" height="32.2583" rx="4.19222" transform="rotate(-2.19184 77.4445 92.293)" fill="#FFD563"/>
<path d="M66.6537 90.5649C71.3088 98.5364 81.5447 101.225 89.5162 96.5697C97.4877 91.9145 100.176 81.6786 95.521 73.7071C90.8659 65.7356 80.63 63.0472 72.6585 67.7023C64.687 72.3574 61.9985 82.5934 66.6537 90.5649Z" fill="#228BE6"/>
<path d="M75.3139 85.5088C77.1759 88.6974 81.2703 89.7727 84.4589 87.9107C87.6475 86.0486 88.7229 81.9543 86.8608 78.7657C84.9988 75.5771 80.9044 74.5017 77.7158 76.3637C74.5272 78.2258 73.4518 82.3202 75.3139 85.5088Z" fill="white"/>
</g>
<defs>
<clipPath id="clip0_3638_6490">
<rect x="0.5" width="157" height="113" rx="13" fill="white"/>
</clipPath>
</defs>
</svg>
