<svg width="353" height="252" viewBox="0 0 353 252" fill="none" xmlns="http://www.w3.org/2000/svg">
<g clip-path="url(#clip0_371_14806)">
<rect x="0.5" width="352.5" height="252" rx="13" fill="#DCE8FD"/>
<path d="M128.578 98.1205C147.312 102.312 156.995 88.0638 159.495 80.4155C159.495 80.4155 170.461 84.6813 170.186 81.7234C169.912 78.7654 165.429 68.3017 166.473 65.6169C168.331 60.8413 173.247 36.6875 160.934 28.029C148.622 19.3705 135.157 21.5711 127.808 32.0451C121.41 41.1639 116.406 59.7852 112.258 72.0191C109.64 79.6215 109.845 93.9286 128.578 98.1205Z" fill="#E3A6A6"/>
<circle cx="116.691" cy="141.872" r="22.0128" fill="#1C1C1C"/>
<path d="M79.5141 187.571C52.7919 152.038 76.4444 98.738 96.4863 80.502L114 89.3492L101 119.682C91.6113 143.155 93.338 169.482 128.806 160.669C158.597 153.266 164.195 220.071 167.806 253.835L147.403 255.821L142.528 230.543C130.792 237.585 94.6807 234.576 79.5141 230.543V187.571Z" fill="#518AF5"/>
<path d="M105.514 59.5578C103.799 62.9878 99.5436 73.3056 97.1222 79.2869C96.7635 80.1732 97.1614 81.182 98.026 81.59L111.115 87.7668C111.938 88.1553 112.92 87.8734 113.408 87.1053C116.854 81.6827 122.592 72.6692 123.389 71.4744C124.472 69.8494 124.653 64.0716 121.583 63.8911C119.457 63.766 117.268 66.3384 116.094 68.1639C115.783 68.647 115.183 69.1156 114.776 68.7105C113.377 67.3191 115.811 60.3461 118.462 53.9045C118.984 52.6367 117.983 51.3418 116.674 51.7487C112.642 53.0017 107.351 55.8842 105.514 59.5578Z" fill="#773B2E"/>
<path d="M155.881 286.746L146.264 231.574C146.094 230.602 145.175 229.946 144.2 230.102L119.123 234.114C118.958 234.14 118.791 234.144 118.626 234.124L83.6699 229.991C82.8253 229.892 82.0254 230.395 81.7498 231.199L62.8188 286.471C62.4174 287.643 63.2883 288.862 64.5269 288.862H154.102C155.224 288.862 156.074 287.851 155.881 286.746Z" fill="#A8C5FA"/>
<path d="M225.166 100.908C205.794 103.517 197.221 88.2136 195.356 80.2356C195.356 80.2356 183.857 83.601 184.395 80.6244C184.933 77.6479 190.399 67.4263 189.575 64.6111C188.109 59.6035 185.241 34.6697 198.491 26.9662C211.74 19.2627 225.208 22.6764 231.743 33.9463C237.434 43.758 240.876 63.0872 244.011 75.8617C246 83.8036 244.537 98.2993 225.166 100.908Z" fill="#E3A6A6"/>
<ellipse cx="22.0128" cy="22.2397" rx="22.0128" ry="22.2397" transform="matrix(-1 0 0 1 259.434 119.406)" fill="#1C1C1C"/>
<path d="M274.486 187.116C301.208 151.583 277.556 98.283 257.514 80.0469L240 88.8941L253 119.227C262.389 142.7 260.662 169.027 225.194 160.213C195.403 152.811 189.805 219.616 186.194 253.38L206.597 255.366L211.472 230.088C223.208 237.13 259.319 234.121 274.486 230.088V187.116Z" fill="#518AF5"/>
<path d="M248.486 59.1019C250.201 62.5319 254.456 72.8497 256.878 78.8311C257.237 79.7174 256.839 80.7261 255.974 81.1342L242.885 87.311C242.062 87.6994 241.08 87.4175 240.592 86.6495C237.146 81.2268 231.408 72.2133 230.611 71.0186C229.528 69.3936 229.347 63.6158 232.417 63.4352C234.543 63.3102 236.732 65.8825 237.906 67.7081C238.217 68.1912 238.772 68.623 239.249 68.3035C241.224 66.9818 240.388 59.3233 238.171 51.1945C237.833 49.954 238.832 48.8454 239.958 49.4653C243.191 51.2441 246.638 55.4056 248.486 59.1019Z" fill="#773B2E"/>
<path d="M198.119 286.291L207.736 231.119C207.906 230.147 208.825 229.491 209.8 229.647L234.877 233.659C235.042 233.685 235.209 233.689 235.374 233.669L270.33 229.536C271.175 229.437 271.975 229.94 272.25 230.744L291.181 286.016C291.583 287.188 290.712 288.407 289.473 288.407H199.898C198.776 288.407 197.926 287.396 198.119 286.291Z" fill="#A8C5FA"/>
</g>
<defs>
<clipPath id="clip0_371_14806">
<rect x="0.5" width="352.5" height="252" rx="13" fill="white"/>
</clipPath>
</defs>
</svg>
