<svg width="161" height="211" viewBox="0 0 161 211" fill="none" xmlns="http://www.w3.org/2000/svg">
<path d="M6.67771e-05 99.805C7.06243 80.8305 17.9019 63.4734 31.8995 48.7247C45.8971 33.9761 62.7788 22.1246 81.5807 13.847C100.383 5.56946 120.736 1.02787 141.48 0.481616C162.224 -0.0646415 182.951 3.3951 202.479 10.6633C222.006 17.9315 239.952 28.8659 255.29 42.842C270.628 56.8182 283.06 73.5625 291.874 92.1188C300.688 110.675 305.713 130.68 306.661 150.992C307.609 171.303 304.462 191.524 297.399 210.498L248.554 192.318C253.296 179.576 255.41 165.998 254.773 152.358C254.136 138.719 250.762 125.285 244.843 112.824C238.925 100.363 230.577 89.1191 220.277 79.7339C209.977 70.3487 197.926 63.0061 184.813 58.1254C171.7 53.2446 157.781 50.9214 143.852 51.2882C129.922 51.655 116.254 54.7048 103.628 60.2633C91.0024 65.8218 79.6661 73.7802 70.2665 83.6842C60.8669 93.5882 53.588 105.244 48.8455 117.985L6.67771e-05 99.805Z" fill="#DCE8FD"/>
</svg>
