<svg width="33" height="33" viewBox="0 0 33 33" fill="none" xmlns="http://www.w3.org/2000/svg">
<path d="M29.25 16.5C29.25 19.0217 28.5022 21.4868 27.1012 23.5835C25.7003 25.6802 23.709 27.3144 21.3792 28.2795C19.0495 29.2445 16.4859 29.497 14.0126 29.005C11.5393 28.5131 9.26751 27.2987 7.48439 25.5156C5.70127 23.7325 4.48696 21.4607 3.99499 18.9874C3.50303 16.5141 3.75552 13.9505 4.72054 11.6208C5.68556 9.29103 7.31976 7.29975 9.41648 5.89876C11.5132 4.49777 13.9783 3.75 16.5 3.75C19.8803 3.75397 23.121 5.09854 25.5112 7.48877C27.9015 9.879 29.246 13.1197 29.25 16.5ZM27.75 16.5C27.75 14.275 27.0902 12.0999 25.854 10.2498C24.6179 8.39978 22.8609 6.95784 20.8052 6.10636C18.7495 5.25487 16.4875 5.03208 14.3052 5.46617C12.123 5.90025 10.1184 6.97171 8.54505 8.54505C6.97171 10.1184 5.90025 12.1229 5.46617 14.3052C5.03209 16.4875 5.25488 18.7495 6.10636 20.8052C6.95785 22.8609 8.39979 24.6179 10.2498 25.854C12.0999 27.0902 14.275 27.75 16.5 27.75C19.4827 27.7467 22.3422 26.5604 24.4513 24.4513C26.5604 22.3422 27.7467 19.4827 27.75 16.5Z" fill="#518AF5"/>
</svg>
