<svg width="29" height="30" viewBox="0 0 29 30" fill="none" xmlns="http://www.w3.org/2000/svg">
<rect x="0.34668" y="0.72168" width="28.3066" height="28.3066" rx="14.1533" fill="#F1F5F9"/>
<path d="M17.7907 21.0672C17.7836 21.0672 17.7694 21.0672 17.7624 21.0672C17.4722 21.0672 17.2316 20.8266 17.2387 20.5294C17.2387 20.2393 17.4793 20.0057 17.7694 20.0057C17.7765 20.0057 17.7907 20.0057 17.7978 20.0057C18.6045 20.0057 19.3758 19.7085 19.9703 19.1565C21.0672 18.1941 21.145 16.8212 20.8478 15.8517C20.5506 14.8822 19.7297 13.7854 18.2931 13.6014C18.0596 13.5731 17.8756 13.3961 17.8331 13.1626C17.5501 11.4713 16.6372 10.3036 15.2643 9.87904C13.8348 9.44028 12.186 9.87196 11.1528 10.9547C10.1479 12.0091 9.91435 13.474 10.4946 15.0945C10.5937 15.3705 10.4522 15.6748 10.1762 15.7739C9.9002 15.873 9.5959 15.7314 9.49683 15.4554C8.78209 13.4669 9.10761 11.5633 10.3885 10.2258C11.6977 8.86 13.7782 8.31509 15.5828 8.87415C17.2316 9.38367 18.3993 10.7424 18.8168 12.6248C20.2604 12.9503 21.4139 14.0401 21.8739 15.5474C22.3764 17.1892 21.9164 18.8735 20.6921 19.9491C19.8854 20.6709 18.8593 21.0672 17.7907 21.0672Z" fill="#64748B"/>
<path d="M9.94972 21.0671C9.93557 21.0671 9.92142 21.0671 9.91434 21.0671C7.87626 20.9255 6.94922 19.3262 6.94922 17.9038C6.94922 16.4814 7.87626 14.8891 9.91434 14.7405C10.438 14.7335 10.9546 14.8538 11.4075 15.0802C11.6694 15.2147 11.7684 15.5331 11.641 15.795C11.5066 16.0568 11.1881 16.1559 10.9263 16.0285C10.6291 15.8728 10.2894 15.8091 9.96388 15.802C8.62639 15.9011 8.01779 16.9272 8.01779 17.9038C8.01779 18.8804 8.62639 19.9065 9.99926 20.0056C10.2894 20.0268 10.5088 20.2816 10.4875 20.5717C10.4592 20.8548 10.2257 21.0671 9.94972 21.0671Z" fill="#64748B"/>
<path d="M17.2035 13.9127C17.0124 13.9127 16.8213 13.8065 16.7293 13.6155C16.5949 13.3536 16.701 13.0352 16.9699 12.9007C17.4016 12.6813 17.8899 12.561 18.3711 12.554C18.6471 12.5681 18.9089 12.7804 18.9089 13.0776C18.916 13.3678 18.6825 13.6155 18.3853 13.6155C18.0597 13.6225 17.7342 13.7004 17.437 13.849C17.3662 13.8985 17.2813 13.9127 17.2035 13.9127Z" fill="#64748B"/>
<path d="M15.1864 21.0671H12.3557C12.0656 21.0671 11.825 20.8265 11.825 20.5364C11.825 20.2462 12.0656 20.0056 12.3557 20.0056H15.1864C15.4765 20.0056 15.7171 20.2462 15.7171 20.5364C15.7171 20.8265 15.4836 21.0671 15.1864 21.0671Z" fill="#64748B"/>
<path d="M13.7712 22.4825C13.4811 22.4825 13.2405 22.2419 13.2405 21.9517V19.1211C13.2405 18.8309 13.4811 18.5903 13.7712 18.5903C14.0614 18.5903 14.302 18.8309 14.302 19.1211V21.9517C14.302 22.2419 14.0684 22.4825 13.7712 22.4825Z" fill="#64748B"/>
</svg>
