<svg width="146" height="146" viewBox="0 0 146 146" fill="none" xmlns="http://www.w3.org/2000/svg">
<g clip-path="url(#clip0_1486_5223)">
<rect width="146" height="146" rx="73" fill="#EEF3FE"/>
<g clip-path="url(#clip1_1486_5223)">
<path d="M109.918 59.4658L144.926 130.398C146.442 133.488 143.894 136.996 140.488 136.51L62.2037 125.166L109.918 59.4658Z" fill="#518AF5"/>
<path d="M108.233 57.3801C101.934 52.806 85.9648 64.0571 72.5636 82.5101C59.1625 100.963 53.4045 119.63 59.7028 124.204C66.0011 128.778 81.9707 117.527 95.3719 99.0742C108.773 80.6212 114.531 61.9541 108.233 57.3801Z" fill="#B9D0FB"/>
<path d="M114.938 69.6353L121.721 83.3559C121.08 86.7372 120.212 90.1045 119.092 93.4617C116.669 100.756 113.128 107.952 108.541 114.863C107.793 115.983 106.937 117.221 105.996 118.547C103.51 121.97 100.287 125.961 96.3358 130.093L86.2938 128.656C93.5908 121.941 98.7179 115.119 101.828 110.42C110.575 97.2159 114.983 83.498 114.938 69.6353Z" fill="#B9D0FB"/>
<path d="M126.231 92.5543L131.577 103.373C129.168 110.44 125.69 117.401 121.247 124.114C120.498 125.234 119.643 126.471 118.701 127.797C117.571 129.354 116.286 131.035 114.837 132.792L105.384 131.437C109.386 126.996 112.411 122.861 114.533 119.671C120.388 110.806 124.309 101.747 126.231 92.5543Z" fill="#B9D0FB"/>
<path d="M135.925 112.149L140.61 121.645C138.733 125.598 136.503 129.532 133.977 133.338C133.553 133.981 133.109 134.652 132.595 135.359L123.577 134.061C125.006 132.182 126.228 130.411 127.24 128.898C130.897 123.386 133.791 117.795 135.925 112.149Z" fill="#B9D0FB"/>
<path d="M68.4763 103.617L65.4968 107.72C58.989 102.994 51.2772 100.937 42.544 101.596C35.9138 102.097 31.1421 104.056 31.0971 104.088L29.1297 99.4176C29.3418 99.3339 34.5542 97.1553 41.9698 96.5551C51.883 95.759 61.0348 98.2132 68.4763 103.617Z" fill="#7573F1"/>
<path d="M95.646 70.5167L92.6664 74.6194C84.659 68.8041 79.6136 59.5649 78.1158 47.9104C76.9928 39.2508 78.2016 32.3494 78.2567 32.0653L83.2295 32.9541L80.7328 32.5238L83.2295 32.9541C83.2167 33.0312 82.113 39.4903 83.1443 47.4133C84.4985 57.6886 88.7138 65.4822 95.646 70.5167Z" fill="#518AF5"/>
<path d="M61.7057 93.6263C58.4152 92.2954 57.2541 90.0261 56.393 88.3851C55.6722 86.9972 55.2358 86.1401 53.6838 85.51C52.1318 84.8799 51.227 85.1736 49.731 85.6862C47.9742 86.2903 45.5734 87.0967 42.283 85.7658C38.9925 84.435 37.8314 82.1656 36.9703 80.5247C36.2495 79.1368 35.8131 78.2797 34.2611 77.6496C32.7091 77.0195 31.8043 77.3132 30.3084 77.8258C28.5515 78.4299 26.1507 79.2363 22.8603 77.9054L24.7468 73.225C26.2988 73.8551 27.2036 73.5614 28.6995 73.0487C30.4564 72.4446 32.8571 71.6383 36.1476 72.9691C39.4381 74.2999 40.5991 76.5693 41.4602 78.2103C42.1811 79.5981 42.6174 80.4553 44.1694 81.0854C45.7215 81.7155 46.6263 81.4218 48.1222 80.9091C49.8791 80.3051 52.2798 79.4987 55.5703 80.8295C58.8608 82.1603 60.0218 84.4297 60.8829 86.0707C61.6038 87.4585 62.0401 88.3157 63.5921 88.9458L61.7057 93.6263Z" fill="#FE7122"/>
<path d="M71.8443 70.8873L67.8845 74.0189C65.6021 71.1512 65.7122 68.5301 65.8086 66.612C65.8704 64.9499 65.9147 63.9664 64.8121 62.539C63.7133 61.136 62.7311 60.9413 61.079 60.6274C59.1955 60.2752 56.6345 59.755 54.3521 56.8874C52.0697 54.0197 52.1797 51.3985 52.2517 49.4844C52.3135 47.8222 52.3579 46.8388 51.2552 45.4113C50.1565 44.0083 49.1498 43.8175 47.5221 43.4998C45.6387 43.1476 43.0776 42.6274 40.7952 39.7597L44.7549 36.6282C45.8537 38.0312 46.8604 38.222 48.488 38.5397C50.3715 38.8919 52.9326 39.4121 55.215 42.2798C57.4974 45.1474 57.3873 47.7686 57.3154 49.6828C57.2535 51.3449 57.2092 52.3284 58.3118 53.7558C59.4106 55.1588 60.3928 55.3535 62.0449 55.6674C63.9284 56.0196 66.4894 56.5397 68.7719 59.4074C71.0543 62.2751 70.9442 64.8963 70.8478 66.8143C70.7615 68.4803 70.7211 69.4882 71.8443 70.8873Z" fill="#E35BAD"/>
<path d="M67.1404 39.1622C66.9223 37.7865 65.6301 36.8481 64.2544 37.0663C62.8786 37.2845 61.9402 38.5766 62.1584 39.9523C62.3766 41.3281 63.6687 42.2665 65.0445 42.0483C66.4202 41.8301 67.3586 40.538 67.1404 39.1622Z" fill="#B9D0FB"/>
<path d="M98.0613 45.672C97.8431 44.2962 96.551 43.3579 95.1753 43.576C93.7995 43.7942 92.8611 45.0864 93.0793 46.4621C93.2975 47.8379 94.5896 48.7763 95.9654 48.5581C97.3411 48.3399 98.2795 47.0477 98.0613 45.672Z" fill="#FFB992"/>
<path d="M73.2225 26.0548C73.0043 24.6791 71.7121 23.7407 70.3364 23.9589C68.9607 24.177 68.0223 25.4692 68.2404 26.8449C68.4586 28.2207 69.7508 29.1591 71.1265 28.9409C72.5023 28.7227 73.4407 27.4306 73.2225 26.0548Z" fill="#518AF5"/>
<path d="M41.9886 51.8634C41.7704 50.4877 40.4783 49.5493 39.1025 49.7675C37.7268 49.9856 36.7884 51.2778 37.0066 52.6535C37.2247 54.0293 38.5169 54.9677 39.8926 54.7495C41.2684 54.5313 42.2068 53.2392 41.9886 51.8634Z" fill="#B9D0FB"/>
<path d="M29.4244 91.5118C29.2062 90.1361 27.914 89.1977 26.5383 89.4159C25.1626 89.6341 24.2242 90.9262 24.4423 92.302C24.6605 93.6777 25.9527 94.6161 27.3284 94.3979C28.7042 94.1797 29.6426 92.8876 29.4244 91.5118Z" fill="#E35BAD"/>
<path d="M48.2435 70.7755C48.0253 69.3998 46.7331 68.4614 45.3574 68.6796C43.9816 68.8977 43.0433 70.1899 43.2614 71.5656C43.4796 72.9414 44.7718 73.8798 46.1475 73.6616C47.5233 73.4434 48.4616 72.1513 48.2435 70.7755Z" fill="#FE7122"/>
<path d="M82.1617 84.799C81.9435 83.4232 80.6514 82.4848 79.2756 82.703C77.8999 82.9212 76.9615 84.2133 77.1797 85.5891C77.3978 86.9648 78.69 87.9032 80.0657 87.685C81.4415 87.4668 82.3799 86.1747 82.1617 84.799Z" fill="#518AF5"/>
<path d="M45.667 117.375C45.4489 115.999 44.1567 115.061 42.781 115.279C41.4052 115.497 40.4668 116.789 40.685 118.165C40.9032 119.541 42.1953 120.479 43.5711 120.261C44.9468 120.043 45.8852 118.751 45.667 117.375Z" fill="#F7C9E3"/>
</g>
</g>
<defs>
<clipPath id="clip0_1486_5223">
<rect width="146" height="146" rx="73" fill="white"/>
</clipPath>
<clipPath id="clip1_1486_5223">
<rect width="122.349" height="113.224" fill="white" transform="translate(34.1641 153.574) rotate(-99.0116)"/>
</clipPath>
</defs>
</svg>
