<svg width="81" height="82" viewBox="0 0 81 82" fill="none" xmlns="http://www.w3.org/2000/svg">
<path d="M31.1047 4.05565C31.5349 1.76208 34.4415 1.00574 35.935 2.7987L49.3217 18.8687C50.6509 20.4643 52.7038 21.2694 54.7633 21.0028L75.5054 18.3174C77.8197 18.0178 79.4372 20.5484 78.1935 22.5229L67.0467 40.2202C65.9399 41.9775 65.8086 44.1786 66.6986 46.055L75.6623 64.9521C76.6624 67.0605 74.7555 69.3808 72.4933 68.8082L52.2176 63.6757C50.2043 63.1661 48.0703 63.7214 46.5608 65.1477L31.3585 79.5122C29.6624 81.1149 26.8663 80.0183 26.7119 77.6899L25.3276 56.8205C25.1901 54.7483 24.0025 52.8903 22.1796 51.8955L3.82043 41.8761C1.77205 40.7582 1.95091 37.7602 4.11765 36.8938L23.5378 29.1282C25.4661 28.3572 26.8662 26.6536 27.249 24.6124L31.1047 4.05565Z" stroke="#F8C741" stroke-width="3.30996"/>
</svg>
