<svg width="86" height="82" viewBox="0 0 86 82" fill="none" xmlns="http://www.w3.org/2000/svg">
<path d="M40.5044 4.18689C41.4983 2.07559 44.5017 2.07559 45.4956 4.1869L54.7528 23.8515C55.6374 25.7304 57.4213 27.0265 59.4816 27.2871L81.0444 30.0146C83.3595 30.3074 84.2876 33.1638 82.5868 34.7615L66.7453 49.6423C65.2316 51.0642 64.5502 53.1614 64.939 55.2014L69.0083 76.5516C69.4452 78.8439 67.0155 80.6093 64.9704 79.4854L45.9226 69.0177C44.1025 68.0175 41.8975 68.0175 40.0774 69.0177L21.0296 79.4854C18.9846 80.6092 16.5548 78.8439 16.9917 76.5516L21.061 55.2014C21.4498 53.1614 20.7684 51.0642 19.2547 49.6423L3.41325 34.7615C1.71241 33.1638 2.6405 30.3074 4.95562 30.0146L26.5184 27.2871C28.5787 27.0265 30.3626 25.7304 31.2472 23.8514L40.5044 4.18689Z" stroke="#F8C741" stroke-width="3.30996"/>
</svg>
