<svg width="90" height="91" viewBox="0 0 90 91" fill="none" xmlns="http://www.w3.org/2000/svg">
<path d="M59.5673 3.1061C61.3732 1.62817 64.0842 2.92087 64.0725 5.2544L63.9538 29.1188C63.9435 31.1955 64.9959 33.1333 66.7434 34.2553L86.8251 47.1491C88.7888 48.4098 88.3971 51.3876 86.1741 52.0976L63.4411 59.3592C61.4628 59.9912 59.9451 61.5908 59.418 63.5996L53.3609 86.6828C52.7686 88.9399 49.8156 89.4876 48.4534 87.5929L34.5223 68.2164C33.31 66.5302 31.3196 65.5811 29.2463 65.7005L5.42107 67.073C3.09138 67.2072 1.65802 64.5679 3.03902 62.6869L17.1622 43.45C18.3912 41.7759 18.6788 39.5897 17.9245 37.6548L9.25687 15.4198C8.40932 13.2456 10.4765 11.0668 12.6922 11.7989L35.3519 19.2863C37.3238 19.9379 39.4919 19.5358 41.0991 18.2205L59.5673 3.1061Z" stroke="#F8C741" stroke-width="3.30996"/>
</svg>
