<svg width="36" height="32" viewBox="0 0 36 32" fill="none" xmlns="http://www.w3.org/2000/svg">
<g clip-path="url(#clip0_886_2727)">
<rect width="36" height="32" rx="6" fill="#518AF5"/>
<ellipse cx="17.3769" cy="10.8632" rx="12.7204" ry="8.86322" fill="black"/>
<circle cx="27.6354" cy="18.9037" r="3.03647" fill="#ECBC8F" stroke="black" stroke-width="0.164134"/>
<circle cx="27.7172" cy="18.8233" r="2.29787" fill="#E9C7A8" stroke="black" stroke-width="0.164134"/>
<path d="M26.7673 17.8027C27.1126 17.8027 27.4514 17.9737 27.6892 18.2203C28.0405 18.5846 28.1194 18.9175 28.0323 19.4398" stroke="#65482D" stroke-width="0.328267" stroke-linecap="round"/>
<path d="M27.3254 19.291C27.3254 19.5629 27.3565 19.9669 27.6066 20.1261C27.729 20.204 28.0085 20.2212 28.1522 20.2212C28.4635 20.2212 28.6373 20.0535 28.8881 19.8863" stroke="#65482D" stroke-width="0.328267" stroke-linecap="round"/>
<circle cx="3.11854" cy="3.11854" r="3.03647" transform="matrix(0 -1 -1 0 10.237 21.3672)" fill="#ECBC8F" stroke="black" stroke-width="0.164134"/>
<circle cx="2.37994" cy="2.37994" r="2.29787" transform="matrix(0 -1 -1 0 9.58044 20.5488)" fill="#E9C7A8" stroke="black" stroke-width="0.164134"/>
<path d="M8.21906 19.1172C8.21906 18.7719 8.04811 18.4331 7.80152 18.1953C7.43718 17.844 7.10432 17.7651 6.58198 17.8522" stroke="#65482D" stroke-width="0.328267" stroke-linecap="round"/>
<path d="M6.73102 18.5586C6.45912 18.5586 6.0551 18.5276 5.89594 18.2775C5.81804 18.1551 5.80086 17.8755 5.80086 17.7318C5.80086 17.4205 5.96855 17.2467 6.13572 16.9959" stroke="#65482D" stroke-width="0.328267" stroke-linecap="round"/>
<circle cx="17.3767" cy="17.8384" r="10.1763" fill="#DAA06A" stroke="black" stroke-width="0.164134"/>
<path fill-rule="evenodd" clip-rule="evenodd" d="M16.7184 7.60477C16.936 7.59098 17.1555 7.58398 17.3767 7.58398C20.9495 7.58398 24.0957 9.4105 25.9325 12.1807C25.1398 12.4986 24.2743 12.6736 23.3679 12.6736C20.1924 12.6736 17.5183 10.5264 16.7184 7.60477Z" fill="black"/>
<path fill-rule="evenodd" clip-rule="evenodd" d="M18.3397 7.62854C17.3547 10.2862 14.7969 12.1803 11.7966 12.1803C10.8715 12.1803 9.98837 12.0002 9.18048 11.6731C11.0527 9.18955 14.0274 7.58398 17.3772 7.58398C17.7018 7.58398 18.0228 7.59906 18.3397 7.62854Z" fill="black"/>
<circle cx="21.3979" cy="16.9402" r="1.80547" fill="white"/>
<path d="M22.3824 17.1858C22.3824 17.5031 21.9415 17.7603 21.3976 17.7603C20.8538 17.7603 20.4128 17.5031 20.4128 17.1858C20.4128 16.8685 20.8538 16.6113 21.3976 16.6113C21.9415 16.6113 22.3824 16.8685 22.3824 17.1858Z" fill="#402915"/>
<path d="M22.0573 17.0269C22.0563 17.2528 21.7246 17.4345 21.3164 17.4327C20.9081 17.4309 20.578 17.2463 20.579 17.0204C20.58 16.7945 20.9117 16.6128 21.3199 16.6146C21.7282 16.6164 22.0583 16.801 22.0573 17.0269Z" fill="black"/>
<circle cx="22.0137" cy="17.3909" r="0.123361" fill="white"/>
<mask id="path-18-inside-1_886_2727" fill="white">
<path d="M23.3675 17.1025C23.4582 17.1025 23.5323 17.0289 23.5253 16.9385C23.5081 16.7145 23.4555 16.4942 23.3692 16.2859C23.262 16.0271 23.1048 15.7918 22.9067 15.5937C22.7085 15.3956 22.4733 15.2384 22.2144 15.1312C21.9556 15.0239 21.6781 14.9687 21.3979 14.9688C21.1177 14.9688 20.8402 15.0239 20.5814 15.1312C20.3225 15.2384 20.0873 15.3956 19.8891 15.5937C19.691 15.7918 19.5338 16.0271 19.4266 16.2859C19.3403 16.4942 19.2877 16.7145 19.2705 16.9385C19.2635 17.0289 19.3376 17.1025 19.4283 17.1025L21.3979 17.1025H23.3675Z"/>
</mask>
<path d="M23.3675 17.1025C23.4582 17.1025 23.5323 17.0289 23.5253 16.9385C23.5081 16.7145 23.4555 16.4942 23.3692 16.2859C23.262 16.0271 23.1048 15.7918 22.9067 15.5937C22.7085 15.3956 22.4733 15.2384 22.2144 15.1312C21.9556 15.0239 21.6781 14.9687 21.3979 14.9688C21.1177 14.9688 20.8402 15.0239 20.5814 15.1312C20.3225 15.2384 20.0873 15.3956 19.8891 15.5937C19.691 15.7918 19.5338 16.0271 19.4266 16.2859C19.3403 16.4942 19.2877 16.7145 19.2705 16.9385C19.2635 17.0289 19.3376 17.1025 19.4283 17.1025L21.3979 17.1025H23.3675Z" fill="#FBA85C" stroke="black" stroke-width="0.328267" mask="url(#path-18-inside-1_886_2727)"/>
<circle cx="13.6839" cy="16.9402" r="1.80547" fill="white"/>
<path d="M14.6685 17.1858C14.6685 17.5031 14.2275 17.7603 13.6837 17.7603C13.1398 17.7603 12.6989 17.5031 12.6989 17.1858C12.6989 16.8685 13.1398 16.6113 13.6837 16.6113C14.2275 16.6113 14.6685 16.8685 14.6685 17.1858Z" fill="#402915"/>
<path d="M14.3433 17.0269C14.3423 17.2528 14.0106 17.4345 13.6024 17.4327C13.1942 17.4309 12.864 17.2463 12.865 17.0204C12.866 16.7945 13.1977 16.6128 13.606 16.6146C14.0142 16.6164 14.3443 16.801 14.3433 17.0269Z" fill="black"/>
<circle cx="14.2998" cy="17.3909" r="0.123361" fill="white"/>
<mask id="path-23-inside-2_886_2727" fill="white">
<path d="M15.6535 17.1025C15.7442 17.1025 15.8183 17.0289 15.8113 16.9385C15.7941 16.7145 15.7415 16.4942 15.6552 16.2859C15.548 16.0271 15.3908 15.7918 15.1927 15.5937C14.9946 15.3956 14.7593 15.2384 14.5005 15.1312C14.2416 15.0239 13.9641 14.9687 13.6839 14.9688C13.4037 14.9688 13.1262 15.0239 12.8674 15.1312C12.6085 15.2384 12.3733 15.3956 12.1751 15.5937C11.977 15.7918 11.8198 16.0271 11.7126 16.2859C11.6263 16.4942 11.5737 16.7145 11.5565 16.9385C11.5495 17.0289 11.6237 17.1025 11.7143 17.1025L13.6839 17.1025H15.6535Z"/>
</mask>
<path d="M15.6535 17.1025C15.7442 17.1025 15.8183 17.0289 15.8113 16.9385C15.7941 16.7145 15.7415 16.4942 15.6552 16.2859C15.548 16.0271 15.3908 15.7918 15.1927 15.5937C14.9946 15.3956 14.7593 15.2384 14.5005 15.1312C14.2416 15.0239 13.9641 14.9687 13.6839 14.9688C13.4037 14.9688 13.1262 15.0239 12.8674 15.1312C12.6085 15.2384 12.3733 15.3956 12.1751 15.5937C11.977 15.7918 11.8198 16.0271 11.7126 16.2859C11.6263 16.4942 11.5737 16.7145 11.5565 16.9385C11.5495 17.0289 11.6237 17.1025 11.7143 17.1025L13.6839 17.1025H15.6535Z" fill="#FBA85C" stroke="black" stroke-width="0.328267" mask="url(#path-23-inside-2_886_2727)"/>
<path d="M17.5055 22.3728C17.5055 21.9994 18.6884 21.9298 18.8869 22.1504C19.2019 22.5003 18.9539 22.9251 18.6411 23.2157C18.433 23.409 17.729 23.5428 17.9621 23.4762C18.2272 23.4004 18.6762 23.2157 18.8343 23.3211C19.1153 23.5085 19.3904 23.9676 19.3464 24.3191C19.2523 25.072 17.2948 25.1125 17.2948 24.3747" stroke="black" stroke-width="0.328267" stroke-linecap="round"/>
<path d="M19.5531 14.3323C20.8235 13.9018 22.1306 13.7553 23.505 14.0989" stroke="#422811" stroke-width="0.492401" stroke-linecap="round"/>
<path d="M14.8328 14.2268C13.9301 14.1448 11.4681 13.8986 10.4833 14.8834" stroke="#422811" stroke-width="0.492401" stroke-linecap="round"/>
<path d="M6.62616 42.5401L13.0274 27.1936C16.4742 28.6708 19.7569 28.3425 22.5471 26.6191L31 42.5401H6.62616Z" fill="#F8D647" stroke="black" stroke-width="0.164134"/>
</g>
<defs>
<clipPath id="clip0_886_2727">
<rect width="36" height="32" rx="6" fill="white"/>
</clipPath>
</defs>
</svg>
