<svg width="377" height="403" viewBox="0 0 377 403" fill="none" xmlns="http://www.w3.org/2000/svg">
<rect x="4" y="4" width="369" height="395" rx="21" fill="#6296F6" stroke="#0E357E" stroke-width="8"/>
<rect x="32" y="33" width="313" height="338" rx="13" fill="white"/>
<path d="M189.36 309.605C233.189 309.605 268.72 304.458 268.72 298.109C268.72 291.76 233.189 286.613 189.36 286.613C145.531 286.613 110 291.76 110 298.109C110 304.458 145.531 309.605 189.36 309.605Z" fill="#804238"/>
<path d="M191.219 258.512C190.845 259.425 189.547 262.594 187.372 263.763C186.566 264.153 185.665 264.303 184.776 264.196C183.898 264.173 183.031 263.995 182.215 263.67C180.669 262.81 179.436 261.481 178.694 259.875C177.952 258.269 177.739 256.47 178.086 254.735C178.449 252.396 179.607 250.502 181.852 246.958C183.922 243.687 186.295 240.617 188.939 237.789C190.186 237.075 191.664 236.878 193.055 237.24C195.114 237.941 196.061 240.304 196.073 242.444V242.736C196.014 243.52 195.57 244.748 193.453 251.028C192.903 252.642 192.459 253.975 192.167 254.817C192.021 256.086 191.702 257.329 191.219 258.512Z" fill="#D86893"/>
<path d="M201.745 256.8C202.598 256.496 203.382 256.216 204.013 256.04C209.639 254.403 215.556 254.181 221.275 252.918C226.608 251.748 235.612 249.561 238.092 243.971C239.881 239.937 237.355 235.364 232.946 227.599C228.958 220.582 227.73 220.465 222.596 212.396C216.351 202.584 216.901 200.795 213.393 198.842C207.908 195.801 201.698 198.432 196.108 198.842C195.662 198.866 195.228 198.994 194.841 199.215C194.453 199.437 194.122 199.745 193.874 200.116C192.377 202.455 195.465 206.431 195.687 209.016C196.003 212.863 194.389 214.033 194.026 216.465C193.914 217.206 193.914 217.959 194.026 218.699C194.377 221.482 196.038 223.377 198.704 226.418C201.37 229.458 205.183 231.095 207.955 234.054C208.153 234.265 208.457 234.616 208.387 234.966C208.212 235.727 206.364 235.773 204.201 236.136C202.57 236.526 200.962 237.002 199.382 237.563C191.711 239.808 188.635 239.001 187.91 240.896C187.36 242.346 188.799 243.024 190.015 246.743C191.968 252.684 190.015 255.795 192.026 257.467C194.295 259.326 198.575 257.9 201.745 256.8Z" fill="#8195CC"/>
<path d="M194.038 216.408C193.926 217.148 193.926 217.901 194.038 218.642C194.389 221.425 196.049 223.319 198.716 226.36C198.938 226.617 199.184 226.863 199.418 227.097C199.633 223.093 200.248 219.12 201.254 215.238C202.248 211.368 202.751 209.391 204.166 207.239C207.311 202.363 211.545 201.287 211.182 199.72C210.984 198.843 209.335 197.895 202.657 197.813C201.102 197.708 198.903 198.585 196.096 198.772C195.651 198.797 195.217 198.925 194.829 199.146C194.441 199.367 194.11 199.676 193.863 200.047C192.366 202.386 195.453 206.362 195.675 208.947C196.003 212.829 194.389 213.999 194.038 216.408Z" fill="#7989B5"/>
<path d="M195.324 238.629C190.646 239.623 188.53 239.401 187.957 240.968C187.384 242.535 188.845 243.096 190.062 246.815C192.015 252.756 190.062 255.867 192.073 257.539C192.417 257.826 192.814 258.041 193.243 258.171C191.418 252.019 193.02 244.535 195.324 238.629Z" fill="#7989B5"/>
<path d="M188.354 190.679C188.121 190.319 187.814 190.013 187.453 189.781C187.092 189.549 186.686 189.397 186.261 189.334L181.583 188.48C181.466 191.24 181.349 194 181.174 196.772C181.474 197.142 181.653 197.595 181.688 198.07C182.039 203.496 182.53 208.899 182.858 214.326C183.01 216.84 183.127 219.354 183.174 221.869C185.025 212.899 186.31 203.822 187.021 194.69C187.685 194.29 188.184 193.666 188.429 192.931C188.673 192.195 188.647 191.397 188.354 190.679Z" fill="#7989B5"/>
<path d="M192.366 197.3C197.745 195.101 203.744 196.633 208.843 199.3C208.165 194.692 207.346 190.4 206.504 186.435C206.402 185.592 205.984 184.819 205.335 184.272C204.65 183.742 203.785 183.503 202.926 183.605L185.852 185.745C185.424 185.787 185.009 185.919 184.636 186.132C184.263 186.346 183.94 186.637 183.688 186.985C183.351 187.683 183.276 188.479 183.475 189.227C183.675 189.976 184.136 190.629 184.776 191.066C184.881 196.177 185.185 201.592 185.735 207.439C186.331 203.135 188.074 199.054 192.366 197.3Z" fill="#7989B5"/>
<path d="M142.02 242.513C141.634 243.448 140.289 246.758 138.021 247.986C137.179 248.383 136.243 248.537 135.319 248.43C134.401 248.407 133.494 248.221 132.641 247.881C131.02 246.984 129.728 245.592 128.954 243.909C128.18 242.226 127.964 240.34 128.337 238.525C128.723 236.034 129.928 234.104 132.267 230.421C134.422 227.009 136.897 223.81 139.658 220.866C140.955 220.123 142.491 219.917 143.938 220.293C146.09 221.03 147.072 223.474 147.084 225.719V226.012C147.084 226.842 146.569 228.117 144.347 234.666C143.786 236.35 143.318 237.73 143.014 238.607C142.869 239.949 142.534 241.264 142.02 242.513Z" fill="#D86893"/>
<path d="M185.127 251.735C180.542 254.074 175.619 253.021 173.303 252.519C172.067 252.235 170.858 251.844 169.69 251.349C163.211 248.858 158.58 246.671 155.773 245.361C144.757 240.356 142.909 241.198 141.108 238.181C139.061 234.766 139.716 230.813 140.102 228.474C140.324 227.164 141.541 219.832 145.493 218.826C147.365 218.358 148.23 219.715 154.253 221.902C155.422 222.346 156.943 222.779 159.878 223.656C168.789 226.287 173.245 227.621 174.449 226.825C177.291 224.942 174.087 219.516 175.408 207.634C176.227 200.208 176.753 195.437 179.537 190.209C181.408 186.701 184.214 183.193 183.197 179.24C182.928 178.152 182.168 176.211 183.08 175.182C183.415 174.902 183.809 174.703 184.232 174.597C184.656 174.492 185.097 174.484 185.524 174.574L202.353 177.942C202.792 178.017 203.208 178.194 203.567 178.458C203.926 178.722 204.219 179.065 204.423 179.462C204.724 180.269 204.755 181.151 204.513 181.978C204.27 182.804 203.767 183.53 203.078 184.046C201.254 196.255 200.096 206.149 199.382 212.967C198.662 222.596 196.551 232.07 193.114 241.093C191.266 245.759 189.231 249.642 185.127 251.735Z" fill="#8195CC"/>
<path d="M170.894 230.198C180.636 231.859 176.519 219.497 175.081 212.586C174.917 221.088 176.858 225.24 174.449 226.842C173.28 227.637 168.824 226.315 159.983 223.696C163.047 226.596 166.766 229.496 170.894 230.198Z" fill="#7989B5"/>
<path d="M177.666 246.066C179.607 248.639 185.431 248.616 188.425 249.259C188.9 248.755 189.341 248.219 189.746 247.657C185.662 247.745 181.588 247.208 177.666 246.066Z" fill="#7989B5"/>
<path d="M197.383 137.955L186.866 139.141L188.938 157.525L199.455 156.34L197.383 137.955Z" fill="#A8684F"/>
<path d="M198.248 145.539L197.395 137.949L186.869 139.119L187.396 143.797C190.93 144.814 194.574 145.399 198.248 145.539Z" fill="#774137"/>
<path d="M185.372 84.6172C184.634 84.7397 183.903 84.9077 183.185 85.1201C183.898 84.8882 184.63 84.72 185.372 84.6172Z" fill="#A8684F"/>
<path d="M214.164 126.911C212.059 135.015 203.242 141.67 194.962 141.997C192.4 142.384 189.8 142.458 187.22 142.219C179.127 141.05 169.678 135.963 169.584 126.794C169.569 125.318 169.881 123.856 170.497 122.514L169.619 119.789C169.124 119.932 168.594 119.882 168.134 119.649C167.693 119.299 167.386 118.808 167.267 118.257C167.147 117.707 167.222 117.132 167.479 116.631C166.632 116.108 165.966 115.336 165.573 114.421C164.778 112.386 165.877 110.27 166.52 108.866C168.719 103.978 167.058 103.685 169.035 98.7737C170.42 95.4862 172.449 92.5088 175.001 90.0165C177.554 87.5242 180.579 85.5672 183.899 84.2606H183.992C184.711 84.0451 185.441 83.8694 186.179 83.7344C187.317 83.5651 188.469 83.5102 189.617 83.5706C190.468 83.6118 191.315 83.7017 192.155 83.8396C205.709 85.5821 208.715 90.5875 209.498 92.33C210.387 94.2713 210.527 96.5517 212.855 103.463C213.319 104.798 213.679 106.166 213.931 107.556C214.265 109.486 214.387 111.447 214.293 113.404C214.845 113.868 215.19 114.533 215.252 115.251C215.231 115.903 214.997 116.53 214.585 117.035C214.173 117.54 213.606 117.895 212.972 118.047C213.498 119.672 215.147 123.122 214.164 126.911Z" fill="#A8684F"/>
<path d="M191.348 84.7942C190.514 84.6388 189.67 84.5372 188.822 84.4902C187.671 84.419 186.515 84.4621 185.372 84.6188C187.353 84.2425 189.393 84.3024 191.348 84.7942Z" fill="#A8684F"/>
<path d="M197.406 106.674C197.09 106.986 196.89 107.396 196.841 107.837C196.792 108.278 196.897 108.722 197.137 109.095C198.108 110.148 200.482 108.826 205.113 109.423C207.101 109.68 208.118 110.113 208.341 109.797C208.68 109.306 206.832 107.552 204.587 106.616C202.341 105.68 198.809 105.084 197.406 106.674Z" fill="#221817"/>
<path d="M181.49 108.407C181.874 108.643 182.164 109.006 182.311 109.432C182.458 109.858 182.453 110.323 182.297 110.746C181.583 111.985 178.975 111.213 174.59 112.827C172.695 113.517 171.806 114.172 171.514 113.903C171.222 113.634 172.485 111.377 174.473 109.974C176.461 108.57 179.782 107.179 181.49 108.407Z" fill="#221817"/>
<path d="M216.878 99.8847C217.916 104.37 217.64 109.059 216.083 113.392C215.17 115.731 213.463 118.889 212.867 118.678C212.668 118.596 212.633 118.257 212.586 117.602C212.434 115.532 212.223 114.503 212.223 114.035C212.223 111.942 209.487 98.189 202.271 95.9085C198.26 94.6455 197.547 98.4112 189.15 99.4637C181.396 100.458 177.876 97.7446 174.403 100.633C172.59 102.118 171.935 104.142 170.801 107.732C169.846 110.864 169.4 114.13 169.479 117.403C169.55 121.438 170.38 123.695 169.83 123.906C169.281 124.116 167.14 120.783 165.842 118.175C164.264 114.912 161.925 110.106 162.334 103.533C162.536 100.514 163.264 97.554 164.486 94.7858C165.941 91.3595 168.055 88.2523 170.707 85.6406C175.358 81.1164 181.433 78.3435 187.898 77.7935C190.474 77.6034 193.063 77.7965 195.582 78.3665C202.295 80.007 208.191 84.014 212.188 89.6519C214.426 92.7112 216.022 96.1921 216.878 99.8847Z" fill="#221817"/>
<g opacity="0.12">
<path d="M179.648 135.021C183.326 134.607 186.021 131.727 185.667 128.588C185.313 125.45 182.045 123.241 178.368 123.656C174.69 124.07 171.995 126.95 172.349 130.089C172.703 133.227 175.971 135.436 179.648 135.021Z" fill="#A1463D"/>
</g>
<g opacity="0.12">
<path d="M203.912 132.287C207.589 131.872 210.284 128.992 209.93 125.854C209.576 122.715 206.308 120.507 202.631 120.921C198.953 121.336 196.259 124.216 196.612 127.355C196.966 130.493 200.234 132.701 203.912 132.287Z" fill="#A1463D"/>
</g>
<path d="M169.573 121.411L169.491 121.025C169.471 120.894 169.439 120.765 169.397 120.639C169.397 120.546 169.245 120.639 169.245 120.639C169.234 120.768 169.234 120.897 169.245 121.025L169.315 121.411C169.374 121.668 169.421 121.926 169.503 122.171C169.508 122.184 169.517 122.194 169.528 122.202C169.54 122.209 169.553 122.213 169.567 122.213C169.581 122.213 169.594 122.209 169.605 122.202C169.617 122.194 169.626 122.184 169.631 122.171C169.629 121.917 169.609 121.663 169.573 121.411Z" fill="#774137"/>
<path d="M170.333 127.763C168.31 131.107 163.246 131.61 159.936 129.844C158.833 129.187 157.885 128.298 157.16 127.238C156.435 126.177 155.95 124.972 155.738 123.705C155.609 122.991 155.025 119.027 157.481 116.84C160.474 114.197 166.392 115.67 169.175 119.179C170.766 121.237 172.076 124.874 170.333 127.763Z" fill="#A8684F"/>
<path d="M166.24 126.075C165.831 127.058 163.223 127.362 161.387 126.321C160.783 125.963 160.262 125.481 159.858 124.906C159.455 124.331 159.179 123.678 159.048 122.988C158.863 122.336 158.854 121.647 159.02 120.99C159.186 120.333 159.522 119.731 159.995 119.246C160.527 118.798 161.191 118.536 161.885 118.5C162.58 118.464 163.267 118.656 163.843 119.047C164.778 119.865 164.018 120.976 165.012 123.339C165.69 125.081 166.497 125.455 166.24 126.075Z" fill="#774137"/>
<path d="M212.434 124.075C214.504 127.397 219.567 127.829 222.854 126.017C223.949 125.348 224.885 124.448 225.596 123.379C226.307 122.31 226.776 121.099 226.97 119.83C227.075 119.105 227.613 115.152 225.122 112.977C222.093 110.381 216.199 111.913 213.428 115.515C211.907 117.562 210.656 121.222 212.434 124.075Z" fill="#A8684F"/>
<path d="M216.492 122.339C216.913 123.321 219.533 123.59 221.357 122.526C221.948 122.157 222.453 121.665 222.838 121.084C223.223 120.503 223.48 119.846 223.591 119.158C223.766 118.505 223.765 117.816 223.588 117.163C223.412 116.51 223.066 115.915 222.585 115.439C222.051 114.996 221.386 114.741 220.693 114.713C219.999 114.686 219.316 114.888 218.749 115.287C217.813 116.118 218.585 117.217 217.697 119.591C217.03 121.333 216.258 121.684 216.492 122.339Z" fill="#774137"/>
<path d="M186.331 124.698C186.234 124.764 186.128 124.815 186.016 124.85H185.817C183.284 125.122 180.739 125.263 178.192 125.271H177.022C175.715 125.425 174.397 125.097 173.315 124.347C173.09 124.121 172.914 123.85 172.801 123.552C172.46 122.51 172.473 121.385 172.836 120.352C173.2 119.318 173.894 118.433 174.812 117.833C176.109 117.016 177.592 116.542 179.122 116.456C180.653 116.37 182.18 116.675 183.56 117.342C187.15 119.342 187.887 123.704 186.331 124.698Z" fill="white"/>
<path d="M186.015 124.848H185.817C183.284 125.12 180.739 125.261 178.192 125.269H177.022C176.939 125.115 176.879 124.949 176.847 124.778C176.647 124.018 176.621 123.222 176.771 122.451C176.921 121.68 177.242 120.952 177.712 120.322C178.562 119.496 179.663 118.977 180.841 118.848C182.019 118.719 183.206 118.987 184.214 119.609C185.064 120.149 185.704 120.961 186.031 121.913C186.358 122.865 186.353 123.9 186.015 124.848Z" fill="#221817"/>
<path d="M210.773 119.691C210.752 119.998 210.656 120.296 210.492 120.557C209.652 121.473 208.493 122.033 207.253 122.124C206.863 122.209 206.473 122.28 206.083 122.334H205.885C203.364 122.826 200.819 123.177 198.26 123.387H197.921C197.843 123.376 197.768 123.352 197.698 123.316C195.897 122.662 195.359 118.288 198.423 115.773C199.67 114.862 201.124 114.278 202.654 114.073C204.184 113.869 205.741 114.052 207.183 114.604C208.24 114.967 209.155 115.654 209.8 116.568C210.444 117.481 210.785 118.574 210.773 119.691Z" fill="white"/>
<path d="M207.253 122.128C206.863 122.214 206.473 122.284 206.083 122.339H205.885C203.364 122.83 200.819 123.182 198.26 123.391H197.921C197.695 122.266 197.814 121.1 198.263 120.044C198.712 118.988 199.469 118.092 200.435 117.474C201.195 117.057 202.039 116.814 202.905 116.764C203.77 116.713 204.636 116.856 205.44 117.181C206.175 117.751 206.733 118.516 207.052 119.389C207.371 120.262 207.436 121.208 207.241 122.117L207.253 122.128Z" fill="#221817"/>
<path d="M215.498 125.562C216.118 125.562 216.62 125.059 216.62 124.439C216.62 123.819 216.118 123.316 215.498 123.316C214.878 123.316 214.375 123.819 214.375 124.439C214.375 125.059 214.878 125.562 215.498 125.562Z" fill="#47BABC"/>
<path d="M167.152 129.445C167.772 129.445 168.275 128.942 168.275 128.322C168.275 127.702 167.772 127.199 167.152 127.199C166.532 127.199 166.029 127.702 166.029 128.322C166.029 128.942 166.532 129.445 167.152 129.445Z" fill="#47BABC"/>
<path opacity="0.5" d="M194.938 126.115C195.359 126.419 195.453 126.992 194.938 128.01C194.436 128.918 193.596 129.59 192.599 129.881C192.106 129.986 191.595 129.989 191.1 129.888C190.605 129.788 190.136 129.586 189.723 129.296C189.372 129.061 189.079 128.75 188.866 128.385C188.653 128.02 188.526 127.612 188.495 127.191C188.495 125.893 190.132 125.951 191.044 125.94C192.097 125.928 194.131 125.53 194.938 126.115Z" fill="#5B3631"/>
<path d="M207.884 68.4955L207.978 68.6592C208.528 69.6533 209.358 70.2029 209.837 71.2437C210.201 72.0048 210.427 72.8245 210.504 73.6645C210.478 74.4978 210.341 75.3239 210.095 76.1204C209.814 78.0617 210.481 78.5997 210.235 80.5059C210.189 81.5606 209.775 82.5658 209.066 83.3477C208.797 83.5768 208.477 83.7379 208.133 83.8173C207.789 83.8967 207.431 83.8921 207.089 83.8038C205.631 83.5141 204.118 83.6858 202.762 84.295C202.414 84.4423 202.082 84.6224 201.768 84.8329C200.692 85.6516 199.979 86.9965 198.552 87.1719C197.005 87.1892 195.479 86.8108 194.12 86.0726C193.072 85.6085 191.944 85.3504 190.798 85.3124C190.407 85.296 190.015 85.3234 189.629 85.3943C187.933 85.7451 187.22 87.0315 185.863 88.1542C184.709 89.204 183.267 89.8842 181.723 90.1072C180.18 90.2476 177.221 91.0662 175.619 88.9378C175.093 88.2478 174.987 86.5988 174.309 86.1544C173.14 85.3475 172.496 86.938 171.467 87.0783C171.174 87.0666 170.884 87.0195 170.602 86.938L169.257 86.6924C167.854 86.4585 167.386 87.359 166.333 87.0783C165.281 86.7976 165.561 86.0726 164.205 85.1838C162.848 84.295 162.38 84.7862 161.796 84.0962C161.024 83.1723 161.866 82.2133 161.515 79.7107C161.258 77.9214 160.731 77.7694 160.837 76.4596C160.92 75.2913 161.41 74.1892 162.222 73.3452C163.034 72.5011 164.117 71.9686 165.281 71.8402C165.199 71.6648 164.111 69.244 165.351 67.5482C165.686 67.105 166.121 66.7478 166.622 66.5058C167.122 66.2639 167.672 66.1442 168.228 66.1566C169.245 66.1566 171.303 66.7296 171.736 66.601C171.934 66.5351 172.12 66.4362 172.286 66.3086C172.414 66.215 172.683 65.9694 173.292 64.4959C174.251 62.157 174.227 61.1512 175.128 60.4963C175.425 60.2929 175.765 60.1608 176.122 60.1104C177.747 59.7713 178.461 61.0109 179.7 60.9174C181.127 60.8121 180.87 59.0813 182.764 58.2977C183.63 57.9619 184.58 57.9087 185.477 58.1457C186.577 58.4264 186.834 58.9527 188.378 59.4672C189.012 59.7903 189.73 59.9127 190.436 59.8181C191.43 59.5491 191.477 58.6486 192.447 58.6486C192.962 58.662 193.464 58.8157 193.898 59.093C195.394 59.8181 195.57 60.6484 196.342 60.7302C197.114 60.8121 197.231 59.7596 198.33 59.6309C199.008 59.6172 199.671 59.8313 200.213 60.2391C201.499 61.0694 201.663 62.1219 203.265 63.3265C203.628 63.5954 203.955 63.7825 204.282 63.993C205.16 64.5193 206.013 64.6363 206.621 65.7823C207.124 66.5776 207.417 67.595 207.884 68.4955Z" fill="#221817"/>
<path d="M205.943 82.8454C205.826 82.6583 205.686 82.4829 205.557 82.3075L205.358 82.0619C205.019 81.6993 204.68 81.3485 204.329 81.0211L203.756 80.5299C203.568 80.3365 203.355 80.1675 203.125 80.027H203.043L202.762 79.8516C202.573 79.7425 202.378 79.6449 202.177 79.5592C201.987 79.4712 201.792 79.3932 201.593 79.3253H201.406L200.318 79.0447C199.429 78.8342 198.552 78.612 197.652 78.4482C196.751 78.2845 195.745 78.1442 194.786 78.0623C194.295 78.0623 193.804 77.9921 193.313 77.9688H192.143C190.183 77.9825 188.227 78.1624 186.296 78.5067C185.325 78.6821 184.355 78.8926 183.408 79.1382L183.185 79.1967L182.905 79.2786L182.168 79.5008C181.747 79.6255 181.326 79.7658 180.905 79.9218C180.068 80.2026 179.248 80.5306 178.449 80.9041C178.04 81.1029 177.63 81.3251 177.28 81.559L176.975 81.7344L176.484 82.0619C175.736 82.5964 175.035 83.1951 174.391 83.8512C174.215 84.018 174.047 84.1936 173.888 84.3774L173.783 84.4944L173.607 84.7049C173.327 85.044 173.058 85.4066 172.8 85.7808C172.542 86.1574 172.303 86.5478 172.087 86.9503L171.947 87.2075C173.054 85.9768 174.383 84.9652 175.864 84.2254C178.092 83.1304 180.45 82.3247 182.881 81.828C186.486 80.9113 190.18 80.3936 193.898 80.2843C197.54 80.0971 201.173 80.7869 204.493 82.2958C205.146 82.6244 205.764 83.0161 206.341 83.4652C206.177 83.1846 206.06 83.0092 205.943 82.8454Z" fill="#47BABC"/>
<path d="M230.069 132.697C227.309 135.48 220.866 141.339 220.971 141.456C221.076 141.573 223.567 139.363 225.836 137.387C222.409 139.971 219.579 141.889 217.591 143.175C216.699 143.666 215.887 144.289 215.182 145.023C212.516 148.052 212.048 153.56 214.188 155.057C215.533 155.993 217.591 155.139 221.614 153.467C223.766 152.538 225.839 151.435 227.812 150.169C230.096 148.797 232.288 147.278 234.373 145.62C241.39 139.842 244.898 132.674 246.839 128.697C247.858 126.583 248.744 124.407 249.494 122.183C251.658 115.798 254.078 108.641 251.096 102.151C250.268 100.399 249.127 98.8136 247.728 97.4727C243.553 115.939 236.314 126.429 230.069 132.697Z" fill="#A8684F"/>
<path d="M263.294 100.628C263.432 100.739 263.547 100.878 263.631 101.034C263.716 101.191 263.768 101.363 263.785 101.54C263.89 102.943 261.364 103.516 258.312 106.101C256.335 107.773 256.768 108.066 255.002 109.34C253.646 110.323 251.716 111.679 249.307 111.41C248.224 111.261 247.19 110.86 246.29 110.241C245.559 109.735 244.922 109.106 244.407 108.381C242.384 105.54 244.161 103.703 242.524 99.6922C241.939 98.2655 240.945 96.5931 241.354 95.0143C241.427 94.6348 241.645 94.2989 241.963 94.0788C242.828 93.5759 244.149 94.5232 244.301 94.5933C246.219 95.985 246.044 98.8385 246.488 98.8268C247.143 98.8268 248.278 92.3363 249.623 90.8043C249.844 90.5333 250.155 90.3507 250.5 90.2897C251.166 90.2897 251.236 91.0615 251.272 91.5644C251.318 92.1131 251.318 92.6647 251.272 93.2134C251.131 94.5413 250.921 95.8607 250.64 97.1662C250.57 97.5404 250.5 97.9029 250.418 98.3356C250.418 98.476 250.418 98.6163 250.324 98.7449C250.323 98.849 250.303 98.9519 250.266 99.049C250.476 98.7216 250.839 98.207 251.26 97.5638L252.429 95.8798C252.57 95.6692 253.002 95.0027 253.365 94.4179C254.873 91.927 255.131 90.9095 255.856 90.5002C256.024 90.3817 256.219 90.3068 256.423 90.2823C256.627 90.2578 256.834 90.2844 257.025 90.3599L257.306 90.5236C257.456 90.6677 257.579 90.8381 257.669 91.0265C258.113 92.0673 255.704 96.4762 255.704 96.4762C254.604 98.511 253.798 99.9846 254.031 100.172C254.265 100.359 255.599 99.0022 255.903 98.6514C258.382 96.0435 259.002 93.8449 260.475 93.8332C260.654 93.8241 260.834 93.852 261.001 93.915C261.125 93.948 261.238 94.0124 261.329 94.1022C261.454 94.3041 261.53 94.5323 261.551 94.7688C261.633 95.3301 260.557 97.1077 259.119 99.3063C257.68 101.505 256.885 102.546 257.084 102.815C257.376 103.13 261.691 99.3765 263.294 100.628Z" fill="#A8684F"/>
<path d="M214.55 141.914C216.103 141.426 217.745 141.29 219.357 141.516C220.341 141.625 221.267 142.033 222.012 142.686C222.381 143.05 222.682 143.478 222.9 143.949C224.304 146.755 225.005 148.159 225.146 149.48C225.364 151.146 225.083 152.839 224.339 154.345C223.966 155.032 223.502 155.666 222.959 156.228C221.637 157.666 220.924 157.737 219.123 159.175C217.925 160.087 216.855 161.157 215.942 162.356C214.469 164.379 214.855 165.081 214.036 165.537C211.358 167.022 203.628 161.444 203.511 155.83C203.506 155.792 203.506 155.752 203.511 155.713C203.511 152.544 204.996 151.433 206.668 147.527C207.428 145.785 207.101 146.03 207.475 145.446C208.843 143.364 211.334 142.732 214.55 141.914Z" fill="#D86893"/>
<path d="M216.796 194.086C217.965 199.29 219.918 200.623 219.135 202.272C218.351 203.921 216.036 204.248 205.23 203.968C197.839 203.781 194.143 203.687 191.991 203.289C185.852 202.12 174.449 198.74 174.356 194.133C174.356 192.016 176.695 191.794 178.765 188.367C181.583 183.771 180.238 178.602 179.244 169.819C178.075 159.891 174.461 154.616 177.431 151.622C178.856 150.283 180.586 149.311 182.472 148.792C184.016 148.371 185.243 148.944 186.811 148.056C187.286 147.687 187.87 147.486 188.471 147.483C189.196 147.564 189.489 148.067 190.167 148.57C191.322 149.335 192.708 149.67 194.085 149.517C195.266 149.38 196.382 148.905 197.301 148.149C198.318 147.342 198.131 146.98 199.02 146.488C200.019 146.059 201.103 145.863 202.189 145.915C202.902 145.915 202.879 145.915 203.943 145.915C204.586 145.915 205.113 145.857 206.165 145.787C206.867 145.787 207.908 145.342 208.504 145.6C209.391 145.873 210.195 146.363 210.843 147.026C212.597 149.015 211.428 151.482 211.533 155.365C211.533 155.833 212.246 157.037 213.007 159.236C213.724 161.431 214.225 163.691 214.504 165.983C215.322 171.726 215.486 178.181 215.977 187.689C216.054 189.842 216.328 191.983 216.796 194.086Z" fill="#D86893"/>
<path d="M157.352 147.549C163.503 151.443 166.953 152.227 166.953 152.227C170.076 152.999 171.467 152.66 173.409 153.958C176.437 155.993 178.601 160.519 177.151 163.138C175.397 166.331 168.965 165.477 166.497 165.161C164.743 164.927 159.293 163.992 150.008 157.174C144.106 153.022 138.933 147.92 134.699 142.076C130.431 136.1 126.513 130.487 127.589 123.669C127.89 121.786 128.516 119.97 129.437 118.301C141.201 133.972 151.937 144.169 157.352 147.549Z" fill="#A8684F"/>
<path d="M139.845 131.141C139.354 130.591 138.874 129.972 138.371 129.457C136.152 132.062 133.09 133.808 129.717 134.392C130.033 135.012 130.384 135.632 130.746 136.24C134.334 135.811 137.606 133.977 139.845 131.141Z" fill="#74C5C3"/>
<path d="M178.765 150.473C175.549 148.134 170.695 150.145 169.69 150.894C169.336 151.165 168.996 151.454 168.672 151.759C168.269 152.048 167.928 152.414 167.666 152.835C167.117 153.948 166.977 155.219 167.269 156.425C167.737 160.694 168.029 160.519 167.947 161.852C167.783 164.191 166.836 164.775 167.362 165.886C167.889 166.997 169.222 167.383 171.338 167.956C174.356 168.775 174.625 168.167 177.186 168.892C179.039 169.496 180.829 170.279 182.53 171.231C184.705 172.342 184.939 172.681 185.325 172.494C187.302 171.535 184.366 161.431 183.583 159.174C182.963 157.372 182.18 155.63 181.244 153.97C180.648 152.656 179.807 151.47 178.765 150.473Z" fill="#D86893"/>
<path d="M197.465 134.746C196.35 136.003 194.903 136.919 193.29 137.389C189.945 138.149 187.138 135.95 185.829 134.921C184.846 134.149 183.01 132.489 183.244 131.939C183.583 131.144 187.466 134.407 192.378 133.892C197.055 133.401 200.049 129.705 200.482 130.384C200.915 131.062 199.079 133.225 197.465 134.746Z" fill="#A1463D"/>
<path d="M188.191 134.135C188.231 134.291 188.294 134.441 188.378 134.579C188.472 134.698 188.592 134.794 188.729 134.86C188.949 134.975 189.18 135.069 189.419 135.14C190.382 135.351 191.379 135.351 192.342 135.14C193.032 135.059 193.734 135.047 194.424 134.93C195.001 134.901 195.544 134.644 195.932 134.217C196.128 133.89 196.187 133.499 196.096 133.129C194.869 133.479 193.618 133.741 192.354 133.912C190.952 134.016 189.545 134.016 188.144 133.912C188.152 133.988 188.168 134.062 188.191 134.135Z" fill="white"/>
<path d="M114.877 125.354C114.694 125.663 114.631 126.03 114.701 126.383C115.052 127.739 117.625 127.482 121.332 128.979C123.741 129.938 123.426 130.359 125.507 131.002C127.098 131.505 129.378 132.172 131.565 131.166C132.547 130.672 133.398 129.95 134.044 129.061C134.561 128.351 134.957 127.561 135.214 126.722C136.231 123.377 133.974 122.219 134.255 117.869C134.36 116.337 134.781 114.431 133.857 113.051C133.767 112.883 133.644 112.735 133.495 112.617C133.347 112.498 133.175 112.411 132.992 112.361C132.021 112.162 131.051 113.53 130.969 113.53C129.577 115.46 130.653 118.115 130.232 118.208C129.6 118.407 126.478 112.618 124.724 111.577C124.422 111.407 124.074 111.338 123.73 111.378C123.075 111.53 123.274 112.337 123.391 112.829C123.54 113.362 123.731 113.882 123.964 114.384C124.502 115.553 125.133 116.723 125.8 117.892C125.987 118.232 126.186 118.559 126.373 118.886L126.583 119.249C126.583 119.319 126.677 119.459 126.747 119.506L125.32 118.407L123.753 117.261C123.554 117.109 122.923 116.606 122.408 116.162C120.198 114.29 119.625 113.437 118.806 113.238C118.607 113.179 118.396 113.169 118.192 113.21C117.989 113.25 117.798 113.34 117.637 113.472L117.426 113.717C117.326 113.902 117.262 114.105 117.239 114.314C117.146 115.483 120.818 118.863 120.818 118.863C122.513 120.442 123.741 121.6 123.578 121.833C123.414 122.067 121.707 121.202 121.321 120.991C118.14 119.296 116.865 117.401 115.473 117.857C115.299 117.907 115.136 117.991 114.994 118.103C114.892 118.177 114.809 118.273 114.748 118.384C114.696 118.615 114.696 118.854 114.748 119.085C114.842 119.647 116.432 120.98 118.49 122.594C120.549 124.207 121.625 124.933 121.519 125.237C121.297 125.88 116.023 123.681 114.877 125.354Z" fill="#A8684F"/>
<path opacity="0.25" d="M188.038 306.481C219.945 306.481 245.81 302.732 245.81 298.108C245.81 293.483 219.945 289.734 188.038 289.734C156.132 289.734 130.267 293.483 130.267 298.108C130.267 302.732 156.132 306.481 188.038 306.481Z" fill="#7989B5"/>
<path d="M177.642 122.606C178.043 122.606 178.367 122.282 178.367 121.881C178.367 121.481 178.043 121.156 177.642 121.156C177.242 121.156 176.917 121.481 176.917 121.881C176.917 122.282 177.242 122.606 177.642 122.606Z" fill="white"/>
<path d="M205.733 118.836C205.73 118.932 205.708 119.025 205.669 119.112C205.629 119.199 205.573 119.277 205.504 119.342C205.434 119.408 205.353 119.458 205.263 119.492C205.174 119.526 205.079 119.541 204.984 119.538C204.89 119.535 204.798 119.514 204.713 119.475C204.627 119.436 204.551 119.381 204.486 119.313C204.422 119.244 204.372 119.164 204.339 119.076C204.306 118.988 204.291 118.895 204.294 118.801C204.281 118.699 204.29 118.595 204.32 118.497C204.35 118.399 204.401 118.308 204.469 118.23C204.537 118.153 204.621 118.091 204.715 118.049C204.809 118.006 204.91 117.984 205.013 117.984C205.116 117.984 205.218 118.006 205.312 118.049C205.406 118.091 205.49 118.153 205.558 118.23C205.626 118.308 205.676 118.399 205.707 118.497C205.737 118.595 205.746 118.699 205.733 118.801V118.836Z" fill="white"/>
<path d="M209.522 116.043C208.329 114.757 206.697 113.964 204.949 113.821C201.745 113.482 197.757 114.815 196.424 117.996C196.047 118.787 195.9 119.668 195.999 120.538C196.098 121.409 196.44 122.234 196.985 122.919C196.985 122.919 197.114 122.919 197.079 122.838C196.659 122.213 196.387 121.5 196.286 120.754C196.185 120.008 196.256 119.248 196.494 118.534C197.015 117.054 198.099 115.839 199.511 115.154C202.306 113.669 206.352 113.552 208.797 115.797C209.448 116.376 209.95 117.104 210.26 117.918C210.569 118.733 210.677 119.61 210.574 120.475C210.574 120.651 210.843 120.686 210.867 120.475C210.993 119.683 210.937 118.872 210.704 118.104C210.471 117.336 210.067 116.632 209.522 116.043Z" fill="#221817"/>
<path d="M182.343 116.609C180.83 116.066 179.188 115.989 177.63 116.39C176.073 116.79 174.672 117.648 173.607 118.854C172.988 119.575 172.558 120.439 172.356 121.368C172.234 121.814 172.206 122.28 172.275 122.738C172.343 123.195 172.506 123.633 172.754 124.023C172.835 124.14 173.058 124.081 172.999 123.918C172.844 123.542 172.734 123.15 172.672 122.748C172.605 122.361 172.605 121.966 172.672 121.579C172.82 120.792 173.144 120.048 173.619 119.404C174.534 118.16 175.826 117.245 177.303 116.796C178.754 116.327 180.312 116.294 181.782 116.702C183.244 117.145 184.534 118.027 185.477 119.228C186.587 120.583 187.205 122.273 187.232 124.023C187.232 124.128 187.395 124.117 187.395 124.023C187.397 122.422 186.916 120.858 186.015 119.535C185.113 118.212 183.834 117.192 182.343 116.609Z" fill="#221817"/>
<path d="M152.33 345.48L152 341.07L154.45 340.92C154.866 340.92 155.278 340.834 155.66 340.67C155.951 340.521 156.185 340.283 156.33 339.99C156.494 339.633 156.573 339.243 156.56 338.85V324H162.08V338.76C162.114 339.964 161.857 341.158 161.33 342.24C160.826 343.183 160.044 343.947 159.09 344.43C157.935 344.99 156.673 345.297 155.39 345.33L152.33 345.48Z" fill="#0F1323"/>
<path d="M171.07 345.511C169.98 345.557 168.897 345.316 167.93 344.811C167.092 344.328 166.441 343.578 166.08 342.681C165.635 341.548 165.424 340.337 165.46 339.121V330.391H170.84V339.241C170.829 339.65 170.897 340.057 171.04 340.441C171.153 340.741 171.365 340.995 171.64 341.161C171.965 341.335 172.332 341.417 172.7 341.401C173.15 341.411 173.594 341.293 173.98 341.061C174.361 340.816 174.666 340.469 174.86 340.061C175.089 339.587 175.202 339.066 175.19 338.541V330.391H180.53V345.151H175.24V342.451H175.72C175.335 343.367 174.697 344.155 173.88 344.721C173.045 345.262 172.065 345.537 171.07 345.511Z" fill="#0F1323"/>
<path d="M183.61 345.151V330.391H188.84V332.971H188.51C188.779 332.386 189.156 331.857 189.62 331.411C190.094 330.971 190.652 330.631 191.26 330.411C191.926 330.164 192.631 330.042 193.34 330.051C194.321 330.023 195.286 330.303 196.1 330.851C196.904 331.44 197.494 332.276 197.78 333.231H197.36C197.825 332.262 198.559 331.448 199.474 330.884C200.388 330.32 201.446 330.031 202.52 330.051C203.509 330.013 204.487 330.259 205.34 330.761C206.108 331.263 206.694 331.999 207.01 332.861C207.415 334.009 207.601 335.224 207.56 336.441V345.171H202.22V336.591C202.27 335.946 202.135 335.301 201.83 334.731C201.677 334.531 201.475 334.374 201.244 334.275C201.013 334.175 200.76 334.136 200.51 334.161C200.08 334.148 199.657 334.271 199.3 334.511C198.954 334.765 198.687 335.111 198.53 335.511C198.336 336.042 198.244 336.605 198.26 337.171V345.171H192.84V336.591C192.89 335.948 192.762 335.305 192.47 334.731C192.32 334.531 192.12 334.373 191.89 334.273C191.661 334.173 191.409 334.135 191.16 334.161C190.721 334.151 190.289 334.273 189.92 334.511C189.562 334.752 189.292 335.103 189.15 335.511C188.977 336.047 188.896 336.608 188.91 337.171V345.171L183.61 345.151Z" fill="#0F1323"/>
<path d="M210.61 350.552V330.392H215.84V333.062H215.54C215.838 332.138 216.469 331.358 217.31 330.872C218.211 330.315 219.251 330.024 220.31 330.032C221.499 330.013 222.667 330.344 223.67 330.982C224.667 331.63 225.458 332.549 225.95 333.632C226.523 334.935 226.8 336.349 226.76 337.772C226.796 339.186 226.516 340.59 225.94 341.882C225.449 342.973 224.663 343.904 223.67 344.572C222.668 345.211 221.498 345.538 220.31 345.512C219.256 345.534 218.217 345.261 217.31 344.722C216.492 344.262 215.857 343.534 215.51 342.662H215.9V350.552H210.61ZM218.61 341.552C218.988 341.565 219.364 341.492 219.71 341.34C220.057 341.188 220.364 340.959 220.61 340.672C221.121 339.798 221.39 338.804 221.39 337.792C221.39 336.78 221.121 335.786 220.61 334.912C220.365 334.623 220.058 334.394 219.711 334.239C219.365 334.085 218.989 334.011 218.61 334.022C218.232 334.013 217.856 334.089 217.51 334.242C217.164 334.396 216.857 334.625 216.61 334.912C216.1 335.786 215.831 336.78 215.831 337.792C215.831 338.804 216.1 339.798 216.61 340.672C216.865 340.958 217.18 341.182 217.533 341.329C217.886 341.477 218.268 341.542 218.65 341.522L218.61 341.552Z" fill="#0F1323"/>
</svg>
