<svg width="30" height="27" viewBox="0 0 30 27" fill="none" xmlns="http://www.w3.org/2000/svg">
<path fill-rule="evenodd" clip-rule="evenodd" d="M17.9167 4.20927V1.36709C17.9167 0.254007 16.61 -0.333799 15.7882 0.409971L9.80469 5.82823C9.16919 6.40406 8.34521 6.72266 7.49104 6.72282H4.0625C1.94792 6.72282 0.234375 8.45166 0.234375 10.5851V16.1027C0.234375 17.127 0.637694 18.1094 1.35561 18.8338C2.07352 19.5581 3.04722 19.965 4.0625 19.965H7.35651L17.9167 4.20927ZM11.1142 22.0456L15.7882 26.2786C16.61 27.0224 17.9167 26.4345 17.9167 25.3207V11.8964L11.1142 22.0456ZM20.9542 7.36446C20.9992 7.44372 21.0561 7.51646 21.1235 7.57988L21.1352 7.59165C21.2432 7.702 21.3468 7.81661 21.4458 7.93521C21.6573 8.18902 21.9446 8.57157 22.2333 9.07183C22.8116 10.0709 23.3854 11.5216 23.3854 13.3439C23.3842 14.8461 22.9865 16.3209 22.2333 17.6167C21.9446 18.1162 21.6566 18.4988 21.4451 18.7533C21.3654 18.8494 21.2828 18.9429 21.1972 19.0336L21.1352 19.0969L21.1235 19.1087L21.1221 19.1101C20.9495 19.2775 20.8491 19.5066 20.8425 19.7481C20.836 19.9895 20.9238 20.2238 21.0871 20.4004C21.2504 20.577 21.476 20.6818 21.7151 20.692C21.9543 20.7022 22.1878 20.617 22.3653 20.455L22.3675 20.4528L22.3711 20.4491L22.3814 20.4395L22.3974 20.4241L22.4112 20.4101C22.5614 20.2586 22.705 20.1005 22.8415 19.9363C23.1083 19.6156 23.4583 19.1469 23.8083 18.5437C24.5061 17.3357 25.2083 15.5679 25.2083 13.3439C25.2071 11.5163 24.7239 9.72187 23.8083 8.14488C23.4591 7.54089 23.1083 7.073 22.8415 6.75224C22.708 6.59187 22.5943 6.46754 22.5119 6.38073C22.4701 6.33708 22.4368 6.30299 22.412 6.27847L22.3814 6.2483L22.3793 6.24654L22.3653 6.23285C22.2776 6.15066 22.1746 6.08671 22.0624 6.04466C22.0005 6.02148 21.9364 6.0052 21.8713 5.99602L20.9542 7.36446ZM23.8909 2.98289C23.9315 3.0478 23.9803 3.10786 24.0366 3.1614L24.038 3.16287L24.0402 3.16508L24.0635 3.18862C24.2447 3.37646 24.4174 3.57235 24.5812 3.77569C25.0662 4.38261 25.4971 5.03154 25.869 5.71494C26.811 7.43348 27.7604 9.99437 27.7604 13.3439C27.7604 16.6934 26.811 19.2543 25.869 20.9729C25.4971 21.656 25.0662 22.3047 24.5812 22.9114C24.4084 23.1262 24.2662 23.2851 24.1707 23.3881C24.1221 23.4391 24.0864 23.4759 24.0635 23.4985L24.0402 23.522L24.038 23.5242L24.0366 23.5249C23.8663 23.6933 23.7681 23.9222 23.7632 24.1627C23.7582 24.4031 23.8468 24.636 24.01 24.8113C24.1732 24.9867 24.398 25.0905 24.6362 25.1006C24.8743 25.1107 25.107 25.0263 25.2842 24.8653C25.3452 24.8039 25.3908 24.7579 25.424 24.7246C25.4206 24.7281 25.4173 24.7316 25.4139 24.7351C25.3544 24.7952 25.2856 24.8646 25.2856 24.8646L25.2878 24.8631L25.2922 24.8587L25.3053 24.8455L25.3491 24.8028C25.3708 24.7803 25.3924 24.7578 25.4139 24.7351C25.4919 24.6564 25.5538 24.5939 25.424 24.7246C25.6225 24.515 25.8128 24.2977 25.9944 24.073C26.5483 23.3817 27.0402 22.6422 27.4644 21.8631C28.5275 19.9209 29.5833 17.0569 29.5833 13.3439C29.5833 9.63095 28.5275 6.76622 27.4644 4.8255C27.0402 4.04612 26.5483 3.30631 25.9944 2.6148C25.7917 2.36319 25.621 2.17118 25.4971 2.0395C25.4349 1.97328 25.3858 1.92179 25.3498 1.885L25.306 1.84233L25.2922 1.82909L25.2878 1.82468L25.2856 1.82321L25.2842 1.82174C25.1556 1.70034 24.996 1.62012 24.8253 1.58866L23.8909 2.98289Z" fill="white"/>
</svg>
