<svg width="188" height="297" viewBox="0 0 188 297" fill="none" xmlns="http://www.w3.org/2000/svg">
<path fill-rule="evenodd" clip-rule="evenodd" d="M134.719 21.7423C90.0863 -22.2976 19.1974 33.2782 51.3117 87.1326C67.0662 113.552 57.3122 147.784 29.9986 161.932C-25.6782 190.772 5.27152 275.365 66.414 261.464C96.4088 254.645 125.952 274.5 130.967 304.849C141.19 366.712 231.206 363.418 236.88 300.973C239.664 270.339 267.676 248.377 298.089 252.986C360.084 262.38 384.768 175.751 327.132 151.058C298.857 138.945 286.627 105.517 300.408 78.0167C328.501 21.9589 253.739 -28.2866 212.444 18.898C192.186 42.0454 156.615 43.3471 134.719 21.7423ZM206.155 198.754C225.4 183.666 228.77 155.833 213.682 136.587C198.594 117.342 170.762 113.972 151.516 129.06C132.271 144.148 128.901 171.981 143.989 191.226C159.077 210.471 186.909 213.842 206.155 198.754Z" fill="#112448"/>
</svg>
