<svg width="247" height="275" viewBox="0 0 247 275" fill="none" xmlns="http://www.w3.org/2000/svg">
<path fill-rule="evenodd" clip-rule="evenodd" d="M32.8967 19.5439C-8.85578 -28.3079 -84.6515 22.4685 -56.2843 79.2871C-42.3681 107.161 -54.8055 140.998 -83.4608 153.225C-141.873 178.147 -117.004 265.923 -54.2001 256.502C-23.3903 251.881 4.9479 274.166 7.72058 305.197C13.3725 368.451 104.538 371.924 114.986 309.283C120.111 278.553 150.062 258.488 180.431 265.44C242.336 279.611 273.811 193.981 217.464 164.687C189.822 150.317 179.995 115.631 195.991 88.8968C228.599 34.4008 156.885 -21.9945 111.613 22.5424C89.4043 44.3909 53.3793 43.0186 32.8967 19.5439ZM91.6748 203.721C112.252 189.936 117.759 162.079 103.974 141.502C90.1885 120.924 62.3321 115.418 41.7546 129.203C21.1771 142.988 15.6707 170.845 29.4558 191.422C43.2409 212 71.0973 217.506 91.6748 203.721Z" fill="#DCE8FD"/>
</svg>
