<svg width="36" height="36" viewBox="0 0 36 36" fill="none" xmlns="http://www.w3.org/2000/svg">
<path d="M18.7882 5.40997C19.61 4.6662 20.9167 5.25401 20.9167 6.36709V30.3207C20.9167 31.4345 19.61 32.0224 18.7882 31.2786L12.8047 25.8596C12.1692 25.2838 11.3452 24.9652 10.491 24.965H7.0625C6.04722 24.965 5.07352 24.5581 4.35561 23.8338C3.63769 23.1094 3.23438 22.127 3.23438 21.1027V15.5851C3.23438 13.4517 4.94792 11.7228 7.0625 11.7228H10.491C11.3452 11.7227 12.1692 11.4041 12.8047 10.8282L18.7882 5.40997ZM26.9965 6.8644C27.1617 6.68656 27.3901 6.58217 27.6316 6.57417C27.873 6.56617 28.1077 6.65521 28.2842 6.82174L28.2856 6.82321L28.2878 6.82468L28.2922 6.82909L28.306 6.84233L28.3498 6.885C28.3858 6.92179 28.4349 6.97328 28.4971 7.0395C28.621 7.17118 28.7917 7.36319 28.9944 7.6148C29.5483 8.30631 30.0402 9.04612 30.4644 9.8255C31.5275 11.7662 32.5833 14.6309 32.5833 18.3439C32.5833 22.0569 31.5275 24.9209 30.4644 26.8631C30.0402 27.6422 29.5483 28.3817 28.9944 29.073C28.7901 29.3258 28.5747 29.5693 28.3491 29.8028L28.3053 29.8455L28.2922 29.8587L28.2878 29.8631L28.2856 29.8646C28.2856 29.8646 28.7669 29.3791 28.2842 29.8653C28.107 30.0263 27.8743 30.1107 27.6362 30.1006C27.398 30.0905 27.1732 29.9867 27.01 29.8113C26.8468 29.636 26.7582 29.4031 26.7632 29.1627C26.7681 28.9222 26.8663 28.6933 27.0366 28.5249L27.038 28.5242L27.0402 28.522L27.0635 28.4985C27.0864 28.4759 27.1221 28.4391 27.1707 28.3881C27.2662 28.2851 27.4084 28.1262 27.5812 27.9114C28.0662 27.3047 28.4971 26.656 28.869 25.9729C29.811 24.2543 30.7604 21.6934 30.7604 18.3439C30.7604 14.9944 29.811 12.4335 28.869 10.7149C28.4971 10.0315 28.0662 9.38261 27.5812 8.77569C27.4174 8.57235 27.2447 8.37646 27.0635 8.18862L27.0402 8.16508L27.038 8.16287L27.0366 8.1614C26.861 7.99447 26.7583 7.76415 26.7507 7.5209C26.7432 7.27765 26.8316 7.04204 26.9965 6.8644ZM24.0769 11.2814C24.1583 11.1928 24.2562 11.1213 24.365 11.0709C24.4739 11.0206 24.5915 10.9923 24.7111 10.9878C24.8308 10.9833 24.9501 11.0026 25.0624 11.0447C25.1746 11.0867 25.2776 11.1507 25.3653 11.2329L25.412 11.2785L25.3653 11.2343L25.3675 11.2358L25.3711 11.2395L25.3814 11.2483L25.412 11.2785C25.4368 11.303 25.4701 11.3371 25.5119 11.3807C25.5943 11.4675 25.708 11.5919 25.8415 11.7522C26.1083 12.073 26.4591 12.5409 26.8083 13.1449C27.7239 14.7219 28.2071 16.5163 28.2083 18.3439C28.2083 20.5679 27.5061 22.3357 26.8083 23.5437C26.4583 24.1469 26.1083 24.6156 25.8415 24.9363C25.705 25.1005 25.5614 25.2586 25.4112 25.4101L25.3974 25.4241L25.3814 25.4395L25.3711 25.4491L25.3675 25.4528L25.3653 25.455C25.1878 25.617 24.9543 25.7022 24.7151 25.692C24.476 25.6818 24.2504 25.577 24.0871 25.4004C23.9238 25.2238 23.836 24.9895 23.8425 24.7481C23.8491 24.5066 23.9495 24.2775 24.1221 24.1101L24.1235 24.1087L24.1352 24.0969L24.1972 24.0336C24.2828 23.9429 24.3654 23.8494 24.4451 23.7533C24.6566 23.4988 24.9446 23.1162 25.2333 22.6167C25.9865 21.3209 26.3842 19.8461 26.3854 18.3439C26.3854 16.5216 25.8116 15.0709 25.2333 14.0718C24.9446 13.5716 24.6573 13.189 24.4458 12.9352C24.3468 12.8166 24.2432 12.702 24.1352 12.5917L24.1228 12.5791L24.1235 12.5799C23.9469 12.4138 23.8428 12.1838 23.834 11.9404C23.8253 11.6969 23.9126 11.4599 24.0769 11.2814Z" fill="white"/>
</svg>
