<svg width="450" height="137" viewBox="0 0 450 137" fill="none" xmlns="http://www.w3.org/2000/svg">
<path d="M0.000191291 191.143C8.47775 158.688 23.2648 128.22 43.5171 101.48C63.7694 74.7392 89.0903 52.2496 118.034 35.2949C146.978 18.3401 178.978 7.25233 212.207 2.66453C245.435 -1.92327 279.243 0.0787653 311.698 8.55632C344.153 17.0339 374.62 31.821 401.361 52.0733C428.101 72.3255 450.591 97.6464 467.546 126.59C484.5 155.534 495.588 187.534 500.176 220.763C504.764 253.992 502.762 287.799 494.284 320.254L413.102 299.048C418.795 277.254 420.139 254.552 417.058 232.239C413.978 209.925 406.532 188.436 395.147 169C383.761 149.564 368.659 132.561 350.703 118.961C332.746 105.361 312.286 95.4313 290.492 89.7385C268.698 84.0457 245.996 82.7013 223.682 85.7821C201.369 88.8629 179.88 96.3085 160.444 107.694C141.008 119.079 124.004 134.181 110.405 152.138C96.805 170.095 86.8752 190.554 81.1824 212.348L0.000191291 191.143Z" fill="#DCE8FD"/>
</svg>
