<svg width="107" height="30" viewBox="0 0 107 30" fill="none" xmlns="http://www.w3.org/2000/svg">
<path d="M70.0451 11.9166C70.0451 10.7499 70.4078 9.78799 71.1324 9.02923C71.8571 8.27123 72.7567 7.89184 73.8306 7.89184C74.0453 7.89184 74.2061 7.90647 74.3137 7.93571V5.35467C74.3137 4.21728 74.6764 3.25458 75.4011 2.46733C76.1257 1.65085 77.0254 1.24224 78.0992 1.24224C78.6093 1.24224 79.0924 1.3592 79.5485 1.59237C80.0316 1.7963 80.4347 2.08795 80.757 2.46733C81.1055 2.81748 81.374 3.25459 81.5617 3.78019C81.7771 4.27578 81.884 4.8006 81.884 5.35467V7.93571C81.9917 7.90647 82.166 7.89184 82.4075 7.89184C83.4545 7.89184 84.3406 8.27123 85.0653 9.02923C85.8169 9.78799 86.193 10.7499 86.193 11.9166C86.193 13.0539 85.8169 14.0166 85.0653 14.8039C84.3406 15.5626 83.4545 15.9412 82.4075 15.9412H81.884V24.9972C81.884 26.1638 81.5086 27.1404 80.757 27.9284C80.0316 28.7156 79.1462 29.1089 78.0992 29.1089C77.0254 29.1089 76.1257 28.7156 75.4011 27.9284C74.6764 27.1404 74.3137 26.1638 74.3137 24.9972V15.9412H73.8306C72.7567 15.9412 71.8571 15.5626 71.1324 14.8039C70.4078 14.0166 70.0451 13.0539 70.0451 11.9166Z" fill="#F8C741"/>
<path d="M0 10.6743C0 9.50769 0.361977 8.54501 1.08734 7.78701C1.812 7.02824 2.71091 6.64885 3.7848 6.64885C4.00014 6.64885 4.16094 6.66348 4.26861 6.69272V4.11168C4.26861 2.97429 4.63058 2.01235 5.35524 1.22434C6.0806 0.40786 6.97952 0 8.0534 0C8.56343 0 9.04724 0.116209 9.50342 0.34938C9.98653 0.554078 10.3889 0.845729 10.7112 1.22434C11.0604 1.57449 11.3289 2.01235 11.5166 2.53718C11.7312 3.03276 11.8389 3.55761 11.8389 4.11168V6.69272C11.9466 6.66348 12.1208 6.64885 12.3624 6.64885C13.4093 6.64885 14.2955 7.02824 15.0202 7.78701C15.7717 8.54501 16.1479 9.50769 16.1479 10.6743C16.1479 11.8117 15.7717 12.7736 15.0202 13.5609C14.2955 14.3196 13.4093 14.6983 12.3624 14.6983H11.8389C10.8514 18.0542 11.4769 20.2682 12.3624 21.0593C14.185 22.6861 18.4564 18.2274 18.4564 25.5188C18.4564 29.8952 8.8744 30.1545 5.97719 26.9278C3.35553 24.0074 3.58929 18.7791 4.26861 14.6983H3.7848C2.71091 14.6983 1.812 14.3196 1.08734 13.5609C0.361977 12.7736 0 11.8117 0 10.6743Z" fill="#F8C741"/>
<path d="M107 26.3091C107 27.0964 106.812 27.7674 106.436 28.3215C106.061 28.8463 105.51 29.1087 104.786 29.1087C104.249 29.1087 103.712 28.9048 103.175 28.4961C102.665 28.059 102.316 27.5927 102.128 27.0963C101.296 27.7674 100.369 28.2776 99.3489 28.6277C98.3558 28.9486 97.3896 29.1087 96.4496 29.1087C95.1073 29.1087 93.886 28.8317 92.7852 28.2776C91.6844 27.7235 90.7451 26.9655 89.9667 26.0028C89.1882 25.0409 88.5839 23.9174 88.1546 22.6345C87.7247 21.3509 87.5101 19.9804 87.5101 18.5221V12.0041C87.5101 11.45 87.6043 10.9252 87.792 10.4288C88.0066 9.93325 88.2751 9.51076 88.5974 9.16062C88.9466 8.78124 89.349 8.48959 89.8051 8.28566C90.262 8.05249 90.7452 7.93553 91.2552 7.93553C91.7652 7.93553 92.2483 8.05249 92.7045 8.28566C93.1614 8.48959 93.5503 8.78124 93.8726 9.16062C94.2218 9.51076 94.4903 9.93325 94.678 10.4288C94.8926 10.9252 95.0003 11.45 95.0003 12.0041L95.0803 18.5221C95.0803 19.1931 95.2822 19.7911 95.6846 20.3159C96.0876 20.8115 96.5977 21.0593 97.2146 21.0593C97.8323 21.0593 98.3558 20.8115 98.7851 20.3159C99.2151 19.7911 99.4297 19.1931 99.4297 18.5221L99.5105 12.0041C99.5105 11.45 99.604 10.9252 99.7924 10.4288C100.007 9.93325 100.275 9.51076 100.598 9.16062C100.946 8.78124 101.349 8.48959 101.806 8.28566C102.262 8.05249 102.745 7.93553 103.256 7.93553C103.766 7.93553 104.249 8.05249 104.705 8.28566C105.161 8.48959 105.551 8.78124 105.873 9.16062C106.221 9.51076 106.49 9.93325 106.678 10.4288C106.893 10.9252 107 11.45 107 12.0041V26.3091Z" fill="#F8C741"/>
<path d="M93.7167 3.22978C93.7167 5.01358 92.3857 6.45954 90.7438 6.45954C89.1018 6.45954 87.7707 5.01358 87.7707 3.22978C87.7707 1.44599 89.1018 0 90.7438 0C92.3857 0 93.7167 1.44599 93.7167 3.22978Z" fill="#F8C741"/>
<path d="M106.167 3.22978C106.167 5.01358 104.836 6.45954 103.194 6.45954C101.552 6.45954 100.221 5.01358 100.221 3.22978C100.221 1.44599 101.552 0 103.194 0C104.836 0 106.167 1.44599 106.167 3.22978Z" fill="#F8C741"/>
<path d="M40.1147 5.35448C40.1147 4.2171 40.4767 3.25439 41.202 2.46715C41.9267 1.65066 42.8256 1.24205 43.8995 1.24205C44.4095 1.24205 44.8933 1.35901 45.3495 1.59218C45.8326 1.79611 46.235 2.08776 46.5573 2.46715C46.9065 2.81729 47.175 3.2544 47.3627 3.77923C47.5773 4.27558 47.685 4.80041 47.685 5.35448V24.997C47.685 26.1637 47.3089 27.1402 46.5573 27.9275C45.8326 28.7155 44.9465 29.1087 43.8995 29.1087C42.8256 29.1087 41.9267 28.7155 41.202 27.9275C40.4767 27.1402 40.1147 26.1637 40.1147 24.997V5.35448Z" fill="#F8C741"/>
<path d="M18.4564 18.5221C18.4564 17.0638 18.6845 15.6933 19.1407 14.4097C19.6245 13.1269 20.2819 12.0041 21.1142 11.0414C21.9466 10.0795 22.9262 9.32069 24.054 8.76662C25.2079 8.21255 26.4567 7.93553 27.7991 7.93553C28.7384 7.93553 29.7046 8.13945 30.6984 8.54807C31.6915 8.92746 32.497 9.40843 33.1147 9.99174C33.3293 9.46691 33.6778 9.01443 34.1616 8.63581C34.6716 8.22718 35.1951 8.02324 35.7321 8.02324C36.4567 8.02324 37.0071 8.30029 37.3825 8.85436C37.7587 9.37919 37.9464 10.0356 37.9464 10.8228V26.3091C37.9464 27.0964 37.7587 27.7674 37.3825 28.3215C37.0071 28.8463 36.4567 29.1087 35.7321 29.1087C35.1951 29.1087 34.6851 28.8901 34.2013 28.453C33.7182 28.0152 33.3427 27.5635 33.0743 27.0963C32.2958 27.8551 31.45 28.3799 30.5369 28.6716C29.6514 28.9632 28.7384 29.1087 27.7991 29.1087C26.4567 29.1087 25.2079 28.8317 24.054 28.2776C22.9262 27.7235 21.9466 26.9655 21.1142 26.0028C20.2819 25.0401 19.6245 23.9174 19.1407 22.6345C18.6845 21.3509 18.4564 19.9804 18.4564 18.5221ZM26.0268 18.5221C26.0268 19.1931 26.2286 19.7911 26.631 20.3159C27.034 20.8115 27.5441 21.0593 28.1611 21.0593C28.7787 21.0593 29.3022 20.8115 29.7315 20.3159C30.1615 19.7911 30.3761 19.1931 30.3761 18.5221C30.3761 17.8511 30.1615 17.2685 29.7315 16.7722C29.3022 16.2474 28.7787 15.9849 28.1611 15.9849C27.5441 15.9849 27.034 16.2474 26.631 16.7722C26.2286 17.2685 26.0268 17.8511 26.0268 18.5221Z" fill="#F8C741"/>
<path d="M62.8809 8.81049C63.2839 8.46035 63.7267 8.22717 64.2098 8.1102C64.6929 7.96476 65.176 7.93551 65.6598 8.02324C66.1429 8.08173 66.5991 8.25642 67.0283 8.54807C67.4583 8.81049 67.8337 9.17524 68.156 9.64159C68.7737 10.575 69.0018 11.5662 68.841 12.6167C68.7065 13.6371 68.2099 14.4974 67.3506 15.1977L64.9748 17.0784L68.3176 22.4591C68.6392 22.8969 68.868 23.3779 69.0018 23.9027C69.1626 24.4283 69.2165 24.9532 69.1627 25.478C69.1357 26.0028 69.0018 26.513 68.7603 27.0094C68.5456 27.4757 68.2234 27.8843 67.7941 28.2337C66.9618 28.934 66.0487 29.2111 65.0555 29.0648C64.0893 28.8902 63.2839 28.3507 62.6393 27.4465L59.1357 21.6719C58.4111 22.2552 57.9549 22.6199 57.7665 22.7654C57.5788 22.8823 57.4449 22.9701 57.3641 23.0278V24.997C57.3641 26.1637 56.988 27.1402 56.2364 27.9275C55.5117 28.7155 54.6256 29.1087 53.5786 29.1087C52.5047 29.1087 51.6058 28.7155 50.8805 27.9275C50.1558 27.1402 49.7938 26.1637 49.7938 24.997V5.35448C49.7938 4.2171 50.1558 3.25439 50.8805 2.46715C51.6058 1.65066 52.5047 1.24205 53.5786 1.24205C54.0886 1.24205 54.5724 1.35901 55.0286 1.59218C55.5117 1.79611 55.9141 2.08776 56.2364 2.46715C56.5856 2.81729 56.8541 3.2544 57.0418 3.77923C57.2565 4.27558 57.3641 4.80041 57.3641 5.35448V13.1853L62.8809 8.81049Z" fill="#F8C741"/>
</svg>
