<svg width="105" height="29" viewBox="0 0 105 29" fill="none" xmlns="http://www.w3.org/2000/svg">
<path d="M68.7359 11.6938C68.7359 10.549 69.0918 9.60504 69.8029 8.86045C70.514 8.11662 71.3968 7.74433 72.4506 7.74433C72.6612 7.74433 72.819 7.75869 72.9247 7.78738V5.25458C72.9247 4.13846 73.2806 3.19374 73.9917 2.42122C74.7028 1.61999 75.5856 1.21902 76.6394 1.21902C77.1399 1.21902 77.614 1.33379 78.0617 1.56261C78.5357 1.76272 78.9312 2.04892 79.2475 2.42122C79.5895 2.76481 79.853 3.19376 80.0372 3.70953C80.2485 4.19586 80.3535 4.71087 80.3535 5.25458V7.78738C80.4591 7.75869 80.6301 7.74433 80.8672 7.74433C81.8946 7.74433 82.7642 8.11662 83.4753 8.86045C84.2128 9.60504 84.5819 10.549 84.5819 11.6938C84.5819 12.8099 84.2128 13.7546 83.4753 14.5272C82.7642 15.2717 81.8946 15.6433 80.8672 15.6433H80.3535V24.53C80.3535 25.6748 79.9851 26.6331 79.2475 27.4064C78.5357 28.1789 77.6668 28.5648 76.6394 28.5648C75.5856 28.5648 74.7028 28.1789 73.9917 27.4064C73.2806 26.6331 72.9247 25.6748 72.9247 24.53V15.6433H72.4506C71.3968 15.6433 70.514 15.2717 69.8029 14.5272C69.0918 13.7546 68.7359 12.8099 68.7359 11.6938Z" fill="#000D26"/>
<path d="M0 10.4748C0 9.32998 0.355211 8.38529 1.06702 7.64146C1.77813 6.89687 2.66024 6.52458 3.71405 6.52458C3.92537 6.52458 4.08316 6.53893 4.18882 6.56763V4.03482C4.18882 2.9187 4.54403 1.97474 5.25514 1.20146C5.96695 0.400236 6.84906 0 7.90287 0C8.40336 0 8.87813 0.114036 9.32579 0.342849C9.79987 0.543721 10.1947 0.829921 10.511 1.20146C10.8537 1.54506 11.1171 1.97474 11.3013 2.48975C11.512 2.97608 11.6176 3.49111 11.6176 4.03482V6.56763C11.7233 6.53893 11.8943 6.52458 12.1313 6.52458C13.1587 6.52458 14.0283 6.89687 14.7394 7.64146C15.4769 8.38529 15.8461 9.32998 15.8461 10.4748C15.8461 11.5909 15.4769 12.5349 14.7394 13.3074C14.0283 14.052 13.1587 14.4235 12.1313 14.4235H11.6176C10.6486 17.7168 11.2624 19.8893 12.1313 20.6657C13.9199 22.2621 18.1115 17.8867 18.1115 25.0418C18.1115 29.3364 8.70852 29.5909 5.86546 26.4245C3.29281 23.5587 3.5222 18.4281 4.18882 14.4235H3.71405C2.66024 14.4235 1.77813 14.052 1.06702 13.3074C0.355211 12.5349 0 11.5909 0 10.4748Z" fill="#000D26"/>
<path d="M105 25.8174C105 26.5899 104.816 27.2484 104.447 27.7921C104.078 28.3071 103.538 28.5646 102.827 28.5646C102.3 28.5646 101.773 28.3645 101.246 27.9635C100.746 27.5346 100.403 27.0769 100.219 26.5899C99.4022 27.2484 98.4929 27.749 97.492 28.0926C96.5174 28.4075 95.5693 28.5646 94.6468 28.5646C93.3296 28.5646 92.1312 28.2927 91.0509 27.749C89.9707 27.2053 89.049 26.4615 88.285 25.5168C87.5211 24.5728 86.9281 23.4703 86.5069 22.2115C86.085 20.9519 85.8744 19.6069 85.8744 18.1759V11.7797C85.8744 11.236 85.9668 10.721 86.151 10.2339C86.3616 9.74758 86.6251 9.33299 86.9414 8.98939C87.2841 8.6171 87.6789 8.3309 88.1265 8.13079C88.5749 7.90197 89.049 7.7872 89.5495 7.7872C90.05 7.7872 90.524 7.90197 90.9717 8.13079C91.42 8.3309 91.8017 8.6171 92.118 8.98939C92.4607 9.33299 92.7241 9.74758 92.9083 10.2339C93.1189 10.721 93.2246 11.236 93.2246 11.7797L93.3031 18.1759C93.3031 18.8344 93.5012 19.4211 93.8961 19.9362C94.2916 20.4225 94.7921 20.6657 95.3975 20.6657C96.0037 20.6657 96.5174 20.4225 96.9386 19.9362C97.3606 19.4211 97.5712 18.8344 97.5712 18.1759L97.6504 11.7797C97.6504 11.236 97.7422 10.721 97.9271 10.2339C98.1377 9.74758 98.4012 9.33299 98.7175 8.98939C99.0595 8.6171 99.455 8.3309 99.9027 8.13079C100.35 7.90197 100.824 7.7872 101.326 7.7872C101.826 7.7872 102.3 7.90197 102.748 8.13079C103.195 8.3309 103.578 8.6171 103.894 8.98939C104.236 9.33299 104.5 9.74758 104.684 10.2339C104.895 10.721 105 11.236 105 11.7797V25.8174Z" fill="#000D26"/>
<path d="M91.965 3.16941C91.965 4.91987 90.6589 6.33881 89.0476 6.33881C87.4363 6.33881 86.1301 4.91987 86.1301 3.16941C86.1301 1.41896 87.4363 0 89.0476 0C90.6589 0 91.965 1.41896 91.965 3.16941Z" fill="#000D26"/>
<path d="M104.183 3.16941C104.183 4.91987 102.876 6.33881 101.265 6.33881C99.6538 6.33881 98.3477 4.91987 98.3477 3.16941C98.3477 1.41896 99.6538 0 101.265 0C102.876 0 104.183 1.41896 104.183 3.16941Z" fill="#000D26"/>
<path d="M39.3649 5.2544C39.3649 4.13827 39.7201 3.19356 40.4319 2.42103C41.143 1.61981 42.0251 1.21884 43.0789 1.21884C43.5794 1.21884 44.0542 1.33361 44.5019 1.56242C44.976 1.76254 45.3708 2.04874 45.6871 2.42103C46.0298 2.76463 46.2932 3.19357 46.4774 3.70859C46.688 4.19567 46.7937 4.71068 46.7937 5.2544V24.5298C46.7937 25.6746 46.4246 26.6329 45.6871 27.4054C44.9759 28.1787 44.1063 28.5646 43.0789 28.5646C42.0251 28.5646 41.143 28.1787 40.4319 27.4054C39.7201 26.6329 39.3649 25.6746 39.3649 24.5298V5.2544Z" fill="#000D26"/>
<path d="M18.1115 18.1759C18.1115 16.7449 18.3353 15.3999 18.783 14.1403C19.2577 12.8815 19.9028 11.7797 20.7196 10.835C21.5363 9.89105 22.4977 9.14647 23.6043 8.60276C24.7367 8.05905 25.9622 7.7872 27.2795 7.7872C28.2012 7.7872 29.1493 7.98731 30.1246 8.3883C31.0992 8.76059 31.8895 9.23257 32.4957 9.80498C32.7063 9.28996 33.0483 8.84593 33.5231 8.47439C34.0236 8.07341 34.5373 7.87327 35.0642 7.87327C35.7753 7.87327 36.3154 8.14514 36.6838 8.68886C37.0529 9.20387 37.2371 9.84801 37.2371 10.6205V25.8174C37.2371 26.5899 37.0529 27.2484 36.6838 27.7921C36.3154 28.3071 35.7753 28.5646 35.0642 28.5646C34.5373 28.5646 34.0368 28.3501 33.562 27.9212C33.0879 27.4915 32.7195 27.0482 32.4561 26.5899C31.6921 27.3345 30.8621 27.8495 29.9661 28.1357C29.0972 28.4219 28.2012 28.5646 27.2795 28.5646C25.9622 28.5646 24.7367 28.2927 23.6043 27.749C22.4977 27.2053 21.5363 26.4615 20.7196 25.5168C19.9028 24.5721 19.2577 23.4703 18.783 22.2115C18.3353 20.9519 18.1115 19.6069 18.1115 18.1759ZM25.5403 18.1759C25.5403 18.8344 25.7384 19.4211 26.1332 19.9362C26.5287 20.4225 27.0292 20.6657 27.6347 20.6657C28.2408 20.6657 28.7545 20.4225 29.1758 19.9362C29.5977 19.4211 29.8083 18.8344 29.8083 18.1759C29.8083 17.5174 29.5977 16.9458 29.1758 16.4587C28.7545 15.9437 28.2408 15.6861 27.6347 15.6861C27.0292 15.6861 26.5287 15.9437 26.1332 16.4587C25.7384 16.9458 25.5403 17.5174 25.5403 18.1759Z" fill="#000D26"/>
<path d="M61.7055 8.64581C62.101 8.30221 62.5355 8.0734 63.0096 7.95861C63.4837 7.81589 63.9577 7.78719 64.4325 7.87327C64.9066 7.93066 65.3542 8.10209 65.7755 8.3883C66.1974 8.64581 66.5658 9.00374 66.8821 9.46137C67.4883 10.3774 67.7121 11.35 67.5543 12.3808C67.4222 13.3822 66.9349 14.2264 66.0918 14.9136L63.7603 16.7592L67.0406 22.0393C67.3562 22.469 67.5807 22.9409 67.7121 23.456C67.8699 23.9717 67.9227 24.4868 67.8699 25.0018C67.8435 25.5168 67.7121 26.0175 67.475 26.5045C67.2644 26.9622 66.9482 27.3631 66.5269 27.706C65.7101 28.3932 64.8141 28.6651 63.8396 28.5216C62.8914 28.3501 62.101 27.8208 61.4685 26.9335L58.0304 21.2668C57.3193 21.8392 56.8716 22.1971 56.6867 22.3398C56.5025 22.4546 56.3711 22.5407 56.2919 22.5974V24.5298C56.2919 25.6746 55.9228 26.6329 55.1852 27.4054C54.4741 28.1787 53.6045 28.5646 52.5771 28.5646C51.5233 28.5646 50.6412 28.1787 49.9294 27.4054C49.2183 26.6329 48.8631 25.6746 48.8631 24.5298V5.2544C48.8631 4.13827 49.2183 3.19356 49.9294 2.42103C50.6412 1.61981 51.5233 1.21884 52.5771 1.21884C53.0776 1.21884 53.5524 1.33361 54.0001 1.56242C54.4741 1.76254 54.869 2.04874 55.1852 2.42103C55.5279 2.76463 55.7914 3.19357 55.9756 3.70859C56.1862 4.19567 56.2919 4.71068 56.2919 5.2544V12.9389L61.7055 8.64581Z" fill="#000D26"/>
</svg>
